<svg xmlns="http://www.w3.org/2000/svg" xmlns:xlink="http://www.w3.org/1999/xlink" width="110" height="110" x="0" y="0" version="1.0" viewBox="0 0 110 110" xml:space="preserve" style="enable-background:new 0 0 110 110"><g id="Artboard" style="display:none"><rect style="display:inline;fill:gray;stroke:#000;stroke-miterlimit:10" width="1087" height="207" x="-180.5" y="-44.5"/></g><g id="R-Multicolor" style="display:none"><circle style="display:inline;fill:#e04f5f" cx="55" cy="55" r="55"/><g style="display:inline"><g><path style="fill:#e2e4e5" d="M87,50c0,17.673-24,37-32,37S23,67.673,23,50s14.327-27,32-27S87,32.327,87,50z"/></g><g><path style="fill:#3e3e3f" d="M59,67c0,0-4-20,20-20C79,47,81,67,59,67z"/></g><g><path style="fill:#fff" d="M23,50c0,17.67,24,37,32,37V23C37.32,23,23,32.33,23,50z M51,67c-22,0-20-20-20-20 C55,47,51,67,51,67z"/></g><g><path style="fill:#3e3e3f" d="M51,67c-22,0-20-20-20-20C55,47,51,67,51,67z"/></g></g></g><g id="Multicolor"><g><g><path style="fill:#e2e4e5" d="M87,50c0,17.673-24,37-32,37S23,67.673,23,50s14.327-27,32-27S87,32.327,87,50z"/></g><g><path style="fill:#3e3e3f" d="M59,67c0,0-4-20,20-20C79,47,81,67,59,67z"/></g><g><path style="fill:#fff" d="M23,50c0,17.67,24,37,32,37V23C37.32,23,23,32.33,23,50z M51,67c-22,0-20-20-20-20 C55,47,51,67,51,67z"/></g><g><path style="fill:#3e3e3f" d="M51,67c-22,0-20-20-20-20C55,47,51,67,51,67z"/></g></g></g><g id="Blue" style="display:none"><g style="display:inline"><g><path style="fill:#e1f5fa" d="M87,50c0,17.673-24,37-32,37S23,67.673,23,50s14.327-27,32-27S87,32.327,87,50z"/></g><g><path style="fill:#0c333d" d="M59,67c0,0-4-20,20-20C79,47,81,67,59,67z"/></g><g><path style="fill:#fff" d="M23,50c0,17.67,24,37,32,37V23C37.32,23,23,32.33,23,50z M51,67c-22,0-20-20-20-20 C55,47,51,67,51,67z"/></g><g><path style="fill:#0c333d" d="M51,67c-22,0-20-20-20-20C55,47,51,67,51,67z"/></g></g></g><g id="R-Blue" style="display:none"><circle style="display:inline;fill:#81d2eb" cx="55" cy="55" r="55"/><g style="display:inline"><g><path style="fill:#e1f5fa" d="M87,50c0,17.673-24,37-32,37S23,67.673,23,50s14.327-27,32-27S87,32.327,87,50z"/></g><g><path style="fill:#0c333d" d="M59,67c0,0-4-20,20-20C79,47,81,67,59,67z"/></g><g><path style="fill:#fff" d="M23,50c0,17.67,24,37,32,37V23C37.32,23,23,32.33,23,50z M51,67c-22,0-20-20-20-20 C55,47,51,67,51,67z"/></g><g><path style="fill:#0c333d" d="M51,67c-22,0-20-20-20-20C55,47,51,67,51,67z"/></g></g></g><g id="Green" style="display:none"><g style="display:inline"><g><path style="fill:#d7fcf9" d="M87,50c0,17.673-24,37-32,37S23,67.673,23,50s14.327-27,32-27S87,32.327,87,50z"/></g><g><path style="fill:#0a3631" d="M59,67c0,0-4-20,20-20C79,47,81,67,59,67z"/></g><g><path style="fill:#fff" d="M23,50c0,17.67,24,37,32,37V23C37.32,23,23,32.33,23,50z M51,67c-22,0-20-20-20-20 C55,47,51,67,51,67z"/></g><g><path style="fill:#0a3631" d="M51,67c-22,0-20-20-20-20C55,47,51,67,51,67z"/></g></g></g><g id="R-Green" style="display:none"><circle style="display:inline;fill:#77e0c4" cx="55" cy="55" r="55"/><g style="display:inline"><g><path style="fill:#d7fcf9" d="M87,50c0,17.673-24,37-32,37S23,67.673,23,50s14.327-27,32-27S87,32.327,87,50z"/></g><g><path style="fill:#0a3631" d="M59,67c0,0-4-20,20-20C79,47,81,67,59,67z"/></g><g><path style="fill:#fff" d="M23,50c0,17.67,24,37,32,37V23C37.32,23,23,32.33,23,50z M51,67c-22,0-20-20-20-20 C55,47,51,67,51,67z"/></g><g><path style="fill:#0a3631" d="M51,67c-22,0-20-20-20-20C55,47,51,67,51,67z"/></g></g></g><g id="Red" style="display:none"><g style="display:inline"><g><path style="fill:#ffefed" d="M87,50c0,17.673-24,37-32,37S23,67.673,23,50s14.327-27,32-27S87,32.327,87,50z"/></g><g><path style="fill:#4a1410" d="M59,67c0,0-4-20,20-20C79,47,81,67,59,67z"/></g><g><path style="fill:#fff" d="M23,50c0,17.67,24,37,32,37V23C37.32,23,23,32.33,23,50z M51,67c-22,0-20-20-20-20 C55,47,51,67,51,67z"/></g><g><path style="fill:#4a1410" d="M51,67c-22,0-20-20-20-20C55,47,51,67,51,67z"/></g></g></g><g id="R-Red" style="display:none"><circle style="display:inline;fill:#fabbaf" cx="55" cy="55" r="55"/><g style="display:inline"><g><path style="fill:#ffefed" d="M87,50c0,17.673-24,37-32,37S23,67.673,23,50s14.327-27,32-27S87,32.327,87,50z"/></g><g><path style="fill:#4a1410" d="M59,67c0,0-4-20,20-20C79,47,81,67,59,67z"/></g><g><path style="fill:#fff" d="M23,50c0,17.67,24,37,32,37V23C37.32,23,23,32.33,23,50z M51,67c-22,0-20-20-20-20 C55,47,51,67,51,67z"/></g><g><path style="fill:#4a1410" d="M51,67c-22,0-20-20-20-20C55,47,51,67,51,67z"/></g></g></g><g id="Yellow" style="display:none"><g style="display:inline"><g><path style="fill:#fff5d9" d="M87,50c0,17.673-24,37-32,37S23,67.673,23,50s14.327-27,32-27S87,32.327,87,50z"/></g><g><path style="fill:#3d320c" d="M59,67c0,0-4-20,20-20C79,47,81,67,59,67z"/></g><g><path style="fill:#fff" d="M23,50c0,17.67,24,37,32,37V23C37.32,23,23,32.33,23,50z M51,67c-22,0-20-20-20-20 C55,47,51,67,51,67z"/></g><g><path style="fill:#3d320c" d="M51,67c-22,0-20-20-20-20C55,47,51,67,51,67z"/></g></g></g><g id="R-Yellow" style="display:none"><circle style="display:inline;fill:#ffd75e" cx="55" cy="55" r="55"/><g style="display:inline"><g><path style="fill:#fff5d9" d="M87,50c0,17.673-24,37-32,37S23,67.673,23,50s14.327-27,32-27S87,32.327,87,50z"/></g><g><path style="fill:#3d320c" d="M59,67c0,0-4-20,20-20C79,47,81,67,59,67z"/></g><g><path style="fill:#fff" d="M23,50c0,17.67,24,37,32,37V23C37.32,23,23,32.33,23,50z M51,67c-22,0-20-20-20-20 C55,47,51,67,51,67z"/></g><g><path style="fill:#3d320c" d="M51,67c-22,0-20-20-20-20C55,47,51,67,51,67z"/></g></g></g></svg>