<svg xmlns="http://www.w3.org/2000/svg" xmlns:xlink="http://www.w3.org/1999/xlink" width="110" height="110" x="0" y="0" version="1.0" viewBox="0 0 110 110" xml:space="preserve" style="enable-background:new 0 0 110 110"><g id="Artboard" style="display:none"><rect style="display:inline;fill:gray" width="1347" height="333" x="-442" y="-45"/></g><g id="R-Multicolor" style="display:none"><circle style="display:inline;fill:#32bea6" cx="55" cy="55" r="55"/><g style="display:inline"><rect style="fill:#fff" width="50" height="60" x="37" y="27"/><g><path style="fill:#fbe158" d="M65.724,73c0,4.418,3.582,8,8,8c4.418,0,8.416-3.601,8-8c-0.423-4.476-3.893-8.042-8-8 C69.306,65.046,65.724,68.582,65.724,73z"/><path style="fill:#059bbf" d="M65.724,73c0,4.42,3.58,8,8,8c3.36,0,6.233-2.067,7.42-5l-14.78-6.153 C65.951,70.813,65.724,71.88,65.724,73z"/><path style="fill:#4ac3af" d="M65.712,73.003c0,2.82,1.46,5.3,3.667,6.727l4.327-6.82l-7.353-3.06 C65.939,70.817,65.712,71.883,65.712,73.003z"/><path style="fill:#fa5655" d="M66.364,69.847l7.36,3.067V65C70.424,65,67.591,67,66.364,69.847z"/></g><rect style="fill:#4ac3af" width="4" height="18" x="77" y="40"/><rect style="fill:#4ac3af" width="4" height="10" x="69.712" y="48"/><g><circle style="fill:#cfd3d4" cx="60.333" cy="68.167" r="1.5"/><rect style="fill:#cfd3d4" width="10" height="1" x="46.712" y="67.667"/></g><g><circle style="fill:#cfd3d4" cx="60.333" cy="73.333" r="1.5"/><rect style="fill:#cfd3d4" width="10" height="1" x="46.712" y="72.833"/></g><g><circle style="fill:#cfd3d4" cx="60.333" cy="78.5" r="1.5"/><rect style="fill:#cfd3d4" width="10" height="1" x="46.712" y="78"/></g><path style="fill:#84462d" d="M39.742,58.021L28.944,68.819c-1.344,1.344-3.522,1.344-4.867,0s-1.344-3.522,0-4.867L34.9,53.131 C36.098,55.126,37.758,56.805,39.742,58.021z"/><path style="fill:#9c6144" d="M36.992,55.826L24.041,68.777c-1.308-1.344-1.296-3.492,0.03-4.824L34.9,53.125 C35.489,54.104,36.195,55.01,36.992,55.826z"/><path style="fill:#fff" d="M47.4,60.1c-7.995,0-14.5-6.505-14.5-14.5s6.505-14.5,14.5-14.5s14.5,6.505,14.5,14.5 S55.396,60.1,47.4,60.1z"/><path style="fill:#cfd3d4" d="M47.4,31.088c8.012,0,14.512,6.5,14.512,14.512s-6.5,14.512-14.512,14.512 c-8.041,0-14.512-6.561-14.512-14.512C32.888,37.588,39.388,31.088,47.4,31.088 M47.4,29.1c-9.098,0-16.5,7.402-16.5,16.5 s7.402,16.5,16.5,16.5s16.5-7.402,16.5-16.5S56.499,29.1,47.4,29.1L47.4,29.1z"/><circle style="fill:#6fdaf1" cx="47.4" cy="45.6" r="11.558"/><path style="fill:#9ce5f4" d="M47.4,34.042c-6.383,0-11.558,5.175-11.558,11.558c0,3.158,1.27,6.018,3.323,8.104l16.339-16.339 C53.418,35.311,50.559,34.042,47.4,34.042z"/></g></g><g id="Multicolor_1_"><g><rect style="fill:#fff" width="50" height="60" x="37" y="27"/><g><path style="fill:#fbe158" d="M65.724,73c0,4.418,3.582,8,8,8c4.418,0,8.416-3.601,8-8c-0.423-4.476-3.893-8.042-8-8 C69.306,65.046,65.724,68.582,65.724,73z"/><path style="fill:#059bbf" d="M65.724,73c0,4.42,3.58,8,8,8c3.36,0,6.233-2.067,7.42-5l-14.78-6.153 C65.951,70.813,65.724,71.88,65.724,73z"/><path style="fill:#4ac3af" d="M65.712,73.003c0,2.82,1.46,5.3,3.667,6.727l4.327-6.82l-7.353-3.06 C65.939,70.817,65.712,71.883,65.712,73.003z"/><path style="fill:#fa5655" d="M66.364,69.847l7.36,3.067V65C70.424,65,67.591,67,66.364,69.847z"/></g><rect style="fill:#4ac3af" width="4" height="18" x="77" y="40"/><rect style="fill:#4ac3af" width="4" height="10" x="69.712" y="48"/><g><circle style="fill:#cfd3d4" cx="60.333" cy="68.167" r="1.5"/><rect style="fill:#cfd3d4" width="10" height="1" x="46.712" y="67.667"/></g><g><circle style="fill:#cfd3d4" cx="60.333" cy="73.333" r="1.5"/><rect style="fill:#cfd3d4" width="10" height="1" x="46.712" y="72.833"/></g><g><circle style="fill:#cfd3d4" cx="60.333" cy="78.5" r="1.5"/><rect style="fill:#cfd3d4" width="10" height="1" x="46.712" y="78"/></g><path style="fill:#84462d" d="M39.742,58.021L28.944,68.819c-1.344,1.344-3.522,1.344-4.867,0s-1.344-3.522,0-4.867L34.9,53.131 C36.098,55.126,37.758,56.805,39.742,58.021z"/><path style="fill:#9c6144" d="M36.992,55.826L24.041,68.777c-1.308-1.344-1.296-3.492,0.03-4.824L34.9,53.125 C35.489,54.104,36.195,55.01,36.992,55.826z"/><path style="fill:#fff" d="M47.4,60.1c-7.995,0-14.5-6.505-14.5-14.5s6.505-14.5,14.5-14.5s14.5,6.505,14.5,14.5 S55.396,60.1,47.4,60.1z"/><path style="fill:#cfd3d4" d="M47.4,31.088c8.012,0,14.512,6.5,14.512,14.512s-6.5,14.512-14.512,14.512 c-8.041,0-14.512-6.561-14.512-14.512C32.888,37.588,39.388,31.088,47.4,31.088 M47.4,29.1c-9.098,0-16.5,7.402-16.5,16.5 s7.402,16.5,16.5,16.5s16.5-7.402,16.5-16.5S56.499,29.1,47.4,29.1L47.4,29.1z"/><circle style="fill:#6fdaf1" cx="47.4" cy="45.6" r="11.558"/><path style="fill:#9ce5f4" d="M47.4,34.042c-6.383,0-11.558,5.175-11.558,11.558c0,3.158,1.27,6.018,3.323,8.104l16.339-16.339 C53.418,35.311,50.559,34.042,47.4,34.042z"/></g></g><g id="Blue" style="display:none"><g style="display:inline"><g><rect style="fill:#fff" width="50" height="60" x="37" y="27"/></g><g><path style="fill:#00b7e5" d="M65.725,73c0,4.419,3.581,8,8,8c4.418,0,8.415-3.601,8-8c-0.423-4.476-3.893-8.042-8-8 C69.306,65.046,65.725,68.582,65.725,73z"/></g><g><path style="fill:#0081a1" d="M65.725,73c0,4.42,3.58,8,8,8c3.359,0,6.233-2.066,7.42-5l-14.78-6.153 C65.951,70.814,65.725,71.88,65.725,73z"/></g><g><path style="fill:#bbe7f2" d="M65.712,73.003c0,2.82,1.46,5.3,3.666,6.727l4.327-6.82l-7.353-3.06 C65.938,70.816,65.712,71.884,65.712,73.003z"/></g><g><path style="fill:#33899e" d="M66.364,69.847l7.36,3.067V65C70.424,65,67.591,67,66.364,69.847z"/></g><g><rect style="fill:#009fc7" width="4" height="18" x="77" y="40"/></g><g><rect style="fill:#00b7e5" width="4" height="10" x="69.712" y="48"/></g><g><circle style="fill:#00b7e5" cx="60.333" cy="68.167" r="1.5"/></g><g><rect style="fill:#bbe7f2" width="10" height="1" x="46.712" y="67.667"/></g><g><circle style="fill:#00b7e5" cx="60.333" cy="73.333" r="1.5"/></g><g><rect style="fill:#bbe7f2" width="10" height="1" x="46.712" y="72.833"/></g><g><circle style="fill:#00b7e5" cx="60.333" cy="78.5" r="1.5"/></g><g><rect style="fill:#bbe7f2" width="10" height="1" x="46.712" y="78"/></g><g><path style="fill:#0c333d" d="M39.742,58.021L28.944,68.819c-1.345,1.344-3.522,1.344-4.867,0c-1.344-1.345-1.344-3.522,0-4.867 l10.822-10.822C36.098,55.126,37.758,56.805,39.742,58.021z"/></g><g><path style="fill:#0f6175" d="M36.992,55.826L24.041,68.776c-1.308-1.344-1.296-3.491,0.03-4.824l10.828-10.828 C35.489,54.104,36.195,55.01,36.992,55.826z"/></g><g><path style="fill:#fff" d="M47.4,60.1c-7.995,0-14.5-6.505-14.5-14.5s6.505-14.5,14.5-14.5s14.5,6.505,14.5,14.5 S55.395,60.1,47.4,60.1z"/></g><g><path style="fill:#53bad4" d="M47.5,30.988c8.012,0,14.512,6.5,14.512,14.512s-6.5,14.512-14.512,14.512 c-8.041,0-14.512-6.561-14.512-14.512C32.988,37.488,39.488,30.988,47.5,30.988 M47.5,29C38.402,29,31,36.402,31,45.5 C31,54.599,38.402,62,47.5,62S64,54.599,64,45.5C64,36.402,56.598,29,47.5,29L47.5,29z"/></g><g><circle style="fill:#009fc7" cx="47.4" cy="45.6" r="11.558"/></g><g><path style="fill:#00b7e5" d="M47.4,34.042c-6.383,0-11.558,5.175-11.558,11.558c0,3.158,1.27,6.018,3.323,8.104l16.339-16.339 C53.418,35.312,50.559,34.042,47.4,34.042z"/></g></g></g><g id="R-Blue" style="display:none"><g style="display:inline"><circle style="fill:#81d2eb" cx="55" cy="55" r="55"/></g><g style="display:inline"><g><rect style="fill:#fff" width="50" height="60" x="37" y="27"/></g><g><path style="fill:#00b7e5" d="M65.725,73c0,4.419,3.581,8,8,8c4.418,0,8.415-3.601,8-8c-0.423-4.476-3.893-8.042-8-8 C69.306,65.046,65.725,68.582,65.725,73z"/></g><g><path style="fill:#0081a1" d="M65.725,73c0,4.42,3.58,8,8,8c3.359,0,6.233-2.066,7.42-5l-14.78-6.153 C65.951,70.814,65.725,71.88,65.725,73z"/></g><g><path style="fill:#bbe7f2" d="M65.712,73.003c0,2.82,1.46,5.3,3.666,6.727l4.327-6.82l-7.353-3.06 C65.938,70.816,65.712,71.884,65.712,73.003z"/></g><g><path style="fill:#33899e" d="M66.364,69.847l7.36,3.067V65C70.424,65,67.591,67,66.364,69.847z"/></g><g><rect style="fill:#009fc7" width="4" height="18" x="77" y="40"/></g><g><rect style="fill:#00b7e5" width="4" height="10" x="69.712" y="48"/></g><g><circle style="fill:#00b7e5" cx="60.333" cy="68.167" r="1.5"/></g><g><rect style="fill:#bbe7f2" width="10" height="1" x="46.712" y="67.667"/></g><g><circle style="fill:#00b7e5" cx="60.333" cy="73.333" r="1.5"/></g><g><rect style="fill:#bbe7f2" width="10" height="1" x="46.712" y="72.833"/></g><g><circle style="fill:#00b7e5" cx="60.333" cy="78.5" r="1.5"/></g><g><rect style="fill:#bbe7f2" width="10" height="1" x="46.712" y="78"/></g><g><path style="fill:#0c333d" d="M39.742,58.021L28.944,68.819c-1.345,1.344-3.522,1.344-4.867,0c-1.344-1.345-1.344-3.522,0-4.867 l10.822-10.822C36.098,55.126,37.758,56.805,39.742,58.021z"/></g><g><path style="fill:#0f6175" d="M36.992,55.826L24.041,68.776c-1.308-1.344-1.296-3.491,0.03-4.824l10.828-10.828 C35.489,54.104,36.195,55.01,36.992,55.826z"/></g><g><path style="fill:#fff" d="M47.4,60.1c-7.995,0-14.5-6.505-14.5-14.5s6.505-14.5,14.5-14.5s14.5,6.505,14.5,14.5 S55.395,60.1,47.4,60.1z"/></g><g><path style="fill:#53bad4" d="M47.5,30.988c8.012,0,14.512,6.5,14.512,14.512s-6.5,14.512-14.512,14.512 c-8.041,0-14.512-6.561-14.512-14.512C32.988,37.488,39.488,30.988,47.5,30.988 M47.5,29C38.402,29,31,36.402,31,45.5 C31,54.599,38.402,62,47.5,62S64,54.599,64,45.5C64,36.402,56.598,29,47.5,29L47.5,29z"/></g><g><circle style="fill:#009fc7" cx="47.4" cy="45.6" r="11.558"/></g><g><path style="fill:#00b7e5" d="M47.4,34.042c-6.383,0-11.558,5.175-11.558,11.558c0,3.158,1.27,6.018,3.323,8.104l16.339-16.339 C53.418,35.312,50.559,34.042,47.4,34.042z"/></g></g></g><g id="Green" style="display:none"><g style="display:inline"><g><rect style="fill:#fff" width="50" height="60" x="37" y="27"/></g><g><path style="fill:#00d6c1" d="M65.725,73c0,4.419,3.581,8,8,8c4.418,0,8.415-3.601,8-8c-0.423-4.476-3.894-8.042-8-8 C69.306,65.046,65.725,68.582,65.725,73z"/></g><g><path style="fill:#009687" d="M65.725,73c0,4.42,3.58,8,8,8c3.359,0,6.233-2.066,7.42-5l-14.78-6.153 C65.951,70.814,65.725,71.88,65.725,73z"/></g><g><path style="fill:#aaf0e9" d="M65.712,73.003c0,2.82,1.46,5.3,3.667,6.727l4.327-6.82l-7.353-3.06 C65.938,70.816,65.712,71.884,65.712,73.003z"/></g><g><path style="fill:#3e948b" d="M66.364,69.847l7.36,3.067V65C70.424,65,67.591,67,66.364,69.847z"/></g><g><rect style="fill:#00b8a5" width="4" height="18" x="77" y="40"/></g><g><rect style="fill:#00d6c1" width="4" height="10" x="69.712" y="48"/></g><g><circle style="fill:#00d6c1" cx="60.333" cy="68.167" r="1.5"/></g><g><rect style="fill:#aaf0e9" width="10" height="1" x="46.712" y="67.667"/></g><g><circle style="fill:#00d6c1" cx="60.333" cy="73.333" r="1.5"/></g><g><rect style="fill:#aaf0e9" width="10" height="1" x="46.712" y="72.833"/></g><g><circle style="fill:#00d6c1" cx="60.333" cy="78.5" r="1.5"/></g><g><rect style="fill:#aaf0e9" width="10" height="1" x="46.712" y="78"/></g><g><path style="fill:#0a3631" d="M39.742,58.021L28.944,68.819c-1.345,1.344-3.522,1.344-4.867,0c-1.344-1.345-1.344-3.522,0-4.867 l10.822-10.822C36.098,55.126,37.758,56.805,39.742,58.021z"/></g><g><path style="fill:#14635b" d="M36.992,55.826L24.041,68.776c-1.308-1.344-1.296-3.491,0.03-4.824l10.828-10.828 C35.489,54.104,36.195,55.01,36.992,55.826z"/></g><g><path style="fill:#fff" d="M47.4,60.1c-7.995,0-14.5-6.505-14.5-14.5s6.505-14.5,14.5-14.5s14.5,6.505,14.5,14.5 S55.396,60.1,47.4,60.1z"/></g><g><path style="fill:#5dcfc3" d="M47.5,30.988c8.012,0,14.512,6.5,14.512,14.512s-6.5,14.512-14.512,14.512 c-8.041,0-14.512-6.561-14.512-14.512C32.988,37.488,39.488,30.988,47.5,30.988 M47.5,29C38.402,29,31,36.402,31,45.5 C31,54.599,38.402,62,47.5,62S64,54.599,64,45.5C64,36.402,56.598,29,47.5,29L47.5,29z"/></g><g><circle style="fill:#00b8a5" cx="47.4" cy="45.6" r="11.558"/></g><g><path style="fill:#00d6c1" d="M47.4,34.042c-6.383,0-11.558,5.175-11.558,11.558c0,3.158,1.27,6.018,3.323,8.104l16.339-16.339 C53.418,35.312,50.559,34.042,47.4,34.042z"/></g></g></g><g id="R-Green" style="display:none"><g style="display:inline"><circle style="fill:#87e0c8" cx="55" cy="55" r="55"/></g><g style="display:inline"><g><rect style="fill:#fff" width="50" height="60" x="37" y="27"/></g><g><path style="fill:#00d6c1" d="M65.725,73c0,4.419,3.581,8,8,8c4.418,0,8.415-3.601,8-8c-0.423-4.476-3.894-8.042-8-8 C69.306,65.046,65.725,68.582,65.725,73z"/></g><g><path style="fill:#009687" d="M65.725,73c0,4.42,3.58,8,8,8c3.359,0,6.233-2.066,7.42-5l-14.78-6.153 C65.951,70.814,65.725,71.88,65.725,73z"/></g><g><path style="fill:#aaf0e9" d="M65.712,73.003c0,2.82,1.46,5.3,3.667,6.727l4.327-6.82l-7.353-3.06 C65.938,70.816,65.712,71.884,65.712,73.003z"/></g><g><path style="fill:#3e948b" d="M66.364,69.847l7.36,3.067V65C70.424,65,67.591,67,66.364,69.847z"/></g><g><rect style="fill:#00b8a5" width="4" height="18" x="77" y="40"/></g><g><rect style="fill:#00d6c1" width="4" height="10" x="69.712" y="48"/></g><g><circle style="fill:#00d6c1" cx="60.333" cy="68.167" r="1.5"/></g><g><rect style="fill:#aaf0e9" width="10" height="1" x="46.712" y="67.667"/></g><g><circle style="fill:#00d6c1" cx="60.333" cy="73.333" r="1.5"/></g><g><rect style="fill:#aaf0e9" width="10" height="1" x="46.712" y="72.833"/></g><g><circle style="fill:#00d6c1" cx="60.333" cy="78.5" r="1.5"/></g><g><rect style="fill:#aaf0e9" width="10" height="1" x="46.712" y="78"/></g><g><path style="fill:#0a3631" d="M39.742,58.021L28.944,68.819c-1.345,1.344-3.522,1.344-4.867,0c-1.344-1.345-1.344-3.522,0-4.867 l10.822-10.822C36.098,55.126,37.758,56.805,39.742,58.021z"/></g><g><path style="fill:#14635b" d="M36.992,55.826L24.041,68.776c-1.308-1.344-1.296-3.491,0.03-4.824l10.828-10.828 C35.489,54.104,36.195,55.01,36.992,55.826z"/></g><g><path style="fill:#fff" d="M47.4,60.1c-7.995,0-14.5-6.505-14.5-14.5s6.505-14.5,14.5-14.5s14.5,6.505,14.5,14.5 S55.396,60.1,47.4,60.1z"/></g><g><path style="fill:#5dcfc3" d="M47.5,30.988c8.012,0,14.512,6.5,14.512,14.512s-6.5,14.512-14.512,14.512 c-8.041,0-14.512-6.561-14.512-14.512C32.988,37.488,39.488,30.988,47.5,30.988 M47.5,29C38.402,29,31,36.402,31,45.5 C31,54.599,38.402,62,47.5,62S64,54.599,64,45.5C64,36.402,56.598,29,47.5,29L47.5,29z"/></g><g><circle style="fill:#00b8a5" cx="47.4" cy="45.6" r="11.558"/></g><g><path style="fill:#00d6c1" d="M47.4,34.042c-6.383,0-11.558,5.175-11.558,11.558c0,3.158,1.27,6.018,3.323,8.104l16.339-16.339 C53.418,35.312,50.559,34.042,47.4,34.042z"/></g></g></g><g id="Red" style="display:none"><g style="display:inline"><g><rect style="fill:#fff" width="50" height="60" x="37" y="27"/></g><g><path style="fill:#ff6c5e" d="M65.725,73c0,4.419,3.581,8,8,8c4.418,0,8.415-3.601,8-8c-0.423-4.476-3.894-8.042-8-8 C69.306,65.046,65.725,68.582,65.725,73z"/></g><g><path style="fill:#c23023" d="M65.725,73c0,4.42,3.58,8,8,8c3.359,0,6.233-2.066,7.42-5l-14.78-6.153 C65.951,70.814,65.725,71.88,65.725,73z"/></g><g><path style="fill:#ffd7d4" d="M65.712,73.003c0,2.82,1.46,5.3,3.667,6.727l4.327-6.82l-7.353-3.06 C65.938,70.816,65.712,71.884,65.712,73.003z"/></g><g><path style="fill:#b84e44" d="M66.364,69.847l7.36,3.067V65C70.424,65,67.591,67,66.364,69.847z"/></g><g><rect style="fill:#e54b44" width="4" height="18" x="77" y="40"/></g><g><rect style="fill:#ff6c5e" width="4" height="10" x="69.712" y="48"/></g><g><circle style="fill:#ff6c5e" cx="60.333" cy="68.167" r="1.5"/></g><g><rect style="fill:#ffd7d4" width="10" height="1" x="46.712" y="67.667"/></g><g><circle style="fill:#ff6c5e" cx="60.333" cy="73.333" r="1.5"/></g><g><rect style="fill:#ffd7d4" width="10" height="1" x="46.712" y="72.833"/></g><g><circle style="fill:#ff6c5e" cx="60.333" cy="78.5" r="1.5"/></g><g><rect style="fill:#ffd7d4" width="10" height="1" x="46.712" y="78"/></g><g><path style="fill:#4a1410" d="M39.742,58.021L28.944,68.819c-1.345,1.344-3.522,1.344-4.867,0c-1.344-1.345-1.344-3.522,0-4.867 l10.822-10.822C36.098,55.126,37.758,56.805,39.742,58.021z"/></g><g><path style="fill:#7d261e" d="M36.992,55.826L24.041,68.776c-1.308-1.344-1.296-3.491,0.03-4.824l10.828-10.828 C35.489,54.104,36.195,55.01,36.992,55.826z"/></g><g><path style="fill:#fff" d="M47.4,60.1c-7.995,0-14.5-6.505-14.5-14.5s6.505-14.5,14.5-14.5s14.5,6.505,14.5,14.5 S55.396,60.1,47.4,60.1z"/></g><g><path style="fill:#e8a099" d="M47.5,30.988c8.012,0,14.512,6.5,14.512,14.512s-6.5,14.512-14.512,14.512 c-8.041,0-14.512-6.561-14.512-14.512C32.988,37.488,39.488,30.988,47.5,30.988 M47.5,29C38.402,29,31,36.402,31,45.5 C31,54.599,38.402,62,47.5,62S64,54.599,64,45.5C64,36.402,56.598,29,47.5,29L47.5,29z"/></g><g><circle style="fill:#e54b44" cx="47.4" cy="45.6" r="11.558"/></g><g><path style="fill:#ff6c5e" d="M47.4,34.042c-6.383,0-11.558,5.175-11.558,11.558c0,3.158,1.27,6.018,3.323,8.104l16.339-16.339 C53.418,35.312,50.559,34.042,47.4,34.042z"/></g></g></g><g id="R-Red" style="display:none"><g style="display:inline"><circle style="fill:#fabbaf" cx="55" cy="55" r="55"/></g><g style="display:inline"><g><rect style="fill:#fff" width="50" height="60" x="37" y="27"/></g><g><path style="fill:#ff6c5e" d="M65.725,73c0,4.419,3.581,8,8,8c4.418,0,8.415-3.601,8-8c-0.423-4.476-3.894-8.042-8-8 C69.306,65.046,65.725,68.582,65.725,73z"/></g><g><path style="fill:#c23023" d="M65.725,73c0,4.42,3.58,8,8,8c3.359,0,6.233-2.066,7.42-5l-14.78-6.153 C65.951,70.814,65.725,71.88,65.725,73z"/></g><g><path style="fill:#ffd7d4" d="M65.712,73.003c0,2.82,1.46,5.3,3.667,6.727l4.327-6.82l-7.353-3.06 C65.938,70.816,65.712,71.884,65.712,73.003z"/></g><g><path style="fill:#b84e44" d="M66.364,69.847l7.36,3.067V65C70.424,65,67.591,67,66.364,69.847z"/></g><g><rect style="fill:#e54b44" width="4" height="18" x="77" y="40"/></g><g><rect style="fill:#ff6c5e" width="4" height="10" x="69.712" y="48"/></g><g><circle style="fill:#ff6c5e" cx="60.333" cy="68.167" r="1.5"/></g><g><rect style="fill:#ffd7d4" width="10" height="1" x="46.712" y="67.667"/></g><g><circle style="fill:#ff6c5e" cx="60.333" cy="73.333" r="1.5"/></g><g><rect style="fill:#ffd7d4" width="10" height="1" x="46.712" y="72.833"/></g><g><circle style="fill:#ff6c5e" cx="60.333" cy="78.5" r="1.5"/></g><g><rect style="fill:#ffd7d4" width="10" height="1" x="46.712" y="78"/></g><g><path style="fill:#4a1410" d="M39.742,58.021L28.944,68.819c-1.345,1.344-3.522,1.344-4.867,0c-1.344-1.345-1.344-3.522,0-4.867 l10.822-10.822C36.098,55.126,37.758,56.805,39.742,58.021z"/></g><g><path style="fill:#7d261e" d="M36.992,55.826L24.041,68.776c-1.308-1.344-1.296-3.491,0.03-4.824l10.828-10.828 C35.489,54.104,36.195,55.01,36.992,55.826z"/></g><g><path style="fill:#fff" d="M47.4,60.1c-7.995,0-14.5-6.505-14.5-14.5s6.505-14.5,14.5-14.5s14.5,6.505,14.5,14.5 S55.396,60.1,47.4,60.1z"/></g><g><path style="fill:#e8a099" d="M47.5,30.988c8.012,0,14.512,6.5,14.512,14.512s-6.5,14.512-14.512,14.512 c-8.041,0-14.512-6.561-14.512-14.512C32.988,37.488,39.488,30.988,47.5,30.988 M47.5,29C38.402,29,31,36.402,31,45.5 C31,54.599,38.402,62,47.5,62S64,54.599,64,45.5C64,36.402,56.598,29,47.5,29L47.5,29z"/></g><g><circle style="fill:#e54b44" cx="47.4" cy="45.6" r="11.558"/></g><g><path style="fill:#ff6c5e" d="M47.4,34.042c-6.383,0-11.558,5.175-11.558,11.558c0,3.158,1.27,6.018,3.323,8.104l16.339-16.339 C53.418,35.312,50.559,34.042,47.4,34.042z"/></g></g></g><g id="Yellow" style="display:none"><g style="display:inline"><g><rect style="fill:#fff" width="50" height="60" x="37" y="27"/></g><g><path style="fill:#fa0" d="M65.725,73c0,4.419,3.581,8,8,8c4.418,0,8.415-3.601,8-8c-0.423-4.476-3.894-8.042-8-8 C69.306,65.046,65.725,68.582,65.725,73z"/></g><g><path style="fill:#e07000" d="M65.725,73c0,4.42,3.58,8,8,8c3.359,0,6.233-2.066,7.42-5l-14.78-6.153 C65.951,70.814,65.725,71.88,65.725,73z"/></g><g><path style="fill:#ffe9a1" d="M65.712,73.003c0,2.82,1.46,5.3,3.667,6.727l4.327-6.82l-7.353-3.06 C65.938,70.816,65.712,71.884,65.712,73.003z"/></g><g><path style="fill:#947615" d="M66.364,69.847l7.36,3.067V65C70.424,65,67.591,67,66.364,69.847z"/></g><g><rect style="fill:#fa9200" width="4" height="18" x="77" y="40"/></g><g><rect style="fill:#fa0" width="4" height="10" x="69.712" y="48"/></g><g><circle style="fill:#fa0" cx="60.333" cy="68.167" r="1.5"/></g><g><rect style="fill:#ffe9a1" width="10" height="1" x="46.712" y="67.667"/></g><g><circle style="fill:#fa0" cx="60.333" cy="73.333" r="1.5"/></g><g><rect style="fill:#ffe9a1" width="10" height="1" x="46.712" y="72.833"/></g><g><circle style="fill:#fa0" cx="60.333" cy="78.5" r="1.5"/></g><g><rect style="fill:#ffe9a1" width="10" height="1" x="46.712" y="78"/></g><g><path style="fill:#3d320c" d="M39.742,58.021L28.944,68.819c-1.345,1.344-3.522,1.344-4.867,0c-1.344-1.345-1.344-3.522,0-4.867 l10.822-10.822C36.098,55.126,37.758,56.805,39.742,58.021z"/></g><g><path style="fill:#66510d" d="M36.992,55.826L24.041,68.776c-1.308-1.344-1.296-3.491,0.03-4.824l10.828-10.828 C35.489,54.104,36.195,55.01,36.992,55.826z"/></g><g><path style="fill:#fff" d="M47.4,60.1c-7.995,0-14.5-6.505-14.5-14.5s6.505-14.5,14.5-14.5s14.5,6.505,14.5,14.5 S55.396,60.1,47.4,60.1z"/></g><g><path style="fill:#f5c43d" d="M47.5,30.988c8.012,0,14.512,6.5,14.512,14.512s-6.5,14.512-14.512,14.512 c-8.041,0-14.512-6.561-14.512-14.512C32.988,37.488,39.488,30.988,47.5,30.988 M47.5,29C38.402,29,31,36.402,31,45.5 C31,54.599,38.402,62,47.5,62S64,54.599,64,45.5C64,36.402,56.598,29,47.5,29L47.5,29z"/></g><g><circle style="fill:#fa9200" cx="47.4" cy="45.6" r="11.558"/></g><g><path style="fill:#fa0" d="M47.4,34.042c-6.383,0-11.558,5.175-11.558,11.558c0,3.158,1.27,6.018,3.323,8.104l16.339-16.339 C53.418,35.312,50.559,34.042,47.4,34.042z"/></g></g></g><g id="R-Yellow" style="display:none"><g style="display:inline"><circle style="fill:#ffd75e" cx="55" cy="55" r="55"/></g><g style="display:inline"><g><rect style="fill:#fff" width="50" height="60" x="37" y="27"/></g><g><path style="fill:#fa0" d="M65.725,73c0,4.419,3.581,8,8,8c4.418,0,8.415-3.601,8-8c-0.423-4.476-3.893-8.042-8-8 C69.306,65.046,65.725,68.582,65.725,73z"/></g><g><path style="fill:#e07000" d="M65.725,73c0,4.42,3.58,8,8,8c3.359,0,6.233-2.066,7.42-5l-14.78-6.153 C65.951,70.814,65.725,71.88,65.725,73z"/></g><g><path style="fill:#ffe9a1" d="M65.712,73.003c0,2.82,1.46,5.3,3.666,6.727l4.327-6.82l-7.353-3.06 C65.938,70.816,65.712,71.884,65.712,73.003z"/></g><g><path style="fill:#947615" d="M66.364,69.847l7.36,3.067V65C70.424,65,67.591,67,66.364,69.847z"/></g><g><rect style="fill:#fa9200" width="4" height="18" x="77" y="40"/></g><g><rect style="fill:#fa0" width="4" height="10" x="69.712" y="48"/></g><g><circle style="fill:#fa0" cx="60.333" cy="68.167" r="1.5"/></g><g><rect style="fill:#ffe9a1" width="10" height="1" x="46.712" y="67.667"/></g><g><circle style="fill:#fa0" cx="60.333" cy="73.333" r="1.5"/></g><g><rect style="fill:#ffe9a1" width="10" height="1" x="46.712" y="72.833"/></g><g><circle style="fill:#fa0" cx="60.333" cy="78.5" r="1.5"/></g><g><rect style="fill:#ffe9a1" width="10" height="1" x="46.712" y="78"/></g><g><path style="fill:#3d320c" d="M39.742,58.021L28.944,68.819c-1.345,1.344-3.522,1.344-4.867,0c-1.344-1.345-1.344-3.522,0-4.867 l10.822-10.822C36.098,55.126,37.758,56.805,39.742,58.021z"/></g><g><path style="fill:#66510d" d="M36.992,55.826L24.041,68.776c-1.308-1.344-1.296-3.491,0.03-4.824l10.828-10.828 C35.489,54.104,36.195,55.01,36.992,55.826z"/></g><g><path style="fill:#fff" d="M47.4,60.1c-7.995,0-14.5-6.505-14.5-14.5s6.505-14.5,14.5-14.5s14.5,6.505,14.5,14.5 S55.395,60.1,47.4,60.1z"/></g><g><path style="fill:#f5c43d" d="M47.5,30.988c8.012,0,14.512,6.5,14.512,14.512s-6.5,14.512-14.512,14.512 c-8.041,0-14.512-6.561-14.512-14.512C32.988,37.488,39.488,30.988,47.5,30.988 M47.5,29C38.402,29,31,36.402,31,45.5 C31,54.599,38.402,62,47.5,62S64,54.599,64,45.5C64,36.402,56.598,29,47.5,29L47.5,29z"/></g><g><circle style="fill:#fa9200" cx="47.4" cy="45.6" r="11.558"/></g><g><path style="fill:#fa0" d="M47.4,34.042c-6.383,0-11.558,5.175-11.558,11.558c0,3.158,1.27,6.018,3.323,8.104l16.339-16.339 C53.418,35.312,50.559,34.042,47.4,34.042z"/></g></g></g></svg>