<svg xmlns="http://www.w3.org/2000/svg" xmlns:xlink="http://www.w3.org/1999/xlink" width="110" height="110" x="0" y="0" version="1.0" viewBox="0 0 110 110" xml:space="preserve" style="enable-background:new 0 0 110 110"><g id="Artboard" style="display:none"><rect style="display:inline;fill:gray;stroke:#000;stroke-miterlimit:10" width="1366" height="606" x="-61.5" y="-302.5"/></g><g id="R-Multicolor" style="display:none"><circle style="display:inline;fill:#e04f5f" cx="55" cy="55" r="55"/><g style="display:inline"><rect style="fill:#fbe158" width="32" height="56" x="27" y="27"/><rect style="fill:#f99134" width="24" height="44" x="59" y="27"/><polygon style="fill:#fff" points="23 23 87 23 83 27 27 27"/><polygon style="fill:#fff" points="23 87 59 87 59 83 27 83"/><rect style="fill:#cfd3d4" width="24" height="16" x="59" y="71"/><path style="fill:#fff" d="M79,71H63V58c0-4.418,3.582-8,8-8s8,3.582,8,8V71z"/><path style="fill:#40c9e7" d="M66,58c0-2.761,2.239-5,5-5s5,2.239,5,5H66z"/><rect style="fill:#e2e4e5" width="10" height="11" x="66" y="60"/><rect style="fill:#f0f1f1" width="24" height="2" x="59" y="83"/><rect style="fill:#f0f1f1" width="24" height="2" x="59" y="79"/><rect style="fill:#f0f1f1" width="24" height="2" x="59" y="75"/><rect style="fill:#f0f1f1" width="24" height="2" x="59" y="71"/><path style="fill:#40c9e7" d="M71,43c-2.757,0-5-2.243-5-5s2.243-5,5-5s5,2.243,5,5S73.757,43,71,43z"/><path style="fill:#fff" d="M71,33c2.757,0,5,2.243,5,5s-2.243,5-5,5s-5-2.243-5-5S68.243,33,71,33 M71,31 c-3.866,0-7,3.134-7,7s3.134,7,7,7s7-3.134,7-7S74.866,31,71,31L71,31z"/><path style="fill:#40c9e7" d="M41,78H31V63c0-2.761,2.239-5,5-5s5,2.239,5,5V78z"/><rect style="fill:#40c9e7" width="10" height="7" x="31" y="71"/><path style="fill:#40c9e7" d="M55,78H45V63c0-2.761,2.239-5,5-5s5,2.239,5,5V78z"/><rect style="fill:#40c9e7" width="10" height="7" x="45" y="71"/><path style="fill:#40c9e7" d="M55,51H45V36c0-2.761,2.239-5,5-5s5,2.239,5,5V51z"/><rect style="fill:#40c9e7" width="10" height="7" x="45" y="44"/><path style="fill:#6fdaf1" d="M55,37.35V36c0-2.761-2.239-5-5-5s-5,2.239-5,5v11.35L55,37.35z"/><polygon style="fill:#6fdaf1" points="48.35 44 45 44 45 47.35"/><path style="fill:#6fdaf1" d="M41,64.35V63c0-2.761-2.239-5-5-5s-5,2.239-5,5v11.35L41,64.35z"/><polygon style="fill:#6fdaf1" points="34.35 71 31 71 31 74.35"/><path style="fill:#6fdaf1" d="M55,64.35V63c0-2.761-2.239-5-5-5s-5,2.239-5,5v11.35L55,64.35z"/><polygon style="fill:#6fdaf1" points="48.35 71 45 71 45 74.35"/><rect style="fill:#fff" width="10" height="2" x="45" y="42"/><rect style="fill:#fff" width="10" height="2" x="31" y="69"/><rect style="fill:#fff" width="10" height="2" x="45" y="69"/><polygon style="fill:#fff" points="23 51 59 51 59 55 27 55"/><path style="fill:#40c9e7" d="M41,51H31V36c0-2.761,2.239-5,5-5s5,2.239,5,5V51z"/><rect style="fill:#40c9e7" width="10" height="7" x="31" y="44"/><path style="fill:#6fdaf1" d="M41,37.35V36c0-2.761-2.239-5-5-5s-5,2.239-5,5v11.35L41,37.35z"/><rect style="fill:#fff" width="10" height="2" x="31" y="42"/><path style="fill:#fff" d="M83,87h4V65c0-1.105-0.895-2-2-2s-2,0.895-2,2V87z"/></g></g><g id="Multicolor_1_"><g><rect style="fill:#fbe158" width="32" height="56" x="27" y="27"/><rect style="fill:#f99134" width="24" height="44" x="59" y="27"/><polygon style="fill:#fff" points="23 23 87 23 83 27 27 27"/><polygon style="fill:#fff" points="23 87 59 87 59 83 27 83"/><rect style="fill:#cfd3d4" width="24" height="16" x="59" y="71"/><path style="fill:#fff" d="M79,71H63V58c0-4.418,3.582-8,8-8s8,3.582,8,8V71z"/><path style="fill:#40c9e7" d="M66,58c0-2.761,2.239-5,5-5s5,2.239,5,5H66z"/><rect style="fill:#e2e4e5" width="10" height="11" x="66" y="60"/><rect style="fill:#f0f1f1" width="24" height="2" x="59" y="83"/><rect style="fill:#f0f1f1" width="24" height="2" x="59" y="79"/><rect style="fill:#f0f1f1" width="24" height="2" x="59" y="75"/><rect style="fill:#f0f1f1" width="24" height="2" x="59" y="71"/><path style="fill:#40c9e7" d="M71,43c-2.757,0-5-2.243-5-5s2.243-5,5-5s5,2.243,5,5S73.757,43,71,43z"/><path style="fill:#fff" d="M71,33c2.757,0,5,2.243,5,5s-2.243,5-5,5s-5-2.243-5-5S68.243,33,71,33 M71,31 c-3.866,0-7,3.134-7,7s3.134,7,7,7s7-3.134,7-7S74.866,31,71,31L71,31z"/><path style="fill:#40c9e7" d="M41,78H31V63c0-2.761,2.239-5,5-5s5,2.239,5,5V78z"/><rect style="fill:#40c9e7" width="10" height="7" x="31" y="71"/><path style="fill:#40c9e7" d="M55,78H45V63c0-2.761,2.239-5,5-5s5,2.239,5,5V78z"/><rect style="fill:#40c9e7" width="10" height="7" x="45" y="71"/><path style="fill:#40c9e7" d="M55,51H45V36c0-2.761,2.239-5,5-5s5,2.239,5,5V51z"/><rect style="fill:#40c9e7" width="10" height="7" x="45" y="44"/><path style="fill:#6fdaf1" d="M55,37.35V36c0-2.761-2.239-5-5-5s-5,2.239-5,5v11.35L55,37.35z"/><polygon style="fill:#6fdaf1" points="48.35 44 45 44 45 47.35"/><path style="fill:#6fdaf1" d="M41,64.35V63c0-2.761-2.239-5-5-5s-5,2.239-5,5v11.35L41,64.35z"/><polygon style="fill:#6fdaf1" points="34.35 71 31 71 31 74.35"/><path style="fill:#6fdaf1" d="M55,64.35V63c0-2.761-2.239-5-5-5s-5,2.239-5,5v11.35L55,64.35z"/><polygon style="fill:#6fdaf1" points="48.35 71 45 71 45 74.35"/><rect style="fill:#fff" width="10" height="2" x="45" y="42"/><rect style="fill:#fff" width="10" height="2" x="31" y="69"/><rect style="fill:#fff" width="10" height="2" x="45" y="69"/><polygon style="fill:#fff" points="23 51 59 51 59 55 27 55"/><path style="fill:#40c9e7" d="M41,51H31V36c0-2.761,2.239-5,5-5s5,2.239,5,5V51z"/><rect style="fill:#40c9e7" width="10" height="7" x="31" y="44"/><path style="fill:#6fdaf1" d="M41,37.35V36c0-2.761-2.239-5-5-5s-5,2.239-5,5v11.35L41,37.35z"/><rect style="fill:#fff" width="10" height="2" x="31" y="42"/><path style="fill:#fff" d="M83,87h4V65c0-1.105-0.895-2-2-2s-2,0.895-2,2V87z"/></g></g><g id="Blue" style="display:none"><g style="display:inline"><g><rect style="fill:#e1f5fa" width="32" height="56" x="27" y="27"/></g><g><rect style="fill:#bbe7f2" width="24" height="44" x="59" y="27"/></g><g><polygon style="fill:#fff" points="23 23 87 23 83 27 27 27"/></g><g><polygon style="fill:#0f6175" points="23 87 59 87 59 83 27 83"/></g><g><rect style="fill:#53bad4" width="24" height="16" x="59" y="71"/></g><g><path style="fill:#fff" d="M79,71H63V58c0-4.418,3.582-8,8-8s8,3.582,8,8V71z"/></g><g><path style="fill:#00b7e5" d="M66,58c0-2.761,2.238-5,5-5s5,2.239,5,5H66z"/></g><g><rect style="fill:#bbe7f2" width="10" height="11" x="66" y="60"/></g><g><rect style="fill:#e1f5fa" width="24" height="2" x="59" y="83"/></g><g><rect style="fill:#e1f5fa" width="24" height="2" x="59" y="79"/></g><g><rect style="fill:#e1f5fa" width="24" height="2" x="59" y="75"/></g><g><rect style="fill:#e1f5fa" width="24" height="2" x="59" y="71"/></g><g><path style="fill:#00b7e5" d="M71,43c-2.757,0-5-2.243-5-5s2.243-5,5-5s5,2.243,5,5S73.757,43,71,43z"/></g><g><path style="fill:#fff" d="M71,33c2.757,0,5,2.243,5,5s-2.243,5-5,5s-5-2.243-5-5S68.243,33,71,33 M71,31 c-3.866,0-7,3.134-7,7s3.134,7,7,7s7-3.134,7-7S74.866,31,71,31L71,31z"/></g><g><path style="fill:#009fc7" d="M41,78H31V63c0-2.761,2.238-5,5-5s5,2.239,5,5V78z"/></g><g><rect style="fill:#009fc7" width="10" height="7" x="31" y="71"/></g><g><path style="fill:#009fc7" d="M55,78H45V63c0-2.761,2.238-5,5-5s5,2.239,5,5V78z"/></g><g><rect style="fill:#009fc7" width="10" height="7" x="45" y="71"/></g><g><path style="fill:#009fc7" d="M55,51H45V36c0-2.761,2.238-5,5-5s5,2.239,5,5V51z"/></g><g><rect style="fill:#009fc7" width="10" height="7" x="45" y="44"/></g><g><path style="fill:#00b7e5" d="M55,37.35V36c0-2.761-2.238-5-5-5s-5,2.239-5,5v11.35L55,37.35z"/></g><g><polygon style="fill:#00b7e5" points="48.351 44 45 44 45 47.35"/></g><g><path style="fill:#00b7e5" d="M41,64.35V63c0-2.761-2.238-5-5-5s-5,2.239-5,5v11.35L41,64.35z"/></g><g><polygon style="fill:#00b7e5" points="34.351 71 31 71 31 74.35"/></g><g><path style="fill:#00b7e5" d="M55,64.35V63c0-2.761-2.238-5-5-5s-5,2.239-5,5v11.35L55,64.35z"/></g><g><polygon style="fill:#00b7e5" points="48.351 71 45 71 45 74.35"/></g><g><rect style="fill:#fff" width="10" height="2" x="45" y="42"/></g><g><rect style="fill:#fff" width="10" height="2" x="31" y="69"/></g><g><rect style="fill:#fff" width="10" height="2" x="45" y="69"/></g><g><polygon style="fill:#fff" points="23 51 59 51 59 55 27 55"/></g><g><path style="fill:#009fc7" d="M41,51H31V36c0-2.761,2.238-5,5-5s5,2.239,5,5V51z"/></g><g><rect style="fill:#009fc7" width="10" height="7" x="31" y="44"/></g><g><path style="fill:#00b7e5" d="M41,37.35V36c0-2.761-2.238-5-5-5s-5,2.239-5,5v11.35L41,37.35z"/></g><g><rect style="fill:#fff" width="10" height="2" x="31" y="42"/></g><g><path style="fill:#fff" d="M83,87h4V65c0-1.104-0.896-2-2-2s-2,0.896-2,2V87z"/></g></g></g><g id="R-Blue" style="display:none"><g style="display:inline"><circle style="fill:#81d2eb" cx="55" cy="55" r="55"/></g><g style="display:inline"><g><rect style="fill:#e1f5fa" width="32" height="56" x="27" y="27"/></g><g><rect style="fill:#bbe7f2" width="24" height="44" x="59" y="27"/></g><g><polygon style="fill:#fff" points="23 23 87 23 83 27 27 27"/></g><g><polygon style="fill:#0f6175" points="23 87 59 87 59 83 27 83"/></g><g><rect style="fill:#53bad4" width="24" height="16" x="59" y="71"/></g><g><path style="fill:#fff" d="M79,71H63V58c0-4.418,3.582-8,8-8s8,3.582,8,8V71z"/></g><g><path style="fill:#00b7e5" d="M66,58c0-2.761,2.238-5,5-5s5,2.239,5,5H66z"/></g><g><rect style="fill:#bbe7f2" width="10" height="11" x="66" y="60"/></g><g><rect style="fill:#e1f5fa" width="24" height="2" x="59" y="83"/></g><g><rect style="fill:#e1f5fa" width="24" height="2" x="59" y="79"/></g><g><rect style="fill:#e1f5fa" width="24" height="2" x="59" y="75"/></g><g><rect style="fill:#e1f5fa" width="24" height="2" x="59" y="71"/></g><g><path style="fill:#00b7e5" d="M71,43c-2.757,0-5-2.243-5-5s2.243-5,5-5s5,2.243,5,5S73.757,43,71,43z"/></g><g><path style="fill:#fff" d="M71,33c2.757,0,5,2.243,5,5s-2.243,5-5,5s-5-2.243-5-5S68.243,33,71,33 M71,31 c-3.866,0-7,3.134-7,7s3.134,7,7,7s7-3.134,7-7S74.866,31,71,31L71,31z"/></g><g><path style="fill:#009fc7" d="M41,78H31V63c0-2.761,2.238-5,5-5s5,2.239,5,5V78z"/></g><g><rect style="fill:#009fc7" width="10" height="7" x="31" y="71"/></g><g><path style="fill:#009fc7" d="M55,78H45V63c0-2.761,2.238-5,5-5s5,2.239,5,5V78z"/></g><g><rect style="fill:#009fc7" width="10" height="7" x="45" y="71"/></g><g><path style="fill:#009fc7" d="M55,51H45V36c0-2.761,2.238-5,5-5s5,2.239,5,5V51z"/></g><g><rect style="fill:#009fc7" width="10" height="7" x="45" y="44"/></g><g><path style="fill:#00b7e5" d="M55,37.35V36c0-2.761-2.238-5-5-5s-5,2.239-5,5v11.35L55,37.35z"/></g><g><polygon style="fill:#00b7e5" points="48.351 44 45 44 45 47.35"/></g><g><path style="fill:#00b7e5" d="M41,64.35V63c0-2.761-2.238-5-5-5s-5,2.239-5,5v11.35L41,64.35z"/></g><g><polygon style="fill:#00b7e5" points="34.351 71 31 71 31 74.35"/></g><g><path style="fill:#00b7e5" d="M55,64.35V63c0-2.761-2.238-5-5-5s-5,2.239-5,5v11.35L55,64.35z"/></g><g><polygon style="fill:#00b7e5" points="48.351 71 45 71 45 74.35"/></g><g><rect style="fill:#fff" width="10" height="2" x="45" y="42"/></g><g><rect style="fill:#fff" width="10" height="2" x="31" y="69"/></g><g><rect style="fill:#fff" width="10" height="2" x="45" y="69"/></g><g><polygon style="fill:#fff" points="23 51 59 51 59 55 27 55"/></g><g><path style="fill:#009fc7" d="M41,51H31V36c0-2.761,2.238-5,5-5s5,2.239,5,5V51z"/></g><g><rect style="fill:#009fc7" width="10" height="7" x="31" y="44"/></g><g><path style="fill:#00b7e5" d="M41,37.35V36c0-2.761-2.238-5-5-5s-5,2.239-5,5v11.35L41,37.35z"/></g><g><rect style="fill:#fff" width="10" height="2" x="31" y="42"/></g><g><path style="fill:#fff" d="M83,87h4V65c0-1.104-0.896-2-2-2s-2,0.896-2,2V87z"/></g></g></g><g id="Green" style="display:none"><g style="display:inline"><g><rect style="fill:#d7fcf9" width="32" height="56" x="27" y="27"/></g><g><rect style="fill:#aaf0e9" width="24" height="44" x="59" y="27"/></g><g><polygon style="fill:#fff" points="23 23 87 23 83 27 27 27"/></g><g><polygon style="fill:#14635b" points="23 87 59 87 59 83 27 83"/></g><g><rect style="fill:#5dcfc3" width="24" height="16" x="59" y="71"/></g><g><path style="fill:#fff" d="M79,71H63V58c0-4.418,3.582-8,8-8s8,3.582,8,8V71z"/></g><g><path style="fill:#00d6c1" d="M66,58c0-2.761,2.238-5,5-5s5,2.239,5,5H66z"/></g><g><rect style="fill:#aaf0e9" width="10" height="11" x="66" y="60"/></g><g><rect style="fill:#d7fcf9" width="24" height="2" x="59" y="83"/></g><g><rect style="fill:#d7fcf9" width="24" height="2" x="59" y="79"/></g><g><rect style="fill:#d7fcf9" width="24" height="2" x="59" y="75"/></g><g><rect style="fill:#d7fcf9" width="24" height="2" x="59" y="71"/></g><g><path style="fill:#00d6c1" d="M71,43c-2.757,0-5-2.243-5-5c0-2.757,2.243-5,5-5s5,2.243,5,5C76,40.757,73.757,43,71,43z"/></g><g><path style="fill:#fff" d="M71,33c2.757,0,5,2.243,5,5c0,2.757-2.243,5-5,5s-5-2.243-5-5C66,35.243,68.243,33,71,33 M71,31 c-3.866,0-7,3.134-7,7s3.134,7,7,7s7-3.134,7-7S74.866,31,71,31L71,31z"/></g><g><path style="fill:#00b8a5" d="M41,78H31V63c0-2.761,2.238-5,5-5s5,2.239,5,5V78z"/></g><g><rect style="fill:#00b8a5" width="10" height="7" x="31" y="71"/></g><g><path style="fill:#00b8a5" d="M55,78H45V63c0-2.761,2.238-5,5-5s5,2.239,5,5V78z"/></g><g><rect style="fill:#00b8a5" width="10" height="7" x="45" y="71"/></g><g><path style="fill:#00b8a5" d="M55,51H45V36c0-2.761,2.238-5,5-5s5,2.239,5,5V51z"/></g><g><rect style="fill:#00b8a5" width="10" height="7" x="45" y="44"/></g><g><path style="fill:#00d6c1" d="M55,37.35V36c0-2.761-2.238-5-5-5s-5,2.239-5,5v11.35L55,37.35z"/></g><g><polygon style="fill:#00d6c1" points="48.351 44 45 44 45 47.35"/></g><g><path style="fill:#00d6c1" d="M41,64.35V63c0-2.761-2.238-5-5-5s-5,2.239-5,5v11.35L41,64.35z"/></g><g><polygon style="fill:#00d6c1" points="34.351 71 31 71 31 74.35"/></g><g><path style="fill:#00d6c1" d="M55,64.35V63c0-2.761-2.238-5-5-5s-5,2.239-5,5v11.35L55,64.35z"/></g><g><polygon style="fill:#00d6c1" points="48.351 71 45 71 45 74.35"/></g><g><rect style="fill:#fff" width="10" height="2" x="45" y="42"/></g><g><rect style="fill:#fff" width="10" height="2" x="31" y="69"/></g><g><rect style="fill:#fff" width="10" height="2" x="45" y="69"/></g><g><polygon style="fill:#fff" points="23 51 59 51 59 55 27 55"/></g><g><path style="fill:#00b8a5" d="M41,51H31V36c0-2.761,2.238-5,5-5s5,2.239,5,5V51z"/></g><g><rect style="fill:#00b8a5" width="10" height="7" x="31" y="44"/></g><g><path style="fill:#00d6c1" d="M41,37.35V36c0-2.761-2.238-5-5-5s-5,2.239-5,5v11.35L41,37.35z"/></g><g><rect style="fill:#fff" width="10" height="2" x="31" y="42"/></g><g><path style="fill:#fff" d="M83,87h4V65c0-1.104-0.896-2-2-2s-2,0.896-2,2V87z"/></g></g></g><g id="R-Green" style="display:none"><g style="display:inline"><circle style="fill:#87e0c8" cx="55" cy="55" r="55"/></g><g style="display:inline"><g><rect style="fill:#d7fcf9" width="32" height="56" x="27" y="27"/></g><g><rect style="fill:#aaf0e9" width="24" height="44" x="59" y="27"/></g><g><polygon style="fill:#fff" points="23 23 87 23 83 27 27 27"/></g><g><polygon style="fill:#14635b" points="23 87 59 87 59 83 27 83"/></g><g><rect style="fill:#5dcfc3" width="24" height="16" x="59" y="71"/></g><g><path style="fill:#fff" d="M79,71H63V58c0-4.418,3.582-8,8-8s8,3.582,8,8V71z"/></g><g><path style="fill:#00d6c1" d="M66,58c0-2.761,2.238-5,5-5c2.762,0,5,2.239,5,5H66z"/></g><g><rect style="fill:#aaf0e9" width="10" height="11" x="66" y="60"/></g><g><rect style="fill:#d7fcf9" width="24" height="2" x="59" y="83"/></g><g><rect style="fill:#d7fcf9" width="24" height="2" x="59" y="79"/></g><g><rect style="fill:#d7fcf9" width="24" height="2" x="59" y="75"/></g><g><rect style="fill:#d7fcf9" width="24" height="2" x="59" y="71"/></g><g><path style="fill:#00d6c1" d="M71,43c-2.757,0-5-2.243-5-5s2.243-5,5-5s5,2.243,5,5S73.757,43,71,43z"/></g><g><path style="fill:#fff" d="M71,33c2.757,0,5,2.243,5,5s-2.243,5-5,5s-5-2.243-5-5S68.243,33,71,33 M71,31 c-3.866,0-7,3.134-7,7s3.134,7,7,7c3.866,0,7-3.134,7-7S74.866,31,71,31L71,31z"/></g><g><path style="fill:#00b8a5" d="M41,78H31V63c0-2.761,2.238-5,5-5s5,2.239,5,5V78z"/></g><g><rect style="fill:#00b8a5" width="10" height="7" x="31" y="71"/></g><g><path style="fill:#00b8a5" d="M55,78H45V63c0-2.761,2.238-5,5-5s5,2.239,5,5V78z"/></g><g><rect style="fill:#00b8a5" width="10" height="7" x="45" y="71"/></g><g><path style="fill:#00b8a5" d="M55,51H45V36c0-2.761,2.238-5,5-5s5,2.239,5,5V51z"/></g><g><rect style="fill:#00b8a5" width="10" height="7" x="45" y="44"/></g><g><path style="fill:#00d6c1" d="M55,37.35V36c0-2.761-2.238-5-5-5s-5,2.239-5,5v11.35L55,37.35z"/></g><g><polygon style="fill:#00d6c1" points="48.351 44 45 44 45 47.35"/></g><g><path style="fill:#00d6c1" d="M41,64.35V63c0-2.761-2.238-5-5-5s-5,2.239-5,5v11.35L41,64.35z"/></g><g><polygon style="fill:#00d6c1" points="34.351 71 31 71 31 74.35"/></g><g><path style="fill:#00d6c1" d="M55,64.35V63c0-2.761-2.238-5-5-5s-5,2.239-5,5v11.35L55,64.35z"/></g><g><polygon style="fill:#00d6c1" points="48.351 71 45 71 45 74.35"/></g><g><rect style="fill:#fff" width="10" height="2" x="45" y="42"/></g><g><rect style="fill:#fff" width="10" height="2" x="31" y="69"/></g><g><rect style="fill:#fff" width="10" height="2" x="45" y="69"/></g><g><polygon style="fill:#fff" points="23 51 59 51 59 55 27 55"/></g><g><path style="fill:#00b8a5" d="M41,51H31V36c0-2.761,2.238-5,5-5s5,2.239,5,5V51z"/></g><g><rect style="fill:#00b8a5" width="10" height="7" x="31" y="44"/></g><g><path style="fill:#00d6c1" d="M41,37.35V36c0-2.761-2.238-5-5-5s-5,2.239-5,5v11.35L41,37.35z"/></g><g><rect style="fill:#fff" width="10" height="2" x="31" y="42"/></g><g><path style="fill:#fff" d="M83,87h4V65c0-1.104-0.896-2-2-2s-2,0.896-2,2V87z"/></g></g></g><g id="Red" style="display:none"><g style="display:inline"><g><rect style="fill:#ffefed" width="32" height="56" x="27" y="27"/></g><g><rect style="fill:#ffd7d4" width="24" height="44" x="59" y="27"/></g><g><polygon style="fill:#fff" points="23 23 87 23 83 27 27 27"/></g><g><polygon style="fill:#7d261e" points="23 87 59 87 59 83 27 83"/></g><g><rect style="fill:#e8a099" width="24" height="16" x="59" y="71"/></g><g><path style="fill:#fff" d="M79,71H63V58c0-4.418,3.582-8,8-8s8,3.582,8,8V71z"/></g><g><path style="fill:#ff6c5e" d="M66,58c0-2.761,2.238-5,5-5c2.762,0,5,2.239,5,5H66z"/></g><g><rect style="fill:#ffd7d4" width="10" height="11" x="66" y="60"/></g><g><rect style="fill:#ffefed" width="24" height="2" x="59" y="83"/></g><g><rect style="fill:#ffefed" width="24" height="2" x="59" y="79"/></g><g><rect style="fill:#ffefed" width="24" height="2" x="59" y="75"/></g><g><rect style="fill:#ffefed" width="24" height="2" x="59" y="71"/></g><g><path style="fill:#ff6c5e" d="M71,43c-2.757,0-5-2.243-5-5s2.243-5,5-5c2.757,0,5,2.243,5,5S73.757,43,71,43z"/></g><g><path style="fill:#fff" d="M71,33c2.757,0,5,2.243,5,5s-2.243,5-5,5c-2.757,0-5-2.243-5-5S68.243,33,71,33 M71,31 c-3.866,0-7,3.134-7,7s3.134,7,7,7c3.866,0,7-3.134,7-7S74.866,31,71,31L71,31z"/></g><g><path style="fill:#e54b44" d="M41,78H31V63c0-2.761,2.238-5,5-5s5,2.239,5,5V78z"/></g><g><rect style="fill:#e54b44" width="10" height="7" x="31" y="71"/></g><g><path style="fill:#e54b44" d="M55,78H45V63c0-2.761,2.238-5,5-5s5,2.239,5,5V78z"/></g><g><rect style="fill:#e54b44" width="10" height="7" x="45" y="71"/></g><g><path style="fill:#e54b44" d="M55,51H45V36c0-2.761,2.238-5,5-5s5,2.239,5,5V51z"/></g><g><rect style="fill:#e54b44" width="10" height="7" x="45" y="44"/></g><g><path style="fill:#ff6c5e" d="M55,37.35V36c0-2.761-2.238-5-5-5s-5,2.239-5,5v11.35L55,37.35z"/></g><g><polygon style="fill:#ff6c5e" points="48.351 44 45 44 45 47.35"/></g><g><path style="fill:#ff6c5e" d="M41,64.35V63c0-2.761-2.238-5-5-5s-5,2.239-5,5v11.35L41,64.35z"/></g><g><polygon style="fill:#ff6c5e" points="34.351 71 31 71 31 74.35"/></g><g><path style="fill:#ff6c5e" d="M55,64.35V63c0-2.761-2.238-5-5-5s-5,2.239-5,5v11.35L55,64.35z"/></g><g><polygon style="fill:#ff6c5e" points="48.351 71 45 71 45 74.35"/></g><g><rect style="fill:#fff" width="10" height="2" x="45" y="42"/></g><g><rect style="fill:#fff" width="10" height="2" x="31" y="69"/></g><g><rect style="fill:#fff" width="10" height="2" x="45" y="69"/></g><g><polygon style="fill:#fff" points="23 51 59 51 59 55 27 55"/></g><g><path style="fill:#e54b44" d="M41,51H31V36c0-2.761,2.238-5,5-5s5,2.239,5,5V51z"/></g><g><rect style="fill:#e54b44" width="10" height="7" x="31" y="44"/></g><g><path style="fill:#ff6c5e" d="M41,37.35V36c0-2.761-2.238-5-5-5s-5,2.239-5,5v11.35L41,37.35z"/></g><g><rect style="fill:#fff" width="10" height="2" x="31" y="42"/></g><g><path style="fill:#fff" d="M83,87h4V65c0-1.104-0.896-2-2-2s-2,0.896-2,2V87z"/></g></g></g><g id="R-Red" style="display:none"><g style="display:inline"><circle style="fill:#fabbaf" cx="55" cy="55" r="55"/></g><g style="display:inline"><g><rect style="fill:#ffefed" width="32" height="56" x="27" y="27"/></g><g><rect style="fill:#ffd7d4" width="24" height="44" x="59" y="27"/></g><g><polygon style="fill:#fff" points="23 23 87 23 83 27 27 27"/></g><g><polygon style="fill:#7d261e" points="23 87 59 87 59 83 27 83"/></g><g><rect style="fill:#e8a099" width="24" height="16" x="59" y="71"/></g><g><path style="fill:#fff" d="M79,71H63V58c0-4.418,3.582-8,8-8s8,3.582,8,8V71z"/></g><g><path style="fill:#ff6c5e" d="M66,58c0-2.761,2.238-5,5-5c2.762,0,5,2.239,5,5H66z"/></g><g><rect style="fill:#ffd7d4" width="10" height="11" x="66" y="60"/></g><g><rect style="fill:#ffefed" width="24" height="2" x="59" y="83"/></g><g><rect style="fill:#ffefed" width="24" height="2" x="59" y="79"/></g><g><rect style="fill:#ffefed" width="24" height="2" x="59" y="75"/></g><g><rect style="fill:#ffefed" width="24" height="2" x="59" y="71"/></g><g><path style="fill:#ff6c5e" d="M71,43c-2.757,0-5-2.243-5-5s2.243-5,5-5s5,2.243,5,5S73.757,43,71,43z"/></g><g><path style="fill:#fff" d="M71,33c2.757,0,5,2.243,5,5s-2.243,5-5,5s-5-2.243-5-5S68.243,33,71,33 M71,31 c-3.866,0-7,3.134-7,7s3.134,7,7,7c3.866,0,7-3.134,7-7S74.866,31,71,31L71,31z"/></g><g><path style="fill:#e54b44" d="M41,78H31V63c0-2.761,2.238-5,5-5s5,2.239,5,5V78z"/></g><g><rect style="fill:#e54b44" width="10" height="7" x="31" y="71"/></g><g><path style="fill:#e54b44" d="M55,78H45V63c0-2.761,2.238-5,5-5s5,2.239,5,5V78z"/></g><g><rect style="fill:#e54b44" width="10" height="7" x="45" y="71"/></g><g><path style="fill:#e54b44" d="M55,51H45V36c0-2.761,2.238-5,5-5s5,2.239,5,5V51z"/></g><g><rect style="fill:#e54b44" width="10" height="7" x="45" y="44"/></g><g><path style="fill:#ff6c5e" d="M55,37.35V36c0-2.761-2.238-5-5-5s-5,2.239-5,5v11.35L55,37.35z"/></g><g><polygon style="fill:#ff6c5e" points="48.351 44 45 44 45 47.35"/></g><g><path style="fill:#ff6c5e" d="M41,64.35V63c0-2.761-2.238-5-5-5s-5,2.239-5,5v11.35L41,64.35z"/></g><g><polygon style="fill:#ff6c5e" points="34.351 71 31 71 31 74.35"/></g><g><path style="fill:#ff6c5e" d="M55,64.35V63c0-2.761-2.238-5-5-5s-5,2.239-5,5v11.35L55,64.35z"/></g><g><polygon style="fill:#ff6c5e" points="48.351 71 45 71 45 74.35"/></g><g><rect style="fill:#fff" width="10" height="2" x="45" y="42"/></g><g><rect style="fill:#fff" width="10" height="2" x="31" y="69"/></g><g><rect style="fill:#fff" width="10" height="2" x="45" y="69"/></g><g><polygon style="fill:#fff" points="23 51 59 51 59 55 27 55"/></g><g><path style="fill:#e54b44" d="M41,51H31V36c0-2.761,2.238-5,5-5s5,2.239,5,5V51z"/></g><g><rect style="fill:#e54b44" width="10" height="7" x="31" y="44"/></g><g><path style="fill:#ff6c5e" d="M41,37.35V36c0-2.761-2.238-5-5-5s-5,2.239-5,5v11.35L41,37.35z"/></g><g><rect style="fill:#fff" width="10" height="2" x="31" y="42"/></g><g><path style="fill:#fff" d="M83,87h4V65c0-1.104-0.896-2-2-2s-2,0.896-2,2V87z"/></g></g></g><g id="Yellow" style="display:none"><g style="display:inline"><g><rect style="fill:#fff5d9" width="32" height="56" x="27" y="27"/></g><g><rect style="fill:#ffe9a1" width="24" height="44" x="59" y="27"/></g><g><polygon style="fill:#fff" points="23 23 87 23 83 27 27 27"/></g><g><polygon style="fill:#66510d" points="23 87 59 87 59 83 27 83"/></g><g><rect style="fill:#f5c43d" width="24" height="16" x="59" y="71"/></g><g><path style="fill:#fff" d="M79,71H63V58c0-4.418,3.582-8,8-8s8,3.582,8,8V71z"/></g><g><path style="fill:#fa0" d="M66,58c0-2.761,2.238-5,5-5c2.762,0,5,2.239,5,5H66z"/></g><g><rect style="fill:#ffe9a1" width="10" height="11" x="66" y="60"/></g><g><rect style="fill:#fff5d9" width="24" height="2" x="59" y="83"/></g><g><rect style="fill:#fff5d9" width="24" height="2" x="59" y="79"/></g><g><rect style="fill:#fff5d9" width="24" height="2" x="59" y="75"/></g><g><rect style="fill:#fff5d9" width="24" height="2" x="59" y="71"/></g><g><path style="fill:#fa0" d="M71,43c-2.757,0-5-2.243-5-5s2.243-5,5-5s5,2.243,5,5S73.757,43,71,43z"/></g><g><path style="fill:#fff" d="M71,33c2.757,0,5,2.243,5,5s-2.243,5-5,5s-5-2.243-5-5S68.243,33,71,33 M71,31 c-3.866,0-7,3.134-7,7s3.134,7,7,7c3.866,0,7-3.134,7-7S74.866,31,71,31L71,31z"/></g><g><path style="fill:#fa9200" d="M41,78H31V63c0-2.761,2.238-5,5-5s5,2.239,5,5V78z"/></g><g><rect style="fill:#fa9200" width="10" height="7" x="31" y="71"/></g><g><path style="fill:#fa9200" d="M55,78H45V63c0-2.761,2.238-5,5-5s5,2.239,5,5V78z"/></g><g><rect style="fill:#fa9200" width="10" height="7" x="45" y="71"/></g><g><path style="fill:#fa9200" d="M55,51H45V36c0-2.761,2.238-5,5-5s5,2.239,5,5V51z"/></g><g><rect style="fill:#fa9200" width="10" height="7" x="45" y="44"/></g><g><path style="fill:#fa0" d="M55,37.35V36c0-2.761-2.238-5-5-5s-5,2.239-5,5v11.35L55,37.35z"/></g><g><polygon style="fill:#fa0" points="48.351 44 45 44 45 47.35"/></g><g><path style="fill:#fa0" d="M41,64.35V63c0-2.761-2.238-5-5-5s-5,2.239-5,5v11.35L41,64.35z"/></g><g><polygon style="fill:#fa0" points="34.351 71 31 71 31 74.35"/></g><g><path style="fill:#fa0" d="M55,64.35V63c0-2.761-2.238-5-5-5s-5,2.239-5,5v11.35L55,64.35z"/></g><g><polygon style="fill:#fa0" points="48.351 71 45 71 45 74.35"/></g><g><rect style="fill:#fff" width="10" height="2" x="45" y="42"/></g><g><rect style="fill:#fff" width="10" height="2" x="31" y="69"/></g><g><rect style="fill:#fff" width="10" height="2" x="45" y="69"/></g><g><polygon style="fill:#fff" points="23 51 59 51 59 55 27 55"/></g><g><path style="fill:#fa9200" d="M41,51H31V36c0-2.761,2.238-5,5-5s5,2.239,5,5V51z"/></g><g><rect style="fill:#fa9200" width="10" height="7" x="31" y="44"/></g><g><path style="fill:#fa0" d="M41,37.35V36c0-2.761-2.238-5-5-5s-5,2.239-5,5v11.35L41,37.35z"/></g><g><rect style="fill:#fff" width="10" height="2" x="31" y="42"/></g><g><path style="fill:#fff" d="M83,87h4V65c0-1.104-0.896-2-2-2s-2,0.896-2,2V87z"/></g></g></g><g id="R-Yellow" style="display:none"><g style="display:inline"><circle style="fill:#ffd75e" cx="55" cy="55" r="55"/></g><g style="display:inline"><g><rect style="fill:#fff5d9" width="32" height="56" x="27" y="27"/></g><g><rect style="fill:#ffe9a1" width="24" height="44" x="59" y="27"/></g><g><polygon style="fill:#fff" points="23 23 87 23 83 27 27 27"/></g><g><polygon style="fill:#66510d" points="23 87 59 87 59 83 27 83"/></g><g><rect style="fill:#f5c43d" width="24" height="16" x="59" y="71"/></g><g><path style="fill:#fff" d="M79,71H63V58c0-4.418,3.582-8,8-8s8,3.582,8,8V71z"/></g><g><path style="fill:#fa0" d="M66,58c0-2.761,2.238-5,5-5c2.762,0,5,2.239,5,5H66z"/></g><g><rect style="fill:#ffe9a1" width="10" height="11" x="66" y="60"/></g><g><rect style="fill:#fff5d9" width="24" height="2" x="59" y="83"/></g><g><rect style="fill:#fff5d9" width="24" height="2" x="59" y="79"/></g><g><rect style="fill:#fff5d9" width="24" height="2" x="59" y="75"/></g><g><rect style="fill:#fff5d9" width="24" height="2" x="59" y="71"/></g><g><path style="fill:#fa0" d="M71,43c-2.757,0-5-2.243-5-5s2.243-5,5-5c2.757,0,5,2.243,5,5S73.757,43,71,43z"/></g><g><path style="fill:#fff" d="M71,33c2.757,0,5,2.243,5,5s-2.243,5-5,5c-2.757,0-5-2.243-5-5S68.243,33,71,33 M71,31 c-3.866,0-7,3.134-7,7s3.134,7,7,7c3.866,0,7-3.134,7-7S74.866,31,71,31L71,31z"/></g><g><path style="fill:#fa9200" d="M41,78H31V63c0-2.761,2.238-5,5-5s5,2.239,5,5V78z"/></g><g><rect style="fill:#fa9200" width="10" height="7" x="31" y="71"/></g><g><path style="fill:#fa9200" d="M55,78H45V63c0-2.761,2.238-5,5-5s5,2.239,5,5V78z"/></g><g><rect style="fill:#fa9200" width="10" height="7" x="45" y="71"/></g><g><path style="fill:#fa9200" d="M55,51H45V36c0-2.761,2.238-5,5-5s5,2.239,5,5V51z"/></g><g><rect style="fill:#fa9200" width="10" height="7" x="45" y="44"/></g><g><path style="fill:#fa0" d="M55,37.35V36c0-2.761-2.238-5-5-5s-5,2.239-5,5v11.35L55,37.35z"/></g><g><polygon style="fill:#fa0" points="48.351 44 45 44 45 47.35"/></g><g><path style="fill:#fa0" d="M41,64.35V63c0-2.761-2.238-5-5-5s-5,2.239-5,5v11.35L41,64.35z"/></g><g><polygon style="fill:#fa0" points="34.351 71 31 71 31 74.35"/></g><g><path style="fill:#fa0" d="M55,64.35V63c0-2.761-2.238-5-5-5s-5,2.239-5,5v11.35L55,64.35z"/></g><g><polygon style="fill:#fa0" points="48.351 71 45 71 45 74.35"/></g><g><rect style="fill:#fff" width="10" height="2" x="45" y="42"/></g><g><rect style="fill:#fff" width="10" height="2" x="31" y="69"/></g><g><rect style="fill:#fff" width="10" height="2" x="45" y="69"/></g><g><polygon style="fill:#fff" points="23 51 59 51 59 55 27 55"/></g><g><path style="fill:#fa9200" d="M41,51H31V36c0-2.761,2.238-5,5-5s5,2.239,5,5V51z"/></g><g><rect style="fill:#fa9200" width="10" height="7" x="31" y="44"/></g><g><path style="fill:#fa0" d="M41,37.35V36c0-2.761-2.238-5-5-5s-5,2.239-5,5v11.35L41,37.35z"/></g><g><rect style="fill:#fff" width="10" height="2" x="31" y="42"/></g><g><path style="fill:#fff" d="M83,87h4V65c0-1.104-0.896-2-2-2s-2,0.896-2,2V87z"/></g></g></g></svg>