<svg xmlns="http://www.w3.org/2000/svg" xmlns:xlink="http://www.w3.org/1999/xlink" width="110" height="110" x="0" y="0" version="1.0" viewBox="0 0 110 110" xml:space="preserve" style="enable-background:new 0 0 110 110"><g id="Artboard" style="display:none"><rect style="display:inline;fill:gray;stroke:#000;stroke-miterlimit:10" width="1349" height="445" x="-1198.5" y="-161.5"/></g><g id="R-Multicolor" style="display:none"><circle style="display:inline;fill:#25b7d3" cx="55" cy="55" r="55"/><g style="display:inline"><path style="fill:#3e3e3f" d="M63.973,27.688C61.789,25.998,58.841,25,55,25s-6.789,0.998-8.973,2.688L40,23l1,17 c0,8.284,6.268,15,14,15s14-6.716,14-15l1-17L63.973,27.688z"/><path style="fill:#5b5c5f" d="M46.027,27.688L40,23l1,17c0,8.284,6.268,15,14,15V25C51.159,25,48.211,25.998,46.027,27.688z"/><path style="fill:#3e3e3f" d="M55,49c-4,0-28,2-28,34c0,0,10,4,28,4s28-4,28-4C83,51,59,49,55,49z"/><path style="fill:#cfd3d4" d="M55,87c6.848,0,12.534-0.579,16.956-1.297C71.055,59.729,55,55,55,55s-16.055,4.729-16.956,30.703 C42.466,86.421,48.152,87,55,87z"/><path style="fill:#3e3e3f" d="M63,68l-4,3v-4l-4,3l-4-3v4l-3.997-3c-3.012,2.559-5.095,5.652-5,10c6-0.667,9.997,0,12.997,5 c3-5,7-5.667,13-5C68.095,73.652,66.012,70.559,63,68z"/><path style="fill:#fbc8c8" d="M55,55c3.694,0,7.045-1.545,9.546-4.05C69.105,37.41,58.678,45,55,45s-14.105-7.59-9.546,5.95 C47.955,53.455,51.306,55,55,55z"/><path style="fill:#cfd3d4" d="M62.523,39.692c-2.49,1.341-5.723,0.173-5.723,0.173s0.805-3.341,3.295-4.682 c2.49-1.341,5.723-0.173,5.723-0.173S65.013,38.351,62.523,39.692z"/><path style="fill:#cfd3d4" d="M47.477,39.692c2.49,1.341,5.723,0.173,5.723,0.173s-0.805-3.341-3.295-4.682 c-2.49-1.341-5.723-0.173-5.723-0.173S44.987,38.351,47.477,39.692z"/><path style="fill:#fbd7d7" d="M45.454,50.95C47.956,53.455,51.306,55,55,55V45C51.322,45,40.895,37.41,45.454,50.95z"/><path style="fill:#f79392" d="M50,48h10c0,0,0,3-5,3S50,48,50,48z"/><path style="fill:#5b5c5f" d="M51,67v4l-3.997-3c-3.011,2.559-5.095,5.652-5,10c6-0.667,9.997,0,12.997,5V70L51,67z"/></g></g><g id="Multicolor"><g><path style="fill:#3e3e3f" d="M63.973,27.688C61.789,25.998,58.841,25,55,25s-6.789,0.998-8.973,2.688L40,23l1,17 c0,8.284,6.268,15,14,15s14-6.716,14-15l1-17L63.973,27.688z"/><path style="fill:#5b5c5f" d="M46.027,27.688L40,23l1,17c0,8.284,6.268,15,14,15V25C51.159,25,48.211,25.998,46.027,27.688z"/><path style="fill:#3e3e3f" d="M55,49c-4,0-28,2-28,34c0,0,10,4,28,4s28-4,28-4C83,51,59,49,55,49z"/><path style="fill:#cfd3d4" d="M55,87c6.848,0,12.534-0.579,16.956-1.297C71.055,59.729,55,55,55,55s-16.055,4.729-16.956,30.703 C42.466,86.421,48.152,87,55,87z"/><path style="fill:#3e3e3f" d="M63,68l-4,3v-4l-4,3l-4-3v4l-3.997-3c-3.012,2.559-5.095,5.652-5,10c6-0.667,9.997,0,12.997,5 c3-5,7-5.667,13-5C68.095,73.652,66.012,70.559,63,68z"/><path style="fill:#fbc8c8" d="M55,55c3.694,0,7.045-1.545,9.546-4.05C69.105,37.41,58.678,45,55,45s-14.105-7.59-9.546,5.95 C47.955,53.455,51.306,55,55,55z"/><path style="fill:#cfd3d4" d="M62.523,39.692c-2.49,1.341-5.723,0.173-5.723,0.173s0.805-3.341,3.295-4.682 c2.49-1.341,5.723-0.173,5.723-0.173S65.013,38.351,62.523,39.692z"/><path style="fill:#cfd3d4" d="M47.477,39.692c2.49,1.341,5.723,0.173,5.723,0.173s-0.805-3.341-3.295-4.682 c-2.49-1.341-5.723-0.173-5.723-0.173S44.987,38.351,47.477,39.692z"/><path style="fill:#fbd7d7" d="M45.454,50.95C47.956,53.455,51.306,55,55,55V45C51.322,45,40.895,37.41,45.454,50.95z"/><path style="fill:#f79392" d="M50,48h10c0,0,0,3-5,3S50,48,50,48z"/><path style="fill:#5b5c5f" d="M51,67v4l-3.997-3c-3.011,2.559-5.095,5.652-5,10c6-0.667,9.997,0,12.997,5V70L51,67z"/></g></g><g id="Blue" style="display:none"><g style="display:inline"><g><path style="fill:#0c333d" d="M63.973,27.686c-2.184-1.69-5.132-2.688-8.973-2.688s-6.789,0.998-8.973,2.688L40,22.999l1,17 c0,8.284,6.268,15,14,15s14-6.716,14-15l1-17L63.973,27.686z"/></g><g><path style="fill:#0f6175" d="M46.027,27.686L40,22.999l1,17c0,8.284,6.268,15,14,15v-30 C51.159,24.999,48.211,25.997,46.027,27.686z"/></g><g><path style="fill:#0c333d" d="M55,48.999c-4,0-28,2-28,34c0,0,10,4,28,4s28-4,28-4C83,50.999,59,48.999,55,48.999z"/></g><g><path style="fill:#53bad4" d="M55,86.999c6.848,0,12.534-0.579,16.956-1.297C71.055,59.728,55,54.999,55,54.999 s-16.055,4.729-16.956,30.703C42.466,86.42,48.152,86.999,55,86.999z"/></g><g><path style="fill:#0c333d" d="M63,67.999l-4,3v-4l-4,3l-4-3v4l-3.997-3c-3.012,2.559-5.095,5.652-5,10c6-0.666,9.997,0,12.997,5 c3-5,7-5.666,13-5C68.095,73.651,66.012,70.558,63,67.999z"/></g><g><path style="fill:#e1f5fa" d="M55,54.999c3.694,0,7.045-1.545,9.546-4.05c4.558-13.54-5.869-5.95-9.546-5.95 s-14.105-7.59-9.546,5.95C47.955,53.454,51.306,54.999,55,54.999z"/></g><g><path style="fill:#bbe7f2" d="M62.523,39.691c-2.49,1.341-5.723,0.173-5.723,0.173s0.805-3.341,3.295-4.682 c2.49-1.34,5.723-0.173,5.723-0.173S65.014,38.351,62.523,39.691z"/></g><g><path style="fill:#bbe7f2" d="M47.477,39.691c2.49,1.341,5.723,0.173,5.723,0.173s-0.805-3.341-3.295-4.682 c-2.49-1.34-5.723-0.173-5.723-0.173S44.986,38.351,47.477,39.691z"/></g><g><path style="fill:#fff" d="M45.454,50.949c2.502,2.505,5.852,4.05,9.546,4.05v-10C51.322,44.999,40.895,37.409,45.454,50.949 z"/></g><g><path style="fill:#0f6175" d="M50,47.999h10c0,0,0,3-5,3S50,47.999,50,47.999z"/></g><g><path style="fill:#0f6175" d="M51,66.999v4l-3.997-3c-3.011,2.559-5.095,5.652-5,10c6-0.666,9.997,0,12.997,5v-13L51,66.999z"/></g></g></g><g id="R-Blue" style="display:none"><g style="display:inline"><circle style="fill:#81d2eb" cx="55" cy="55" r="55"/></g><g style="display:inline"><g><path style="fill:#0c333d" d="M63.973,27.688C61.789,25.998,58.841,25,55,25s-6.789,0.998-8.973,2.688L40,23l1,17 c0,8.284,6.268,15,14,15s14-6.716,14-15l1-17L63.973,27.688z"/></g><g><path style="fill:#0f6175" d="M46.027,27.688L40,23l1,17c0,8.284,6.268,15,14,15V25C51.159,25,48.211,25.998,46.027,27.688z"/></g><g><path style="fill:#0c333d" d="M55,49c-4,0-28,2-28,34c0,0,10,4,28,4s28-4,28-4C83,51,59,49,55,49z"/></g><g><path style="fill:#53bad4" d="M55,87c6.848,0,12.534-0.579,16.956-1.297C71.055,59.729,55,55,55,55s-16.055,4.729-16.956,30.703 C42.466,86.421,48.152,87,55,87z"/></g><g><path style="fill:#0c333d" d="M63,68l-4,3v-4l-4,3l-4-3v4l-3.997-3c-3.012,2.559-5.095,5.652-5,10c6-0.666,9.997,0,12.997,5 c3-5,7-5.666,13-5C68.095,73.652,66.012,70.559,63,68z"/></g><g><path style="fill:#e1f5fa" d="M55,55c3.694,0,7.045-1.545,9.546-4.05C69.104,37.41,58.678,45,55,45s-14.105-7.59-9.546,5.95 C47.955,53.455,51.306,55,55,55z"/></g><g><path style="fill:#bbe7f2" d="M62.523,39.692c-2.49,1.341-5.723,0.173-5.723,0.173s0.805-3.341,3.295-4.682 c2.49-1.34,5.723-0.173,5.723-0.173S65.014,38.352,62.523,39.692z"/></g><g><path style="fill:#bbe7f2" d="M47.477,39.692c2.49,1.341,5.723,0.173,5.723,0.173s-0.805-3.341-3.295-4.682 c-2.49-1.34-5.723-0.173-5.723-0.173S44.986,38.352,47.477,39.692z"/></g><g><path style="fill:#fff" d="M45.454,50.95C47.956,53.455,51.306,55,55,55V45C51.322,45,40.895,37.41,45.454,50.95z"/></g><g><path style="fill:#0f6175" d="M50,48h10c0,0,0,3-5,3S50,48,50,48z"/></g><g><path style="fill:#0f6175" d="M51,67v4l-3.997-3c-3.011,2.559-5.095,5.652-5,10c6-0.666,9.997,0,12.997,5V70L51,67z"/></g></g></g><g id="Green" style="display:none"><g style="display:inline"><g><path style="fill:#0a3631" d="M63.973,27.688C61.789,25.998,58.841,25,55,25s-6.789,0.998-8.973,2.688L40,23l1,17 c0,8.284,6.268,15,14,15s14-6.716,14-15l1-17L63.973,27.688z"/></g><g><path style="fill:#14635b" d="M46.027,27.688L40,23l1,17c0,8.284,6.268,15,14,15V25C51.159,25,48.211,25.998,46.027,27.688z"/></g><g><path style="fill:#0a3631" d="M55,49c-4,0-28,2-28,34c0,0,10,4,28,4s28-4,28-4C83,51,59,49,55,49z"/></g><g><path style="fill:#5dcfc3" d="M55,87c6.848,0,12.534-0.579,16.956-1.297C71.055,59.729,55,55,55,55s-16.055,4.729-16.956,30.703 C42.466,86.421,48.152,87,55,87z"/></g><g><path style="fill:#0a3631" d="M63,68l-4,3v-4l-4,3l-4-3v4l-3.997-3c-3.012,2.559-5.095,5.652-5,10c6-0.666,9.997,0,12.997,5 c3-5,7-5.666,13-5C68.095,73.652,66.012,70.559,63,68z"/></g><g><path style="fill:#d7fcf9" d="M55,55c3.694,0,7.045-1.545,9.546-4.05C69.104,37.41,58.678,45,55,45s-14.105-7.59-9.546,5.95 C47.955,53.455,51.306,55,55,55z"/></g><g><path style="fill:#aaf0e9" d="M62.523,39.692c-2.49,1.341-5.723,0.173-5.723,0.173s0.805-3.341,3.295-4.682 c2.49-1.34,5.723-0.173,5.723-0.173S65.014,38.352,62.523,39.692z"/></g><g><path style="fill:#aaf0e9" d="M47.477,39.692c2.49,1.341,5.723,0.173,5.723,0.173s-0.805-3.341-3.295-4.682 c-2.49-1.34-5.723-0.173-5.723-0.173S44.986,38.352,47.477,39.692z"/></g><g><path style="fill:#fff" d="M45.454,50.95C47.956,53.455,51.306,55,55,55V45C51.322,45,40.894,37.41,45.454,50.95z"/></g><g><path style="fill:#14635b" d="M50,48h10c0,0,0,3-5,3S50,48,50,48z"/></g><g><path style="fill:#14635b" d="M51,67v4l-3.997-3c-3.011,2.559-5.095,5.652-5,10c6-0.666,9.997,0,12.997,5V70L51,67z"/></g></g></g><g id="R-Green" style="display:none"><g style="display:inline"><circle style="fill:#87e0c8" cx="55" cy="55" r="55"/></g><g style="display:inline"><g><path style="fill:#0a3631" d="M63.973,27.688C61.789,25.998,58.841,25,55,25s-6.789,0.998-8.973,2.688L40,23l1,17 c0,8.284,6.268,15,14,15s14-6.716,14-15l1-17L63.973,27.688z"/></g><g><path style="fill:#14635b" d="M46.027,27.688L40,23l1,17c0,8.284,6.268,15,14,15V25C51.159,25,48.211,25.998,46.027,27.688z"/></g><g><path style="fill:#0a3631" d="M55,49c-4,0-28,2-28,34c0,0,10,4,28,4s28-4,28-4C83,51,59,49,55,49z"/></g><g><path style="fill:#5dcfc3" d="M55,87c6.848,0,12.534-0.579,16.956-1.297C71.055,59.729,55,55,55,55s-16.055,4.729-16.956,30.703 C42.466,86.421,48.152,87,55,87z"/></g><g><path style="fill:#0a3631" d="M63,68l-4,3v-4l-4,3l-4-3v4l-3.997-3c-3.012,2.559-5.095,5.652-5,10c6-0.666,9.997,0,12.997,5 c3-5,7-5.666,13-5C68.095,73.652,66.012,70.559,63,68z"/></g><g><path style="fill:#d7fcf9" d="M55,55c3.694,0,7.045-1.545,9.546-4.05C69.104,37.41,58.678,45,55,45s-14.105-7.59-9.546,5.95 C47.955,53.455,51.306,55,55,55z"/></g><g><path style="fill:#aaf0e9" d="M62.523,39.692c-2.49,1.341-5.723,0.173-5.723,0.173s0.805-3.341,3.295-4.682 c2.49-1.34,5.723-0.173,5.723-0.173S65.014,38.352,62.523,39.692z"/></g><g><path style="fill:#aaf0e9" d="M47.477,39.692c2.49,1.341,5.723,0.173,5.723,0.173s-0.805-3.341-3.295-4.682 c-2.49-1.34-5.723-0.173-5.723-0.173S44.986,38.352,47.477,39.692z"/></g><g><path style="fill:#fff" d="M45.454,50.95C47.956,53.455,51.306,55,55,55V45C51.322,45,40.894,37.41,45.454,50.95z"/></g><g><path style="fill:#14635b" d="M50,48h10c0,0,0,3-5,3S50,48,50,48z"/></g><g><path style="fill:#14635b" d="M51,67v4l-3.997-3c-3.011,2.559-5.095,5.652-5,10c6-0.666,9.997,0,12.997,5V70L51,67z"/></g></g></g><g id="Red" style="display:none"><g style="display:inline"><g><path style="fill:#4a1410" d="M63.973,27.686c-2.184-1.69-5.132-2.688-8.973-2.688s-6.789,0.998-8.973,2.688L40,22.999l1,17 c0,8.284,6.268,15,14,15s14-6.716,14-15l1-17L63.973,27.686z"/></g><g><path style="fill:#7d261e" d="M46.027,27.686L40,22.999l1,17c0,8.284,6.268,15,14,15v-30 C51.159,24.999,48.211,25.997,46.027,27.686z"/></g><g><path style="fill:#4a1410" d="M55,48.999c-4,0-28,2-28,34c0,0,10,4,28,4s28-4,28-4C83,50.999,59,48.999,55,48.999z"/></g><g><path style="fill:#e8a099" d="M55,86.999c6.848,0,12.534-0.579,16.956-1.297C71.055,59.728,55,54.999,55,54.999 s-16.055,4.729-16.956,30.703C42.466,86.42,48.152,86.999,55,86.999z"/></g><g><path style="fill:#4a1410" d="M63,67.999l-4,3v-4l-4,3l-4-3v4l-3.997-3c-3.012,2.559-5.095,5.652-5,10c6-0.666,9.997,0,12.997,5 c3-5,7-5.666,13-5C68.095,73.651,66.012,70.558,63,67.999z"/></g><g><path style="fill:#ffefed" d="M55,54.999c3.694,0,7.045-1.545,9.546-4.05c4.558-13.54-5.869-5.95-9.546-5.95 s-14.105-7.59-9.546,5.95C47.955,53.454,51.306,54.999,55,54.999z"/></g><g><path style="fill:#ffd7d4" d="M62.523,39.691c-2.49,1.341-5.723,0.173-5.723,0.173s0.805-3.341,3.295-4.682 c2.49-1.34,5.723-0.173,5.723-0.173S65.014,38.351,62.523,39.691z"/></g><g><path style="fill:#ffd7d4" d="M47.477,39.691c2.49,1.341,5.723,0.173,5.723,0.173s-0.805-3.341-3.295-4.682 c-2.49-1.34-5.723-0.173-5.723-0.173S44.986,38.351,47.477,39.691z"/></g><g><path style="fill:#fff" d="M45.454,50.949c2.502,2.505,5.852,4.05,9.546,4.05v-10C51.322,44.999,40.895,37.409,45.454,50.949 z"/></g><g><path style="fill:#7d261e" d="M50,47.999h10c0,0,0,3-5,3S50,47.999,50,47.999z"/></g><g><path style="fill:#7d261e" d="M51,66.999v4l-3.997-3c-3.011,2.559-5.095,5.652-5,10c6-0.666,9.997,0,12.997,5v-13L51,66.999z"/></g></g></g><g id="R-Red" style="display:none"><g style="display:inline"><circle style="fill:#fabbaf" cx="55" cy="55" r="55"/></g><g style="display:inline"><g><path style="fill:#4a1410" d="M63.973,27.688C61.789,25.998,58.841,25,55,25s-6.789,0.998-8.973,2.688L40,23l1,17 c0,8.284,6.268,15,14,15s14-6.716,14-15l1-17L63.973,27.688z"/></g><g><path style="fill:#7d261e" d="M46.027,27.688L40,23l1,17c0,8.284,6.268,15,14,15V25C51.159,25,48.211,25.998,46.027,27.688z"/></g><g><path style="fill:#4a1410" d="M55,49c-4,0-28,2-28,34c0,0,10,4,28,4s28-4,28-4C83,51,59,49,55,49z"/></g><g><path style="fill:#e8a099" d="M55,87c6.848,0,12.534-0.579,16.956-1.297C71.055,59.729,55,55,55,55s-16.055,4.729-16.956,30.703 C42.466,86.421,48.152,87,55,87z"/></g><g><path style="fill:#4a1410" d="M63,68l-4,3v-4l-4,3l-4-3v4l-3.997-3c-3.012,2.559-5.095,5.652-5,10c6-0.666,9.997,0,12.997,5 c3-5,7-5.666,13-5C68.095,73.652,66.012,70.559,63,68z"/></g><g><path style="fill:#ffefed" d="M55,55c3.694,0,7.045-1.545,9.546-4.05C69.104,37.41,58.678,45,55,45s-14.105-7.59-9.546,5.95 C47.955,53.455,51.306,55,55,55z"/></g><g><path style="fill:#ffd7d4" d="M62.523,39.692c-2.49,1.341-5.723,0.173-5.723,0.173s0.805-3.341,3.295-4.682 c2.49-1.34,5.723-0.173,5.723-0.173S65.014,38.352,62.523,39.692z"/></g><g><path style="fill:#ffd7d4" d="M47.477,39.692c2.49,1.341,5.723,0.173,5.723,0.173s-0.805-3.341-3.295-4.682 c-2.49-1.34-5.723-0.173-5.723-0.173S44.986,38.352,47.477,39.692z"/></g><g><path style="fill:#fff" d="M45.454,50.95C47.956,53.455,51.306,55,55,55V45C51.322,45,40.895,37.41,45.454,50.95z"/></g><g><path style="fill:#7d261e" d="M50,48h10c0,0,0,3-5,3S50,48,50,48z"/></g><g><path style="fill:#7d261e" d="M51,67v4l-3.997-3c-3.011,2.559-5.095,5.652-5,10c6-0.666,9.997,0,12.997,5V70L51,67z"/></g></g></g><g id="Yellow" style="display:none"><g style="display:inline"><g><path style="fill:#3d320c" d="M63.973,27.686c-2.184-1.69-5.132-2.688-8.973-2.688s-6.789,0.998-8.973,2.688L40,22.999l1,17 c0,8.284,6.268,15,14,15s14-6.716,14-15l1-17L63.973,27.686z"/></g><g><path style="fill:#66510d" d="M46.027,27.686L40,22.999l1,17c0,8.284,6.268,15,14,15v-30 C51.159,24.999,48.211,25.997,46.027,27.686z"/></g><g><path style="fill:#3d320c" d="M55,48.999c-4,0-28,2-28,34c0,0,10,4,28,4s28-4,28-4C83,50.999,59,48.999,55,48.999z"/></g><g><path style="fill:#f5c43d" d="M55,86.999c6.848,0,12.534-0.579,16.956-1.297C71.055,59.728,55,54.999,55,54.999 s-16.055,4.729-16.956,30.703C42.466,86.42,48.152,86.999,55,86.999z"/></g><g><path style="fill:#3d320c" d="M63,67.999l-4,3v-4l-4,3l-4-3v4l-3.997-3c-3.012,2.559-5.095,5.652-5,10c6-0.666,9.997,0,12.997,5 c3-5,7-5.666,13-5C68.095,73.651,66.012,70.558,63,67.999z"/></g><g><path style="fill:#fff5d9" d="M55,54.999c3.694,0,7.045-1.545,9.546-4.05c4.558-13.54-5.869-5.95-9.546-5.95 s-14.105-7.59-9.546,5.95C47.955,53.454,51.306,54.999,55,54.999z"/></g><g><path style="fill:#ffe9a1" d="M62.523,39.691c-2.49,1.341-5.723,0.173-5.723,0.173s0.805-3.341,3.295-4.682 c2.49-1.34,5.723-0.173,5.723-0.173S65.014,38.351,62.523,39.691z"/></g><g><path style="fill:#ffe9a1" d="M47.477,39.691c2.49,1.341,5.723,0.173,5.723,0.173s-0.805-3.341-3.295-4.682 c-2.49-1.34-5.723-0.173-5.723-0.173S44.986,38.351,47.477,39.691z"/></g><g><path style="fill:#fff" d="M45.454,50.949c2.502,2.505,5.852,4.05,9.546,4.05v-10C51.322,44.999,40.895,37.409,45.454,50.949 z"/></g><g><path style="fill:#66510d" d="M50,47.999h10c0,0,0,3-5,3S50,47.999,50,47.999z"/></g><g><path style="fill:#66510d" d="M51,66.999v4l-3.997-3c-3.011,2.559-5.095,5.652-5,10c6-0.666,9.997,0,12.997,5v-13L51,66.999z"/></g></g></g><g id="R-Yellow" style="display:none"><g style="display:inline"><circle style="fill:#ffd75e" cx="55" cy="55" r="55"/></g><g style="display:inline"><g><path style="fill:#3d320c" d="M63.973,27.688C61.789,25.998,58.841,25,55,25s-6.789,0.998-8.973,2.688L40,23l1,17 c0,8.284,6.268,15,14,15s14-6.716,14-15l1-17L63.973,27.688z"/></g><g><path style="fill:#66510d" d="M46.027,27.688L40,23l1,17c0,8.284,6.268,15,14,15V25C51.159,25,48.211,25.998,46.027,27.688z"/></g><g><path style="fill:#3d320c" d="M55,49c-4,0-28,2-28,34c0,0,10,4,28,4s28-4,28-4C83,51,59,49,55,49z"/></g><g><path style="fill:#f5c43d" d="M55,87c6.848,0,12.534-0.579,16.956-1.297C71.055,59.729,55,55,55,55s-16.055,4.729-16.956,30.703 C42.466,86.421,48.152,87,55,87z"/></g><g><path style="fill:#3d320c" d="M63,68l-4,3v-4l-4,3l-4-3v4l-3.997-3c-3.012,2.559-5.095,5.652-5,10c6-0.666,9.997,0,12.997,5 c3-5,7-5.666,13-5C68.095,73.652,66.012,70.559,63,68z"/></g><g><path style="fill:#fff5d9" d="M55,55c3.694,0,7.045-1.545,9.546-4.05C69.104,37.41,58.678,45,55,45s-14.105-7.59-9.546,5.95 C47.955,53.455,51.306,55,55,55z"/></g><g><path style="fill:#ffe9a1" d="M62.523,39.692c-2.49,1.341-5.723,0.173-5.723,0.173s0.805-3.341,3.295-4.682 c2.49-1.34,5.723-0.173,5.723-0.173S65.014,38.352,62.523,39.692z"/></g><g><path style="fill:#ffe9a1" d="M47.477,39.692c2.49,1.341,5.723,0.173,5.723,0.173s-0.805-3.341-3.295-4.682 c-2.49-1.34-5.723-0.173-5.723-0.173S44.986,38.352,47.477,39.692z"/></g><g><path style="fill:#fff" d="M45.454,50.95C47.956,53.455,51.306,55,55,55V45C51.322,45,40.895,37.41,45.454,50.95z"/></g><g><path style="fill:#66510d" d="M50,48h10c0,0,0,3-5,3S50,48,50,48z"/></g><g><path style="fill:#66510d" d="M51,67v4l-3.997-3c-3.011,2.559-5.095,5.652-5,10c6-0.666,9.997,0,12.997,5V70L51,67z"/></g></g></g></svg>