<svg xmlns="http://www.w3.org/2000/svg" xmlns:xlink="http://www.w3.org/1999/xlink" width="110" height="110" x="0" y="0" version="1.0" viewBox="0 0 110 110" xml:space="preserve" style="enable-background:new 0 0 110 110"><g id="Artboard" style="display:none"><rect style="display:inline;fill:#8c8c8c" width="1245" height="215" x="-175" y="-52"/></g><g id="R-Multicolor" style="display:none"><circle style="display:inline;fill:#e04f5f" cx="55" cy="55" r="55"/><g style="display:inline"><path style="fill:#facb1b" d="M78.5,71c-3.4-2.8-7.5-7.55-7.5-28c0,0,0-1.8-0.93-4c-1.46-3.49-5.26-8-15.07-8 s-13.61,4.51-15.07,8C39,41.2,39,43,39,43c0,20.45-4.1,25.2-7.5,28c-2.43,2-4.5,3.01-4.5,8h28h28C83,74.01,80.93,73,78.5,71z"/><path style="fill:#fbec9a" d="M55,79H27c0-4.99,2.07-6,4.5-8c3.4-2.8,7.5-7.55,7.5-28c0,0,0-1.8,0.93-4c1.46-3.49,5.26-8,15.07-8 V79z"/><circle style="fill:#fbe158" cx="55" cy="27" r="4"/><path style="fill:#facb1b" d="M39.015,42.685c0.071-1,0.364-2.381,0.915-3.685H55v4H39C39,43,39,42.888,39.015,42.685z"/><path style="fill:#f3b607" d="M70.985,42.685c-0.071-1-0.364-2.381-0.915-3.685H55v4h16C71,43,71,42.888,70.985,42.685z"/><path style="fill:#f3b607" d="M78.5,71H55v8h28C83,74.01,80.93,73,78.5,71z"/><path style="fill:#facb1b" d="M31.5,71H55v8H27C27,74.01,29.07,73,31.5,71z"/><path style="fill:#fbe158" d="M55,87c4.418,0,8-3.582,8-8H47C47,83.418,50.582,87,55,87z"/></g></g><g id="Multicolor"><g><path style="fill:#facb1b" d="M78.5,71c-3.4-2.8-7.5-7.55-7.5-28c0,0,0-1.8-0.93-4c-1.46-3.49-5.26-8-15.07-8 s-13.61,4.51-15.07,8C39,41.2,39,43,39,43c0,20.45-4.1,25.2-7.5,28c-2.43,2-4.5,3.01-4.5,8h28h28C83,74.01,80.93,73,78.5,71z"/><path style="fill:#fbec9a" d="M55,79H27c0-4.99,2.07-6,4.5-8c3.4-2.8,7.5-7.55,7.5-28c0,0,0-1.8,0.93-4c1.46-3.49,5.26-8,15.07-8 V79z"/><circle style="fill:#fbe158" cx="55" cy="27" r="4"/><path style="fill:#facb1b" d="M39.015,42.685c0.071-1,0.364-2.381,0.915-3.685H55v4H39C39,43,39,42.888,39.015,42.685z"/><path style="fill:#f3b607" d="M70.985,42.685c-0.071-1-0.364-2.381-0.915-3.685H55v4h16C71,43,71,42.888,70.985,42.685z"/><path style="fill:#f3b607" d="M78.5,71H55v8h28C83,74.01,80.93,73,78.5,71z"/><path style="fill:#facb1b" d="M31.5,71H55v8H27C27,74.01,29.07,73,31.5,71z"/><path style="fill:#fbe158" d="M55,87c4.418,0,8-3.582,8-8H47C47,83.418,50.582,87,55,87z"/></g></g><g id="Blue" style="display:none"><g style="display:inline"><g><path style="fill:#e1f5fa" d="M78.5,71c-3.4-2.8-7.5-7.55-7.5-28c0,0,0-1.8-0.93-4c-1.46-3.49-5.26-8-15.07-8 s-13.61,4.51-15.07,8C39,41.2,39,43,39,43c0,20.45-4.1,25.2-7.5,28c-2.43,2-4.5,3.01-4.5,8h28h28C83,74.01,80.93,73,78.5,71z"/></g><g><path style="fill:#fff" d="M55,79H27c0-4.99,2.07-6,4.5-8c3.4-2.8,7.5-7.55,7.5-28c0,0,0-1.8,0.93-4 c1.46-3.49,5.26-8,15.07-8V79z"/></g><g><circle style="fill:#fff" cx="55" cy="27" r="4"/></g><g><path style="fill:#e1f5fa" d="M39.015,42.685c0.07-1,0.364-2.381,0.915-3.685H55v4H39C39,43,39,42.888,39.015,42.685z"/></g><g><path style="fill:#bbe7f2" d="M70.985,42.685c-0.07-1-0.364-2.381-0.915-3.685H55v4h16C71,43,71,42.888,70.985,42.685z"/></g><g><path style="fill:#bbe7f2" d="M78.5,71H55v8h28C83,74.01,80.93,73,78.5,71z"/></g><g><path style="fill:#e1f5fa" d="M31.5,71H55v8H27C27,74.01,29.07,73,31.5,71z"/></g><g><path style="fill:#0081a1" d="M55,87c4.418,0,8-3.581,8-8H47C47,83.419,50.581,87,55,87z"/></g></g></g><g id="R-Blue" style="display:none"><g style="display:inline"><circle style="fill:#81d2eb" cx="55" cy="55" r="55"/></g><g style="display:inline"><g><path style="fill:#e1f5fa" d="M78.5,71c-3.4-2.8-7.5-7.55-7.5-28c0,0,0-1.8-0.93-4c-1.46-3.49-5.26-8-15.07-8 s-13.61,4.51-15.07,8C39,41.2,39,43,39,43c0,20.45-4.1,25.2-7.5,28c-2.43,2-4.5,3.01-4.5,8h28h28C83,74.01,80.93,73,78.5,71z"/></g><g><path style="fill:#fff" d="M55,79H27c0-4.99,2.07-6,4.5-8c3.4-2.8,7.5-7.55,7.5-28c0,0,0-1.8,0.93-4 c1.46-3.49,5.26-8,15.07-8V79z"/></g><g><circle style="fill:#fff" cx="55" cy="27" r="4"/></g><g><path style="fill:#e1f5fa" d="M39.015,42.685c0.07-1,0.364-2.381,0.915-3.685H55v4H39C39,43,39,42.888,39.015,42.685z"/></g><g><path style="fill:#bbe7f2" d="M70.985,42.685c-0.07-1-0.364-2.381-0.915-3.685H55v4h16C71,43,71,42.888,70.985,42.685z"/></g><g><path style="fill:#bbe7f2" d="M78.5,71H55v8h28C83,74.01,80.93,73,78.5,71z"/></g><g><path style="fill:#e1f5fa" d="M31.5,71H55v8H27C27,74.01,29.07,73,31.5,71z"/></g><g><path style="fill:#0081a1" d="M55,87c4.418,0,8-3.581,8-8H47C47,83.419,50.582,87,55,87z"/></g></g></g><g id="Green" style="display:none"><g style="display:inline"><g><path style="fill:#d7fcf9" d="M78.5,71c-3.4-2.8-7.5-7.55-7.5-28c0,0,0-1.8-0.93-4c-1.46-3.49-5.26-8-15.07-8 s-13.61,4.51-15.07,8C39,41.2,39,43,39,43c0,20.45-4.1,25.2-7.5,28c-2.43,2-4.5,3.01-4.5,8h28h28C83,74.01,80.93,73,78.5,71z"/></g><g><path style="fill:#fff" d="M55,79H27c0-4.99,2.07-6,4.5-8c3.4-2.8,7.5-7.55,7.5-28c0,0,0-1.8,0.93-4 c1.46-3.49,5.26-8,15.07-8V79z"/></g><g><circle style="fill:#fff" cx="55" cy="27" r="4"/></g><g><path style="fill:#d7fcf9" d="M39.015,42.685c0.07-1,0.364-2.381,0.915-3.685H55v4H39C39,43,39,42.888,39.015,42.685z"/></g><g><path style="fill:#aaf0e9" d="M70.985,42.685c-0.07-1-0.364-2.381-0.915-3.685H55v4h16C71,43,71,42.888,70.985,42.685z"/></g><g><path style="fill:#aaf0e9" d="M78.5,71H55v8h28C83,74.01,80.93,73,78.5,71z"/></g><g><path style="fill:#d7fcf9" d="M31.5,71H55v8H27C27,74.01,29.07,73,31.5,71z"/></g><g><path style="fill:#009687" d="M55,87c4.418,0,8-3.581,8-8H47C47,83.419,50.582,87,55,87z"/></g></g></g><g id="R-Green" style="display:none"><g style="display:inline"><circle style="fill:#87e0c8" cx="55" cy="55" r="55"/></g><g style="display:inline"><g><path style="fill:#d7fcf9" d="M78.5,71c-3.4-2.8-7.5-7.55-7.5-28c0,0,0-1.8-0.93-4c-1.46-3.49-5.26-8-15.07-8 s-13.61,4.51-15.07,8C39,41.2,39,43,39,43c0,20.45-4.1,25.2-7.5,28c-2.43,2-4.5,3.01-4.5,8h28h28C83,74.01,80.93,73,78.5,71z"/></g><g><path style="fill:#fff" d="M55,79H27c0-4.99,2.07-6,4.5-8c3.4-2.8,7.5-7.55,7.5-28c0,0,0-1.8,0.93-4 c1.46-3.49,5.26-8,15.07-8V79z"/></g><g><circle style="fill:#fff" cx="55" cy="27" r="4"/></g><g><path style="fill:#d7fcf9" d="M39.015,42.685c0.07-1,0.364-2.381,0.915-3.685H55v4H39C39,43,39,42.888,39.015,42.685z"/></g><g><path style="fill:#aaf0e9" d="M70.985,42.685c-0.07-1-0.364-2.381-0.915-3.685H55v4h16C71,43,71,42.888,70.985,42.685z"/></g><g><path style="fill:#aaf0e9" d="M78.5,71H55v8h28C83,74.01,80.93,73,78.5,71z"/></g><g><path style="fill:#d7fcf9" d="M31.5,71H55v8H27C27,74.01,29.07,73,31.5,71z"/></g><g><path style="fill:#009687" d="M55,87c4.418,0,8-3.581,8-8H47C47,83.419,50.582,87,55,87z"/></g></g></g><g id="Red" style="display:none"><g style="display:inline"><g><path style="fill:#ffefed" d="M78.5,71c-3.4-2.8-7.5-7.55-7.5-28c0,0,0-1.8-0.93-4c-1.46-3.49-5.26-8-15.07-8 s-13.61,4.51-15.07,8C39,41.2,39,43,39,43c0,20.45-4.1,25.2-7.5,28c-2.43,2-4.5,3.01-4.5,8h28h28C83,74.01,80.93,73,78.5,71z"/></g><g><path style="fill:#fff" d="M55,79H27c0-4.99,2.07-6,4.5-8c3.4-2.8,7.5-7.55,7.5-28c0,0,0-1.8,0.93-4 c1.46-3.49,5.26-8,15.07-8V79z"/></g><g><circle style="fill:#fff" cx="55" cy="27" r="4"/></g><g><path style="fill:#ffefed" d="M39.015,42.685c0.07-1,0.364-2.381,0.915-3.685H55v4H39C39,43,39,42.888,39.015,42.685z"/></g><g><path style="fill:#ffd7d4" d="M70.985,42.685c-0.07-1-0.364-2.381-0.915-3.685H55v4h16C71,43,71,42.888,70.985,42.685z"/></g><g><path style="fill:#ffd7d4" d="M78.5,71H55v8h28C83,74.01,80.93,73,78.5,71z"/></g><g><path style="fill:#ffefed" d="M31.5,71H55v8H27C27,74.01,29.07,73,31.5,71z"/></g><g><path style="fill:#c23023" d="M55,87c4.418,0,8-3.581,8-8H47C47,83.419,50.582,87,55,87z"/></g></g></g><g id="R-Red" style="display:none"><g style="display:inline"><circle style="fill:#fabbaf" cx="55" cy="55" r="55"/></g><g style="display:inline"><g><path style="fill:#ffefed" d="M78.5,71c-3.4-2.8-7.5-7.55-7.5-28c0,0,0-1.8-0.93-4c-1.46-3.49-5.26-8-15.07-8 s-13.61,4.51-15.07,8C39,41.2,39,43,39,43c0,20.45-4.1,25.2-7.5,28c-2.43,2-4.5,3.01-4.5,8h28h28C83,74.01,80.93,73,78.5,71z"/></g><g><path style="fill:#fff" d="M55,79H27c0-4.99,2.07-6,4.5-8c3.4-2.8,7.5-7.55,7.5-28c0,0,0-1.8,0.93-4 c1.46-3.49,5.26-8,15.07-8V79z"/></g><g><circle style="fill:#fff" cx="55" cy="27" r="4"/></g><g><path style="fill:#ffefed" d="M39.015,42.685c0.07-1,0.364-2.381,0.915-3.685H55v4H39C39,43,39,42.888,39.015,42.685z"/></g><g><path style="fill:#ffd7d4" d="M70.985,42.685c-0.07-1-0.364-2.381-0.915-3.685H55v4h16C71,43,71,42.888,70.985,42.685z"/></g><g><path style="fill:#ffd7d4" d="M78.5,71H55v8h28C83,74.01,80.93,73,78.5,71z"/></g><g><path style="fill:#ffefed" d="M31.5,71H55v8H27C27,74.01,29.07,73,31.5,71z"/></g><g><path style="fill:#c23023" d="M55,87c4.418,0,8-3.581,8-8H47C47,83.419,50.582,87,55,87z"/></g></g></g><g id="Yellow" style="display:none"><g style="display:inline"><g><path style="fill:#fff5d9" d="M78.5,71c-3.4-2.8-7.5-7.55-7.5-28c0,0,0-1.8-0.93-4c-1.46-3.49-5.26-8-15.07-8 s-13.61,4.51-15.07,8C39,41.2,39,43,39,43c0,20.45-4.1,25.2-7.5,28c-2.43,2-4.5,3.01-4.5,8h28h28C83,74.01,80.93,73,78.5,71z"/></g><g><path style="fill:#fff" d="M55,79H27c0-4.99,2.07-6,4.5-8c3.4-2.8,7.5-7.55,7.5-28c0,0,0-1.8,0.93-4 c1.46-3.49,5.26-8,15.07-8V79z"/></g><g><circle style="fill:#fff" cx="55" cy="27" r="4"/></g><g><path style="fill:#fff5d9" d="M39.015,42.685c0.07-1,0.364-2.381,0.915-3.685H55v4H39C39,43,39,42.888,39.015,42.685z"/></g><g><path style="fill:#ffe9a1" d="M70.985,42.685c-0.07-1-0.364-2.381-0.915-3.685H55v4h16C71,43,71,42.888,70.985,42.685z"/></g><g><path style="fill:#ffe9a1" d="M78.5,71H55v8h28C83,74.01,80.93,73,78.5,71z"/></g><g><path style="fill:#fff5d9" d="M31.5,71H55v8H27C27,74.01,29.07,73,31.5,71z"/></g><g><path style="fill:#e07000" d="M55,87c4.418,0,8-3.581,8-8H47C47,83.419,50.582,87,55,87z"/></g></g></g><g id="R-Yellow" style="display:none"><g style="display:inline"><circle style="fill:#ffd75e" cx="55" cy="55" r="55"/></g><g style="display:inline"><g><path style="fill:#fff5d9" d="M78.5,71c-3.4-2.8-7.5-7.55-7.5-28c0,0,0-1.8-0.93-4c-1.46-3.49-5.26-8-15.07-8 s-13.61,4.51-15.07,8C39,41.2,39,43,39,43c0,20.45-4.1,25.2-7.5,28c-2.43,2-4.5,3.01-4.5,8h28h28C83,74.01,80.93,73,78.5,71z"/></g><g><path style="fill:#fff" d="M55,79H27c0-4.99,2.07-6,4.5-8c3.4-2.8,7.5-7.55,7.5-28c0,0,0-1.8,0.93-4 c1.46-3.49,5.26-8,15.07-8V79z"/></g><g><circle style="fill:#fff" cx="55" cy="27" r="4"/></g><g><path style="fill:#fff5d9" d="M39.015,42.685c0.07-1,0.364-2.381,0.915-3.685H55v4H39C39,43,39,42.888,39.015,42.685z"/></g><g><path style="fill:#ffe9a1" d="M70.985,42.685c-0.07-1-0.364-2.381-0.915-3.685H55v4h16C71,43,71,42.888,70.985,42.685z"/></g><g><path style="fill:#ffe9a1" d="M78.5,71H55v8h28C83,74.01,80.93,73,78.5,71z"/></g><g><path style="fill:#fff5d9" d="M31.5,71H55v8H27C27,74.01,29.07,73,31.5,71z"/></g><g><path style="fill:#e07000" d="M55,87c4.418,0,8-3.581,8-8H47C47,83.419,50.581,87,55,87z"/></g></g></g></svg>