<svg xmlns="http://www.w3.org/2000/svg" xmlns:xlink="http://www.w3.org/1999/xlink" width="110" height="110" x="0" y="0" version="1.0" viewBox="0 0 110 110" xml:space="preserve" style="enable-background:new 0 0 110 110"><g id="Artboard" style="display:none"><rect style="display:inline;fill:gray;stroke:#000;stroke-miterlimit:10" width="1351" height="461" x="-826.5" y="-36.5"/></g><g id="R-Multicolor" style="display:none"><g style="display:inline"><circle style="fill:#fabc3d" cx="55" cy="55" r="55"/></g><g style="display:inline"><g><polygon style="fill:#f1f2f2" points="55 87 43 67.997 67 67.997"/></g><g><path style="fill:#f7b4b4" d="M59,68.031h-4h-4l-6-3.752v3.218c0,0,0,7.5,10,7.5s10-7.5,10-7.5v-3.219L59,68.031z"/></g><path style="fill:#fbc8c8" d="M72,47.222C72,46.111,71,45,70,45s-1,1.111-1,1.111V45c-0.018-9-1.024-15-14-15s-13.982,6-14,15 v7.997l4,10l5.105,3.996c0.569,0.639,1.384,1.004,2.24,1.004H55h2.655c0.856,0,1.671-0.365,2.24-1.004L65,62.997l3.207-8.017 C71.042,54.776,72,50.476,72,47.222z"/><path style="fill:#fbd7d7" d="M41,45v1.111c0,0,0-1.111-1-1.111s-2,1.111-2,2.222c0,3.253,0.958,7.554,3.793,7.758L45,62.997 l5.105,3.996c0.569,0.639,1.384,1.004,2.24,1.004H55V30C42.024,30,41.018,36,41,45z"/><g><polygon style="fill:#fbc8c8" points="48 60.031 48.011 59.997 46.982 59.997 47 60.031"/><path style="fill:#fbc8c8" d="M55,68.031h-4l-6-3.752v3.218c0,0,0,7.5,10,7.5L55,68.031L55,68.031z"/></g><path style="fill:#692e19" d="M67.807,34.274c0.098-0.417,0.146-0.84,0.146-1.262c0-2.842-0.908-4.783-12.953-4.972v-0.024 C54.366,28.006,53.711,28,53.015,28c-12.511,0-13.042,7.98-13.014,9.679c0.003,0.203,0.014,0.322,0.014,0.322s0,5.02,0,7.016 c0,0.004,0,0.01,0,0.014c0,0,1,2,2,4v7l0.984,6.997l8,5.003h4l0,0h4l8-5.003l0.984-6.997v-7h0.031l2-4V40 C70.015,38.023,69.275,36.055,67.807,34.274z M62.999,60.031h-1l-2-6h-5l0,0h-5l-2,6h-1l-3-6V37.673 c3.339,2.246,6.812,2.372,11,2.354v-0.003c2.604-0.012,7.892,0.031,11-2.787v16.792L62.999,60.031z"/><path style="fill:#84462d" d="M55,40.028V28.016C54.367,28.006,53.712,28,53.016,28c-14,0-13,10-13,10s0,5.031,0,7.031 c0,0,1,2,2,4v7L43,63.028l8,5.003h4v-14h-5l-2,6h-1l-3-6V37.665C46.189,39.137,47.936,40.055,55,40.028z"/><g><path style="fill:#3e3e3f" d="M52,46.997c0-1.104-0.896-2-2-2c-0.002,0-0.004,0-0.006,0C49.995,45.019,50,45.039,50,45.06 c0,1.103-0.892,1.996-1.994,2c0.033,1.075,0.91,1.938,1.994,1.938C51.104,48.997,52,48.102,52,46.997z"/></g><g><path style="fill:#3e3e3f" d="M61.994,46.997c0-1.104-0.896-2-2-2c-0.002,0-0.004,0-0.006,0 c0.001,0.021,0.006,0.041,0.006,0.062c0,1.103-0.892,1.996-1.994,2c0.033,1.075,0.91,1.938,1.994,1.938 C61.098,48.997,61.994,48.102,61.994,46.997z"/></g><g><polygon style="fill:#fff" points="43 67.997 45 66.997 54.985 71.978 49 77.997"/></g><g><polygon style="fill:#fff" points="67 67.997 65 66.997 55.015 71.978 61 77.997"/></g><g><polygon style="fill:#099686" points="59 87 56.201 76.8 58 75.002 54.981 71.978 51.983 74.976 53.801 76.793 51 87"/></g><g><polygon style="fill:#12b2a0" points="55 87 55 71.997 54.981 71.978 51.983 74.976 53.801 76.793 51 87"/></g><g><path style="fill:#3e3e3f" d="M23,87l4-11c0.615-1.333,1.698-2.394,3.043-2.983L43,68l12,19H23z"/></g><g><path style="fill:#3e3e3f" d="M87,87l-4-11c-0.615-1.333-1.698-2.394-3.043-2.983L67,68L55,87H87z"/></g><g><rect style="fill:#fff" width="10" height="2" x="66" y="79.997"/></g><g><path style="fill:#fbc8c8" d="M51,56.997h8c0,0,0,4.003-4,4.003S51,56.997,51,56.997z"/></g></g></g><g id="Multicolor"><g><g><polygon style="fill:#f1f2f2" points="55 87 43 67.997 67 67.997"/></g><g><path style="fill:#f7b4b4" d="M59,68.031h-4h-4l-6-3.752v3.218c0,0,0,7.5,10,7.5s10-7.5,10-7.5v-3.219L59,68.031z"/></g><path style="fill:#fbc8c8" d="M72,47.222C72,46.111,71,45,70,45s-1,1.111-1,1.111V45c-0.018-9-1.024-15-14-15s-13.982,6-14,15 v7.997l4,10l5.105,3.996c0.569,0.639,1.384,1.004,2.24,1.004H55h2.655c0.856,0,1.671-0.365,2.24-1.004L65,62.997l3.207-8.017 C71.042,54.776,72,50.476,72,47.222z"/><path style="fill:#fbd7d7" d="M41,45v1.111c0,0,0-1.111-1-1.111s-2,1.111-2,2.222c0,3.253,0.958,7.554,3.793,7.758L45,62.997 l5.105,3.996c0.569,0.639,1.384,1.004,2.24,1.004H55V30C42.024,30,41.018,36,41,45z"/><g><polygon style="fill:#fbc8c8" points="48 60.031 48.011 59.997 46.982 59.997 47 60.031"/><path style="fill:#fbc8c8" d="M55,68.031h-4l-6-3.752v3.218c0,0,0,7.5,10,7.5L55,68.031L55,68.031z"/></g><path style="fill:#692e19" d="M67.807,34.274c0.098-0.417,0.146-0.84,0.146-1.262c0-2.842-0.908-4.783-12.953-4.972v-0.024 C54.366,28.006,53.711,28,53.015,28c-12.511,0-13.042,7.98-13.014,9.679c0.003,0.203,0.014,0.322,0.014,0.322s0,5.02,0,7.016 c0,0.004,0,0.01,0,0.014c0,0,1,2,2,4v7l0.984,6.997l8,5.003h4l0,0h4l8-5.003l0.984-6.997v-7h0.031l2-4V40 C70.015,38.023,69.275,36.055,67.807,34.274z M62.999,60.031h-1l-2-6h-5l0,0h-5l-2,6h-1l-3-6V37.673 c3.339,2.246,6.812,2.372,11,2.354v-0.003c2.604-0.012,7.892,0.031,11-2.787v16.792L62.999,60.031z"/><path style="fill:#84462d" d="M55,40.028V28.016C54.367,28.006,53.712,28,53.016,28c-14,0-13,10-13,10s0,5.031,0,7.031 c0,0,1,2,2,4v7L43,63.028l8,5.003h4v-14h-5l-2,6h-1l-3-6V37.665C46.189,39.137,47.936,40.055,55,40.028z"/><g><path style="fill:#3e3e3f" d="M52,46.997c0-1.104-0.896-2-2-2c-0.002,0-0.004,0-0.006,0C49.995,45.019,50,45.039,50,45.06 c0,1.103-0.892,1.996-1.994,2c0.033,1.075,0.91,1.938,1.994,1.938C51.104,48.997,52,48.102,52,46.997z"/></g><g><path style="fill:#3e3e3f" d="M61.994,46.997c0-1.104-0.896-2-2-2c-0.002,0-0.004,0-0.006,0 c0.001,0.021,0.006,0.041,0.006,0.062c0,1.103-0.892,1.996-1.994,2c0.033,1.075,0.91,1.938,1.994,1.938 C61.098,48.997,61.994,48.102,61.994,46.997z"/></g><g><polygon style="fill:#fff" points="43 67.997 45 66.997 54.985 71.978 49 77.997"/></g><g><polygon style="fill:#fff" points="67 67.997 65 66.997 55.015 71.978 61 77.997"/></g><g><polygon style="fill:#099686" points="59 87 56.201 76.8 58 75.002 54.981 71.978 51.983 74.976 53.801 76.793 51 87"/></g><g><polygon style="fill:#12b2a0" points="55 87 55 71.997 54.981 71.978 51.983 74.976 53.801 76.793 51 87"/></g><g><path style="fill:#3e3e3f" d="M23,87l4-11c0.615-1.333,1.698-2.394,3.043-2.983L43,68l12,19H23z"/></g><g><path style="fill:#3e3e3f" d="M87,87l-4-11c-0.615-1.333-1.698-2.394-3.043-2.983L67,68L55,87H87z"/></g><g><rect style="fill:#fff" width="10" height="2" x="66" y="79.997"/></g><g><path style="fill:#fbc8c8" d="M51,56.997h8c0,0,0,4.003-4,4.003S51,56.997,51,56.997z"/></g></g></g><g id="Blue" style="display:none"><g style="display:inline"><g><polygon style="fill:#e1f5fa" points="55 87 43 67.997 67 67.997"/></g><g><path style="fill:#bbe7f2" d="M58.999,68.031h-4h-4L45,64.279v3.218c0,0,0,7.5,10,7.5s10-7.5,10-7.5v-3.219L58.999,68.031z"/></g><path style="fill:#e1f5fa" d="M72,47.222C72,46.111,71,45,70,45s-1,1.111-1,1.111V45c-0.018-9-1.024-15-14-15 c-12.976,0-13.982,6-14,15v7.997l4,10l5.105,3.996c0.569,0.639,1.384,1.004,2.24,1.004H55h2.655c0.856,0,1.671-0.365,2.24-1.004 L65,62.997l3.206-8.017C71.041,54.776,72,50.476,72,47.222z"/><path style="fill:#fff" d="M41,45v1.111c0,0,0-1.111-1-1.111s-2,1.111-2,2.222c0,3.253,0.957,7.554,3.793,7.758L45,62.997 l5.105,3.996c0.569,0.639,1.384,1.004,2.24,1.004H55V30C42.024,30,41.018,36,41,45z"/><g><polygon style="fill:#e1f5fa" points="47.999 60.031 48.011 59.997 46.982 59.997 46.999 60.031"/><path style="fill:#e1f5fa" d="M54.999,68.031h-4L45,64.279v3.218c0,0,0,7.5,10,7.5L54.999,68.031L54.999,68.031z"/></g><path style="fill:#0c333d" d="M67.807,34.274c0.098-0.418,0.146-0.84,0.146-1.262c0-2.842-0.908-4.783-12.953-4.972v-0.024 C54.366,28.006,53.711,28,53.015,28c-12.511,0-13.042,7.981-13.014,9.679c0.003,0.203,0.014,0.322,0.014,0.322s0,5.02,0,7.016 c0,0.004,0,0.01,0,0.014c0,0,1,2,2,4v7l0.984,6.997l8,5.003h4l0,0h4l8-5.003l0.984-6.997v-7h0.031l2-4V40 C70.015,38.023,69.275,36.055,67.807,34.274z M62.999,60.031h-1l-2-6h-5l0,0h-5l-2,6h-1l-3-6V37.673 c3.339,2.246,6.812,2.372,11,2.355v-0.003c2.604-0.012,7.891,0.031,11-2.787v16.793L62.999,60.031z"/><path style="fill:#0f6175" d="M55,40.028V28.016C54.367,28.006,53.712,28,53.016,28c-14,0-13,10-13,10s0,5.031,0,7.031 c0,0,1,2,2,4v7L43,63.028l8,5.003h4v-14h-5l-2,6h-1l-3-6V37.665C46.189,39.137,47.935,40.055,55,40.028z"/><g><path style="fill:#0c333d" d="M52,46.997c0-1.104-0.896-2-2-2c-0.002,0-0.004,0.001-0.006,0.001 C49.995,45.019,50,45.039,50,45.06c0,1.102-0.892,1.996-1.994,1.999c0.033,1.075,0.91,1.938,1.994,1.938 C51.104,48.997,52,48.102,52,46.997z"/></g><g><path style="fill:#0c333d" d="M61.994,46.997c0-1.104-0.896-2-2-2c-0.002,0-0.004,0.001-0.006,0.001 c0.001,0.021,0.006,0.041,0.006,0.062c0,1.102-0.892,1.996-1.994,1.999c0.033,1.075,0.91,1.938,1.994,1.938 C61.098,48.997,61.994,48.102,61.994,46.997z"/></g><g><polygon style="fill:#fff" points="43 67.997 45 66.997 54.985 71.978 49 77.997"/></g><g><polygon style="fill:#fff" points="67 67.997 65 66.997 55.015 71.978 61 77.997"/></g><g><polygon style="fill:#009fc7" points="59 87 56.201 76.8 57.999 75.002 54.981 71.978 51.983 74.976 53.801 76.794 51 87"/></g><g><polygon style="fill:#00b7e5" points="55 87 55 71.997 54.981 71.978 51.983 74.976 53.801 76.794 51 87"/></g><g><path style="fill:#0c333d" d="M23,87l4-11c0.615-1.333,1.698-2.394,3.043-2.982L43,68l12,19H23z"/></g><g><path style="fill:#0c333d" d="M87,87l-4-11c-0.615-1.333-1.698-2.394-3.043-2.982L67,68L55,87H87z"/></g><g><rect style="fill:#fff" width="10" height="2" x="66" y="79.997"/></g><g><path style="fill:#e1f5fa" d="M51,56.997h8c0,0,0,4.003-4,4.003S51,56.997,51,56.997z"/></g></g></g><g id="R-Blue" style="display:none"><g style="display:inline"><circle style="fill:#81d2eb" cx="55" cy="55" r="55"/></g><g style="display:inline"><g><polygon style="fill:#e1f5fa" points="55 87 43 67.997 67 67.997"/></g><g><path style="fill:#bbe7f2" d="M58.999,68.031h-4h-4L45,64.279v3.218c0,0,0,7.5,10,7.5s10-7.5,10-7.5v-3.219L58.999,68.031z"/></g><path style="fill:#e1f5fa" d="M72,47.222C72,46.111,71,45,70,45s-1,1.111-1,1.111V45c-0.018-9-1.024-15-14-15 c-12.976,0-13.982,6-14,15v7.997l4,10l5.105,3.996c0.569,0.639,1.384,1.004,2.24,1.004H55h2.655c0.856,0,1.671-0.365,2.24-1.004 L65,62.997l3.206-8.017C71.041,54.776,72,50.476,72,47.222z"/><path style="fill:#fff" d="M41,45v1.111c0,0,0-1.111-1-1.111s-2,1.111-2,2.222c0,3.253,0.957,7.554,3.793,7.758L45,62.997 l5.105,3.996c0.569,0.639,1.384,1.004,2.24,1.004H55V30C42.024,30,41.018,36,41,45z"/><g><polygon style="fill:#e1f5fa" points="47.999 60.031 48.011 59.997 46.982 59.997 46.999 60.031"/><path style="fill:#e1f5fa" d="M54.999,68.031h-4L45,64.279v3.218c0,0,0,7.5,10,7.5L54.999,68.031L54.999,68.031z"/></g><path style="fill:#0c333d" d="M67.807,34.274c0.098-0.418,0.146-0.84,0.146-1.262c0-2.842-0.908-4.783-12.953-4.972v-0.024 C54.366,28.006,53.711,28,53.015,28c-12.511,0-13.042,7.981-13.014,9.679c0.003,0.203,0.014,0.322,0.014,0.322s0,5.02,0,7.016 c0,0.004,0,0.01,0,0.014c0,0,1,2,2,4v7l0.984,6.997l8,5.003h4l0,0h4l8-5.003l0.984-6.997v-7h0.031l2-4V40 C70.015,38.023,69.275,36.055,67.807,34.274z M62.999,60.031h-1l-2-6h-5l0,0h-5l-2,6h-1l-3-6V37.673 c3.339,2.246,6.812,2.372,11,2.355v-0.003c2.604-0.012,7.891,0.031,11-2.787v16.793L62.999,60.031z"/><path style="fill:#0f6175" d="M55,40.028V28.016C54.367,28.006,53.712,28,53.016,28c-14,0-13,10-13,10s0,5.031,0,7.031 c0,0,1,2,2,4v7L43,63.028l8,5.003h4v-14h-5l-2,6h-1l-3-6V37.665C46.189,39.137,47.935,40.055,55,40.028z"/><g><path style="fill:#0c333d" d="M52,46.997c0-1.104-0.896-2-2-2c-0.002,0-0.004,0.001-0.006,0.001 C49.995,45.019,50,45.039,50,45.06c0,1.102-0.892,1.996-1.994,1.999c0.033,1.075,0.91,1.938,1.994,1.938 C51.104,48.997,52,48.102,52,46.997z"/></g><g><path style="fill:#0c333d" d="M61.994,46.997c0-1.104-0.896-2-2-2c-0.002,0-0.004,0.001-0.006,0.001 c0.001,0.021,0.006,0.041,0.006,0.062c0,1.102-0.892,1.996-1.994,1.999c0.033,1.075,0.91,1.938,1.994,1.938 C61.098,48.997,61.994,48.102,61.994,46.997z"/></g><g><polygon style="fill:#fff" points="43 67.997 45 66.997 54.985 71.978 49 77.997"/></g><g><polygon style="fill:#fff" points="67 67.997 65 66.997 55.015 71.978 61 77.997"/></g><g><polygon style="fill:#009fc7" points="59 87 56.201 76.8 57.999 75.002 54.981 71.978 51.983 74.976 53.801 76.794 51 87"/></g><g><polygon style="fill:#00b7e5" points="55 87 55 71.997 54.981 71.978 51.983 74.976 53.801 76.794 51 87"/></g><g><path style="fill:#0c333d" d="M23,87l4-11c0.615-1.333,1.698-2.394,3.043-2.982L43,68l12,19H23z"/></g><g><path style="fill:#0c333d" d="M87,87l-4-11c-0.615-1.333-1.698-2.394-3.043-2.982L67,68L55,87H87z"/></g><g><rect style="fill:#fff" width="10" height="2" x="66" y="79.997"/></g><g><path style="fill:#e1f5fa" d="M51,56.997h8c0,0,0,4.003-4,4.003S51,56.997,51,56.997z"/></g></g></g><g id="Green" style="display:none"><g style="display:inline"><g><polygon style="fill:#d7fcf9" points="55 87 43 67.997 67 67.997"/></g><g><path style="fill:#aaf0e9" d="M58.999,68.031h-4h-4L45,64.279v3.218c0,0,0,7.5,10,7.5s10-7.5,10-7.5v-3.219L58.999,68.031z"/></g><path style="fill:#d7fcf9" d="M72,47.222C72,46.111,71,45,70,45s-1,1.111-1,1.111V45c-0.018-9-1.024-15-14-15 c-12.976,0-13.982,6-14,15v7.997l4,10l5.105,3.996c0.569,0.639,1.384,1.004,2.24,1.004H55h2.655c0.856,0,1.671-0.365,2.24-1.004 L65,62.997l3.206-8.017C71.041,54.776,72,50.476,72,47.222z"/><path style="fill:#fff" d="M41,45v1.111c0,0,0-1.111-1-1.111s-2,1.111-2,2.222c0,3.253,0.957,7.554,3.793,7.758L45,62.997 l5.105,3.996c0.569,0.639,1.384,1.004,2.24,1.004H55V30C42.024,30,41.018,36,41,45z"/><g><polygon style="fill:#d7fcf9" points="47.999 60.031 48.011 59.997 46.982 59.997 46.999 60.031"/><path style="fill:#d7fcf9" d="M54.999,68.031h-4L45,64.279v3.218c0,0,0,7.5,10,7.5L54.999,68.031L54.999,68.031z"/></g><path style="fill:#0a3631" d="M67.807,34.274c0.098-0.418,0.146-0.84,0.146-1.262c0-2.842-0.908-4.783-12.953-4.972v-0.024 C54.366,28.006,53.711,28,53.015,28c-12.511,0-13.042,7.981-13.014,9.679c0.003,0.203,0.014,0.322,0.014,0.322s0,5.02,0,7.016 c0,0.004,0,0.01,0,0.014c0,0,1,2,2,4v7l0.984,6.997l8,5.003h4l0,0h4l8-5.003l0.984-6.997v-7h0.031l2-4V40 C70.015,38.023,69.275,36.055,67.807,34.274z M62.999,60.031h-1l-2-6h-5l0,0h-5l-2,6h-1l-3-6V37.673 c3.339,2.246,6.812,2.372,11,2.355v-0.003c2.604-0.012,7.891,0.031,11-2.787v16.793L62.999,60.031z"/><path style="fill:#14635b" d="M55,40.028V28.016C54.367,28.006,53.712,28,53.016,28c-14,0-13,10-13,10s0,5.031,0,7.031 c0,0,1,2,2,4v7L43,63.028l8,5.003h4v-14h-5l-2,6h-1l-3-6V37.665C46.189,39.137,47.935,40.055,55,40.028z"/><g><path style="fill:#0a3631" d="M52,46.997c0-1.104-0.896-2-2-2c-0.002,0-0.004,0.001-0.006,0.001 C49.995,45.019,50,45.039,50,45.06c0,1.102-0.892,1.996-1.994,1.999c0.033,1.075,0.91,1.938,1.994,1.938 C51.104,48.997,52,48.102,52,46.997z"/></g><g><path style="fill:#0a3631" d="M61.994,46.997c0-1.104-0.896-2-2-2c-0.002,0-0.004,0.001-0.006,0.001 c0.001,0.021,0.006,0.041,0.006,0.062c0,1.102-0.892,1.996-1.994,1.999c0.033,1.075,0.91,1.938,1.994,1.938 C61.098,48.997,61.994,48.102,61.994,46.997z"/></g><g><polygon style="fill:#fff" points="43 67.997 45 66.997 54.985 71.978 49 77.997"/></g><g><polygon style="fill:#fff" points="67 67.997 65 66.997 55.015 71.978 61 77.997"/></g><g><polygon style="fill:#00b8a5" points="59 87 56.201 76.8 57.999 75.002 54.981 71.978 51.983 74.976 53.801 76.794 51 87"/></g><g><polygon style="fill:#00d6c1" points="55 87 55 71.997 54.981 71.978 51.983 74.976 53.801 76.794 51 87"/></g><g><path style="fill:#0a3631" d="M23,87l4-11c0.615-1.333,1.698-2.394,3.043-2.982L43,68l12,19H23z"/></g><g><path style="fill:#0a3631" d="M87,87l-4-11c-0.615-1.333-1.698-2.394-3.043-2.982L67,68L55,87H87z"/></g><g><rect style="fill:#fff" width="10" height="2" x="66" y="79.997"/></g><g><path style="fill:#d7fcf9" d="M51,56.997h8c0,0,0,4.003-4,4.003S51,56.997,51,56.997z"/></g></g></g><g id="R-Green" style="display:none"><g style="display:inline"><circle style="fill:#77e0c4" cx="55" cy="55" r="55"/></g><g style="display:inline"><g><polygon style="fill:#d7fcf9" points="55 87 43 67.997 67 67.997"/></g><g><path style="fill:#aaf0e9" d="M58.999,68.031h-4h-4L45,64.279v3.218c0,0,0,7.5,10,7.5s10-7.5,10-7.5v-3.219L58.999,68.031z"/></g><path style="fill:#d7fcf9" d="M72,47.222C72,46.111,71,45,70,45s-1,1.111-1,1.111V45c-0.018-9-1.024-15-14-15 c-12.976,0-13.982,6-14,15v7.997l4,10l5.105,3.996c0.569,0.639,1.384,1.004,2.24,1.004H55h2.655c0.856,0,1.671-0.365,2.24-1.004 L65,62.997l3.206-8.017C71.041,54.776,72,50.476,72,47.222z"/><path style="fill:#fff" d="M41,45v1.111c0,0,0-1.111-1-1.111s-2,1.111-2,2.222c0,3.253,0.957,7.554,3.793,7.758L45,62.997 l5.105,3.996c0.569,0.639,1.384,1.004,2.24,1.004H55V30C42.024,30,41.018,36,41,45z"/><g><polygon style="fill:#d7fcf9" points="47.999 60.031 48.011 59.997 46.982 59.997 46.999 60.031"/><path style="fill:#d7fcf9" d="M54.999,68.031h-4L45,64.279v3.218c0,0,0,7.5,10,7.5L54.999,68.031L54.999,68.031z"/></g><path style="fill:#0a3631" d="M67.807,34.274c0.098-0.418,0.146-0.84,0.146-1.262c0-2.842-0.908-4.783-12.953-4.972v-0.024 C54.366,28.006,53.711,28,53.015,28c-12.511,0-13.042,7.981-13.014,9.679c0.003,0.203,0.014,0.322,0.014,0.322s0,5.02,0,7.016 c0,0.004,0,0.01,0,0.014c0,0,1,2,2,4v7l0.984,6.997l8,5.003h4l0,0h4l8-5.003l0.984-6.997v-7h0.031l2-4V40 C70.015,38.023,69.275,36.055,67.807,34.274z M62.999,60.031h-1l-2-6h-5l0,0h-5l-2,6h-1l-3-6V37.673 c3.339,2.246,6.812,2.372,11,2.355v-0.003c2.604-0.012,7.891,0.031,11-2.787v16.793L62.999,60.031z"/><path style="fill:#14635b" d="M55,40.028V28.016C54.367,28.006,53.712,28,53.016,28c-14,0-13,10-13,10s0,5.031,0,7.031 c0,0,1,2,2,4v7L43,63.028l8,5.003h4v-14h-5l-2,6h-1l-3-6V37.665C46.189,39.137,47.935,40.055,55,40.028z"/><g><path style="fill:#0a3631" d="M52,46.997c0-1.104-0.896-2-2-2c-0.002,0-0.004,0.001-0.006,0.001 C49.995,45.019,50,45.039,50,45.06c0,1.102-0.892,1.996-1.994,1.999c0.033,1.075,0.91,1.938,1.994,1.938 C51.104,48.997,52,48.102,52,46.997z"/></g><g><path style="fill:#0a3631" d="M61.994,46.997c0-1.104-0.896-2-2-2c-0.002,0-0.004,0.001-0.006,0.001 c0.001,0.021,0.006,0.041,0.006,0.062c0,1.102-0.892,1.996-1.994,1.999c0.033,1.075,0.91,1.938,1.994,1.938 C61.098,48.997,61.994,48.102,61.994,46.997z"/></g><g><polygon style="fill:#fff" points="43 67.997 45 66.997 54.985 71.978 49 77.997"/></g><g><polygon style="fill:#fff" points="67 67.997 65 66.997 55.015 71.978 61 77.997"/></g><g><polygon style="fill:#00b8a5" points="59 87 56.201 76.8 57.999 75.002 54.981 71.978 51.983 74.976 53.801 76.794 51 87"/></g><g><polygon style="fill:#00d6c1" points="55 87 55 71.997 54.981 71.978 51.983 74.976 53.801 76.794 51 87"/></g><g><path style="fill:#0a3631" d="M23,87l4-11c0.615-1.333,1.698-2.394,3.043-2.982L43,68l12,19H23z"/></g><g><path style="fill:#0a3631" d="M87,87l-4-11c-0.615-1.333-1.698-2.394-3.043-2.982L67,68L55,87H87z"/></g><g><rect style="fill:#fff" width="10" height="2" x="66" y="79.997"/></g><g><path style="fill:#d7fcf9" d="M51,56.997h8c0,0,0,4.003-4,4.003S51,56.997,51,56.997z"/></g></g></g><g id="Red" style="display:none"><g style="display:inline"><g><polygon style="fill:#ffefed" points="55 87 43 67.997 67 67.997"/></g><g><path style="fill:#ffd7d4" d="M58.999,68.031h-4h-4L45,64.279v3.218c0,0,0,7.5,10,7.5s10-7.5,10-7.5v-3.219L58.999,68.031z"/></g><path style="fill:#ffefed" d="M72,47.222C72,46.111,71,45,70,45s-1,1.111-1,1.111V45c-0.018-9-1.024-15-14-15 c-12.976,0-13.982,6-14,15v7.997l4,10l5.105,3.996c0.569,0.639,1.384,1.004,2.24,1.004H55h2.655c0.856,0,1.671-0.365,2.24-1.004 L65,62.997l3.206-8.017C71.041,54.776,72,50.476,72,47.222z"/><path style="fill:#fff" d="M41,45v1.111c0,0,0-1.111-1-1.111s-2,1.111-2,2.222c0,3.253,0.957,7.554,3.793,7.758L45,62.997 l5.105,3.996c0.569,0.639,1.384,1.004,2.24,1.004H55V30C42.024,30,41.018,36,41,45z"/><g><polygon style="fill:#ffefed" points="47.999 60.031 48.011 59.997 46.982 59.997 46.999 60.031"/><path style="fill:#ffefed" d="M54.999,68.031h-4L45,64.279v3.218c0,0,0,7.5,10,7.5L54.999,68.031L54.999,68.031z"/></g><path style="fill:#4a1410" d="M67.807,34.274c0.098-0.418,0.146-0.84,0.146-1.262c0-2.842-0.908-4.783-12.953-4.972v-0.024 C54.366,28.006,53.711,28,53.015,28c-12.511,0-13.042,7.981-13.014,9.679c0.003,0.203,0.014,0.322,0.014,0.322s0,5.02,0,7.016 c0,0.004,0,0.01,0,0.014c0,0,1,2,2,4v7l0.984,6.997l8,5.003h4l0,0h4l8-5.003l0.984-6.997v-7h0.031l2-4V40 C70.015,38.023,69.275,36.055,67.807,34.274z M62.999,60.031h-1l-2-6h-5l0,0h-5l-2,6h-1l-3-6V37.673 c3.339,2.246,6.812,2.372,11,2.355v-0.003c2.604-0.012,7.891,0.031,11-2.787v16.793L62.999,60.031z"/><path style="fill:#7d261e" d="M55,40.028V28.016C54.367,28.006,53.712,28,53.016,28c-14,0-13,10-13,10s0,5.031,0,7.031 c0,0,1,2,2,4v7L43,63.028l8,5.003h4v-14h-5l-2,6h-1l-3-6V37.665C46.189,39.137,47.935,40.055,55,40.028z"/><g><path style="fill:#4a1410" d="M52,46.997c0-1.104-0.896-2-2-2c-0.002,0-0.004,0.001-0.006,0.001 C49.995,45.019,50,45.039,50,45.06c0,1.102-0.892,1.996-1.994,1.999c0.033,1.075,0.91,1.938,1.994,1.938 C51.104,48.997,52,48.102,52,46.997z"/></g><g><path style="fill:#4a1410" d="M61.994,46.997c0-1.104-0.896-2-2-2c-0.002,0-0.004,0.001-0.006,0.001 c0.001,0.021,0.006,0.041,0.006,0.062c0,1.102-0.892,1.996-1.994,1.999c0.033,1.075,0.91,1.938,1.994,1.938 C61.098,48.997,61.994,48.102,61.994,46.997z"/></g><g><polygon style="fill:#fff" points="43 67.997 45 66.997 54.985 71.978 49 77.997"/></g><g><polygon style="fill:#fff" points="67 67.997 65 66.997 55.015 71.978 61 77.997"/></g><g><polygon style="fill:#e54b44" points="59 87 56.201 76.8 57.999 75.002 54.981 71.978 51.983 74.976 53.801 76.794 51 87"/></g><g><polygon style="fill:#ff6c5e" points="55 87 55 71.997 54.981 71.978 51.983 74.976 53.801 76.794 51 87"/></g><g><path style="fill:#4a1410" d="M23,87l4-11c0.615-1.333,1.698-2.394,3.043-2.982L43,68l12,19H23z"/></g><g><path style="fill:#4a1410" d="M87,87l-4-11c-0.615-1.333-1.698-2.394-3.043-2.982L67,68L55,87H87z"/></g><g><rect style="fill:#fff" width="10" height="2" x="66" y="79.997"/></g><g><path style="fill:#ffefed" d="M51,56.997h8c0,0,0,4.003-4,4.003S51,56.997,51,56.997z"/></g></g></g><g id="R-Red" style="display:none"><g style="display:inline"><circle style="fill:#fabbaf" cx="55" cy="55" r="55"/></g><g style="display:inline"><g><polygon style="fill:#ffefed" points="55 87 43 67.997 67 67.997"/></g><g><path style="fill:#ffd7d4" d="M58.999,68.031h-4h-4L45,64.279v3.218c0,0,0,7.5,10,7.5s10-7.5,10-7.5v-3.219L58.999,68.031z"/></g><path style="fill:#ffefed" d="M72,47.222C72,46.111,71,45,70,45s-1,1.111-1,1.111V45c-0.018-9-1.024-15-14-15 c-12.976,0-13.982,6-14,15v7.997l4,10l5.105,3.996c0.569,0.639,1.384,1.004,2.24,1.004H55h2.655c0.856,0,1.671-0.365,2.24-1.004 L65,62.997l3.206-8.017C71.041,54.776,72,50.476,72,47.222z"/><path style="fill:#fff" d="M41,45v1.111c0,0,0-1.111-1-1.111s-2,1.111-2,2.222c0,3.253,0.957,7.554,3.793,7.758L45,62.997 l5.105,3.996c0.569,0.639,1.384,1.004,2.24,1.004H55V30C42.024,30,41.018,36,41,45z"/><g><polygon style="fill:#ffefed" points="47.999 60.031 48.011 59.997 46.982 59.997 46.999 60.031"/><path style="fill:#ffefed" d="M54.999,68.031h-4L45,64.279v3.218c0,0,0,7.5,10,7.5L54.999,68.031L54.999,68.031z"/></g><path style="fill:#4a1410" d="M67.807,34.274c0.098-0.418,0.146-0.84,0.146-1.262c0-2.842-0.908-4.783-12.953-4.972v-0.024 C54.366,28.006,53.711,28,53.015,28c-12.511,0-13.042,7.981-13.014,9.679c0.003,0.203,0.014,0.322,0.014,0.322s0,5.02,0,7.016 c0,0.004,0,0.01,0,0.014c0,0,1,2,2,4v7l0.984,6.997l8,5.003h4l0,0h4l8-5.003l0.984-6.997v-7h0.031l2-4V40 C70.015,38.023,69.275,36.055,67.807,34.274z M62.999,60.031h-1l-2-6h-5l0,0h-5l-2,6h-1l-3-6V37.673 c3.339,2.246,6.812,2.372,11,2.355v-0.003c2.604-0.012,7.891,0.031,11-2.787v16.793L62.999,60.031z"/><path style="fill:#7d261e" d="M55,40.028V28.016C54.367,28.006,53.712,28,53.016,28c-14,0-13,10-13,10s0,5.031,0,7.031 c0,0,1,2,2,4v7L43,63.028l8,5.003h4v-14h-5l-2,6h-1l-3-6V37.665C46.189,39.137,47.935,40.055,55,40.028z"/><g><path style="fill:#4a1410" d="M52,46.997c0-1.104-0.896-2-2-2c-0.002,0-0.004,0.001-0.006,0.001 C49.995,45.019,50,45.039,50,45.06c0,1.102-0.892,1.996-1.994,1.999c0.033,1.075,0.91,1.938,1.994,1.938 C51.104,48.997,52,48.102,52,46.997z"/></g><g><path style="fill:#4a1410" d="M61.994,46.997c0-1.104-0.896-2-2-2c-0.002,0-0.004,0.001-0.006,0.001 c0.001,0.021,0.006,0.041,0.006,0.062c0,1.102-0.892,1.996-1.994,1.999c0.033,1.075,0.91,1.938,1.994,1.938 C61.098,48.997,61.994,48.102,61.994,46.997z"/></g><g><polygon style="fill:#fff" points="43 67.997 45 66.997 54.985 71.978 49 77.997"/></g><g><polygon style="fill:#fff" points="67 67.997 65 66.997 55.015 71.978 61 77.997"/></g><g><polygon style="fill:#e54b44" points="59 87 56.201 76.8 57.999 75.002 54.981 71.978 51.983 74.976 53.801 76.794 51 87"/></g><g><polygon style="fill:#ff6c5e" points="55 87 55 71.997 54.981 71.978 51.983 74.976 53.801 76.794 51 87"/></g><g><path style="fill:#4a1410" d="M23,87l4-11c0.615-1.333,1.698-2.394,3.043-2.982L43,68l12,19H23z"/></g><g><path style="fill:#4a1410" d="M87,87l-4-11c-0.615-1.333-1.698-2.394-3.043-2.982L67,68L55,87H87z"/></g><g><rect style="fill:#fff" width="10" height="2" x="66" y="79.997"/></g><g><path style="fill:#ffefed" d="M51,56.997h8c0,0,0,4.003-4,4.003S51,56.997,51,56.997z"/></g></g></g><g id="Yellow" style="display:none"><g style="display:inline"><g><polygon style="fill:#fff5d9" points="55 87 43 67.997 67 67.997"/></g><g><path style="fill:#ffe9a1" d="M58.999,68.031h-4h-4L45,64.279v3.218c0,0,0,7.5,10,7.5s10-7.5,10-7.5v-3.219L58.999,68.031z"/></g><path style="fill:#fff5d9" d="M72,47.222C72,46.111,71,45,70,45s-1,1.111-1,1.111V45c-0.018-9-1.024-15-14-15 c-12.976,0-13.982,6-14,15v7.997l4,10l5.105,3.996c0.569,0.639,1.384,1.004,2.24,1.004H55h2.655c0.856,0,1.671-0.365,2.24-1.004 L65,62.997l3.206-8.017C71.041,54.776,72,50.476,72,47.222z"/><path style="fill:#fff" d="M41,45v1.111c0,0,0-1.111-1-1.111s-2,1.111-2,2.222c0,3.253,0.957,7.554,3.793,7.758L45,62.997 l5.105,3.996c0.569,0.639,1.384,1.004,2.24,1.004H55V30C42.024,30,41.018,36,41,45z"/><g><polygon style="fill:#fff5d9" points="47.999 60.031 48.011 59.997 46.982 59.997 46.999 60.031"/><path style="fill:#fff5d9" d="M54.999,68.031h-4L45,64.279v3.218c0,0,0,7.5,10,7.5L54.999,68.031L54.999,68.031z"/></g><path style="fill:#3d320c" d="M67.807,34.274c0.098-0.418,0.146-0.84,0.146-1.262c0-2.842-0.908-4.783-12.953-4.972v-0.024 C54.366,28.006,53.711,28,53.015,28c-12.511,0-13.042,7.981-13.014,9.679c0.003,0.203,0.014,0.322,0.014,0.322s0,5.02,0,7.016 c0,0.004,0,0.01,0,0.014c0,0,1,2,2,4v7l0.984,6.997l8,5.003h4l0,0h4l8-5.003l0.984-6.997v-7h0.031l2-4V40 C70.015,38.023,69.275,36.055,67.807,34.274z M62.999,60.031h-1l-2-6h-5l0,0h-5l-2,6h-1l-3-6V37.673 c3.339,2.246,6.812,2.372,11,2.355v-0.003c2.604-0.012,7.891,0.031,11-2.787v16.793L62.999,60.031z"/><path style="fill:#66510d" d="M55,40.028V28.016C54.367,28.006,53.712,28,53.016,28c-14,0-13,10-13,10s0,5.031,0,7.031 c0,0,1,2,2,4v7L43,63.028l8,5.003h4v-14h-5l-2,6h-1l-3-6V37.665C46.189,39.137,47.935,40.055,55,40.028z"/><g><path style="fill:#3d320c" d="M52,46.997c0-1.104-0.896-2-2-2c-0.002,0-0.004,0.001-0.006,0.001 C49.995,45.019,50,45.039,50,45.06c0,1.102-0.892,1.996-1.994,1.999c0.033,1.075,0.91,1.938,1.994,1.938 C51.104,48.997,52,48.102,52,46.997z"/></g><g><path style="fill:#3d320c" d="M61.994,46.997c0-1.104-0.896-2-2-2c-0.002,0-0.004,0.001-0.006,0.001 c0.001,0.021,0.006,0.041,0.006,0.062c0,1.102-0.892,1.996-1.994,1.999c0.033,1.075,0.91,1.938,1.994,1.938 C61.098,48.997,61.994,48.102,61.994,46.997z"/></g><g><polygon style="fill:#fff" points="43 67.997 45 66.997 54.985 71.978 49 77.997"/></g><g><polygon style="fill:#fff" points="67 67.997 65 66.997 55.015 71.978 61 77.997"/></g><g><polygon style="fill:#fa9200" points="59 87 56.201 76.8 57.999 75.002 54.981 71.978 51.983 74.976 53.801 76.794 51 87"/></g><g><polygon style="fill:#fa0" points="55 87 55 71.997 54.981 71.978 51.983 74.976 53.801 76.794 51 87"/></g><g><path style="fill:#3d320c" d="M23,87l4-11c0.615-1.333,1.698-2.394,3.043-2.982L43,68l12,19H23z"/></g><g><path style="fill:#3d320c" d="M87,87l-4-11c-0.615-1.333-1.698-2.394-3.043-2.982L67,68L55,87H87z"/></g><g><rect style="fill:#fff" width="10" height="2" x="66" y="79.997"/></g><g><path style="fill:#fff5d9" d="M51,56.997h8c0,0,0,4.003-4,4.003S51,56.997,51,56.997z"/></g></g></g><g id="R-Yellow" style="display:none"><g style="display:inline"><circle style="fill:#ffd75e" cx="55" cy="55" r="55"/></g><g style="display:inline"><g><polygon style="fill:#fff5d9" points="55 87 43 67.997 67 67.997"/></g><g><path style="fill:#ffe9a1" d="M58.999,68.031h-4h-4L45,64.279v3.218c0,0,0,7.5,10,7.5s10-7.5,10-7.5v-3.219L58.999,68.031z"/></g><path style="fill:#fff5d9" d="M72,47.222C72,46.111,71,45,70,45s-1,1.111-1,1.111V45c-0.018-9-1.024-15-14-15 c-12.976,0-13.982,6-14,15v7.997l4,10l5.105,3.996c0.569,0.639,1.384,1.004,2.24,1.004H55h2.655c0.856,0,1.671-0.365,2.24-1.004 L65,62.997l3.206-8.017C71.041,54.776,72,50.476,72,47.222z"/><path style="fill:#fff" d="M41,45v1.111c0,0,0-1.111-1-1.111s-2,1.111-2,2.222c0,3.253,0.957,7.554,3.793,7.758L45,62.997 l5.105,3.996c0.569,0.639,1.384,1.004,2.24,1.004H55V30C42.024,30,41.018,36,41,45z"/><g><polygon style="fill:#fff5d9" points="47.999 60.031 48.011 59.997 46.982 59.997 46.999 60.031"/><path style="fill:#fff5d9" d="M54.999,68.031h-4L45,64.279v3.218c0,0,0,7.5,10,7.5L54.999,68.031L54.999,68.031z"/></g><path style="fill:#3d320c" d="M67.807,34.274c0.098-0.418,0.146-0.84,0.146-1.262c0-2.842-0.908-4.783-12.953-4.972v-0.024 C54.366,28.006,53.711,28,53.015,28c-12.511,0-13.042,7.981-13.014,9.679c0.003,0.203,0.014,0.322,0.014,0.322s0,5.02,0,7.016 c0,0.004,0,0.01,0,0.014c0,0,1,2,2,4v7l0.984,6.997l8,5.003h4l0,0h4l8-5.003l0.984-6.997v-7h0.031l2-4V40 C70.015,38.023,69.275,36.055,67.807,34.274z M62.999,60.031h-1l-2-6h-5l0,0h-5l-2,6h-1l-3-6V37.673 c3.339,2.246,6.812,2.372,11,2.355v-0.003c2.604-0.012,7.891,0.031,11-2.787v16.793L62.999,60.031z"/><path style="fill:#66510d" d="M55,40.028V28.016C54.367,28.006,53.712,28,53.016,28c-14,0-13,10-13,10s0,5.031,0,7.031 c0,0,1,2,2,4v7L43,63.028l8,5.003h4v-14h-5l-2,6h-1l-3-6V37.665C46.189,39.137,47.935,40.055,55,40.028z"/><g><path style="fill:#3d320c" d="M52,46.997c0-1.104-0.896-2-2-2c-0.002,0-0.004,0.001-0.006,0.001 C49.995,45.019,50,45.039,50,45.06c0,1.102-0.892,1.996-1.994,1.999c0.033,1.075,0.91,1.938,1.994,1.938 C51.104,48.997,52,48.102,52,46.997z"/></g><g><path style="fill:#3d320c" d="M61.994,46.997c0-1.104-0.896-2-2-2c-0.002,0-0.004,0.001-0.006,0.001 c0.001,0.021,0.006,0.041,0.006,0.062c0,1.102-0.892,1.996-1.994,1.999c0.033,1.075,0.91,1.938,1.994,1.938 C61.098,48.997,61.994,48.102,61.994,46.997z"/></g><g><polygon style="fill:#fff" points="43 67.997 45 66.997 54.985 71.978 49 77.997"/></g><g><polygon style="fill:#fff" points="67 67.997 65 66.997 55.015 71.978 61 77.997"/></g><g><polygon style="fill:#fa9200" points="59 87 56.201 76.8 57.999 75.002 54.981 71.978 51.983 74.976 53.801 76.794 51 87"/></g><g><polygon style="fill:#fa0" points="55 87 55 71.997 54.981 71.978 51.983 74.976 53.801 76.794 51 87"/></g><g><path style="fill:#3d320c" d="M23,87l4-11c0.615-1.333,1.698-2.394,3.043-2.982L43,68l12,19H23z"/></g><g><path style="fill:#3d320c" d="M87,87l-4-11c-0.615-1.333-1.698-2.394-3.043-2.982L67,68L55,87H87z"/></g><g><rect style="fill:#fff" width="10" height="2" x="66" y="79.997"/></g><g><path style="fill:#fff5d9" d="M51,56.997h8c0,0,0,4.003-4,4.003S51,56.997,51,56.997z"/></g></g></g></svg>