<svg xmlns="http://www.w3.org/2000/svg" xmlns:xlink="http://www.w3.org/1999/xlink" width="110" height="110" x="0" y="0" version="1.0" viewBox="0 0 110 110" xml:space="preserve" style="enable-background:new 0 0 110 110"><g id="Artboard" style="display:none"><rect style="display:inline;fill:gray;stroke:#000;stroke-miterlimit:10" width="1351" height="461" x="-1082.5" y="-36.5"/></g><g id="R-Multicolor" style="display:none"><g style="display:inline"><circle style="fill:#32bea6" cx="55" cy="55" r="55"/></g><g style="display:inline"><path style="fill:#692e19" d="M55,24c-4.596,0-8.126,0.638-10.853,1.614c-2.768,0.991-4.703,2.331-6.047,3.723 C35.005,32.542,35,36,35,36l2,38h12V39.173c3.438,1.309,7.875,2.027,12,2.415V74h12l2-38C75,36,75,24,55,24z"/><path style="fill:#84462d" d="M55,24c-4.596,0-8.126,0.638-10.853,1.614c-2.768,0.991-4.703,2.331-6.047,3.723 C35.005,32.542,35,36,35,36l2,38h12V39.173c1.791,0.682,3.854,1.2,6,1.598V24z"/><g><path style="fill:#3e3e3f" d="M55,70l-7-1l-16.241,3.872c-2.371,0.711-4.279,2.48-5.168,4.791L23,87h32V70z"/></g><g><path style="fill:#3e3e3f" d="M55,70l7-1l16.241,3.872c2.371,0.711,4.279,2.48,5.168,4.791L87,87H55V70z"/></g><path style="fill:#fbc8c8" d="M45,61.433V75l8,12h2V69C51.716,67.905,47.841,65.829,45,61.433z"/><path style="fill:#f7b4b4" d="M55,69v18h2l8-12V61.433C62.159,65.829,58.284,67.905,55,69z"/><path style="fill:#fbc8c8" d="M70,45c-0.277,0-0.633,0-1,0c0-0.007,0-0.014,0-0.021c-0.002-1.006-0.018-1.998-0.06-2.968 c-8.076-0.134-25.427-1.291-25.91-8.7c-1.771,3.1-2.021,7.258-2.03,11.668c0,0.007,0,0.014,0,0.021c-0.368,0-0.723,0-1,0 c-1,0-2,1.111-2,2.222c0,3.091,0.864,7.13,4.178,7.703C44.62,64.027,50.396,67.465,55,69c4.604-1.535,10.38-4.973,12.822-14.075 C71.136,54.353,72,50.313,72,47.222C72,46.111,71,45,70,45z"/><path style="fill:#fbd7d7" d="M43.03,33.311c-1.771,3.1-2.021,7.258-2.03,11.668c0,0.007,0,0.014,0,0.021c-0.368,0-0.723,0-1,0 c-1,0-2,1.111-2,2.222c0,3.091,0.864,7.13,4.178,7.703C44.62,64.027,50.396,67.465,55,69V40.774 C48.782,39.624,43.299,37.434,43.03,33.311z"/><g><path style="fill:#f79392" d="M50,58h10c0,0,0,3-5,3S50,58,50,58z"/></g><g><polygon style="fill:#fff" points="44.989 64 47 75 55 87 53 87 40 79 44 74 35 72"/></g><g><polygon style="fill:#fff" points="65.011 64 63 75 55 87 57 87 70 79 66 74 75 72"/></g><g><path style="fill:#3e3e3f" d="M52,47c0-1.104-0.896-2-2-2c-0.002,0-0.004,0-0.006,0C49.995,45.021,50,45.042,50,45.063 c0,1.103-0.892,1.996-1.994,2C48.04,48.137,48.917,49,50,49C51.104,49,52,48.104,52,47z"/></g><g><path style="fill:#3e3e3f" d="M61.994,47c0-1.104-0.896-2-2-2c-0.002,0-0.004,0-0.006,0c0.001,0.021,0.006,0.041,0.006,0.062 c0,1.103-0.892,1.996-1.994,2C58.033,48.137,58.91,49,59.994,49C61.098,49,61.994,48.104,61.994,47z"/></g><g><circle style="fill:#fbe158" cx="70.347" cy="56.371" r="1.629"/></g><g><circle style="fill:#fbe158" cx="39.371" cy="56.371" r="1.629"/></g></g></g><g id="Multicolor"><g><path style="fill:#692e19" d="M55,24c-4.596,0-8.126,0.638-10.853,1.614c-2.768,0.991-4.703,2.331-6.047,3.723 C35.005,32.542,35,36,35,36l2,38h12V39.173c3.438,1.309,7.875,2.027,12,2.415V74h12l2-38C75,36,75,24,55,24z"/><path style="fill:#84462d" d="M55,24c-4.596,0-8.126,0.638-10.853,1.614c-2.768,0.991-4.703,2.331-6.047,3.723 C35.005,32.542,35,36,35,36l2,38h12V39.173c1.791,0.682,3.854,1.2,6,1.598V24z"/><g><path style="fill:#3e3e3f" d="M55,70l-7-1l-16.241,3.872c-2.371,0.711-4.279,2.48-5.168,4.791L23,87h32V70z"/></g><g><path style="fill:#3e3e3f" d="M55,70l7-1l16.241,3.872c2.371,0.711,4.279,2.48,5.168,4.791L87,87H55V70z"/></g><path style="fill:#fbc8c8" d="M45,61.433V75l8,12h2V69C51.716,67.905,47.841,65.829,45,61.433z"/><path style="fill:#f7b4b4" d="M55,69v18h2l8-12V61.433C62.159,65.829,58.284,67.905,55,69z"/><path style="fill:#fbc8c8" d="M70,45c-0.277,0-0.633,0-1,0c0-0.007,0-0.014,0-0.021c-0.002-1.006-0.018-1.998-0.06-2.968 c-8.076-0.134-25.427-1.291-25.91-8.7c-1.771,3.1-2.021,7.258-2.03,11.668c0,0.007,0,0.014,0,0.021c-0.368,0-0.723,0-1,0 c-1,0-2,1.111-2,2.222c0,3.091,0.864,7.13,4.178,7.703C44.62,64.027,50.396,67.465,55,69c4.604-1.535,10.38-4.973,12.822-14.075 C71.136,54.353,72,50.313,72,47.222C72,46.111,71,45,70,45z"/><path style="fill:#fbd7d7" d="M43.03,33.311c-1.771,3.1-2.021,7.258-2.03,11.668c0,0.007,0,0.014,0,0.021c-0.368,0-0.723,0-1,0 c-1,0-2,1.111-2,2.222c0,3.091,0.864,7.13,4.178,7.703C44.62,64.027,50.396,67.465,55,69V40.774 C48.782,39.624,43.299,37.434,43.03,33.311z"/><g><path style="fill:#f79392" d="M50,58h10c0,0,0,3-5,3S50,58,50,58z"/></g><g><polygon style="fill:#fff" points="44.989 64 47 75 55 87 53 87 40 79 44 74 35 72"/></g><g><polygon style="fill:#fff" points="65.011 64 63 75 55 87 57 87 70 79 66 74 75 72"/></g><g><path style="fill:#3e3e3f" d="M52,47c0-1.104-0.896-2-2-2c-0.002,0-0.004,0-0.006,0C49.995,45.021,50,45.042,50,45.063 c0,1.103-0.892,1.996-1.994,2C48.04,48.137,48.917,49,50,49C51.104,49,52,48.104,52,47z"/></g><g><path style="fill:#3e3e3f" d="M61.994,47c0-1.104-0.896-2-2-2c-0.002,0-0.004,0-0.006,0c0.001,0.021,0.006,0.041,0.006,0.062 c0,1.103-0.892,1.996-1.994,2C58.033,48.137,58.91,49,59.994,49C61.098,49,61.994,48.104,61.994,47z"/></g><g><circle style="fill:#fbe158" cx="70.347" cy="56.371" r="1.629"/></g><g><circle style="fill:#fbe158" cx="39.371" cy="56.371" r="1.629"/></g></g></g><g id="Blue" style="display:none"><g style="display:inline"><path style="fill:#0c333d" d="M55,24c-4.596,0-8.127,0.638-10.853,1.614c-2.768,0.991-4.703,2.331-6.047,3.723 C35.005,32.542,35,36,35,36l2,38h12V39.173c3.438,1.308,7.874,2.027,12,2.414V74h12l2-38C75,36,75,24,55,24z"/><path style="fill:#0f6175" d="M55,24c-4.596,0-8.127,0.638-10.853,1.614c-2.768,0.991-4.703,2.331-6.047,3.723 C35.005,32.542,35,36,35,36l2,38h12V39.173c1.791,0.682,3.854,1.2,6,1.598V24z"/><g><path style="fill:#0c333d" d="M55,70l-7-1l-16.241,3.873c-2.372,0.711-4.279,2.48-5.168,4.79L23,87h32V70z"/></g><g><path style="fill:#0c333d" d="M55,70l7-1l16.241,3.873c2.371,0.711,4.279,2.48,5.168,4.79L87,87H55V70z"/></g><path style="fill:#e1f5fa" d="M45,61.433V75l8,12h2V69C51.716,67.905,47.841,65.829,45,61.433z"/><path style="fill:#bbe7f2" d="M55,69v18h2l8-10V61.433C62.159,65.829,58.284,67.905,55,69z"/><path style="fill:#e1f5fa" d="M70,45c-0.277,0-0.633,0-1.001,0c0-0.007,0.001-0.014,0.001-0.021 c-0.002-1.006-0.018-1.998-0.06-2.968c-8.076-0.134-25.427-1.291-25.91-8.7c-1.771,3.1-2.021,7.258-2.03,11.668 c0,0.007,0,0.014,0,0.021c-0.368,0-0.723,0-1,0c-1,0-2,1.111-2,2.222c0,3.091,0.864,7.13,4.178,7.703 C44.62,64.027,50.396,67.465,55,69c4.604-1.535,10.38-4.973,12.822-14.075C71.136,54.353,72,50.313,72,47.222 C72,46.111,71,45,70,45z"/><path style="fill:#fff" d="M43.03,33.311c-1.771,3.1-2.021,7.258-2.03,11.668c0,0.007,0,0.014,0,0.021c-0.368,0-0.723,0-1,0 c-1,0-2,1.111-2,2.222c0,3.091,0.864,7.13,4.178,7.703C44.62,64.027,50.396,67.465,55,69V40.774 C48.782,39.624,43.299,37.434,43.03,33.311z"/><g><path style="fill:#53bad4" d="M50,58h10c0,0,0,3-5,3S50,58,50,58z"/></g><g><path style="fill:#0c333d" d="M52,47c0-1.104-0.896-2-2-2c-0.002,0-0.004,0.001-0.006,0.001C49.995,45.021,50,45.042,50,45.063 c0,1.102-0.892,1.996-1.994,1.999C48.04,48.137,48.917,49,50,49C51.104,49,52,48.104,52,47z"/></g><g><path style="fill:#0c333d" d="M61.994,47c0-1.104-0.896-2-2-2c-0.002,0-0.004,0.001-0.006,0.001 c0.001,0.021,0.006,0.041,0.006,0.062c0,1.102-0.892,1.996-1.994,1.999C58.033,48.137,58.91,49,59.994,49 C61.098,49,61.994,48.104,61.994,47z"/></g><g><circle style="fill:#00b7e5" cx="70.347" cy="56.371" r="1.629"/></g><g><circle style="fill:#00b7e5" cx="39.371" cy="56.371" r="1.629"/></g><g><polygon style="fill:#fff" points="44.989 64 47 75 55 87 53 87 40 79 44 74 35 72"/></g><g><polygon style="fill:#fff" points="65.011 64 63 75 55 87 57 87 70 79 66 74 75 72"/></g></g></g><g id="R-Blue" style="display:none"><g style="display:inline"><circle style="fill:#81d2eb" cx="55" cy="55" r="55"/></g><g style="display:inline"><path style="fill:#0c333d" d="M55,24c-4.596,0-8.127,0.638-10.853,1.614c-2.768,0.991-4.703,2.331-6.047,3.723 C35.005,32.542,35,36,35,36l2,38h12V39.173c3.438,1.308,7.874,2.027,12,2.414V74h12l2-38C75,36,75,24,55,24z"/><path style="fill:#0f6175" d="M55,24c-4.596,0-8.127,0.638-10.853,1.614c-2.768,0.991-4.703,2.331-6.047,3.723 C35.005,32.542,35,36,35,36l2,38h12V39.173c1.791,0.682,3.854,1.2,6,1.598V24z"/><g><path style="fill:#0c333d" d="M55,70l-7-1l-16.241,3.873c-2.372,0.711-4.279,2.48-5.168,4.79L23,87h32V70z"/></g><g><path style="fill:#0c333d" d="M55,70l7-1l16.241,3.873c2.371,0.711,4.279,2.48,5.168,4.79L87,87H55V70z"/></g><path style="fill:#e1f5fa" d="M45,61.433V75l8,12h2V69C51.716,67.905,47.841,65.829,45,61.433z"/><path style="fill:#bbe7f2" d="M55,69v18h2l8-10V61.433C62.159,65.829,58.284,67.905,55,69z"/><path style="fill:#e1f5fa" d="M70,45c-0.277,0-0.633,0-1.001,0c0-0.007,0.001-0.014,0.001-0.021 c-0.002-1.006-0.018-1.998-0.06-2.968c-8.076-0.134-25.427-1.291-25.91-8.7c-1.771,3.1-2.021,7.258-2.03,11.668 c0,0.007,0,0.014,0,0.021c-0.368,0-0.723,0-1,0c-1,0-2,1.111-2,2.222c0,3.091,0.864,7.13,4.178,7.703 C44.62,64.027,50.396,67.465,55,69c4.604-1.535,10.38-4.973,12.822-14.075C71.136,54.353,72,50.313,72,47.222 C72,46.111,71,45,70,45z"/><path style="fill:#fff" d="M43.03,33.311c-1.771,3.1-2.021,7.258-2.03,11.668c0,0.007,0,0.014,0,0.021c-0.368,0-0.723,0-1,0 c-1,0-2,1.111-2,2.222c0,3.091,0.864,7.13,4.178,7.703C44.62,64.027,50.396,67.465,55,69V40.774 C48.782,39.624,43.299,37.434,43.03,33.311z"/><g><path style="fill:#53bad4" d="M50,58h10c0,0,0,3-5,3S50,58,50,58z"/></g><g><path style="fill:#0c333d" d="M52,47c0-1.104-0.896-2-2-2c-0.002,0-0.004,0.001-0.006,0.001C49.995,45.021,50,45.042,50,45.063 c0,1.102-0.892,1.996-1.994,1.999C48.04,48.137,48.917,49,50,49C51.104,49,52,48.104,52,47z"/></g><g><path style="fill:#0c333d" d="M61.994,47c0-1.104-0.896-2-2-2c-0.002,0-0.004,0.001-0.006,0.001 c0.001,0.021,0.006,0.041,0.006,0.062c0,1.102-0.892,1.996-1.994,1.999C58.033,48.137,58.91,49,59.994,49 C61.098,49,61.994,48.104,61.994,47z"/></g><g><circle style="fill:#00b7e5" cx="70.347" cy="56.371" r="1.629"/></g><g><circle style="fill:#00b7e5" cx="39.371" cy="56.371" r="1.629"/></g><g><polygon style="fill:#fff" points="44.989 64 47 75 55 87 53 87 40 79 44 74 35 72"/></g><g><polygon style="fill:#fff" points="65.011 64 63 75 55 87 57 87 70 79 66 74 75 72"/></g></g></g><g id="Green" style="display:none"><g style="display:inline"><path style="fill:#0a3631" d="M55,24c-4.596,0-8.127,0.638-10.853,1.614c-2.768,0.991-4.703,2.331-6.047,3.723 C35.005,32.542,35,36,35,36l2,38h12V39.173c3.438,1.308,7.874,2.027,12,2.414V74h12l2-38C75,36,75,24,55,24z"/><path style="fill:#14635b" d="M55,24c-4.596,0-8.127,0.638-10.853,1.614c-2.768,0.991-4.703,2.331-6.047,3.723 C35.005,32.542,35,36,35,36l2,38h12V39.173c1.791,0.682,3.854,1.2,6,1.598V24z"/><g><path style="fill:#0a3631" d="M55,70l-7-1l-16.241,3.873c-2.372,0.711-4.279,2.48-5.168,4.79L23,87h32V70z"/></g><g><path style="fill:#0a3631" d="M55,70l7-1l16.241,3.873c2.371,0.711,4.279,2.48,5.168,4.79L87,87H55V70z"/></g><path style="fill:#d7fcf9" d="M45,61.433V75l8,12h2V69C51.716,67.905,47.841,65.829,45,61.433z"/><path style="fill:#aaf0e9" d="M55,69v18h2l8-10V61.433C62.159,65.829,58.284,67.905,55,69z"/><path style="fill:#d7fcf9" d="M70,45c-0.277,0-0.633,0-1.001,0c0-0.007,0.001-0.014,0.001-0.021 c-0.002-1.006-0.018-1.998-0.06-2.968c-8.076-0.134-25.427-1.291-25.91-8.7c-1.771,3.1-2.021,7.258-2.03,11.668 c0,0.007,0,0.014,0,0.021c-0.368,0-0.723,0-1,0c-1,0-2,1.111-2,2.222c0,3.091,0.864,7.13,4.178,7.703 C44.62,64.027,50.396,67.465,55,69c4.604-1.535,10.38-4.973,12.822-14.075C71.136,54.353,72,50.313,72,47.222 C72,46.111,71,45,70,45z"/><path style="fill:#fff" d="M43.03,33.311c-1.771,3.1-2.021,7.258-2.03,11.668c0,0.007,0,0.014,0,0.021c-0.368,0-0.723,0-1,0 c-1,0-2,1.111-2,2.222c0,3.091,0.864,7.13,4.178,7.703C44.62,64.027,50.396,67.465,55,69V40.774 C48.782,39.624,43.299,37.434,43.03,33.311z"/><g><path style="fill:#55c9be" d="M50,58h10c0,0,0,3-5,3S50,58,50,58z"/></g><g><path style="fill:#0a3631" d="M52,47c0-1.104-0.896-2-2-2c-0.002,0-0.004,0.001-0.006,0.001C49.995,45.021,50,45.042,50,45.063 c0,1.102-0.892,1.996-1.994,1.999C48.04,48.137,48.917,49,50,49C51.104,49,52,48.104,52,47z"/></g><g><path style="fill:#0a3631" d="M61.994,47c0-1.104-0.896-2-2-2c-0.002,0-0.004,0.001-0.006,0.001 c0.001,0.021,0.006,0.041,0.006,0.062c0,1.102-0.892,1.996-1.994,1.999C58.033,48.137,58.91,49,59.994,49 C61.098,49,61.994,48.104,61.994,47z"/></g><g><circle style="fill:#00d6c1" cx="70.347" cy="56.371" r="1.629"/></g><g><circle style="fill:#00d6c1" cx="39.371" cy="56.371" r="1.629"/></g><g><polygon style="fill:#fff" points="44.989 64 47 75 55 87 53 87 40 79 44 74 35 72"/></g><g><polygon style="fill:#fff" points="65.011 64 63 75 55 87 57 87 70 79 66 74 75 72"/></g></g></g><g id="R-Green" style="display:none"><g style="display:inline"><circle style="fill:#77e0c4" cx="55" cy="55" r="55"/></g><g style="display:inline"><path style="fill:#0a3631" d="M55,24c-4.596,0-8.127,0.638-10.853,1.614c-2.768,0.991-4.703,2.331-6.047,3.723 C35.005,32.542,35,36,35,36l2,38h12V39.173c3.438,1.308,7.874,2.027,12,2.414V74h12l2-38C75,36,75,24,55,24z"/><path style="fill:#14635b" d="M55,24c-4.596,0-8.127,0.638-10.853,1.614c-2.768,0.991-4.703,2.331-6.047,3.723 C35.005,32.542,35,36,35,36l2,38h12V39.173c1.791,0.682,3.854,1.2,6,1.598V24z"/><g><path style="fill:#0a3631" d="M55,70l-7-1l-16.241,3.873c-2.372,0.711-4.279,2.48-5.168,4.79L23,87h32V70z"/></g><g><path style="fill:#0a3631" d="M55,70l7-1l16.241,3.873c2.371,0.711,4.279,2.48,5.168,4.79L87,87H55V70z"/></g><path style="fill:#d7fcf9" d="M45,61.433V75l8,12h2V69C51.716,67.905,47.841,65.829,45,61.433z"/><path style="fill:#aaf0e9" d="M55,69v18h2l8-10V61.433C62.159,65.829,58.284,67.905,55,69z"/><path style="fill:#d7fcf9" d="M70,45c-0.277,0-0.633,0-1.001,0c0-0.007,0.001-0.014,0.001-0.021 c-0.002-1.006-0.018-1.998-0.06-2.968c-8.076-0.134-25.427-1.291-25.91-8.7c-1.771,3.1-2.021,7.258-2.03,11.668 c0,0.007,0,0.014,0,0.021c-0.368,0-0.723,0-1,0c-1,0-2,1.111-2,2.222c0,3.091,0.864,7.13,4.178,7.703 C44.62,64.027,50.396,67.465,55,69c4.604-1.535,10.38-4.973,12.822-14.075C71.136,54.353,72,50.313,72,47.222 C72,46.111,71,45,70,45z"/><path style="fill:#fff" d="M43.03,33.311c-1.771,3.1-2.021,7.258-2.03,11.668c0,0.007,0,0.014,0,0.021c-0.368,0-0.723,0-1,0 c-1,0-2,1.111-2,2.222c0,3.091,0.864,7.13,4.178,7.703C44.62,64.027,50.396,67.465,55,69V40.774 C48.782,39.624,43.299,37.434,43.03,33.311z"/><g><path style="fill:#55c9be" d="M50,58h10c0,0,0,3-5,3S50,58,50,58z"/></g><g><path style="fill:#0a3631" d="M52,47c0-1.104-0.896-2-2-2c-0.002,0-0.004,0.001-0.006,0.001C49.995,45.021,50,45.042,50,45.063 c0,1.102-0.892,1.996-1.994,1.999C48.04,48.137,48.917,49,50,49C51.104,49,52,48.104,52,47z"/></g><g><path style="fill:#0a3631" d="M61.994,47c0-1.104-0.896-2-2-2c-0.002,0-0.004,0.001-0.006,0.001 c0.001,0.021,0.006,0.041,0.006,0.062c0,1.102-0.892,1.996-1.994,1.999C58.033,48.137,58.91,49,59.994,49 C61.098,49,61.994,48.104,61.994,47z"/></g><g><circle style="fill:#00d6c1" cx="70.347" cy="56.371" r="1.629"/></g><g><circle style="fill:#00d6c1" cx="39.371" cy="56.371" r="1.629"/></g><g><polygon style="fill:#fff" points="44.989 64 47 75 55 87 53 87 40 79 44 74 35 72"/></g><g><polygon style="fill:#fff" points="65.011 64 63 75 55 87 57 87 70 79 66 74 75 72"/></g></g></g><g id="Red" style="display:none"><g style="display:inline"><path style="fill:#4a1410" d="M55,24c-4.596,0-8.127,0.638-10.853,1.614c-2.768,0.991-4.703,2.331-6.047,3.723 C35.005,32.542,35,36,35,36l2,38h12V39.173c3.438,1.308,7.874,2.027,12,2.414V74h12l2-38C75,36,75,24,55,24z"/><path style="fill:#7d261e" d="M55,24c-4.596,0-8.127,0.638-10.853,1.614c-2.768,0.991-4.703,2.331-6.047,3.723 C35.005,32.542,35,36,35,36l2,38h12V39.173c1.791,0.682,3.854,1.2,6,1.598V24z"/><g><path style="fill:#4a1410" d="M55,70l-7-1l-16.241,3.873c-2.372,0.711-4.279,2.48-5.168,4.79L23,87h32V70z"/></g><g><path style="fill:#4a1410" d="M55,70l7-1l16.241,3.873c2.371,0.711,4.279,2.48,5.168,4.79L87,87H55V70z"/></g><path style="fill:#ffefed" d="M45,61.433V75l8,12h2V69C51.716,67.905,47.841,65.829,45,61.433z"/><path style="fill:#ffd7d4" d="M55,69v18h2l8-10V61.433C62.159,65.829,58.284,67.905,55,69z"/><path style="fill:#ffefed" d="M70,45c-0.277,0-0.633,0-1.001,0c0-0.007,0.001-0.014,0.001-0.021 c-0.002-1.006-0.018-1.998-0.06-2.968c-8.076-0.134-25.427-1.291-25.91-8.7c-1.771,3.1-2.021,7.258-2.03,11.668 c0,0.007,0,0.014,0,0.021c-0.368,0-0.723,0-1,0c-1,0-2,1.111-2,2.222c0,3.091,0.864,7.13,4.178,7.703 C44.62,64.027,50.396,67.465,55,69c4.604-1.535,10.38-4.973,12.822-14.075C71.136,54.353,72,50.313,72,47.222 C72,46.111,71,45,70,45z"/><path style="fill:#fff" d="M43.03,33.311c-1.771,3.1-2.021,7.258-2.03,11.668c0,0.007,0,0.014,0,0.021c-0.368,0-0.723,0-1,0 c-1,0-2,1.111-2,2.222c0,3.091,0.864,7.13,4.178,7.703C44.62,64.027,50.396,67.465,55,69V40.774 C48.782,39.624,43.299,37.434,43.03,33.311z"/><g><path style="fill:#e8a099" d="M50,58h10c0,0,0,3-5,3S50,58,50,58z"/></g><g><path style="fill:#4a1410" d="M52,47c0-1.104-0.896-2-2-2c-0.002,0-0.004,0.001-0.006,0.001C49.995,45.021,50,45.042,50,45.063 c0,1.102-0.892,1.996-1.994,1.999C48.04,48.137,48.917,49,50,49C51.104,49,52,48.104,52,47z"/></g><g><path style="fill:#4a1410" d="M61.994,47c0-1.104-0.896-2-2-2c-0.002,0-0.004,0.001-0.006,0.001 c0.001,0.021,0.006,0.041,0.006,0.062c0,1.102-0.892,1.996-1.994,1.999C58.033,48.137,58.91,49,59.994,49 C61.098,49,61.994,48.104,61.994,47z"/></g><g><circle style="fill:#ff6c5e" cx="70.347" cy="56.371" r="1.629"/></g><g><circle style="fill:#ff6c5e" cx="39.371" cy="56.371" r="1.629"/></g><g><polygon style="fill:#fff" points="44.989 64 47 75 55 87 53 87 40 79 44 74 35 72"/></g><g><polygon style="fill:#fff" points="65.011 64 63 75 55 87 57 87 70 79 66 74 75 72"/></g></g></g><g id="R-Red" style="display:none"><g style="display:inline"><circle style="fill:#fabbaf" cx="55" cy="55" r="55"/></g><g style="display:inline"><path style="fill:#4a1410" d="M55,24c-4.596,0-8.127,0.638-10.853,1.614c-2.768,0.991-4.703,2.331-6.047,3.723 C35.005,32.542,35,36,35,36l2,38h12V39.173c3.438,1.308,7.874,2.027,12,2.414V74h12l2-38C75,36,75,24,55,24z"/><path style="fill:#7d261e" d="M55,24c-4.596,0-8.127,0.638-10.853,1.614c-2.768,0.991-4.703,2.331-6.047,3.723 C35.005,32.542,35,36,35,36l2,38h12V39.173c1.791,0.682,3.854,1.2,6,1.598V24z"/><g><path style="fill:#4a1410" d="M55,70l-7-1l-16.241,3.873c-2.372,0.711-4.279,2.48-5.168,4.79L23,87h32V70z"/></g><g><path style="fill:#4a1410" d="M55,70l7-1l16.241,3.873c2.371,0.711,4.279,2.48,5.168,4.79L87,87H55V70z"/></g><path style="fill:#ffefed" d="M45,61.433V75l8,12h2V69C51.716,67.905,47.841,65.829,45,61.433z"/><path style="fill:#ffd7d4" d="M55,69v18h2l8-10V61.433C62.159,65.829,58.284,67.905,55,69z"/><path style="fill:#ffefed" d="M70,45c-0.277,0-0.633,0-1.001,0c0-0.007,0.001-0.014,0.001-0.021 c-0.002-1.006-0.018-1.998-0.06-2.968c-8.076-0.134-25.427-1.291-25.91-8.7c-1.771,3.1-2.021,7.258-2.03,11.668 c0,0.007,0,0.014,0,0.021c-0.368,0-0.723,0-1,0c-1,0-2,1.111-2,2.222c0,3.091,0.864,7.13,4.178,7.703 C44.62,64.027,50.396,67.465,55,69c4.604-1.535,10.38-4.973,12.822-14.075C71.136,54.353,72,50.313,72,47.222 C72,46.111,71,45,70,45z"/><path style="fill:#fff" d="M43.03,33.311c-1.771,3.1-2.021,7.258-2.03,11.668c0,0.007,0,0.014,0,0.021c-0.368,0-0.723,0-1,0 c-1,0-2,1.111-2,2.222c0,3.091,0.864,7.13,4.178,7.703C44.62,64.027,50.396,67.465,55,69V40.774 C48.782,39.624,43.299,37.434,43.03,33.311z"/><g><path style="fill:#e8a099" d="M50,58h10c0,0,0,3-5,3S50,58,50,58z"/></g><g><path style="fill:#4a1410" d="M52,47c0-1.104-0.896-2-2-2c-0.002,0-0.004,0.001-0.006,0.001C49.995,45.021,50,45.042,50,45.063 c0,1.102-0.892,1.996-1.994,1.999C48.04,48.137,48.917,49,50,49C51.104,49,52,48.104,52,47z"/></g><g><path style="fill:#4a1410" d="M61.994,47c0-1.104-0.896-2-2-2c-0.002,0-0.004,0.001-0.006,0.001 c0.001,0.021,0.006,0.041,0.006,0.062c0,1.102-0.892,1.996-1.994,1.999C58.033,48.137,58.91,49,59.994,49 C61.098,49,61.994,48.104,61.994,47z"/></g><g><circle style="fill:#ff6c5e" cx="70.347" cy="56.371" r="1.629"/></g><g><circle style="fill:#ff6c5e" cx="39.371" cy="56.371" r="1.629"/></g><g><polygon style="fill:#fff" points="44.989 64 47 75 55 87 53 87 40 79 44 74 35 72"/></g><g><polygon style="fill:#fff" points="65.011 64 63 75 55 87 57 87 70 79 66 74 75 72"/></g></g></g><g id="Yellow" style="display:none"><g style="display:inline"><path style="fill:#3d320c" d="M55,24c-4.596,0-8.127,0.638-10.853,1.614c-2.768,0.991-4.703,2.331-6.047,3.723 C35.005,32.542,35,36,35,36l2,38h12V39.173c3.438,1.308,7.874,2.027,12,2.414V74h12l2-38C75,36,75,24,55,24z"/><path style="fill:#66510d" d="M55,24c-4.596,0-8.127,0.638-10.853,1.614c-2.768,0.991-4.703,2.331-6.047,3.723 C35.005,32.542,35,36,35,36l2,38h12V39.173c1.791,0.682,3.854,1.2,6,1.598V24z"/><g><path style="fill:#3d320c" d="M55,70l-7-1l-16.241,3.873c-2.372,0.711-4.279,2.48-5.168,4.79L23,87h32V70z"/></g><g><path style="fill:#3d320c" d="M55,70l7-1l16.241,3.873c2.371,0.711,4.279,2.48,5.168,4.79L87,87H55V70z"/></g><path style="fill:#fff5d9" d="M45,61.433V75l8,12h2V69C51.716,67.905,47.841,65.829,45,61.433z"/><path style="fill:#ffe9a1" d="M55,69v18h2l8-10V61.433C62.159,65.829,58.284,67.905,55,69z"/><path style="fill:#fff5d9" d="M70,45c-0.277,0-0.633,0-1.001,0c0-0.007,0.001-0.014,0.001-0.021 c-0.002-1.006-0.018-1.998-0.06-2.968c-8.076-0.134-25.427-1.291-25.91-8.7c-1.771,3.1-2.021,7.258-2.03,11.668 c0,0.007,0,0.014,0,0.021c-0.368,0-0.723,0-1,0c-1,0-2,1.111-2,2.222c0,3.091,0.864,7.13,4.178,7.703 C44.62,64.027,50.396,67.465,55,69c4.604-1.535,10.38-4.973,12.822-14.075C71.136,54.353,72,50.313,72,47.222 C72,46.111,71,45,70,45z"/><path style="fill:#fff" d="M43.03,33.311c-1.771,3.1-2.021,7.258-2.03,11.668c0,0.007,0,0.014,0,0.021c-0.368,0-0.723,0-1,0 c-1,0-2,1.111-2,2.222c0,3.091,0.864,7.13,4.178,7.703C44.62,64.027,50.396,67.465,55,69V40.774 C48.782,39.624,43.299,37.434,43.03,33.311z"/><g><path style="fill:#f5c43d" d="M50,58h10c0,0,0,3-5,3S50,58,50,58z"/></g><g><path style="fill:#3d320c" d="M52,47c0-1.104-0.896-2-2-2c-0.002,0-0.004,0.001-0.006,0.001C49.995,45.021,50,45.042,50,45.063 c0,1.102-0.892,1.996-1.994,1.999C48.04,48.137,48.917,49,50,49C51.104,49,52,48.104,52,47z"/></g><g><path style="fill:#3d320c" d="M61.994,47c0-1.104-0.896-2-2-2c-0.002,0-0.004,0.001-0.006,0.001 c0.001,0.021,0.006,0.041,0.006,0.062c0,1.102-0.892,1.996-1.994,1.999C58.033,48.137,58.91,49,59.994,49 C61.098,49,61.994,48.104,61.994,47z"/></g><g><circle style="fill:#fa0" cx="70.347" cy="56.371" r="1.629"/></g><g><circle style="fill:#fa0" cx="39.371" cy="56.371" r="1.629"/></g><g><polygon style="fill:#fff" points="44.989 64 47 75 55 87 53 87 40 79 44 74 35 72"/></g><g><polygon style="fill:#fff" points="65.011 64 63 75 55 87 57 87 70 79 66 74 75 72"/></g></g></g><g id="R-Yellow" style="display:none"><g style="display:inline"><circle style="fill:#ffd75e" cx="55" cy="55" r="55"/></g><g style="display:inline"><path style="fill:#3d320c" d="M55,24c-4.596,0-8.127,0.638-10.853,1.614c-2.768,0.991-4.703,2.331-6.047,3.723 C35.005,32.542,35,36,35,36l2,38h12V39.173c3.438,1.308,7.874,2.027,12,2.414V74h12l2-38C75,36,75,24,55,24z"/><path style="fill:#66510d" d="M55,24c-4.596,0-8.127,0.638-10.853,1.614c-2.768,0.991-4.703,2.331-6.047,3.723 C35.005,32.542,35,36,35,36l2,38h12V39.173c1.791,0.682,3.854,1.2,6,1.598V24z"/><g><path style="fill:#3d320c" d="M55,70l-7-1l-16.241,3.873c-2.372,0.711-4.279,2.48-5.168,4.79L23,87h32V70z"/></g><g><path style="fill:#3d320c" d="M55,70l7-1l16.241,3.873c2.371,0.711,4.279,2.48,5.168,4.79L87,87H55V70z"/></g><path style="fill:#fff5d9" d="M45,61.433V75l8,12h2V69C51.716,67.905,47.841,65.829,45,61.433z"/><path style="fill:#ffe9a1" d="M55,69v18h2l8-10V61.433C62.159,65.829,58.284,67.905,55,69z"/><path style="fill:#fff5d9" d="M70,45c-0.277,0-0.633,0-1.001,0c0-0.007,0.001-0.014,0.001-0.021 c-0.002-1.006-0.018-1.998-0.06-2.968c-8.076-0.134-25.427-1.291-25.91-8.7c-1.771,3.1-2.021,7.258-2.03,11.668 c0,0.007,0,0.014,0,0.021c-0.368,0-0.723,0-1,0c-1,0-2,1.111-2,2.222c0,3.091,0.864,7.13,4.178,7.703 C44.62,64.027,50.396,67.465,55,69c4.604-1.535,10.38-4.973,12.822-14.075C71.136,54.353,72,50.313,72,47.222 C72,46.111,71,45,70,45z"/><path style="fill:#fff" d="M43.03,33.311c-1.771,3.1-2.021,7.258-2.03,11.668c0,0.007,0,0.014,0,0.021c-0.368,0-0.723,0-1,0 c-1,0-2,1.111-2,2.222c0,3.091,0.864,7.13,4.178,7.703C44.62,64.027,50.396,67.465,55,69V40.774 C48.782,39.624,43.299,37.434,43.03,33.311z"/><g><path style="fill:#f5c43d" d="M50,58h10c0,0,0,3-5,3S50,58,50,58z"/></g><g><path style="fill:#3d320c" d="M52,47c0-1.104-0.896-2-2-2c-0.002,0-0.004,0.001-0.006,0.001C49.995,45.021,50,45.042,50,45.063 c0,1.102-0.892,1.996-1.994,1.999C48.04,48.137,48.917,49,50,49C51.104,49,52,48.104,52,47z"/></g><g><path style="fill:#3d320c" d="M61.994,47c0-1.104-0.896-2-2-2c-0.002,0-0.004,0.001-0.006,0.001 c0.001,0.021,0.006,0.041,0.006,0.062c0,1.102-0.892,1.996-1.994,1.999C58.033,48.137,58.91,49,59.994,49 C61.098,49,61.994,48.104,61.994,47z"/></g><g><circle style="fill:#fa0" cx="70.347" cy="56.371" r="1.629"/></g><g><circle style="fill:#fa0" cx="39.371" cy="56.371" r="1.629"/></g><g><polygon style="fill:#fff" points="44.989 64 47 75 55 87 53 87 40 79 44 74 35 72"/></g><g><polygon style="fill:#fff" points="65.011 64 63 75 55 87 57 87 70 79 66 74 75 72"/></g></g></g></svg>