<svg xmlns="http://www.w3.org/2000/svg" xmlns:xlink="http://www.w3.org/1999/xlink" width="110" height="110" x="0" y="0" version="1.0" viewBox="0 0 110 110" xml:space="preserve" style="enable-background:new 0 0 110 110"><g id="Artboard" style="display:none"><rect style="display:inline;fill:gray;stroke:#000;stroke-miterlimit:10" width="1335" height="954" x="-165.5" y="-149.5"/></g><g id="R-Multicolor" style="display:none"><circle style="display:inline;fill:#fabc3d" cx="55" cy="55" r="55"/><g style="display:inline"><g><path style="fill:#df2c2c" d="M79,31c0-4.418-3.582-8-8-8H39c-4.418,0-8,3.582-8,8v50c0,1.105,0.895,2,2,2h44 c1.105,0,2-0.895,2-2V31z"/></g><g><path style="fill:#fa5655" d="M76.198,24.926C74.799,23.728,72.986,23,71,23H39c-4.418,0-8,3.582-8,8v39.124L76.198,24.926z"/></g><g><path style="fill:#3e3e3f" d="M31,83v2c0,1.104,0.896,2,2,2h8c1.104,0,2-0.896,2-2v-2H31z"/></g><g><path style="fill:#3e3e3f" d="M67,85c0,1.104,0.896,2,2,2h8c1.104,0,2-0.896,2-2v-2H67V85z"/></g><g><path style="fill:#fa5655" d="M81,74c0-2.209-1.791-4-4-4h-9l-2.447-2.894C65.214,66.428,64.521,66,63.764,66H46.236 c-0.758,0-1.45,0.428-1.789,1.106L42,70h-9c-2.209,0-4,1.791-4,4v7c0,1.105,0.895,2,2,2h48c1.105,0,2-0.895,2-2V74z"/></g><g><path style="fill:#bf0302" d="M54,69h-7c-1.104,0-2,0.896-2,2v7c0,1.104,0.896,2,2,2h7V69z"/></g><g><path style="fill:#bf0302" d="M56,69h7c1.104,0,2,0.896,2,2v7c0,1.104-0.896,2-2,2h-7V69z"/></g><g><circle style="fill:#fbe158" cx="37" cy="77" r="3"/></g><g><circle style="fill:#fbe158" cx="72" cy="77" r="3"/></g><g><rect style="fill:#e2e4e5" width="48" height="2" x="31" y="47"/></g><g><polygon style="fill:#fff" points="54.124 47 31 47 31 49 52.124 49"/></g><g><path style="fill:#40c9e7" d="M75,49H57v12c0,1.105,0.895,2,2,2h14c1.105,0,2-0.895,2-2V49z"/></g><g><path style="fill:#6fdaf1" d="M35,37c0,1.105,0.895,2,2,2h14c1.105,0,2-0.895,2-2v-8c0-1.105-0.895-2-2-2H37 c-1.105,0-2,0.895-2,2V37z"/></g><g><path style="fill:#40c9e7" d="M57,37c0,1.105,0.895,2,2,2h14c1.105,0,2-0.895,2-2v-8c0-1.105-0.895-2-2-2H59 c-1.105,0-2,0.895-2,2V37z"/></g><g><path style="fill:#6fdaf1" d="M73,27H59c-1.104,0-2,0.896-2,2v8c0,1.104,0.896,2,2,2h3.124L73.9,27.223 C73.628,27.085,73.326,27,73,27z"/></g><g><path style="fill:#fbec9a" d="M72,74.044c-1.657,0-3,1.343-3,3c0,0.751,0.286,1.43,0.742,1.956l4.214-4.214 C73.43,74.33,72.751,74.044,72,74.044z"/></g><g><path style="fill:#fbec9a" d="M37,74c-1.657,0-3,1.343-3,3c0,0.751,0.286,1.43,0.742,1.956l4.214-4.214 C38.43,74.286,37.751,74,37,74z"/></g><rect style="fill:#40c9e7" width="18" height="8" x="35" y="49"/><path style="fill:#40c9e7" d="M35,61c0,1.104,0.896,2,2,2h14c1.104,0,2-0.896,2-2v-2H35V61z"/><polygon style="fill:#6fdaf1" points="44.124 57 52.124 49 35 49 35 57"/><path style="fill:#6fdaf1" d="M35,59v2c0,1.104,0.896,2,2,2h1.124l4-4H35z"/></g></g><g id="Multicolor"><g><g><path style="fill:#df2c2c" d="M79,31c0-4.418-3.582-8-8-8H39c-4.418,0-8,3.582-8,8v50c0,1.105,0.895,2,2,2h44 c1.105,0,2-0.895,2-2V31z"/></g><g><path style="fill:#fa5655" d="M76.198,24.926C74.799,23.728,72.986,23,71,23H39c-4.418,0-8,3.582-8,8v39.124L76.198,24.926z"/></g><g><path style="fill:#3e3e3f" d="M31,83v2c0,1.104,0.896,2,2,2h8c1.104,0,2-0.896,2-2v-2H31z"/></g><g><path style="fill:#3e3e3f" d="M67,85c0,1.104,0.896,2,2,2h8c1.104,0,2-0.896,2-2v-2H67V85z"/></g><g><path style="fill:#fa5655" d="M81,74c0-2.209-1.791-4-4-4h-9l-2.447-2.894C65.214,66.428,64.521,66,63.764,66H46.236 c-0.758,0-1.45,0.428-1.789,1.106L42,70h-9c-2.209,0-4,1.791-4,4v7c0,1.105,0.895,2,2,2h48c1.105,0,2-0.895,2-2V74z"/></g><g><path style="fill:#bf0302" d="M54,69h-7c-1.104,0-2,0.896-2,2v7c0,1.104,0.896,2,2,2h7V69z"/></g><g><path style="fill:#bf0302" d="M56,69h7c1.104,0,2,0.896,2,2v7c0,1.104-0.896,2-2,2h-7V69z"/></g><g><circle style="fill:#fbe158" cx="37" cy="77" r="3"/></g><g><circle style="fill:#fbe158" cx="72" cy="77" r="3"/></g><g><rect style="fill:#e2e4e5" width="48" height="2" x="31" y="47"/></g><g><polygon style="fill:#fff" points="54.124 47 31 47 31 49 52.124 49"/></g><g><path style="fill:#40c9e7" d="M75,49H57v12c0,1.105,0.895,2,2,2h14c1.105,0,2-0.895,2-2V49z"/></g><g><path style="fill:#6fdaf1" d="M35,37c0,1.105,0.895,2,2,2h14c1.105,0,2-0.895,2-2v-8c0-1.105-0.895-2-2-2H37 c-1.105,0-2,0.895-2,2V37z"/></g><g><path style="fill:#40c9e7" d="M57,37c0,1.105,0.895,2,2,2h14c1.105,0,2-0.895,2-2v-8c0-1.105-0.895-2-2-2H59 c-1.105,0-2,0.895-2,2V37z"/></g><g><path style="fill:#6fdaf1" d="M73,27H59c-1.104,0-2,0.896-2,2v8c0,1.104,0.896,2,2,2h3.124L73.9,27.223 C73.628,27.085,73.326,27,73,27z"/></g><g><path style="fill:#fbec9a" d="M72,74.044c-1.657,0-3,1.343-3,3c0,0.751,0.286,1.43,0.742,1.956l4.214-4.214 C73.43,74.33,72.751,74.044,72,74.044z"/></g><g><path style="fill:#fbec9a" d="M37,74c-1.657,0-3,1.343-3,3c0,0.751,0.286,1.43,0.742,1.956l4.214-4.214 C38.43,74.286,37.751,74,37,74z"/></g><rect style="fill:#40c9e7" width="18" height="8" x="35" y="49"/><path style="fill:#40c9e7" d="M35,61c0,1.104,0.896,2,2,2h14c1.104,0,2-0.896,2-2v-2H35V61z"/><polygon style="fill:#6fdaf1" points="44.124 57 52.124 49 35 49 35 57"/><path style="fill:#6fdaf1" d="M35,59v2c0,1.104,0.896,2,2,2h1.124l4-4H35z"/></g></g><g id="Blue" style="display:none"><g style="display:inline"><g><path style="fill:#0081a1" d="M79,31c0-4.418-3.582-8-8-8H39c-4.418,0-8,3.582-8,8v50c0,1.105,0.896,2,2,2h44 c1.104,0,2-0.895,2-2V31z"/></g><g><path style="fill:#009fc7" d="M76.197,24.926C74.799,23.728,72.986,23,71,23H39c-4.418,0-8,3.582-8,8v39.123L76.197,24.926z"/></g><g><path style="fill:#0c333d" d="M31,83v2c0,1.104,0.896,2,2,2h8c1.104,0,2-0.896,2-2v-2H31z"/></g><g><path style="fill:#0c333d" d="M67,85c0,1.104,0.896,2,2,2h8c1.104,0,2-0.896,2-2v-2H67V85z"/></g><g><path style="fill:#bbe7f2" d="M81,74c0-2.209-1.791-4-4-4h-9l-2.447-2.894C65.214,66.428,64.521,66,63.764,66H46.236 c-0.758,0-1.45,0.428-1.789,1.105L42,70h-9c-2.209,0-4,1.791-4,4v7c0,1.105,0.896,2,2,2h48c1.104,0,2-0.895,2-2V74z"/></g><g><path style="fill:#0f6175" d="M54,69h-7c-1.104,0-2,0.896-2,2v7c0,1.104,0.896,2,2,2h7V69z"/></g><g><path style="fill:#0f6175" d="M56,69h7c1.105,0,2,0.896,2,2v7c0,1.104-0.896,2-2,2h-7V69z"/></g><g><circle style="fill:#009fc7" cx="37" cy="77" r="3"/></g><g><circle style="fill:#009fc7" cx="72" cy="77" r="3"/></g><g><rect style="fill:#e1f5fa" width="48" height="2" x="31" y="47"/></g><g><polygon style="fill:#fff" points="54.123 47 31 47 31 49 52.123 49"/></g><g><path style="fill:#bbe7f2" d="M75,49H57v12c0,1.105,0.896,2,2,2h14c1.104,0,2-0.895,2-2V49z"/></g><g><path style="fill:#e1f5fa" d="M35,37c0,1.105,0.896,2,2,2h14c1.104,0,2-0.895,2-2v-8c0-1.104-0.896-2-2-2H37 c-1.104,0-2,0.896-2,2V37z"/></g><g><path style="fill:#bbe7f2" d="M57,37c0,1.105,0.896,2,2,2h14c1.104,0,2-0.895,2-2v-8c0-1.104-0.896-2-2-2H59 c-1.104,0-2,0.896-2,2V37z"/></g><g><path style="fill:#e1f5fa" d="M73,27H59c-1.104,0-2,0.896-2,2v8c0,1.104,0.896,2,2,2h3.123L73.9,27.223 C73.629,27.085,73.326,27,73,27z"/></g><g><path style="fill:#00b7e5" d="M72,74.044c-1.656,0-3,1.343-3,3c0,0.752,0.286,1.43,0.742,1.956l4.214-4.213 C73.429,74.33,72.752,74.044,72,74.044z"/></g><g><path style="fill:#00b7e5" d="M37,74c-1.656,0-3,1.343-3,3c0,0.752,0.286,1.43,0.742,1.956l4.214-4.213 C38.429,74.286,37.752,74,37,74z"/></g><rect style="fill:#bbe7f2" width="18" height="8" x="35" y="49"/><path style="fill:#bbe7f2" d="M35,61c0,1.104,0.896,2,2,2h14c1.104,0,2-0.896,2-2v-2H35V61z"/><polygon style="fill:#e1f5fa" points="44.123 57 52.123 49 35 49 35 57"/><path style="fill:#e1f5fa" d="M35,59v2c0,1.104,0.896,2,2,2h1.123l4-4H35z"/></g></g><g id="R-Blue" style="display:none"><circle style="display:inline;fill:#81d2eb" cx="55" cy="55" r="55"/><g style="display:inline"><g><path style="fill:#0081a1" d="M79,31c0-4.418-3.582-8-8-8H39c-4.418,0-8,3.582-8,8v50c0,1.105,0.896,2,2,2h44 c1.104,0,2-0.895,2-2V31z"/></g><g><path style="fill:#009fc7" d="M76.197,24.926C74.799,23.728,72.986,23,71,23H39c-4.418,0-8,3.582-8,8v39.124L76.197,24.926z"/></g><g><path style="fill:#0c333d" d="M31,83v2c0,1.104,0.896,2,2,2h8c1.104,0,2-0.896,2-2v-2H31z"/></g><g><path style="fill:#0c333d" d="M67,85c0,1.104,0.896,2,2,2h8c1.104,0,2-0.896,2-2v-2H67V85z"/></g><g><path style="fill:#bbe7f2" d="M81,74c0-2.209-1.791-4-4-4h-9l-2.447-2.894C65.214,66.428,64.521,66,63.764,66H46.236 c-0.758,0-1.45,0.428-1.789,1.105L42,70h-9c-2.209,0-4,1.791-4,4v7c0,1.105,0.896,2,2,2h48c1.104,0,2-0.895,2-2V74z"/></g><g><path style="fill:#0f6175" d="M54,69h-7c-1.104,0-2,0.896-2,2v7c0,1.104,0.896,2,2,2h7V69z"/></g><g><path style="fill:#0f6175" d="M56,69h7c1.104,0,2,0.896,2,2v7c0,1.104-0.896,2-2,2h-7V69z"/></g><g><circle style="fill:#009fc7" cx="37" cy="77" r="3"/></g><g><circle style="fill:#009fc7" cx="72" cy="77" r="3"/></g><g><rect style="fill:#e1f5fa" width="48" height="2" x="31" y="47"/></g><g><polygon style="fill:#fff" points="54.123 47 31 47 31 49 52.123 49"/></g><g><path style="fill:#bbe7f2" d="M75,49H57v12c0,1.105,0.896,2,2,2h14c1.104,0,2-0.895,2-2V49z"/></g><g><path style="fill:#e1f5fa" d="M35,37c0,1.105,0.896,2,2,2h14c1.104,0,2-0.895,2-2v-8c0-1.104-0.896-2-2-2H37 c-1.104,0-2,0.896-2,2V37z"/></g><g><path style="fill:#bbe7f2" d="M57,37c0,1.105,0.896,2,2,2h14c1.104,0,2-0.895,2-2v-8c0-1.104-0.896-2-2-2H59 c-1.104,0-2,0.896-2,2V37z"/></g><g><path style="fill:#e1f5fa" d="M73,27H59c-1.104,0-2,0.896-2,2v8c0,1.104,0.896,2,2,2h3.123L73.9,27.223 C73.629,27.085,73.326,27,73,27z"/></g><g><path style="fill:#00b7e5" d="M72,74.044c-1.656,0-3,1.343-3,3c0,0.751,0.286,1.43,0.742,1.956l4.214-4.213 C73.43,74.33,72.752,74.044,72,74.044z"/></g><g><path style="fill:#00b7e5" d="M37,74c-1.656,0-3,1.343-3,3c0,0.751,0.286,1.43,0.742,1.956l4.214-4.213 C38.43,74.286,37.752,74,37,74z"/></g><rect style="fill:#bbe7f2" width="18" height="8" x="35" y="49"/><path style="fill:#bbe7f2" d="M35,61c0,1.104,0.896,2,2,2h14c1.104,0,2-0.896,2-2v-2H35V61z"/><polygon style="fill:#e1f5fa" points="44.123 57 52.123 49 35 49 35 57"/><path style="fill:#e1f5fa" d="M35,59v2c0,1.104,0.896,2,2,2h1.123l4-4H35z"/></g></g><g id="Green" style="display:none"><g style="display:inline"><g><path style="fill:#009687" d="M79,31c0-4.418-3.582-8-8-8H39c-4.418,0-8,3.582-8,8v50c0,1.105,0.896,2,2,2h44 c1.104,0,2-0.895,2-2V31z"/></g><g><path style="fill:#00b8a5" d="M76.197,24.926C74.799,23.728,72.986,23,71,23H39c-4.418,0-8,3.582-8,8v39.123L76.197,24.926z"/></g><g><path style="fill:#0a3631" d="M31,83v2c0,1.104,0.896,2,2,2h8c1.104,0,2-0.896,2-2v-2H31z"/></g><g><path style="fill:#0a3631" d="M67,85c0,1.104,0.896,2,2,2h8c1.104,0,2-0.896,2-2v-2H67V85z"/></g><g><path style="fill:#aaf0e9" d="M81,74c0-2.209-1.791-4-4-4h-9l-2.447-2.894C65.214,66.428,64.521,66,63.764,66H46.236 c-0.758,0-1.45,0.428-1.789,1.105L42,70h-9c-2.209,0-4,1.791-4,4v7c0,1.105,0.896,2,2,2h48c1.104,0,2-0.895,2-2V74z"/></g><g><path style="fill:#14635b" d="M54,69h-7c-1.104,0-2,0.896-2,2v7c0,1.104,0.896,2,2,2h7V69z"/></g><g><path style="fill:#14635b" d="M56,69h7c1.104,0,2,0.896,2,2v7c0,1.104-0.896,2-2,2h-7V69z"/></g><g><circle style="fill:#00b8a5" cx="37" cy="77" r="3"/></g><g><circle style="fill:#00b8a5" cx="72" cy="77" r="3"/></g><g><rect style="fill:#d7fcf9" width="48" height="2" x="31" y="47"/></g><g><polygon style="fill:#fff" points="54.123 47 31 47 31 49 52.123 49"/></g><g><path style="fill:#aaf0e9" d="M75,49H57v12c0,1.105,0.896,2,2,2h14c1.104,0,2-0.895,2-2V49z"/></g><g><path style="fill:#d7fcf9" d="M35,37c0,1.105,0.896,2,2,2h14c1.104,0,2-0.895,2-2v-8c0-1.104-0.896-2-2-2H37 c-1.104,0-2,0.896-2,2V37z"/></g><g><path style="fill:#aaf0e9" d="M57,37c0,1.105,0.896,2,2,2h14c1.104,0,2-0.895,2-2v-8c0-1.104-0.896-2-2-2H59 c-1.104,0-2,0.896-2,2V37z"/></g><g><path style="fill:#d7fcf9" d="M73,27H59c-1.104,0-2,0.896-2,2v8c0,1.104,0.896,2,2,2h3.123L73.9,27.223 C73.629,27.085,73.326,27,73,27z"/></g><g><path style="fill:#00d6c1" d="M72,74.044c-1.656,0-3,1.343-3,3c0,0.752,0.286,1.43,0.742,1.956l4.214-4.213 C73.429,74.33,72.752,74.044,72,74.044z"/></g><g><path style="fill:#00d6c1" d="M37,74c-1.656,0-3,1.343-3,3c0,0.752,0.286,1.43,0.742,1.956l4.214-4.213 C38.43,74.286,37.752,74,37,74z"/></g><rect style="fill:#aaf0e9" width="18" height="8" x="35" y="49"/><path style="fill:#aaf0e9" d="M35,61c0,1.104,0.896,2,2,2h14c1.104,0,2-0.896,2-2v-2H35V61z"/><polygon style="fill:#d7fcf9" points="44.123 57 52.123 49 35 49 35 57"/><path style="fill:#d7fcf9" d="M35,59v2c0,1.104,0.896,2,2,2h1.123l4-4H35z"/></g></g><g id="R-Green" style="display:none"><circle style="display:inline;fill:#77e0c4" cx="55" cy="55" r="55"/><g style="display:inline"><g><path style="fill:#009687" d="M79,31c0-4.418-3.582-8-8-8H39c-4.418,0-8,3.582-8,8v50c0,1.105,0.896,2,2,2h44 c1.104,0,2-0.895,2-2V31z"/></g><g><path style="fill:#00b8a5" d="M76.197,24.926C74.799,23.728,72.986,23,71,23H39c-4.418,0-8,3.582-8,8v39.123L76.197,24.926z"/></g><g><path style="fill:#0a3631" d="M31,83v2c0,1.104,0.896,2,2,2h8c1.104,0,2-0.896,2-2v-2H31z"/></g><g><path style="fill:#0a3631" d="M67,85c0,1.104,0.896,2,2,2h8c1.104,0,2-0.896,2-2v-2H67V85z"/></g><g><path style="fill:#aaf0e9" d="M81,74c0-2.209-1.791-4-4-4h-9l-2.447-2.894C65.214,66.428,64.521,66,63.764,66H46.236 c-0.758,0-1.45,0.428-1.789,1.105L42,70h-9c-2.209,0-4,1.791-4,4v7c0,1.105,0.896,2,2,2h48c1.104,0,2-0.895,2-2V74z"/></g><g><path style="fill:#14635b" d="M54,69h-7c-1.104,0-2,0.896-2,2v7c0,1.104,0.896,2,2,2h7V69z"/></g><g><path style="fill:#14635b" d="M56,69h7c1.104,0,2,0.896,2,2v7c0,1.104-0.896,2-2,2h-7V69z"/></g><g><circle style="fill:#00b8a5" cx="37" cy="77" r="3"/></g><g><circle style="fill:#00b8a5" cx="72" cy="77" r="3"/></g><g><rect style="fill:#d7fcf9" width="48" height="2" x="31" y="47"/></g><g><polygon style="fill:#fff" points="54.123 47 31 47 31 49 52.123 49"/></g><g><path style="fill:#aaf0e9" d="M75,49H57v12c0,1.105,0.896,2,2,2h14c1.104,0,2-0.895,2-2V49z"/></g><g><path style="fill:#d7fcf9" d="M35,37c0,1.105,0.896,2,2,2h14c1.104,0,2-0.895,2-2v-8c0-1.104-0.896-2-2-2H37 c-1.104,0-2,0.896-2,2V37z"/></g><g><path style="fill:#aaf0e9" d="M57,37c0,1.105,0.896,2,2,2h14c1.104,0,2-0.895,2-2v-8c0-1.104-0.896-2-2-2H59 c-1.104,0-2,0.896-2,2V37z"/></g><g><path style="fill:#d7fcf9" d="M73,27H59c-1.104,0-2,0.896-2,2v8c0,1.104,0.896,2,2,2h3.123L73.9,27.223 C73.629,27.085,73.326,27,73,27z"/></g><g><path style="fill:#00d6c1" d="M72,74.044c-1.656,0-3,1.343-3,3c0,0.752,0.286,1.43,0.742,1.956l4.214-4.213 C73.43,74.33,72.752,74.044,72,74.044z"/></g><g><path style="fill:#00d6c1" d="M37,74c-1.656,0-3,1.343-3,3c0,0.752,0.286,1.43,0.742,1.956l4.214-4.213 C38.43,74.286,37.752,74,37,74z"/></g><rect style="fill:#aaf0e9" width="18" height="8" x="35" y="49"/><path style="fill:#aaf0e9" d="M35,61c0,1.104,0.896,2,2,2h14c1.104,0,2-0.896,2-2v-2H35V61z"/><polygon style="fill:#d7fcf9" points="44.123 57 52.123 49 35 49 35 57"/><path style="fill:#d7fcf9" d="M35,59v2c0,1.104,0.896,2,2,2h1.123l4-4H35z"/></g></g><g id="Red" style="display:none"><g style="display:inline"><g><path style="fill:#c23023" d="M79,31c0-4.418-3.582-8-8-8H39c-4.418,0-8,3.582-8,8v50c0,1.105,0.896,2,2,2h44 c1.104,0,2-0.895,2-2V31z"/></g><g><path style="fill:#e54b44" d="M76.197,24.926C74.799,23.728,72.986,23,71,23H39c-4.418,0-8,3.582-8,8v39.124L76.197,24.926z"/></g><g><path style="fill:#4a1410" d="M31,83v2c0,1.104,0.896,2,2,2h8c1.104,0,2-0.896,2-2v-2H31z"/></g><g><path style="fill:#4a1410" d="M67,85c0,1.104,0.896,2,2,2h8c1.104,0,2-0.896,2-2v-2H67V85z"/></g><g><path style="fill:#ffd7d4" d="M81,74c0-2.209-1.791-4-4-4h-9l-2.447-2.894C65.214,66.428,64.521,66,63.764,66H46.236 c-0.758,0-1.45,0.428-1.789,1.106L42,70h-9c-2.209,0-4,1.791-4,4v7c0,1.105,0.896,2,2,2h48c1.104,0,2-0.895,2-2V74z"/></g><g><path style="fill:#7d261e" d="M54,69h-7c-1.104,0-2,0.896-2,2v7c0,1.104,0.896,2,2,2h7V69z"/></g><g><path style="fill:#7d261e" d="M56,69h7c1.104,0,2,0.896,2,2v7c0,1.104-0.896,2-2,2h-7V69z"/></g><g><circle style="fill:#e54b44" cx="37" cy="77" r="3"/></g><g><circle style="fill:#e54b44" cx="72" cy="77" r="3"/></g><g><rect style="fill:#ffefed" width="48" height="2" x="31" y="47"/></g><g><polygon style="fill:#fff" points="54.123 47 31 47 31 49 52.123 49"/></g><g><path style="fill:#ffd7d4" d="M75,49H57v12c0,1.105,0.896,2,2,2h14c1.104,0,2-0.895,2-2V49z"/></g><g><path style="fill:#ffefed" d="M35,37c0,1.105,0.896,2,2,2h14c1.104,0,2-0.895,2-2v-8c0-1.104-0.896-2-2-2H37 c-1.104,0-2,0.896-2,2V37z"/></g><g><path style="fill:#ffd7d4" d="M57,37c0,1.105,0.896,2,2,2h14c1.104,0,2-0.895,2-2v-8c0-1.104-0.896-2-2-2H59 c-1.104,0-2,0.896-2,2V37z"/></g><g><path style="fill:#ffefed" d="M73,27H59c-1.104,0-2,0.896-2,2v8c0,1.104,0.896,2,2,2h3.123L73.9,27.223 C73.629,27.085,73.326,27,73,27z"/></g><g><path style="fill:#ff6c5e" d="M72,74.044c-1.656,0-3,1.343-3,3c0,0.751,0.286,1.43,0.742,1.956l4.214-4.213 C73.429,74.33,72.752,74.044,72,74.044z"/></g><g><path style="fill:#ff6c5e" d="M37,74c-1.656,0-3,1.343-3,3c0,0.752,0.286,1.43,0.742,1.956l4.214-4.213 C38.43,74.286,37.752,74,37,74z"/></g><rect style="fill:#ffd7d4" width="18" height="8" x="35" y="49"/><path style="fill:#ffd7d4" d="M35,61c0,1.104,0.896,2,2,2h14c1.104,0,2-0.896,2-2v-2H35V61z"/><polygon style="fill:#ffefed" points="44.123 57 52.123 49 35 49 35 57"/><path style="fill:#ffefed" d="M35,59v2c0,1.104,0.896,2,2,2h1.123l4-4H35z"/></g></g><g id="R-Red" style="display:none"><circle style="display:inline;fill:#fabbaf" cx="55" cy="55" r="55"/><g style="display:inline"><g><path style="fill:#c23023" d="M79,31c0-4.418-3.582-8-8-8H39c-4.418,0-8,3.582-8,8v50c0,1.105,0.896,2,2,2h44 c1.104,0,2-0.895,2-2V31z"/></g><g><path style="fill:#e54b44" d="M76.197,24.926C74.799,23.728,72.986,23,71,23H39c-4.418,0-8,3.582-8,8v39.124L76.197,24.926z"/></g><g><path style="fill:#4a1410" d="M31,83v2c0,1.104,0.896,2,2,2h8c1.104,0,2-0.896,2-2v-2H31z"/></g><g><path style="fill:#4a1410" d="M67,85c0,1.104,0.896,2,2,2h8c1.104,0,2-0.896,2-2v-2H67V85z"/></g><g><path style="fill:#ffd7d4" d="M81,74c0-2.209-1.791-4-4-4h-9l-2.447-2.894C65.214,66.428,64.521,66,63.764,66H46.236 c-0.758,0-1.45,0.428-1.789,1.106L42,70h-9c-2.209,0-4,1.791-4,4v7c0,1.105,0.896,2,2,2h48c1.104,0,2-0.895,2-2V74z"/></g><g><path style="fill:#7d261e" d="M54,69h-7c-1.104,0-2,0.896-2,2v7c0,1.104,0.896,2,2,2h7V69z"/></g><g><path style="fill:#7d261e" d="M56,69h7c1.104,0,2,0.896,2,2v7c0,1.104-0.896,2-2,2h-7V69z"/></g><g><circle style="fill:#e54b44" cx="37" cy="77" r="3"/></g><g><circle style="fill:#e54b44" cx="72" cy="77" r="3"/></g><g><rect style="fill:#ffefed" width="48" height="2" x="31" y="47"/></g><g><polygon style="fill:#fff" points="54.123 47 31 47 31 49 52.123 49"/></g><g><path style="fill:#ffd7d4" d="M75,49H57v12c0,1.105,0.896,2,2,2h14c1.104,0,2-0.895,2-2V49z"/></g><g><path style="fill:#ffefed" d="M35,37c0,1.105,0.896,2,2,2h14c1.104,0,2-0.895,2-2v-8c0-1.104-0.896-2-2-2H37 c-1.104,0-2,0.896-2,2V37z"/></g><g><path style="fill:#ffd7d4" d="M57,37c0,1.105,0.896,2,2,2h14c1.104,0,2-0.895,2-2v-8c0-1.104-0.896-2-2-2H59 c-1.104,0-2,0.896-2,2V37z"/></g><g><path style="fill:#ffefed" d="M73,27H59c-1.104,0-2,0.896-2,2v8c0,1.104,0.896,2,2,2h3.123L73.9,27.223 C73.629,27.085,73.326,27,73,27z"/></g><g><path style="fill:#ff6c5e" d="M72,74.044c-1.656,0-3,1.343-3,3c0,0.751,0.286,1.43,0.742,1.956l4.214-4.213 C73.43,74.33,72.752,74.044,72,74.044z"/></g><g><path style="fill:#ff6c5e" d="M37,74c-1.656,0-3,1.343-3,3c0,0.752,0.286,1.43,0.742,1.956l4.214-4.213 C38.43,74.286,37.752,74,37,74z"/></g><rect style="fill:#ffd7d4" width="18" height="8" x="35" y="49"/><path style="fill:#ffd7d4" d="M35,61c0,1.104,0.896,2,2,2h14c1.104,0,2-0.896,2-2v-2H35V61z"/><polygon style="fill:#ffefed" points="44.123 57 52.123 49 35 49 35 57"/><path style="fill:#ffefed" d="M35,59v2c0,1.104,0.896,2,2,2h1.123l4-4H35z"/></g></g><g id="Yellow" style="display:none"><g style="display:inline"><g><path style="fill:#e07000" d="M79,31c0-4.418-3.582-8-8-8H39c-4.418,0-8,3.582-8,8v50c0,1.105,0.896,2,2,2h44 c1.104,0,2-0.895,2-2V31z"/></g><g><path style="fill:#fa9200" d="M76.197,24.926C74.799,23.728,72.986,23,71,23H39c-4.418,0-8,3.582-8,8v39.123L76.197,24.926z"/></g><g><path style="fill:#3d320c" d="M31,83v2c0,1.104,0.896,2,2,2h8c1.104,0,2-0.896,2-2v-2H31z"/></g><g><path style="fill:#3d320c" d="M67,85c0,1.104,0.896,2,2,2h8c1.104,0,2-0.896,2-2v-2H67V85z"/></g><g><path style="fill:#ffe9a1" d="M81,74c0-2.209-1.791-4-4-4h-9l-2.447-2.894C65.214,66.428,64.521,66,63.764,66H46.236 c-0.758,0-1.45,0.428-1.789,1.105L42,70h-9c-2.209,0-4,1.791-4,4v7c0,1.105,0.896,2,2,2h48c1.104,0,2-0.895,2-2V74z"/></g><g><path style="fill:#66510d" d="M54,69h-7c-1.104,0-2,0.896-2,2v7c0,1.104,0.896,2,2,2h7V69z"/></g><g><path style="fill:#66510d" d="M56,69h7c1.104,0,2,0.896,2,2v7c0,1.104-0.896,2-2,2h-7V69z"/></g><g><circle style="fill:#fa9200" cx="37" cy="77" r="3"/></g><g><circle style="fill:#fa9200" cx="72" cy="77" r="3"/></g><g><rect style="fill:#fff5d9" width="48" height="2" x="31" y="47"/></g><g><polygon style="fill:#fff" points="54.123 47 31 47 31 49 52.123 49"/></g><g><path style="fill:#ffe9a1" d="M75,49H57v12c0,1.105,0.896,2,2,2h14c1.104,0,2-0.895,2-2V49z"/></g><g><path style="fill:#fff5d9" d="M35,37c0,1.105,0.896,2,2,2h14c1.104,0,2-0.895,2-2v-8c0-1.104-0.896-2-2-2H37 c-1.104,0-2,0.896-2,2V37z"/></g><g><path style="fill:#ffe9a1" d="M57,37c0,1.105,0.896,2,2,2h14c1.104,0,2-0.895,2-2v-8c0-1.104-0.896-2-2-2H59 c-1.104,0-2,0.896-2,2V37z"/></g><g><path style="fill:#fff5d9" d="M73,27H59c-1.104,0-2,0.896-2,2v8c0,1.104,0.896,2,2,2h3.123L73.9,27.223 C73.629,27.085,73.326,27,73,27z"/></g><g><path style="fill:#fa0" d="M72,74.044c-1.656,0-3,1.343-3,3c0,0.752,0.286,1.43,0.742,1.956l4.214-4.213 C73.429,74.33,72.752,74.044,72,74.044z"/></g><g><path style="fill:#fa0" d="M37,74c-1.656,0-3,1.343-3,3c0,0.752,0.286,1.43,0.742,1.956l4.214-4.213 C38.43,74.286,37.752,74,37,74z"/></g><rect style="fill:#ffe9a1" width="18" height="8" x="35" y="49"/><path style="fill:#ffe9a1" d="M35,61c0,1.104,0.896,2,2,2h14c1.104,0,2-0.896,2-2v-2H35V61z"/><polygon style="fill:#fff5d9" points="44.123 57 52.123 49 35 49 35 57"/><path style="fill:#fff5d9" d="M35,59v2c0,1.104,0.896,2,2,2h1.123l4-4H35z"/></g></g><g id="R-Yellow" style="display:none"><circle style="display:inline;fill:#ffd75e" cx="55" cy="55" r="55"/><g style="display:inline"><g><path style="fill:#e07000" d="M79,31c0-4.418-3.582-8-8-8H39c-4.418,0-8,3.582-8,8v50c0,1.105,0.896,2,2,2h44 c1.104,0,2-0.895,2-2V31z"/></g><g><path style="fill:#fa9200" d="M76.197,24.926C74.799,23.728,72.986,23,71,23H39c-4.418,0-8,3.582-8,8v39.123L76.197,24.926z"/></g><g><path style="fill:#3d320c" d="M31,83v2c0,1.104,0.896,2,2,2h8c1.104,0,2-0.896,2-2v-2H31z"/></g><g><path style="fill:#3d320c" d="M67,85c0,1.104,0.896,2,2,2h8c1.104,0,2-0.896,2-2v-2H67V85z"/></g><g><path style="fill:#ffe9a1" d="M81,74c0-2.209-1.791-4-4-4h-9l-2.447-2.894C65.214,66.428,64.521,66,63.764,66H46.236 c-0.758,0-1.45,0.428-1.789,1.105L42,70h-9c-2.209,0-4,1.791-4,4v7c0,1.105,0.896,2,2,2h48c1.104,0,2-0.895,2-2V74z"/></g><g><path style="fill:#66510d" d="M54,69h-7c-1.104,0-2,0.896-2,2v7c0,1.104,0.896,2,2,2h7V69z"/></g><g><path style="fill:#66510d" d="M56,69h7c1.104,0,2,0.896,2,2v7c0,1.104-0.896,2-2,2h-7V69z"/></g><g><circle style="fill:#fa9200" cx="37" cy="77" r="3"/></g><g><circle style="fill:#fa9200" cx="72" cy="77" r="3"/></g><g><rect style="fill:#fff5d9" width="48" height="2" x="31" y="47"/></g><g><polygon style="fill:#fff" points="54.123 47 31 47 31 49 52.123 49"/></g><g><path style="fill:#ffe9a1" d="M75,49H57v12c0,1.105,0.896,2,2,2h14c1.104,0,2-0.895,2-2V49z"/></g><g><path style="fill:#fff5d9" d="M35,37c0,1.105,0.896,2,2,2h14c1.104,0,2-0.895,2-2v-8c0-1.104-0.896-2-2-2H37 c-1.104,0-2,0.896-2,2V37z"/></g><g><path style="fill:#ffe9a1" d="M57,37c0,1.105,0.896,2,2,2h14c1.104,0,2-0.895,2-2v-8c0-1.104-0.896-2-2-2H59 c-1.104,0-2,0.896-2,2V37z"/></g><g><path style="fill:#fff5d9" d="M73,27H59c-1.104,0-2,0.896-2,2v8c0,1.104,0.896,2,2,2h3.123L73.9,27.223 C73.629,27.085,73.326,27,73,27z"/></g><g><path style="fill:#fa0" d="M72,74.044c-1.656,0-3,1.343-3,3c0,0.752,0.286,1.43,0.742,1.956l4.214-4.213 C73.43,74.33,72.752,74.044,72,74.044z"/></g><g><path style="fill:#fa0" d="M37,74c-1.656,0-3,1.343-3,3c0,0.752,0.286,1.43,0.742,1.956l4.214-4.213 C38.43,74.286,37.752,74,37,74z"/></g><rect style="fill:#ffe9a1" width="18" height="8" x="35" y="49"/><path style="fill:#ffe9a1" d="M35,61c0,1.104,0.896,2,2,2h14c1.104,0,2-0.896,2-2v-2H35V61z"/><polygon style="fill:#fff5d9" points="44.123 57 52.123 49 35 49 35 57"/><path style="fill:#fff5d9" d="M35,59v2c0,1.104,0.896,2,2,2h1.123l4-4H35z"/></g></g></svg>