<svg xmlns="http://www.w3.org/2000/svg" xmlns:xlink="http://www.w3.org/1999/xlink" width="110" height="110" x="0" y="0" version="1.0" viewBox="0 0 110 110" xml:space="preserve" style="enable-background:new 0 0 110 110"><g id="Artboard" style="display:none"><rect style="display:inline;fill:#8c8c8c" width="1412" height="743" x="-443" y="-79"/></g><g id="R-Multicolor" style="display:none"><circle style="display:inline;fill:#e04f5f" cx="55" cy="55" r="55"/><g style="display:inline"><path style="fill:#fff" d="M23,26.84c0-2.121,1.719-3.84,3.84-3.84H55l16,13.44v46.72c0,2.121-1.719,3.84-3.84,3.84H26.84 C24.719,87,23,85.281,23,83.16V26.84z"/><path style="fill:#f0f1f1" d="M55,23v9.6c0,2.121,1.719,3.84,3.84,3.84H71L55,23z"/><polygon style="fill:#f4d0a1" points="77 41.5 82 31 87 41.5 87 80 77 80"/><polygon style="fill:#edbc7c" points="87 47 87 41.5 82 31 82 47"/><path style="fill:#f79392" d="M87,84c0,1.657-1.343,3-3,3h-4c-1.657,0-3-1.343-3-3v-2h10V84z"/><path style="fill:#e2e4e5" d="M62,45c0,0.55-0.45,1-1,1H46c-0.55,0-1-0.45-1-1l0,0c0-0.55,0.45-1,1-1h15C61.55,44,62,44.45,62,45 L62,45z"/><path style="fill:#e2e4e5" d="M56,50c0,0.55-0.45,1-1,1h-9c-0.55,0-1-0.45-1-1l0,0c0-0.55,0.45-1,1-1h9C55.55,49,56,49.45,56,50 L56,50z"/><path style="fill:#e2e4e5" d="M62,58c0,0.55-0.45,1-1,1H46c-0.55,0-1-0.45-1-1l0,0c0-0.55,0.45-1,1-1h15C61.55,57,62,57.45,62,58 L62,58z"/><path style="fill:#e2e4e5" d="M56,63c0,0.55-0.45,1-1,1h-9c-0.55,0-1-0.45-1-1l0,0c0-0.55,0.45-1,1-1h9C55.55,62,56,62.45,56,63 L56,63z"/><path style="fill:#e2e4e5" d="M62,71c0,0.55-0.45,1-1,1H46c-0.55,0-1-0.45-1-1l0,0c0-0.55,0.45-1,1-1h15C61.55,70,62,70.45,62,71 L62,71z"/><path style="fill:#e2e4e5" d="M56,76c0,0.55-0.45,1-1,1h-9c-0.55,0-1-0.45-1-1l0,0c0-0.55,0.45-1,1-1h9C55.55,75,56,75.45,56,76 L56,76z"/><g><path style="fill:#17b198" d="M35.067,52l-3.774-3.774c-0.391-0.39-0.391-1.024,0-1.414c0.391-0.391,1.024-0.391,1.414,0 l2.226,2.226l4.299-5.159c0.354-0.425,0.984-0.482,1.408-0.128c0.424,0.354,0.482,0.984,0.128,1.408L35.067,52z"/></g><g><path style="fill:#17b198" d="M35.067,65l-3.774-3.774c-0.391-0.39-0.391-1.024,0-1.414c0.391-0.391,1.024-0.391,1.414,0 l2.226,2.226l4.299-5.159c0.354-0.425,0.984-0.482,1.408-0.128c0.424,0.354,0.482,0.984,0.128,1.408L35.067,65z"/></g><g><path style="fill:#17b198" d="M35.067,78l-3.774-3.774c-0.391-0.39-0.391-1.024,0-1.414c0.391-0.391,1.024-0.391,1.414,0 l2.226,2.226l4.299-5.159c0.354-0.425,0.984-0.482,1.408-0.128c0.424,0.354,0.482,0.984,0.128,1.408L35.067,78z"/></g><rect style="fill:#facb1b" width="10" height="3" x="77" y="79"/><rect style="fill:#fbe158" width="5" height="2" x="77" y="80"/><path style="fill:#3e3e3f" d="M82.013,30.984l-1.857,3.899c0.512,0.678,1.152,1.101,1.857,1.101s1.345-0.422,1.857-1.101 L82.013,30.984z"/><path style="fill:#0484ab" d="M84.5,43c-1.154,0-2.126-0.782-2.413-1.845c-0.026-0.097-0.147-0.097-0.173,0 C81.626,42.218,80.654,43,79.5,43c-1.052,0-1.953-0.65-2.322-1.571C77.139,41.332,77,41.359,77,41.464V80h10V41.464 c0-0.105-0.139-0.131-0.178-0.034C86.453,42.35,85.552,43,84.5,43z"/><path style="fill:#21b2d1" d="M77,80V41.493c0-0.111,0.147-0.139,0.19-0.036C77.565,42.363,78.458,43,79.5,43 c1.159,0,2.134-0.789,2.417-1.859C81.931,41.089,82,41.096,82,41.15V80H77z"/><path style="fill:#f7b4b4" d="M77,82v2c0,1.657,1.343,3,3,3h2v-5H77z"/></g></g><g id="Multicolor"><g><path style="fill:#fff" d="M23,26.84c0-2.121,1.719-3.84,3.84-3.84H55l16,13.44v46.72c0,2.121-1.719,3.84-3.84,3.84H26.84 C24.719,87,23,85.281,23,83.16V26.84z"/><path style="fill:#f0f1f1" d="M55,23v9.6c0,2.121,1.719,3.84,3.84,3.84H71L55,23z"/><polygon style="fill:#f4d0a1" points="77 41.5 82 31 87 41.5 87 80 77 80"/><polygon style="fill:#edbc7c" points="87 47 87 41.5 82 31 82 47"/><path style="fill:#f79392" d="M87,84c0,1.657-1.343,3-3,3h-4c-1.657,0-3-1.343-3-3v-2h10V84z"/><path style="fill:#e2e4e5" d="M62,45c0,0.55-0.45,1-1,1H46c-0.55,0-1-0.45-1-1l0,0c0-0.55,0.45-1,1-1h15C61.55,44,62,44.45,62,45 L62,45z"/><path style="fill:#e2e4e5" d="M56,50c0,0.55-0.45,1-1,1h-9c-0.55,0-1-0.45-1-1l0,0c0-0.55,0.45-1,1-1h9C55.55,49,56,49.45,56,50 L56,50z"/><path style="fill:#e2e4e5" d="M62,58c0,0.55-0.45,1-1,1H46c-0.55,0-1-0.45-1-1l0,0c0-0.55,0.45-1,1-1h15C61.55,57,62,57.45,62,58 L62,58z"/><path style="fill:#e2e4e5" d="M56,63c0,0.55-0.45,1-1,1h-9c-0.55,0-1-0.45-1-1l0,0c0-0.55,0.45-1,1-1h9C55.55,62,56,62.45,56,63 L56,63z"/><path style="fill:#e2e4e5" d="M62,71c0,0.55-0.45,1-1,1H46c-0.55,0-1-0.45-1-1l0,0c0-0.55,0.45-1,1-1h15C61.55,70,62,70.45,62,71 L62,71z"/><path style="fill:#e2e4e5" d="M56,76c0,0.55-0.45,1-1,1h-9c-0.55,0-1-0.45-1-1l0,0c0-0.55,0.45-1,1-1h9C55.55,75,56,75.45,56,76 L56,76z"/><g><path style="fill:#17b198" d="M35.067,52l-3.774-3.774c-0.391-0.39-0.391-1.024,0-1.414c0.391-0.391,1.024-0.391,1.414,0 l2.226,2.226l4.299-5.159c0.354-0.425,0.984-0.482,1.408-0.128c0.424,0.354,0.482,0.984,0.128,1.408L35.067,52z"/></g><g><path style="fill:#17b198" d="M35.067,65l-3.774-3.774c-0.391-0.39-0.391-1.024,0-1.414c0.391-0.391,1.024-0.391,1.414,0 l2.226,2.226l4.299-5.159c0.354-0.425,0.984-0.482,1.408-0.128c0.424,0.354,0.482,0.984,0.128,1.408L35.067,65z"/></g><g><path style="fill:#17b198" d="M35.067,78l-3.774-3.774c-0.391-0.39-0.391-1.024,0-1.414c0.391-0.391,1.024-0.391,1.414,0 l2.226,2.226l4.299-5.159c0.354-0.425,0.984-0.482,1.408-0.128c0.424,0.354,0.482,0.984,0.128,1.408L35.067,78z"/></g><rect style="fill:#facb1b" width="10" height="3" x="77" y="79"/><rect style="fill:#fbe158" width="5" height="2" x="77" y="80"/><path style="fill:#3e3e3f" d="M82.013,30.984l-1.857,3.899c0.512,0.678,1.152,1.101,1.857,1.101s1.345-0.422,1.857-1.101 L82.013,30.984z"/><path style="fill:#0484ab" d="M84.5,43c-1.154,0-2.126-0.782-2.413-1.845c-0.026-0.097-0.147-0.097-0.173,0 C81.626,42.218,80.654,43,79.5,43c-1.052,0-1.953-0.65-2.322-1.571C77.139,41.332,77,41.359,77,41.464V80h10V41.464 c0-0.105-0.139-0.131-0.178-0.034C86.453,42.35,85.552,43,84.5,43z"/><path style="fill:#21b2d1" d="M77,80V41.493c0-0.111,0.147-0.139,0.19-0.036C77.565,42.363,78.458,43,79.5,43 c1.159,0,2.134-0.789,2.417-1.859C81.931,41.089,82,41.096,82,41.15V80H77z"/><path style="fill:#f7b4b4" d="M77,82v2c0,1.657,1.343,3,3,3h2v-5H77z"/></g></g><g id="Blue" style="display:none"><g style="display:inline"><g><path style="fill:#fff" d="M23,26.84c0-2.121,1.719-3.84,3.84-3.84H55l16,13.44v46.72c0,2.121-1.719,3.84-3.84,3.84H26.84 C24.719,87,23,85.281,23,83.16V26.84z"/></g><g><path style="fill:#bbe7f2" d="M55,23v9.6c0,2.121,1.719,3.84,3.84,3.84H71L55,23z"/></g><g><polygon style="fill:#fff" points="77 41.5 82 31 87 41.5 87 80 77 80"/></g><g><polygon style="fill:#e1f5fa" points="87 47 87 41.5 82 31 82 47"/></g><g><path style="fill:#e1f5fa" d="M87,84c0,1.657-1.343,3-3,3h-4c-1.657,0-3-1.343-3-3v-2h10V84z"/></g><g><path style="fill:#bbe7f2" d="M62,45c0,0.55-0.45,1-1,1H46c-0.55,0-1-0.45-1-1l0,0c0-0.55,0.45-1,1-1h15 C61.55,44,62,44.45,62,45L62,45z"/></g><g><path style="fill:#bbe7f2" d="M56,50c0,0.55-0.45,1-1,1h-9c-0.55,0-1-0.45-1-1l0,0c0-0.55,0.45-1,1-1h9C55.55,49,56,49.45,56,50 L56,50z"/></g><g><path style="fill:#bbe7f2" d="M62,58c0,0.55-0.45,1-1,1H46c-0.55,0-1-0.45-1-1l0,0c0-0.55,0.45-1,1-1h15 C61.55,57,62,57.45,62,58L62,58z"/></g><g><path style="fill:#bbe7f2" d="M56,63c0,0.55-0.45,1-1,1h-9c-0.55,0-1-0.45-1-1l0,0c0-0.55,0.45-1,1-1h9C55.55,62,56,62.45,56,63 L56,63z"/></g><g><path style="fill:#bbe7f2" d="M62,71c0,0.55-0.45,1-1,1H46c-0.55,0-1-0.45-1-1l0,0c0-0.55,0.45-1,1-1h15 C61.55,70,62,70.45,62,71L62,71z"/></g><g><path style="fill:#bbe7f2" d="M56,76c0,0.55-0.45,1-1,1h-9c-0.55,0-1-0.45-1-1l0,0c0-0.55,0.45-1,1-1h9C55.55,75,56,75.45,56,76 L56,76z"/></g><g><g><path style="fill:#009fc7" d="M35.067,52l-3.774-3.774c-0.391-0.39-0.391-1.024,0-1.414c0.391-0.391,1.023-0.391,1.414,0 l2.226,2.226l4.299-5.159c0.354-0.424,0.984-0.481,1.408-0.128c0.424,0.353,0.482,0.984,0.128,1.408L35.067,52z"/></g></g><g><g><path style="fill:#009fc7" d="M35.067,65l-3.774-3.774c-0.391-0.39-0.391-1.024,0-1.414c0.391-0.391,1.023-0.391,1.414,0 l2.226,2.226l4.299-5.159c0.354-0.424,0.984-0.481,1.408-0.128c0.424,0.353,0.482,0.984,0.128,1.408L35.067,65z"/></g></g><g><g><path style="fill:#009fc7" d="M35.067,78l-3.774-3.774c-0.391-0.39-0.391-1.023,0-1.414c0.391-0.391,1.023-0.391,1.414,0 l2.226,2.226l4.299-5.159c0.354-0.424,0.984-0.481,1.408-0.128c0.424,0.353,0.482,0.984,0.128,1.408L35.067,78z"/></g></g><g><rect style="fill:#0f6175" width="10" height="3" x="77" y="79"/></g><g><rect style="fill:#33899e" width="5" height="2" x="77" y="80"/></g><g><path style="fill:#0c333d" d="M82.013,30.984l-1.857,3.899c0.512,0.678,1.152,1.101,1.857,1.101s1.345-0.423,1.857-1.101 L82.013,30.984z"/></g><g><path style="fill:#0081a1" d="M84.5,43c-1.154,0-2.126-0.782-2.414-1.845c-0.026-0.097-0.147-0.097-0.173,0 C81.626,42.218,80.654,43,79.5,43c-1.052,0-1.953-0.65-2.322-1.57C77.139,41.332,77,41.359,77,41.464V80h10V41.464 c0-0.105-0.139-0.132-0.178-0.034C86.453,42.35,85.552,43,84.5,43z"/></g><g><path style="fill:#009fc7" d="M77,80V41.494c0-0.112,0.146-0.14,0.19-0.037C77.565,42.363,78.458,43,79.5,43 c1.159,0,2.134-0.789,2.416-1.858C81.931,41.089,82,41.096,82,41.149V80H77z"/></g><g><path style="fill:#fff" d="M77,82v2c0,1.657,1.343,3,3,3h2v-5H77z"/></g></g></g><g id="R-Blue" style="display:none"><g style="display:inline"><circle style="fill:#81d2eb" cx="55" cy="55" r="55"/></g><g style="display:inline"><g><path style="fill:#fff" d="M23,26.84c0-2.121,1.719-3.84,3.84-3.84H55l16,13.44v46.72c0,2.121-1.719,3.84-3.84,3.84H26.84 C24.719,87,23,85.281,23,83.16V26.84z"/></g><g><path style="fill:#bbe7f2" d="M55,23v9.6c0,2.121,1.719,3.84,3.84,3.84H71L55,23z"/></g><g><polygon style="fill:#fff" points="77 41.5 82 31 87 41.5 87 80 77 80"/></g><g><polygon style="fill:#e1f5fa" points="87 47 87 41.5 82 31 82 47"/></g><g><path style="fill:#e1f5fa" d="M87,84c0,1.657-1.343,3-3,3h-4c-1.657,0-3-1.343-3-3v-2h10V84z"/></g><g><path style="fill:#bbe7f2" d="M62,45c0,0.55-0.45,1-1,1H46c-0.55,0-1-0.45-1-1l0,0c0-0.55,0.45-1,1-1h15 C61.55,44,62,44.45,62,45L62,45z"/></g><g><path style="fill:#bbe7f2" d="M56,50c0,0.55-0.45,1-1,1h-9c-0.55,0-1-0.45-1-1l0,0c0-0.55,0.45-1,1-1h9C55.55,49,56,49.45,56,50 L56,50z"/></g><g><path style="fill:#bbe7f2" d="M62,58c0,0.55-0.45,1-1,1H46c-0.55,0-1-0.45-1-1l0,0c0-0.55,0.45-1,1-1h15 C61.55,57,62,57.45,62,58L62,58z"/></g><g><path style="fill:#bbe7f2" d="M56,63c0,0.55-0.45,1-1,1h-9c-0.55,0-1-0.45-1-1l0,0c0-0.55,0.45-1,1-1h9C55.55,62,56,62.45,56,63 L56,63z"/></g><g><path style="fill:#bbe7f2" d="M62,71c0,0.55-0.45,1-1,1H46c-0.55,0-1-0.45-1-1l0,0c0-0.55,0.45-1,1-1h15 C61.55,70,62,70.45,62,71L62,71z"/></g><g><path style="fill:#bbe7f2" d="M56,76c0,0.55-0.45,1-1,1h-9c-0.55,0-1-0.45-1-1l0,0c0-0.55,0.45-1,1-1h9C55.55,75,56,75.45,56,76 L56,76z"/></g><g><g><path style="fill:#009fc7" d="M35.067,52l-3.774-3.774c-0.391-0.39-0.391-1.024,0-1.414c0.391-0.391,1.023-0.391,1.414,0 l2.226,2.226l4.299-5.159c0.354-0.424,0.984-0.481,1.408-0.128c0.424,0.353,0.482,0.984,0.128,1.408L35.067,52z"/></g></g><g><g><path style="fill:#009fc7" d="M35.067,65l-3.774-3.774c-0.391-0.39-0.391-1.024,0-1.414c0.391-0.391,1.023-0.391,1.414,0 l2.226,2.226l4.299-5.159c0.354-0.424,0.984-0.481,1.408-0.128c0.424,0.353,0.482,0.984,0.128,1.408L35.067,65z"/></g></g><g><g><path style="fill:#009fc7" d="M35.067,78l-3.774-3.774c-0.391-0.39-0.391-1.023,0-1.414c0.391-0.391,1.023-0.391,1.414,0 l2.226,2.226l4.299-5.159c0.354-0.424,0.984-0.481,1.408-0.128c0.424,0.353,0.482,0.984,0.128,1.408L35.067,78z"/></g></g><g><rect style="fill:#0f6175" width="10" height="3" x="77" y="79"/></g><g><rect style="fill:#33899e" width="5" height="2" x="77" y="80"/></g><g><path style="fill:#0c333d" d="M82.013,30.984l-1.857,3.899c0.512,0.678,1.152,1.101,1.857,1.101s1.345-0.423,1.857-1.101 L82.013,30.984z"/></g><g><path style="fill:#0081a1" d="M84.5,43c-1.154,0-2.126-0.782-2.414-1.845c-0.026-0.097-0.147-0.097-0.173,0 C81.626,42.218,80.654,43,79.5,43c-1.052,0-1.953-0.65-2.322-1.57C77.139,41.332,77,41.359,77,41.464V80h10V41.464 c0-0.105-0.139-0.132-0.178-0.034C86.453,42.35,85.552,43,84.5,43z"/></g><g><path style="fill:#009fc7" d="M77,80V41.494c0-0.112,0.146-0.14,0.19-0.037C77.565,42.363,78.458,43,79.5,43 c1.159,0,2.134-0.789,2.416-1.858C81.931,41.089,82,41.096,82,41.149V80H77z"/></g><g><path style="fill:#fff" d="M77,82v2c0,1.657,1.343,3,3,3h2v-5H77z"/></g></g></g><g id="Green" style="display:none"><g style="display:inline"><g><path style="fill:#fff" d="M23,26.84c0-2.121,1.719-3.84,3.84-3.84H55l16,13.44v46.72c0,2.121-1.719,3.84-3.84,3.84H26.84 C24.719,87,23,85.281,23,83.16V26.84z"/></g><g><path style="fill:#aaf0e9" d="M55,23v9.6c0,2.121,1.719,3.84,3.84,3.84H71L55,23z"/></g><g><polygon style="fill:#fff" points="77 41.5 82 31 87 41.5 87 80 77 80"/></g><g><polygon style="fill:#d7fcf9" points="87 47 87 41.5 82 31 82 47"/></g><g><path style="fill:#d7fcf9" d="M87,84c0,1.657-1.343,3-3,3h-4c-1.657,0-3-1.343-3-3v-2h10V84z"/></g><g><path style="fill:#aaf0e9" d="M62,45c0,0.55-0.45,1-1,1H46c-0.55,0-1-0.45-1-1l0,0c0-0.55,0.45-1,1-1h15 C61.55,44,62,44.45,62,45L62,45z"/></g><g><path style="fill:#aaf0e9" d="M56,50c0,0.55-0.45,1-1,1h-9c-0.55,0-1-0.45-1-1l0,0c0-0.55,0.45-1,1-1h9C55.55,49,56,49.45,56,50 L56,50z"/></g><g><path style="fill:#aaf0e9" d="M62,58c0,0.55-0.45,1-1,1H46c-0.55,0-1-0.45-1-1l0,0c0-0.55,0.45-1,1-1h15 C61.55,57,62,57.45,62,58L62,58z"/></g><g><path style="fill:#aaf0e9" d="M56,63c0,0.55-0.45,1-1,1h-9c-0.55,0-1-0.45-1-1l0,0c0-0.55,0.45-1,1-1h9C55.55,62,56,62.45,56,63 L56,63z"/></g><g><path style="fill:#aaf0e9" d="M62,71c0,0.55-0.45,1-1,1H46c-0.55,0-1-0.45-1-1l0,0c0-0.55,0.45-1,1-1h15 C61.55,70,62,70.45,62,71L62,71z"/></g><g><path style="fill:#aaf0e9" d="M56,76c0,0.55-0.45,1-1,1h-9c-0.55,0-1-0.45-1-1l0,0c0-0.55,0.45-1,1-1h9C55.55,75,56,75.45,56,76 L56,76z"/></g><g><g><path style="fill:#00b8a5" d="M35.067,52l-3.774-3.774c-0.391-0.39-0.391-1.024,0-1.414c0.391-0.391,1.023-0.391,1.414,0 l2.226,2.226l4.299-5.159c0.354-0.424,0.984-0.481,1.408-0.128c0.424,0.353,0.481,0.984,0.128,1.408L35.067,52z"/></g></g><g><g><path style="fill:#00b8a5" d="M35.067,65l-3.774-3.774c-0.391-0.39-0.391-1.024,0-1.414c0.391-0.391,1.023-0.391,1.414,0 l2.226,2.226l4.299-5.159c0.354-0.424,0.984-0.481,1.408-0.128c0.424,0.353,0.481,0.984,0.128,1.408L35.067,65z"/></g></g><g><g><path style="fill:#00b8a5" d="M35.067,78l-3.774-3.774c-0.391-0.39-0.391-1.023,0-1.414c0.391-0.391,1.023-0.391,1.414,0 l2.226,2.226l4.299-5.159c0.354-0.424,0.984-0.481,1.408-0.128c0.424,0.353,0.481,0.984,0.128,1.408L35.067,78z"/></g></g><g><rect style="fill:#14635b" width="10" height="3" x="77" y="79"/></g><g><rect style="fill:#3e948b" width="5" height="2" x="77" y="80"/></g><g><path style="fill:#0a3631" d="M82.013,30.984l-1.857,3.899c0.512,0.678,1.152,1.101,1.857,1.101s1.345-0.423,1.857-1.101 L82.013,30.984z"/></g><g><path style="fill:#009687" d="M84.5,43c-1.154,0-2.126-0.782-2.414-1.845c-0.026-0.097-0.147-0.097-0.173,0 C81.625,42.218,80.654,43,79.5,43c-1.052,0-1.953-0.65-2.322-1.57C77.139,41.332,77,41.359,77,41.464V80h10V41.464 c0-0.105-0.139-0.132-0.178-0.034C86.453,42.35,85.552,43,84.5,43z"/></g><g><path style="fill:#00b8a5" d="M77,80V41.494c0-0.112,0.146-0.14,0.19-0.037C77.565,42.363,78.458,43,79.5,43 c1.159,0,2.134-0.789,2.416-1.858C81.931,41.089,82,41.096,82,41.149V80H77z"/></g><g><path style="fill:#fff" d="M77,82v2c0,1.657,1.343,3,3,3h2v-5H77z"/></g></g></g><g id="R-Green" style="display:none"><g style="display:inline"><circle style="fill:#87e0c8" cx="55" cy="55" r="55"/></g><g style="display:inline"><g><path style="fill:#fff" d="M23,26.84c0-2.121,1.719-3.84,3.84-3.84H55l16,13.44v46.72C71,85.281,69.28,87,67.16,87H26.84 C24.719,87,23,85.281,23,83.16V26.84z"/></g><g><path style="fill:#aaf0e9" d="M55,23v9.6c0,2.121,1.719,3.84,3.84,3.84H71L55,23z"/></g><g><polygon style="fill:#fff" points="77 41.5 82 31 87 41.5 87 80 77 80"/></g><g><polygon style="fill:#d7fcf9" points="87 47 87 41.5 82 31 82 47"/></g><g><path style="fill:#d7fcf9" d="M87,84c0,1.657-1.343,3-3,3h-4c-1.657,0-3-1.343-3-3v-2h10V84z"/></g><g><path style="fill:#aaf0e9" d="M62,45c0,0.55-0.45,1-1,1H46c-0.55,0-1-0.45-1-1l0,0c0-0.55,0.45-1,1-1h15 C61.55,44,62,44.45,62,45L62,45z"/></g><g><path style="fill:#aaf0e9" d="M56,50c0,0.55-0.45,1-1,1h-9c-0.55,0-1-0.45-1-1l0,0c0-0.55,0.45-1,1-1h9C55.55,49,56,49.45,56,50 L56,50z"/></g><g><path style="fill:#aaf0e9" d="M62,58c0,0.55-0.45,1-1,1H46c-0.55,0-1-0.45-1-1l0,0c0-0.55,0.45-1,1-1h15 C61.55,57,62,57.45,62,58L62,58z"/></g><g><path style="fill:#aaf0e9" d="M56,63c0,0.55-0.45,1-1,1h-9c-0.55,0-1-0.45-1-1l0,0c0-0.55,0.45-1,1-1h9C55.55,62,56,62.45,56,63 L56,63z"/></g><g><path style="fill:#aaf0e9" d="M62,71c0,0.55-0.45,1-1,1H46c-0.55,0-1-0.45-1-1l0,0c0-0.55,0.45-1,1-1h15 C61.55,70,62,70.45,62,71L62,71z"/></g><g><path style="fill:#aaf0e9" d="M56,76c0,0.55-0.45,1-1,1h-9c-0.55,0-1-0.45-1-1l0,0c0-0.55,0.45-1,1-1h9C55.55,75,56,75.45,56,76 L56,76z"/></g><g><g><path style="fill:#00b8a5" d="M35.067,52l-3.774-3.774c-0.391-0.39-0.391-1.024,0-1.414c0.391-0.391,1.023-0.391,1.414,0 l2.226,2.226l4.299-5.159c0.354-0.424,0.984-0.481,1.408-0.128c0.424,0.353,0.481,0.984,0.128,1.408L35.067,52z"/></g></g><g><g><path style="fill:#00b8a5" d="M35.067,65l-3.774-3.774c-0.391-0.39-0.391-1.024,0-1.414c0.391-0.391,1.023-0.391,1.414,0 l2.226,2.226l4.299-5.159c0.354-0.424,0.984-0.481,1.408-0.128c0.424,0.353,0.481,0.984,0.128,1.408L35.067,65z"/></g></g><g><g><path style="fill:#00b8a5" d="M35.067,78l-3.774-3.774c-0.391-0.39-0.391-1.023,0-1.414c0.391-0.391,1.023-0.391,1.414,0 l2.226,2.226l4.299-5.159c0.354-0.424,0.984-0.481,1.408-0.128c0.424,0.353,0.481,0.984,0.128,1.408L35.067,78z"/></g></g><g><rect style="fill:#14635b" width="10" height="3" x="77" y="79"/></g><g><rect style="fill:#3e948b" width="5" height="2" x="77" y="80"/></g><g><path style="fill:#0a3631" d="M82.013,30.984l-1.857,3.899c0.512,0.678,1.152,1.101,1.857,1.101 c0.705,0,1.345-0.423,1.857-1.101L82.013,30.984z"/></g><g><path style="fill:#009687" d="M84.5,43c-1.154,0-2.125-0.782-2.414-1.845c-0.026-0.097-0.147-0.097-0.173,0 C81.625,42.218,80.654,43,79.5,43c-1.052,0-1.953-0.65-2.322-1.57C77.139,41.332,77,41.359,77,41.464V80h10V41.464 c0-0.105-0.139-0.132-0.178-0.034C86.452,42.35,85.552,43,84.5,43z"/></g><g><path style="fill:#00b8a5" d="M77,80V41.494c0-0.112,0.146-0.14,0.19-0.037C77.565,42.363,78.458,43,79.5,43 c1.159,0,2.134-0.789,2.417-1.858C81.93,41.089,82,41.096,82,41.149V80H77z"/></g><g><path style="fill:#fff" d="M77,82v2c0,1.657,1.343,3,3,3h2v-5H77z"/></g></g></g><g id="Red" style="display:none"><g style="display:inline"><g><path style="fill:#fff" d="M22.896,26.84c0-2.121,1.719-3.84,3.84-3.84h28.16l16,13.44v46.72c0,2.121-1.719,3.84-3.84,3.84 h-40.32c-2.121,0-3.84-1.719-3.84-3.84V26.84z"/></g><g><path style="fill:#ffd7d4" d="M54.896,23v9.6c0,2.121,1.719,3.84,3.84,3.84h12.16L54.896,23z"/></g><g><polygon style="fill:#fff" points="76.896 41.5 81.896 31 86.896 41.5 86.896 80 76.896 80"/></g><g><polygon style="fill:#ffefed" points="86.896 47 86.896 41.5 81.896 31 81.896 47"/></g><g><path style="fill:#ffefed" d="M86.896,84c0,1.657-1.343,3-3,3h-4c-1.657,0-3-1.343-3-3v-2h10V84z"/></g><g><path style="fill:#ffd7d4" d="M61.896,45c0,0.55-0.45,1-1,1h-15c-0.55,0-1-0.45-1-1l0,0c0-0.55,0.45-1,1-1h15 C61.446,44,61.896,44.45,61.896,45L61.896,45z"/></g><g><path style="fill:#ffd7d4" d="M55.896,50c0,0.55-0.45,1-1,1h-9c-0.55,0-1-0.45-1-1l0,0c0-0.55,0.45-1,1-1h9 C55.446,49,55.896,49.45,55.896,50L55.896,50z"/></g><g><path style="fill:#ffd7d4" d="M61.896,58c0,0.55-0.45,1-1,1h-15c-0.55,0-1-0.45-1-1l0,0c0-0.55,0.45-1,1-1h15 C61.446,57,61.896,57.45,61.896,58L61.896,58z"/></g><g><path style="fill:#ffd7d4" d="M55.896,63c0,0.55-0.45,1-1,1h-9c-0.55,0-1-0.45-1-1l0,0c0-0.55,0.45-1,1-1h9 C55.446,62,55.896,62.45,55.896,63L55.896,63z"/></g><g><path style="fill:#ffd7d4" d="M61.896,71c0,0.55-0.45,1-1,1h-15c-0.55,0-1-0.45-1-1l0,0c0-0.55,0.45-1,1-1h15 C61.446,70,61.896,70.45,61.896,71L61.896,71z"/></g><g><path style="fill:#ffd7d4" d="M55.896,76c0,0.55-0.45,1-1,1h-9c-0.55,0-1-0.45-1-1l0,0c0-0.55,0.45-1,1-1h9 C55.446,75,55.896,75.45,55.896,76L55.896,76z"/></g><g><g><path style="fill:#e54b44" d="M34.963,52l-3.774-3.774c-0.391-0.39-0.391-1.024,0-1.414c0.391-0.391,1.023-0.391,1.414,0 l2.226,2.226l4.299-5.159c0.354-0.424,0.984-0.481,1.408-0.128c0.424,0.353,0.482,0.984,0.128,1.408L34.963,52z"/></g></g><g><g><path style="fill:#e54b44" d="M34.963,65l-3.774-3.774c-0.391-0.39-0.391-1.024,0-1.414c0.391-0.391,1.023-0.391,1.414,0 l2.226,2.226l4.299-5.159c0.354-0.424,0.984-0.481,1.408-0.128c0.424,0.353,0.482,0.984,0.128,1.408L34.963,65z"/></g></g><g><g><path style="fill:#e54b44" d="M34.963,78l-3.774-3.774c-0.391-0.39-0.391-1.023,0-1.414c0.391-0.391,1.023-0.391,1.414,0 l2.226,2.226l4.299-5.159c0.354-0.424,0.984-0.481,1.408-0.128c0.424,0.353,0.482,0.984,0.128,1.408L34.963,78z"/></g></g><g><rect style="fill:#7d261e" width="10" height="3" x="76.896" y="79"/></g><g><rect style="fill:#b84e44" width="5" height="2" x="76.896" y="80"/></g><g><path style="fill:#4a1410" d="M81.909,30.984l-1.857,3.899c0.512,0.678,1.152,1.101,1.857,1.101s1.345-0.423,1.857-1.101 L81.909,30.984z"/></g><g><path style="fill:#c23023" d="M84.396,43c-1.154,0-2.126-0.782-2.414-1.845c-0.026-0.097-0.147-0.097-0.173,0 C81.521,42.218,80.55,43,79.396,43c-1.052,0-1.953-0.65-2.322-1.57c-0.039-0.098-0.178-0.071-0.178,0.034V80h10V41.464 c0-0.105-0.139-0.132-0.178-0.034C86.349,42.35,85.448,43,84.396,43z"/></g><g><path style="fill:#e54b44" d="M76.896,80V41.494c0-0.112,0.146-0.14,0.19-0.037C77.461,42.363,78.354,43,79.396,43 c1.159,0,2.134-0.789,2.416-1.858c0.014-0.052,0.084-0.046,0.084,0.008V80H76.896z"/></g><g><path style="fill:#fff" d="M76.896,82v2c0,1.657,1.343,3,3,3h2v-5H76.896z"/></g></g></g><g id="R-Red" style="display:none"><g style="display:inline"><circle style="fill:#fabbaf" cx="55" cy="55" r="55"/></g><g style="display:inline"><g><path style="fill:#fff" d="M23,26.84c0-2.121,1.719-3.84,3.84-3.84H55l16,13.44v46.72c0,2.121-1.719,3.84-3.84,3.84H26.84 C24.719,87,23,85.281,23,83.16V26.84z"/></g><g><path style="fill:#ffd7d4" d="M55,23v9.6c0,2.121,1.719,3.84,3.84,3.84H71L55,23z"/></g><g><polygon style="fill:#fff" points="77 41.5 82 31 87 41.5 87 80 77 80"/></g><g><polygon style="fill:#ffefed" points="87 47 87 41.5 82 31 82 47"/></g><g><path style="fill:#ffefed" d="M87,84c0,1.657-1.343,3-3,3h-4c-1.657,0-3-1.343-3-3v-2h10V84z"/></g><g><path style="fill:#ffd7d4" d="M62,45c0,0.55-0.45,1-1,1H46c-0.55,0-1-0.45-1-1l0,0c0-0.55,0.45-1,1-1h15 C61.55,44,62,44.45,62,45L62,45z"/></g><g><path style="fill:#ffd7d4" d="M56,50c0,0.55-0.45,1-1,1h-9c-0.55,0-1-0.45-1-1l0,0c0-0.55,0.45-1,1-1h9C55.55,49,56,49.45,56,50 L56,50z"/></g><g><path style="fill:#ffd7d4" d="M62,58c0,0.55-0.45,1-1,1H46c-0.55,0-1-0.45-1-1l0,0c0-0.55,0.45-1,1-1h15 C61.55,57,62,57.45,62,58L62,58z"/></g><g><path style="fill:#ffd7d4" d="M56,63c0,0.55-0.45,1-1,1h-9c-0.55,0-1-0.45-1-1l0,0c0-0.55,0.45-1,1-1h9C55.55,62,56,62.45,56,63 L56,63z"/></g><g><path style="fill:#ffd7d4" d="M62,71c0,0.55-0.45,1-1,1H46c-0.55,0-1-0.45-1-1l0,0c0-0.55,0.45-1,1-1h15 C61.55,70,62,70.45,62,71L62,71z"/></g><g><path style="fill:#ffd7d4" d="M56,76c0,0.55-0.45,1-1,1h-9c-0.55,0-1-0.45-1-1l0,0c0-0.55,0.45-1,1-1h9C55.55,75,56,75.45,56,76 L56,76z"/></g><g><g><path style="fill:#e54b44" d="M35.067,52l-3.774-3.774c-0.391-0.39-0.391-1.024,0-1.414c0.391-0.391,1.023-0.391,1.414,0 l2.226,2.226l4.299-5.159c0.354-0.424,0.984-0.481,1.408-0.128c0.424,0.353,0.482,0.984,0.128,1.408L35.067,52z"/></g></g><g><g><path style="fill:#e54b44" d="M35.067,65l-3.774-3.774c-0.391-0.39-0.391-1.024,0-1.414c0.391-0.391,1.023-0.391,1.414,0 l2.226,2.226l4.299-5.159c0.354-0.424,0.984-0.481,1.408-0.128c0.424,0.353,0.482,0.984,0.128,1.408L35.067,65z"/></g></g><g><g><path style="fill:#e54b44" d="M35.067,78l-3.774-3.774c-0.391-0.39-0.391-1.023,0-1.414c0.391-0.391,1.023-0.391,1.414,0 l2.226,2.226l4.299-5.159c0.354-0.424,0.984-0.481,1.408-0.128c0.424,0.353,0.482,0.984,0.128,1.408L35.067,78z"/></g></g><g><rect style="fill:#7d261e" width="10" height="3" x="77" y="79"/></g><g><rect style="fill:#b84e44" width="5" height="2" x="77" y="80"/></g><g><path style="fill:#4a1410" d="M82.013,30.984l-1.857,3.899c0.512,0.678,1.152,1.101,1.857,1.101s1.345-0.423,1.857-1.101 L82.013,30.984z"/></g><g><path style="fill:#c23023" d="M84.5,43c-1.154,0-2.126-0.782-2.414-1.845c-0.026-0.097-0.147-0.097-0.173,0 C81.626,42.218,80.654,43,79.5,43c-1.052,0-1.953-0.65-2.322-1.57C77.139,41.332,77,41.359,77,41.464V80h10V41.464 c0-0.105-0.139-0.132-0.178-0.034C86.453,42.35,85.552,43,84.5,43z"/></g><g><path style="fill:#e54b44" d="M77,80V41.494c0-0.112,0.146-0.14,0.19-0.037C77.565,42.363,78.458,43,79.5,43 c1.159,0,2.134-0.789,2.416-1.858C81.931,41.089,82,41.096,82,41.149V80H77z"/></g><g><path style="fill:#fff" d="M77,82v2c0,1.657,1.343,3,3,3h2v-5H77z"/></g></g></g><g id="Yellow" style="display:none"><g style="display:inline"><g><path style="fill:#fff" d="M22.896,26.84c0-2.121,1.719-3.84,3.84-3.84h28.16l16,13.44v46.72c0,2.121-1.719,3.84-3.84,3.84 h-40.32c-2.121,0-3.84-1.719-3.84-3.84V26.84z"/></g><g><path style="fill:#ffe9a1" d="M54.896,23v9.6c0,2.121,1.719,3.84,3.84,3.84h12.16L54.896,23z"/></g><g><polygon style="fill:#fff" points="76.896 41.5 81.896 31 86.896 41.5 86.896 80 76.896 80"/></g><g><polygon style="fill:#fff5d9" points="86.896 47 86.896 41.5 81.896 31 81.896 47"/></g><g><path style="fill:#fff5d9" d="M86.896,84c0,1.657-1.343,3-3,3h-4c-1.657,0-3-1.343-3-3v-2h10V84z"/></g><g><path style="fill:#ffe9a1" d="M61.896,45c0,0.55-0.45,1-1,1h-15c-0.55,0-1-0.45-1-1l0,0c0-0.55,0.45-1,1-1h15 C61.446,44,61.896,44.45,61.896,45L61.896,45z"/></g><g><path style="fill:#ffe9a1" d="M55.896,50c0,0.55-0.45,1-1,1h-9c-0.55,0-1-0.45-1-1l0,0c0-0.55,0.45-1,1-1h9 C55.446,49,55.896,49.45,55.896,50L55.896,50z"/></g><g><path style="fill:#ffe9a1" d="M61.896,58c0,0.55-0.45,1-1,1h-15c-0.55,0-1-0.45-1-1l0,0c0-0.55,0.45-1,1-1h15 C61.446,57,61.896,57.45,61.896,58L61.896,58z"/></g><g><path style="fill:#ffe9a1" d="M55.896,63c0,0.55-0.45,1-1,1h-9c-0.55,0-1-0.45-1-1l0,0c0-0.55,0.45-1,1-1h9 C55.446,62,55.896,62.45,55.896,63L55.896,63z"/></g><g><path style="fill:#ffe9a1" d="M61.896,71c0,0.55-0.45,1-1,1h-15c-0.55,0-1-0.45-1-1l0,0c0-0.55,0.45-1,1-1h15 C61.446,70,61.896,70.45,61.896,71L61.896,71z"/></g><g><path style="fill:#ffe9a1" d="M55.896,76c0,0.55-0.45,1-1,1h-9c-0.55,0-1-0.45-1-1l0,0c0-0.55,0.45-1,1-1h9 C55.446,75,55.896,75.45,55.896,76L55.896,76z"/></g><g><g><path style="fill:#fa9200" d="M34.963,52l-3.774-3.774c-0.391-0.39-0.391-1.024,0-1.414c0.391-0.391,1.023-0.391,1.414,0 l2.226,2.226l4.299-5.159c0.354-0.424,0.984-0.481,1.408-0.128c0.424,0.353,0.481,0.984,0.128,1.408L34.963,52z"/></g></g><g><g><path style="fill:#fa9200" d="M34.963,65l-3.774-3.774c-0.391-0.39-0.391-1.024,0-1.414c0.391-0.391,1.023-0.391,1.414,0 l2.226,2.226l4.299-5.159c0.354-0.424,0.984-0.481,1.408-0.128c0.424,0.353,0.481,0.984,0.128,1.408L34.963,65z"/></g></g><g><g><path style="fill:#fa9200" d="M34.963,78l-3.774-3.774c-0.391-0.39-0.391-1.023,0-1.414c0.391-0.391,1.023-0.391,1.414,0 l2.226,2.226l4.299-5.159c0.354-0.424,0.984-0.481,1.408-0.128c0.424,0.353,0.481,0.984,0.128,1.408L34.963,78z"/></g></g><g><rect style="fill:#66510d" width="10" height="3" x="76.896" y="79"/></g><g><rect style="fill:#947615" width="5" height="2" x="76.896" y="80"/></g><g><path style="fill:#3d320c" d="M81.909,30.984l-1.857,3.899c0.512,0.678,1.152,1.101,1.857,1.101s1.345-0.423,1.857-1.101 L81.909,30.984z"/></g><g><path style="fill:#e07000" d="M84.396,43c-1.154,0-2.126-0.782-2.414-1.845c-0.026-0.097-0.147-0.097-0.173,0 C81.521,42.218,80.55,43,79.396,43c-1.052,0-1.953-0.65-2.322-1.57c-0.039-0.098-0.178-0.071-0.178,0.034V80h10V41.464 c0-0.105-0.139-0.132-0.178-0.034C86.349,42.35,85.448,43,84.396,43z"/></g><g><path style="fill:#fa9200" d="M76.896,80V41.494c0-0.112,0.146-0.14,0.19-0.037C77.461,42.363,78.354,43,79.396,43 c1.159,0,2.134-0.789,2.416-1.858c0.014-0.052,0.084-0.046,0.084,0.008V80H76.896z"/></g><g><path style="fill:#fff" d="M76.896,82v2c0,1.657,1.343,3,3,3h2v-5H76.896z"/></g></g></g><g id="R-Yellow" style="display:none"><g style="display:inline"><circle style="fill:#ffd75e" cx="55" cy="55" r="55"/></g><g style="display:inline"><g><path style="fill:#fff" d="M23,26.84c0-2.121,1.719-3.84,3.84-3.84H55l16,13.44v46.72c0,2.121-1.719,3.84-3.84,3.84H26.84 C24.719,87,23,85.281,23,83.16V26.84z"/></g><g><path style="fill:#ffe9a1" d="M55,23v9.6c0,2.121,1.719,3.84,3.84,3.84H71L55,23z"/></g><g><polygon style="fill:#fff" points="77 41.5 82 31 87 41.5 87 80 77 80"/></g><g><polygon style="fill:#fff5d9" points="87 47 87 41.5 82 31 82 47"/></g><g><path style="fill:#fff5d9" d="M87,84c0,1.657-1.343,3-3,3h-4c-1.657,0-3-1.343-3-3v-2h10V84z"/></g><g><path style="fill:#ffe9a1" d="M62,45c0,0.55-0.45,1-1,1H46c-0.55,0-1-0.45-1-1l0,0c0-0.55,0.45-1,1-1h15 C61.55,44,62,44.45,62,45L62,45z"/></g><g><path style="fill:#ffe9a1" d="M56,50c0,0.55-0.45,1-1,1h-9c-0.55,0-1-0.45-1-1l0,0c0-0.55,0.45-1,1-1h9C55.55,49,56,49.45,56,50 L56,50z"/></g><g><path style="fill:#ffe9a1" d="M62,58c0,0.55-0.45,1-1,1H46c-0.55,0-1-0.45-1-1l0,0c0-0.55,0.45-1,1-1h15 C61.55,57,62,57.45,62,58L62,58z"/></g><g><path style="fill:#ffe9a1" d="M56,63c0,0.55-0.45,1-1,1h-9c-0.55,0-1-0.45-1-1l0,0c0-0.55,0.45-1,1-1h9C55.55,62,56,62.45,56,63 L56,63z"/></g><g><path style="fill:#ffe9a1" d="M62,71c0,0.55-0.45,1-1,1H46c-0.55,0-1-0.45-1-1l0,0c0-0.55,0.45-1,1-1h15 C61.55,70,62,70.45,62,71L62,71z"/></g><g><path style="fill:#ffe9a1" d="M56,76c0,0.55-0.45,1-1,1h-9c-0.55,0-1-0.45-1-1l0,0c0-0.55,0.45-1,1-1h9C55.55,75,56,75.45,56,76 L56,76z"/></g><g><g><path style="fill:#fa9200" d="M35.067,52l-3.774-3.774c-0.391-0.39-0.391-1.024,0-1.414c0.391-0.391,1.023-0.391,1.414,0 l2.226,2.226l4.299-5.159c0.354-0.424,0.984-0.481,1.408-0.128c0.424,0.353,0.482,0.984,0.128,1.408L35.067,52z"/></g></g><g><g><path style="fill:#fa9200" d="M35.067,65l-3.774-3.774c-0.391-0.39-0.391-1.024,0-1.414c0.391-0.391,1.023-0.391,1.414,0 l2.226,2.226l4.299-5.159c0.354-0.424,0.984-0.481,1.408-0.128c0.424,0.353,0.482,0.984,0.128,1.408L35.067,65z"/></g></g><g><g><path style="fill:#fa9200" d="M35.067,78l-3.774-3.774c-0.391-0.39-0.391-1.023,0-1.414c0.391-0.391,1.023-0.391,1.414,0 l2.226,2.226l4.299-5.159c0.354-0.424,0.984-0.481,1.408-0.128c0.424,0.353,0.482,0.984,0.128,1.408L35.067,78z"/></g></g><g><rect style="fill:#66510d" width="10" height="3" x="77" y="79"/></g><g><rect style="fill:#947615" width="5" height="2" x="77" y="80"/></g><g><path style="fill:#3d320c" d="M82.013,30.984l-1.857,3.899c0.512,0.678,1.152,1.101,1.857,1.101s1.345-0.423,1.857-1.101 L82.013,30.984z"/></g><g><path style="fill:#e07000" d="M84.5,43c-1.154,0-2.126-0.782-2.414-1.845c-0.026-0.097-0.147-0.097-0.173,0 C81.626,42.218,80.654,43,79.5,43c-1.052,0-1.953-0.65-2.322-1.57C77.139,41.332,77,41.359,77,41.464V80h10V41.464 c0-0.105-0.139-0.132-0.178-0.034C86.453,42.35,85.552,43,84.5,43z"/></g><g><path style="fill:#fa9200" d="M77,80V41.494c0-0.112,0.146-0.14,0.19-0.037C77.565,42.363,78.458,43,79.5,43 c1.159,0,2.134-0.789,2.416-1.858C81.931,41.089,82,41.096,82,41.149V80H77z"/></g><g><path style="fill:#fff" d="M77,82v2c0,1.657,1.343,3,3,3h2v-5H77z"/></g></g></g></svg>