<svg xmlns="http://www.w3.org/2000/svg" xmlns:xlink="http://www.w3.org/1999/xlink" width="110" height="110" x="0" y="0" version="1.0" viewBox="0 0 110 110" xml:space="preserve" style="enable-background:new 0 0 110 110"><g id="Artboard" style="display:none"><rect style="display:inline;fill:gray;stroke:#000;stroke-miterlimit:10" width="1392" height="1369" x="-1096.5" y="-674.5"/></g><g id="R-Multicolor" style="display:none"><circle style="display:inline;fill:#e04f5f" cx="55" cy="55" r="55"/><g style="display:inline"><g><path style="fill:#fbe158" d="M83,39L27,59v26c0,0.65,0.316,1.26,0.848,1.635s1.212,0.467,1.825,0.249L83,67.838V39z"/></g><g><path style="fill:#fcf6c2" d="M83,39L27,59l28-36C67.21,23,78.326,30.413,83,39z"/></g><g><circle style="fill:#f3b607" cx="52" cy="70" r="1"/></g><g><circle style="fill:#f3b607" cx="78" cy="46" r="1"/></g><g><circle style="fill:#f3b607" cx="71" cy="55" r="4"/></g><g><circle style="fill:#f3b607" cx="40" cy="58" r="1"/></g><g><path style="fill:#f3b607" d="M44.6,78.831c-0.025,0.018-0.051,0.043-0.07,0.068c-0.721,0.955-0.637,1.928-0.159,2.601 l3.616-1.291C47.884,78.732,46.197,77.691,44.6,78.831z"/></g><g><circle style="fill:#f3b607" cx="64" cy="65" r="2"/></g><g><circle style="fill:#f3b607" cx="37" cy="69" r="2"/></g><g><ellipse style="fill:#facb1b" cx="58" cy="30.5" rx="3" ry="1.5"/></g><g><ellipse style="fill:#facb1b" cx="51.5" cy="41.25" rx="2.5" ry="1.25"/></g><g><ellipse style="fill:#facb1b" cx="66.5" cy="37" rx="4.5" ry="2"/></g><g><ellipse style="fill:#facb1b" cx="42" cy="48" rx="2" ry="1"/></g></g></g><g id="Multicolor"><g><g><path style="fill:#fbe158" d="M83,39L27,59v26c0,0.65,0.316,1.26,0.848,1.635s1.212,0.467,1.825,0.249L83,67.838V39z"/></g><g><path style="fill:#fcf6c2" d="M83,39L27,59l28-36C67.21,23,78.326,30.413,83,39z"/></g><g><circle style="fill:#f3b607" cx="52" cy="70" r="1"/></g><g><circle style="fill:#f3b607" cx="78" cy="46" r="1"/></g><g><circle style="fill:#f3b607" cx="71" cy="55" r="4"/></g><g><circle style="fill:#f3b607" cx="40" cy="58" r="1"/></g><g><path style="fill:#f3b607" d="M44.6,78.831c-0.025,0.018-0.051,0.043-0.07,0.068c-0.721,0.955-0.637,1.928-0.159,2.601 l3.616-1.291C47.884,78.732,46.197,77.691,44.6,78.831z"/></g><g><circle style="fill:#f3b607" cx="64" cy="65" r="2"/></g><g><circle style="fill:#f3b607" cx="37" cy="69" r="2"/></g><g><ellipse style="fill:#facb1b" cx="58" cy="30.5" rx="3" ry="1.5"/></g><g><ellipse style="fill:#facb1b" cx="51.5" cy="41.25" rx="2.5" ry="1.25"/></g><g><ellipse style="fill:#facb1b" cx="66.5" cy="37" rx="4.5" ry="2"/></g><g><ellipse style="fill:#facb1b" cx="42" cy="48" rx="2" ry="1"/></g></g></g><g id="Blue" style="display:none"><g style="display:inline"><g><path style="fill:#bbe7f2" d="M83,39L27,59v26c0,0.65,0.316,1.26,0.848,1.635c0.531,0.375,1.213,0.468,1.825,0.249L83,67.838V39 z"/></g><g><path style="fill:#fff" d="M83,39L27,59l28-36C67.21,23,78.326,30.413,83,39z"/></g><g><circle style="fill:#53bad4" cx="52" cy="70" r="1"/></g><g><circle style="fill:#53bad4" cx="78" cy="46" r="1"/></g><g><circle style="fill:#53bad4" cx="71" cy="55" r="4"/></g><g><circle style="fill:#53bad4" cx="40" cy="58" r="1"/></g><g><path style="fill:#53bad4" d="M44.6,78.831c-0.025,0.018-0.051,0.043-0.07,0.068c-0.721,0.955-0.637,1.928-0.158,2.601 l3.615-1.291C47.884,78.732,46.197,77.691,44.6,78.831z"/></g><g><circle style="fill:#53bad4" cx="64" cy="65" r="2"/></g><g><circle style="fill:#53bad4" cx="37" cy="69" r="2"/></g><g><ellipse style="fill:#bbe7f2" cx="58" cy="30.5" rx="3" ry="1.5"/></g><g><ellipse style="fill:#bbe7f2" cx="51.5" cy="41.25" rx="2.5" ry="1.25"/></g><g><ellipse style="fill:#bbe7f2" cx="66.5" cy="37" rx="4.5" ry="2"/></g><g><ellipse style="fill:#bbe7f2" cx="42" cy="48" rx="2" ry="1"/></g></g></g><g id="R-Blue" style="display:none"><circle style="display:inline;fill:#81d2eb" cx="55" cy="55" r="55"/><g style="display:inline"><g><path style="fill:#bbe7f2" d="M83,39L27,59v26c0,0.65,0.316,1.26,0.848,1.635c0.531,0.375,1.213,0.468,1.825,0.249L83,67.838V39 z"/></g><g><path style="fill:#fff" d="M83,39L27,59l28-36C67.21,23,78.326,30.413,83,39z"/></g><g><circle style="fill:#53bad4" cx="52" cy="70" r="1"/></g><g><circle style="fill:#53bad4" cx="78" cy="46" r="1"/></g><g><circle style="fill:#53bad4" cx="71" cy="55" r="4"/></g><g><circle style="fill:#53bad4" cx="40" cy="58" r="1"/></g><g><path style="fill:#53bad4" d="M44.6,78.831c-0.025,0.018-0.051,0.043-0.07,0.068c-0.721,0.955-0.637,1.928-0.158,2.601 l3.615-1.291C47.884,78.732,46.197,77.691,44.6,78.831z"/></g><g><circle style="fill:#53bad4" cx="64" cy="65" r="2"/></g><g><circle style="fill:#53bad4" cx="37" cy="69" r="2"/></g><g><ellipse style="fill:#bbe7f2" cx="58" cy="30.5" rx="3" ry="1.5"/></g><g><ellipse style="fill:#bbe7f2" cx="51.5" cy="41.25" rx="2.5" ry="1.25"/></g><g><ellipse style="fill:#bbe7f2" cx="66.5" cy="37" rx="4.5" ry="2"/></g><g><ellipse style="fill:#bbe7f2" cx="42" cy="48" rx="2" ry="1"/></g></g></g><g id="Green" style="display:none"><g style="display:inline"><g><path style="fill:#aaf0e9" d="M83,39L27,59v26c0,0.65,0.316,1.26,0.848,1.635c0.531,0.375,1.213,0.468,1.825,0.249L83,67.838V39 z"/></g><g><path style="fill:#fff" d="M83,39L27,59l28-36C67.21,23,78.326,30.413,83,39z"/></g><g><circle style="fill:#55c9be" cx="52" cy="70" r="1"/></g><g><circle style="fill:#55c9be" cx="78" cy="46" r="1"/></g><g><circle style="fill:#55c9be" cx="71" cy="55" r="4"/></g><g><circle style="fill:#55c9be" cx="40" cy="58" r="1"/></g><g><path style="fill:#55c9be" d="M44.6,78.831c-0.025,0.018-0.051,0.043-0.07,0.068c-0.721,0.955-0.637,1.928-0.158,2.601 l3.615-1.291C47.884,78.732,46.197,77.691,44.6,78.831z"/></g><g><circle style="fill:#55c9be" cx="64" cy="65" r="2"/></g><g><circle style="fill:#55c9be" cx="37" cy="69" r="2"/></g><g><ellipse style="fill:#aaf0e9" cx="58" cy="30.5" rx="3" ry="1.5"/></g><g><ellipse style="fill:#aaf0e9" cx="51.5" cy="41.25" rx="2.5" ry="1.25"/></g><g><ellipse style="fill:#aaf0e9" cx="66.5" cy="37" rx="4.5" ry="2"/></g><g><ellipse style="fill:#aaf0e9" cx="42" cy="48" rx="2" ry="1"/></g></g></g><g id="R-Green" style="display:none"><circle style="display:inline;fill:#77e0c4" cx="55" cy="55" r="55"/><g style="display:inline"><g><path style="fill:#aaf0e9" d="M83,39L27,59v26c0,0.65,0.316,1.26,0.848,1.635c0.531,0.375,1.213,0.468,1.825,0.249L83,67.838V39 z"/></g><g><path style="fill:#fff" d="M83,39L27,59l28-36C67.21,23,78.326,30.413,83,39z"/></g><g><circle style="fill:#55c9be" cx="52" cy="70" r="1"/></g><g><circle style="fill:#55c9be" cx="78" cy="46" r="1"/></g><g><circle style="fill:#55c9be" cx="71" cy="55" r="4"/></g><g><circle style="fill:#55c9be" cx="40" cy="58" r="1"/></g><g><path style="fill:#55c9be" d="M44.6,78.831c-0.025,0.018-0.051,0.043-0.07,0.068c-0.721,0.955-0.637,1.928-0.158,2.601 l3.615-1.291C47.884,78.732,46.197,77.691,44.6,78.831z"/></g><g><circle style="fill:#55c9be" cx="64" cy="65" r="2"/></g><g><circle style="fill:#55c9be" cx="37" cy="69" r="2"/></g><g><ellipse style="fill:#aaf0e9" cx="58" cy="30.5" rx="3" ry="1.5"/></g><g><ellipse style="fill:#aaf0e9" cx="51.5" cy="41.25" rx="2.5" ry="1.25"/></g><g><ellipse style="fill:#aaf0e9" cx="66.5" cy="37" rx="4.5" ry="2"/></g><g><ellipse style="fill:#aaf0e9" cx="42" cy="48" rx="2" ry="1"/></g></g></g><g id="Red" style="display:none"><g style="display:inline"><g><path style="fill:#ffd7d4" d="M83,39L27,59v26c0,0.65,0.316,1.26,0.848,1.635c0.531,0.375,1.213,0.468,1.825,0.249L83,67.838V39 z"/></g><g><path style="fill:#fff" d="M83,39L27,59l28-36C67.21,23,78.326,30.413,83,39z"/></g><g><circle style="fill:#e8a099" cx="52" cy="70" r="1"/></g><g><circle style="fill:#e8a099" cx="78" cy="46" r="1"/></g><g><circle style="fill:#e8a099" cx="71" cy="55" r="4"/></g><g><circle style="fill:#e8a099" cx="40" cy="58" r="1"/></g><g><path style="fill:#e8a099" d="M44.6,78.831c-0.025,0.018-0.051,0.043-0.07,0.068c-0.721,0.955-0.637,1.928-0.158,2.601 l3.615-1.291C47.884,78.732,46.197,77.691,44.6,78.831z"/></g><g><circle style="fill:#e8a099" cx="64" cy="65" r="2"/></g><g><circle style="fill:#e8a099" cx="37" cy="69" r="2"/></g><g><ellipse style="fill:#ffd7d4" cx="58" cy="30.5" rx="3" ry="1.5"/></g><g><ellipse style="fill:#ffd7d4" cx="51.5" cy="41.25" rx="2.5" ry="1.25"/></g><g><ellipse style="fill:#ffd7d4" cx="66.5" cy="37" rx="4.5" ry="2"/></g><g><ellipse style="fill:#ffd7d4" cx="42" cy="48" rx="2" ry="1"/></g></g></g><g id="R-Red" style="display:none"><circle style="display:inline;fill:#fabbaf" cx="55" cy="55" r="55"/><g style="display:inline"><g><path style="fill:#ffd7d4" d="M83,39L27,59v26c0,0.65,0.316,1.26,0.848,1.635c0.531,0.375,1.213,0.468,1.825,0.249L83,67.838V39 z"/></g><g><path style="fill:#fff" d="M83,39L27,59l28-36C67.21,23,78.326,30.413,83,39z"/></g><g><circle style="fill:#e8a099" cx="52" cy="70" r="1"/></g><g><circle style="fill:#e8a099" cx="78" cy="46" r="1"/></g><g><circle style="fill:#e8a099" cx="71" cy="55" r="4"/></g><g><circle style="fill:#e8a099" cx="40" cy="58" r="1"/></g><g><path style="fill:#e8a099" d="M44.6,78.831c-0.025,0.018-0.051,0.043-0.07,0.068c-0.721,0.955-0.637,1.928-0.158,2.601 l3.615-1.291C47.884,78.732,46.197,77.691,44.6,78.831z"/></g><g><circle style="fill:#e8a099" cx="64" cy="65" r="2"/></g><g><circle style="fill:#e8a099" cx="37" cy="69" r="2"/></g><g><ellipse style="fill:#ffd7d4" cx="58" cy="30.5" rx="3" ry="1.5"/></g><g><ellipse style="fill:#ffd7d4" cx="51.5" cy="41.25" rx="2.5" ry="1.25"/></g><g><ellipse style="fill:#ffd7d4" cx="66.5" cy="37" rx="4.5" ry="2"/></g><g><ellipse style="fill:#ffd7d4" cx="42" cy="48" rx="2" ry="1"/></g></g></g><g id="Yellow" style="display:none"><g style="display:inline"><g><path style="fill:#ffe9a1" d="M83,39L27,59v26c0,0.65,0.316,1.26,0.848,1.635c0.531,0.375,1.213,0.468,1.825,0.249L83,67.838V39 z"/></g><g><path style="fill:#fff" d="M83,39L27,59l28-36C67.21,23,78.326,30.413,83,39z"/></g><g><circle style="fill:#f5c43d" cx="52" cy="70" r="1"/></g><g><circle style="fill:#f5c43d" cx="78" cy="46" r="1"/></g><g><circle style="fill:#f5c43d" cx="71" cy="55" r="4"/></g><g><circle style="fill:#f5c43d" cx="40" cy="58" r="1"/></g><g><path style="fill:#f5c43d" d="M44.6,78.831c-0.025,0.018-0.051,0.043-0.07,0.068c-0.721,0.955-0.637,1.928-0.158,2.601 l3.615-1.291C47.884,78.732,46.197,77.691,44.6,78.831z"/></g><g><circle style="fill:#f5c43d" cx="64" cy="65" r="2"/></g><g><circle style="fill:#f5c43d" cx="37" cy="69" r="2"/></g><g><ellipse style="fill:#ffe9a1" cx="58" cy="30.5" rx="3" ry="1.5"/></g><g><ellipse style="fill:#ffe9a1" cx="51.5" cy="41.25" rx="2.5" ry="1.25"/></g><g><ellipse style="fill:#ffe9a1" cx="66.5" cy="37" rx="4.5" ry="2"/></g><g><ellipse style="fill:#ffe9a1" cx="42" cy="48" rx="2" ry="1"/></g></g></g><g id="R-Yellow" style="display:none"><circle style="display:inline;fill:#ffd75e" cx="55" cy="55" r="55"/><g style="display:inline"><g><path style="fill:#ffe9a1" d="M83,39L27,59v26c0,0.65,0.316,1.26,0.848,1.635c0.531,0.375,1.213,0.468,1.825,0.249L83,67.838V39 z"/></g><g><path style="fill:#fff" d="M83,39L27,59l28-36C67.21,23,78.326,30.413,83,39z"/></g><g><circle style="fill:#f5c43d" cx="52" cy="70" r="1"/></g><g><circle style="fill:#f5c43d" cx="78" cy="46" r="1"/></g><g><circle style="fill:#f5c43d" cx="71" cy="55" r="4"/></g><g><circle style="fill:#f5c43d" cx="40" cy="58" r="1"/></g><g><path style="fill:#f5c43d" d="M44.6,78.831c-0.025,0.018-0.051,0.043-0.07,0.068c-0.721,0.955-0.637,1.928-0.158,2.601 l3.615-1.291C47.884,78.732,46.197,77.691,44.6,78.831z"/></g><g><circle style="fill:#f5c43d" cx="64" cy="65" r="2"/></g><g><circle style="fill:#f5c43d" cx="37" cy="69" r="2"/></g><g><ellipse style="fill:#ffe9a1" cx="58" cy="30.5" rx="3" ry="1.5"/></g><g><ellipse style="fill:#ffe9a1" cx="51.5" cy="41.25" rx="2.5" ry="1.25"/></g><g><ellipse style="fill:#ffe9a1" cx="66.5" cy="37" rx="4.5" ry="2"/></g><g><ellipse style="fill:#ffe9a1" cx="42" cy="48" rx="2" ry="1"/></g></g></g></svg>