<svg xmlns="http://www.w3.org/2000/svg" xmlns:xlink="http://www.w3.org/1999/xlink" width="110" height="110" x="0" y="0" version="1.0" viewBox="0 0 110 110" xml:space="preserve" style="enable-background:new 0 0 110 110"><g id="Artboard" style="display:none"><rect style="display:inline;fill:gray;stroke:#000;stroke-miterlimit:10" width="1326" height="332" x="-1192.5" y="-164.5"/></g><g id="R-Multicolor" style="display:none"><circle style="display:inline;fill:#25b7d3" cx="55" cy="55" r="55"/><g style="display:inline"><g><path style="fill:#84462d" d="M23,27c0-2.209,1.791-4,4-4h56c2.209,0,4,1.791,4,4v56c0,2.209-1.791,4-4,4H27 c-2.209,0-4-1.791-4-4V27z"/></g><g><rect style="fill:#fff" width="56" height="56" x="27" y="27"/></g><g><rect style="fill:#3e3e3f" width="14" height="14" x="27" y="69"/></g><g><rect style="fill:#3e3e3f" width="14" height="14" x="41" y="55"/></g><g><rect style="fill:#3e3e3f" width="14" height="14" x="55" y="41"/></g><g><rect style="fill:#3e3e3f" width="14" height="14" x="55" y="69"/></g><g><rect style="fill:#3e3e3f" width="14" height="14" x="69" y="27"/></g><g><rect style="fill:#5b5c5f" width="14" height="14" x="41" y="27"/></g><g><polygon style="fill:#3e3e3f" points="55 41 41 41 55 27"/></g><g><rect style="fill:#5b5c5f" width="14" height="14" x="27" y="41"/></g><g><polygon style="fill:#3e3e3f" points="41 55 27 55 41 41"/></g><g><rect style="fill:#3e3e3f" width="14" height="14" x="69" y="55"/></g><g><circle style="fill:#fff" cx="48" cy="62" r="4"/></g><g><circle style="fill:#fff" cx="76" cy="62" r="4"/></g><g><circle style="fill:#fff" cx="62" cy="76" r="4"/></g><g><circle style="fill:#fff" cx="34" cy="76" r="4"/></g></g></g><g id="Multicolor"><g><g><path style="fill:#84462d" d="M23,27c0-2.209,1.791-4,4-4h56c2.209,0,4,1.791,4,4v56c0,2.209-1.791,4-4,4H27 c-2.209,0-4-1.791-4-4V27z"/></g><g><rect style="fill:#fff" width="56" height="56" x="27" y="27"/></g><g><rect style="fill:#3e3e3f" width="14" height="14" x="27" y="69"/></g><g><rect style="fill:#3e3e3f" width="14" height="14" x="41" y="55"/></g><g><rect style="fill:#3e3e3f" width="14" height="14" x="55" y="41"/></g><g><rect style="fill:#3e3e3f" width="14" height="14" x="55" y="69"/></g><g><rect style="fill:#3e3e3f" width="14" height="14" x="69" y="27"/></g><g><rect style="fill:#5b5c5f" width="14" height="14" x="41" y="27"/></g><g><polygon style="fill:#3e3e3f" points="55 41 41 41 55 27"/></g><g><rect style="fill:#5b5c5f" width="14" height="14" x="27" y="41"/></g><g><polygon style="fill:#3e3e3f" points="41 55 27 55 41 41"/></g><g><rect style="fill:#3e3e3f" width="14" height="14" x="69" y="55"/></g><g><circle style="fill:#fff" cx="48" cy="62" r="4"/></g><g><circle style="fill:#fff" cx="76" cy="62" r="4"/></g><g><circle style="fill:#fff" cx="62" cy="76" r="4"/></g><g><circle style="fill:#fff" cx="34" cy="76" r="4"/></g></g></g><g id="Blue" style="display:none"><g style="display:inline"><g><path style="fill:#0f6175" d="M23,27c0-2.209,1.791-4,4-4h56c2.209,0,4,1.791,4,4v56c0,2.209-1.791,4-4,4H27 c-2.209,0-4-1.791-4-4V27z"/></g><g><rect style="fill:#fff" width="56" height="56" x="27" y="27"/></g><g><rect style="fill:#0c333d" width="14" height="14" x="27" y="69"/></g><g><rect style="fill:#0c333d" width="14" height="14" x="41" y="55"/></g><g><rect style="fill:#0c333d" width="14" height="14" x="55" y="41"/></g><g><rect style="fill:#0c333d" width="14" height="14" x="55" y="69"/></g><g><rect style="fill:#0c333d" width="14" height="14" x="69" y="27"/></g><g><rect style="fill:#0f6175" width="14" height="14" x="41" y="27"/></g><g><polygon style="fill:#0c333d" points="55 41 41 41 55 27"/></g><g><rect style="fill:#0f6175" width="14" height="14" x="27" y="41"/></g><g><polygon style="fill:#0c333d" points="41 55 27 55 41 41"/></g><g><rect style="fill:#0c333d" width="14" height="14" x="69" y="55"/></g><g><circle style="fill:#fff" cx="48" cy="62" r="4"/></g><g><circle style="fill:#fff" cx="76" cy="62" r="4"/></g><g><circle style="fill:#fff" cx="62" cy="76" r="4"/></g><g><circle style="fill:#fff" cx="34" cy="76" r="4"/></g></g></g><g id="R-Blue" style="display:none"><circle style="display:inline;fill:#81d2eb" cx="55" cy="55" r="55"/><g style="display:inline"><g><path style="fill:#0f6175" d="M23,27c0-2.209,1.791-4,4-4h56c2.209,0,4,1.791,4,4v56c0,2.209-1.791,4-4,4H27 c-2.209,0-4-1.791-4-4V27z"/></g><g><rect style="fill:#fff" width="56" height="56" x="27" y="27"/></g><g><rect style="fill:#0c333d" width="14" height="14" x="27" y="69"/></g><g><rect style="fill:#0c333d" width="14" height="14" x="41" y="55"/></g><g><rect style="fill:#0c333d" width="14" height="14" x="55" y="41"/></g><g><rect style="fill:#0c333d" width="14" height="14" x="55" y="69"/></g><g><rect style="fill:#0c333d" width="14" height="14" x="69" y="27"/></g><g><rect style="fill:#0f6175" width="14" height="14" x="41" y="27"/></g><g><polygon style="fill:#0c333d" points="55 41 41 41 55 27"/></g><g><rect style="fill:#0f6175" width="14" height="14" x="27" y="41"/></g><g><polygon style="fill:#0c333d" points="41 55 27 55 41 41"/></g><g><rect style="fill:#0c333d" width="14" height="14" x="69" y="55"/></g><g><circle style="fill:#fff" cx="48" cy="62" r="4"/></g><g><circle style="fill:#fff" cx="76" cy="62" r="4"/></g><g><circle style="fill:#fff" cx="62" cy="76" r="4"/></g><g><circle style="fill:#fff" cx="34" cy="76" r="4"/></g></g></g><g id="Green" style="display:none"><g style="display:inline"><g><path style="fill:#14635b" d="M23,27c0-2.209,1.791-4,4-4h56c2.209,0,4,1.791,4,4v56c0,2.209-1.791,4-4,4H27 c-2.209,0-4-1.791-4-4V27z"/></g><g><rect style="fill:#fff" width="56" height="56" x="27" y="27"/></g><g><rect style="fill:#0a3631" width="14" height="14" x="27" y="69"/></g><g><rect style="fill:#0a3631" width="14" height="14" x="41" y="55"/></g><g><rect style="fill:#0a3631" width="14" height="14" x="55" y="41"/></g><g><rect style="fill:#0a3631" width="14" height="14" x="55" y="69"/></g><g><rect style="fill:#0a3631" width="14" height="14" x="69" y="27"/></g><g><rect style="fill:#14635b" width="14" height="14" x="41" y="27"/></g><g><polygon style="fill:#0a3631" points="55 41 41 41 55 27"/></g><g><rect style="fill:#14635b" width="14" height="14" x="27" y="41"/></g><g><polygon style="fill:#0a3631" points="41 55 27 55 41 41"/></g><g><rect style="fill:#0a3631" width="14" height="14" x="69" y="55"/></g><g><circle style="fill:#fff" cx="48" cy="62" r="4"/></g><g><circle style="fill:#fff" cx="76" cy="62" r="4"/></g><g><circle style="fill:#fff" cx="62" cy="76" r="4"/></g><g><circle style="fill:#fff" cx="34" cy="76" r="4"/></g></g></g><g id="R-Green" style="display:none"><circle style="display:inline;fill:#77e0c4" cx="55" cy="55" r="55"/><g style="display:inline"><g><path style="fill:#14635b" d="M23,27c0-2.209,1.791-4,4-4h56c2.209,0,4,1.791,4,4v56c0,2.209-1.791,4-4,4H27 c-2.209,0-4-1.791-4-4V27z"/></g><g><rect style="fill:#fff" width="56" height="56" x="27" y="27"/></g><g><rect style="fill:#0a3631" width="14" height="14" x="27" y="69"/></g><g><rect style="fill:#0a3631" width="14" height="14" x="41" y="55"/></g><g><rect style="fill:#0a3631" width="14" height="14" x="55" y="41"/></g><g><rect style="fill:#0a3631" width="14" height="14" x="55" y="69"/></g><g><rect style="fill:#0a3631" width="14" height="14" x="69" y="27"/></g><g><rect style="fill:#14635b" width="14" height="14" x="41" y="27"/></g><g><polygon style="fill:#0a3631" points="55 41 41 41 55 27"/></g><g><rect style="fill:#14635b" width="14" height="14" x="27" y="41"/></g><g><polygon style="fill:#0a3631" points="41 55 27 55 41 41"/></g><g><rect style="fill:#0a3631" width="14" height="14" x="69" y="55"/></g><g><circle style="fill:#fff" cx="48" cy="62" r="4"/></g><g><circle style="fill:#fff" cx="76" cy="62" r="4"/></g><g><circle style="fill:#fff" cx="62" cy="76" r="4"/></g><g><circle style="fill:#fff" cx="34" cy="76" r="4"/></g></g></g><g id="Red" style="display:none"><g style="display:inline"><g><path style="fill:#7d261e" d="M23,27c0-2.209,1.791-4,4-4h56c2.209,0,4,1.791,4,4v56c0,2.209-1.791,4-4,4H27 c-2.209,0-4-1.791-4-4V27z"/></g><g><rect style="fill:#fff" width="56" height="56" x="27" y="27"/></g><g><rect style="fill:#4a1410" width="14" height="14" x="27" y="69"/></g><g><rect style="fill:#4a1410" width="14" height="14" x="41" y="55"/></g><g><rect style="fill:#4a1410" width="14" height="14" x="55" y="41"/></g><g><rect style="fill:#4a1410" width="14" height="14" x="55" y="69"/></g><g><rect style="fill:#4a1410" width="14" height="14" x="69" y="27"/></g><g><rect style="fill:#7d261e" width="14" height="14" x="41" y="27"/></g><g><polygon style="fill:#4a1410" points="55 41 41 41 55 27"/></g><g><rect style="fill:#7d261e" width="14" height="14" x="27" y="41"/></g><g><polygon style="fill:#4a1410" points="41 55 27 55 41 41"/></g><g><rect style="fill:#4a1410" width="14" height="14" x="69" y="55"/></g><g><circle style="fill:#fff" cx="48" cy="62" r="4"/></g><g><circle style="fill:#fff" cx="76" cy="62" r="4"/></g><g><circle style="fill:#fff" cx="62" cy="76" r="4"/></g><g><circle style="fill:#fff" cx="34" cy="76" r="4"/></g></g></g><g id="R-Red" style="display:none"><circle style="display:inline;fill:#fabbaf" cx="55" cy="55" r="55"/><g style="display:inline"><g><path style="fill:#7d261e" d="M23,27c0-2.209,1.791-4,4-4h56c2.209,0,4,1.791,4,4v56c0,2.209-1.791,4-4,4H27 c-2.209,0-4-1.791-4-4V27z"/></g><g><rect style="fill:#fff" width="56" height="56" x="27" y="27"/></g><g><rect style="fill:#4a1410" width="14" height="14" x="27" y="69"/></g><g><rect style="fill:#4a1410" width="14" height="14" x="41" y="55"/></g><g><rect style="fill:#4a1410" width="14" height="14" x="55" y="41"/></g><g><rect style="fill:#4a1410" width="14" height="14" x="55" y="69"/></g><g><rect style="fill:#4a1410" width="14" height="14" x="69" y="27"/></g><g><rect style="fill:#7d261e" width="14" height="14" x="41" y="27"/></g><g><polygon style="fill:#4a1410" points="55 41 41 41 55 27"/></g><g><rect style="fill:#7d261e" width="14" height="14" x="27" y="41"/></g><g><polygon style="fill:#4a1410" points="41 55 27 55 41 41"/></g><g><rect style="fill:#4a1410" width="14" height="14" x="69" y="55"/></g><g><circle style="fill:#fff" cx="48" cy="62" r="4"/></g><g><circle style="fill:#fff" cx="76" cy="62" r="4"/></g><g><circle style="fill:#fff" cx="62" cy="76" r="4"/></g><g><circle style="fill:#fff" cx="34" cy="76" r="4"/></g></g></g><g id="Yellow" style="display:none"><g style="display:inline"><g><path style="fill:#66510d" d="M23,27c0-2.209,1.791-4,4-4h56c2.209,0,4,1.791,4,4v56c0,2.209-1.791,4-4,4H27 c-2.209,0-4-1.791-4-4V27z"/></g><g><rect style="fill:#fff" width="56" height="56" x="27" y="27"/></g><g><rect style="fill:#3d320c" width="14" height="14" x="27" y="69"/></g><g><rect style="fill:#3d320c" width="14" height="14" x="41" y="55"/></g><g><rect style="fill:#3d320c" width="14" height="14" x="55" y="41"/></g><g><rect style="fill:#3d320c" width="14" height="14" x="55" y="69"/></g><g><rect style="fill:#3d320c" width="14" height="14" x="69" y="27"/></g><g><rect style="fill:#66510d" width="14" height="14" x="41" y="27"/></g><g><polygon style="fill:#3d320c" points="55 41 41 41 55 27"/></g><g><rect style="fill:#66510d" width="14" height="14" x="27" y="41"/></g><g><polygon style="fill:#3d320c" points="41 55 27 55 41 41"/></g><g><rect style="fill:#3d320c" width="14" height="14" x="69" y="55"/></g><g><circle style="fill:#fff" cx="48" cy="62" r="4"/></g><g><circle style="fill:#fff" cx="76" cy="62" r="4"/></g><g><circle style="fill:#fff" cx="62" cy="76" r="4"/></g><g><circle style="fill:#fff" cx="34" cy="76" r="4"/></g></g></g><g id="R-Yellow" style="display:none"><circle style="display:inline;fill:#ffd75e" cx="55" cy="55" r="55"/><g style="display:inline"><g><path style="fill:#66510d" d="M23,27c0-2.209,1.791-4,4-4h56c2.209,0,4,1.791,4,4v56c0,2.209-1.791,4-4,4H27 c-2.209,0-4-1.791-4-4V27z"/></g><g><rect style="fill:#fff" width="56" height="56" x="27" y="27"/></g><g><rect style="fill:#3d320c" width="14" height="14" x="27" y="69"/></g><g><rect style="fill:#3d320c" width="14" height="14" x="41" y="55"/></g><g><rect style="fill:#3d320c" width="14" height="14" x="55" y="41"/></g><g><rect style="fill:#3d320c" width="14" height="14" x="55" y="69"/></g><g><rect style="fill:#3d320c" width="14" height="14" x="69" y="27"/></g><g><rect style="fill:#66510d" width="14" height="14" x="41" y="27"/></g><g><polygon style="fill:#3d320c" points="55 41 41 41 55 27"/></g><g><rect style="fill:#66510d" width="14" height="14" x="27" y="41"/></g><g><polygon style="fill:#3d320c" points="41 55 27 55 41 41"/></g><g><rect style="fill:#3d320c" width="14" height="14" x="69" y="55"/></g><g><circle style="fill:#fff" cx="48" cy="62" r="4"/></g><g><circle style="fill:#fff" cx="76" cy="62" r="4"/></g><g><circle style="fill:#fff" cx="62" cy="76" r="4"/></g><g><circle style="fill:#fff" cx="34" cy="76" r="4"/></g></g></g></svg>