<svg xmlns="http://www.w3.org/2000/svg" xmlns:xlink="http://www.w3.org/1999/xlink" width="110" height="110" x="0" y="0" version="1.0" viewBox="0 0 110 110" xml:space="preserve" style="enable-background:new 0 0 110 110"><g id="Artboard" style="display:none"><rect style="display:inline;fill:gray" width="1375" height="521" x="-184" y="-200"/></g><g id="R-Multicolor" style="display:none"><circle style="display:inline;fill:#25b7d3" cx="55" cy="55" r="55"/><g style="display:inline"><path style="fill:#fbec9a" d="M55,27c15.439,0,28,12.561,28,28S70.439,83,55,83S27,70.439,27,55S39.561,27,55,27 M55,23 c-17.673,0-32,14.327-32,32c0,17.673,14.327,32,32,32s32-14.327,32-32C87,37.327,72.673,23,55,23L55,23z"/><path style="fill:#facb1b" d="M55,83c-15.439,0-28-12.561-28-28s12.561-28,28-28s28,12.561,28,28S70.439,83,55,83z"/><path style="fill:#fbe158" d="M55,27c-15.439,0-28,12.561-28,28c0,7.946,3.333,15.124,8.667,20.225l39.558-39.558 C70.124,30.332,62.946,27,55,27z"/><path style="fill:#fcf6c2" d="M27,55c0-15.439,12.561-28,28-28c7.925,0,15.086,3.315,20.185,8.625l2.838-2.838 C72.203,26.757,64.042,23,55,23c-17.673,0-32,14.327-32,32c0,9.042,3.757,17.203,9.787,23.022l2.838-2.838 C30.315,70.086,27,62.925,27,55z"/><g><path style="fill:#8e6134" d="M69.377,66.761c-2.592,3.36-5.809,5.617-10.753,5.617c-7.105,0-12.097-4.561-13.921-11.377h-2.592 c-1.152,0-2.064-0.912-2.064-2.064c0-1.104,0.912-2.064,2.064-2.064h1.872c-0.048-0.576-0.048-1.2-0.048-1.824 c0-0.72,0-1.488,0.096-2.208h-1.92c-1.152,0-2.064-0.912-2.064-2.017c0-1.152,0.912-2.064,2.064-2.064h2.688 c1.872-6.48,6.817-11.137,13.633-11.137c5.088,0,8.161,2.016,10.657,4.896c0.384,0.384,0.768,1.104,0.768,1.968 c0,1.536-1.296,2.784-2.832,2.784c-1.008,0-1.68-0.48-2.064-0.96c-1.824-2.208-3.696-3.408-6.673-3.408 c-3.456,0-6.048,2.256-7.393,5.856h8.545c1.104,0,2.016,0.912,2.016,2.064c0,1.104-0.912,2.017-2.016,2.017h-9.457 c-0.096,0.672-0.096,1.392-0.096,2.112c0,0.672,0,1.296,0.048,1.92h9.505c1.104,0,2.016,0.96,2.016,2.064 c0,1.152-0.912,2.064-2.016,2.064H50.8c1.344,3.84,4.08,6.096,7.873,6.096c2.88,0,4.752-1.392,6.576-3.648 c0.48-0.576,1.152-0.96,2.064-0.96c1.44,0,2.64,1.152,2.64,2.592C69.953,65.801,69.665,66.425,69.377,66.761z"/></g></g></g><g id="Multicolor"><g><path style="fill:#fbec9a" d="M55,27c15.439,0,28,12.561,28,28S70.439,83,55,83S27,70.439,27,55S39.561,27,55,27 M55,23 c-17.673,0-32,14.327-32,32c0,17.673,14.327,32,32,32s32-14.327,32-32C87,37.327,72.673,23,55,23L55,23z"/><path style="fill:#facb1b" d="M55,83c-15.439,0-28-12.561-28-28s12.561-28,28-28s28,12.561,28,28S70.439,83,55,83z"/><path style="fill:#fbe158" d="M55,27c-15.439,0-28,12.561-28,28c0,7.946,3.333,15.124,8.667,20.225l39.558-39.558 C70.124,30.332,62.946,27,55,27z"/><path style="fill:#fcf6c2" d="M27,55c0-15.439,12.561-28,28-28c7.925,0,15.086,3.315,20.185,8.625l2.838-2.838 C72.203,26.757,64.042,23,55,23c-17.673,0-32,14.327-32,32c0,9.042,3.757,17.203,9.787,23.022l2.838-2.838 C30.315,70.086,27,62.925,27,55z"/><g><path style="fill:#8e6134" d="M69.377,66.761c-2.592,3.36-5.809,5.617-10.753,5.617c-7.105,0-12.097-4.561-13.921-11.377h-2.592 c-1.152,0-2.064-0.912-2.064-2.064c0-1.104,0.912-2.064,2.064-2.064h1.872c-0.048-0.576-0.048-1.2-0.048-1.824 c0-0.72,0-1.488,0.096-2.208h-1.92c-1.152,0-2.064-0.912-2.064-2.017c0-1.152,0.912-2.064,2.064-2.064h2.688 c1.872-6.48,6.817-11.137,13.633-11.137c5.088,0,8.161,2.016,10.657,4.896c0.384,0.384,0.768,1.104,0.768,1.968 c0,1.536-1.296,2.784-2.832,2.784c-1.008,0-1.68-0.48-2.064-0.96c-1.824-2.208-3.696-3.408-6.673-3.408 c-3.456,0-6.048,2.256-7.393,5.856h8.545c1.104,0,2.016,0.912,2.016,2.064c0,1.104-0.912,2.017-2.016,2.017h-9.457 c-0.096,0.672-0.096,1.392-0.096,2.112c0,0.672,0,1.296,0.048,1.92h9.505c1.104,0,2.016,0.96,2.016,2.064 c0,1.152-0.912,2.064-2.016,2.064H50.8c1.344,3.84,4.08,6.096,7.873,6.096c2.88,0,4.752-1.392,6.576-3.648 c0.48-0.576,1.152-0.96,2.064-0.96c1.44,0,2.64,1.152,2.64,2.592C69.953,65.801,69.665,66.425,69.377,66.761z"/></g></g></g><g id="Blue" style="display:none"><g style="display:inline"><g><path style="fill:#e1f5fa" d="M55,27c15.439,0,28,12.561,28,28c0,15.439-12.561,28-28,28S27,70.439,27,55 C27,39.561,39.561,27,55,27 M55,23c-17.673,0-32,14.327-32,32s14.327,32,32,32s32-14.327,32-32S72.673,23,55,23L55,23z"/></g><g><path style="fill:#009fc7" d="M55,83c-15.439,0-28-12.561-28-28c0-15.439,12.561-28,28-28s28,12.561,28,28 C83,70.439,70.439,83,55,83z"/></g><g><path style="fill:#00b7e5" d="M55,27c-15.439,0-28,12.561-28,28c0,7.946,3.333,15.124,8.667,20.225l39.558-39.558 C70.123,30.333,62.946,27,55,27z"/></g><g><path style="fill:#fff" d="M27,55c0-15.439,12.561-28,28-28c7.925,0,15.086,3.315,20.185,8.625l2.838-2.838 C72.203,26.757,64.043,23,55,23c-17.673,0-32,14.327-32,32c0,9.043,3.757,17.203,9.787,23.023l2.838-2.837 C30.315,70.086,27,62.925,27,55z"/></g><g><g><path style="fill:#fff" d="M69.377,66.761c-2.592,3.36-5.809,5.617-10.752,5.617c-7.105,0-12.097-4.561-13.921-11.377 h-2.592c-1.152,0-2.064-0.912-2.064-2.065c0-1.104,0.912-2.064,2.064-2.064h1.872c-0.047-0.576-0.047-1.2-0.047-1.824 c0-0.72,0-1.488,0.096-2.208h-1.92c-1.152,0-2.064-0.912-2.064-2.017c0-1.152,0.912-2.064,2.064-2.064h2.688 c1.872-6.48,6.816-11.137,13.633-11.137c5.088,0,8.16,2.016,10.656,4.896c0.385,0.384,0.769,1.104,0.769,1.968 c0,1.536-1.296,2.784-2.832,2.784c-1.008,0-1.68-0.48-2.064-0.96c-1.824-2.208-3.696-3.408-6.673-3.408 c-3.456,0-6.048,2.256-7.393,5.856h8.545c1.104,0,2.017,0.912,2.017,2.064c0,1.104-0.912,2.017-2.017,2.017h-9.457 c-0.096,0.672-0.096,1.392-0.096,2.112c0,0.672,0,1.296,0.048,1.92h9.505c1.104,0,2.017,0.96,2.017,2.064 c0,1.152-0.912,2.065-2.017,2.065H50.8c1.344,3.84,4.08,6.096,7.873,6.096c2.88,0,4.752-1.392,6.576-3.648 c0.48-0.576,1.152-0.96,2.064-0.96c1.44,0,2.64,1.152,2.64,2.592C69.953,65.801,69.665,66.425,69.377,66.761z"/></g></g></g></g><g id="R-Blue" style="display:none"><g style="display:inline"><circle style="fill:#81d2eb" cx="55" cy="55" r="55"/></g><g style="display:inline"><g><path style="fill:#e1f5fa" d="M55,27c15.439,0,28,12.561,28,28c0,15.439-12.561,28-28,28S27,70.439,27,55 C27,39.561,39.561,27,55,27 M55,23c-17.673,0-32,14.327-32,32s14.327,32,32,32s32-14.327,32-32S72.673,23,55,23L55,23z"/></g><g><path style="fill:#009fc7" d="M55,83c-15.439,0-28-12.561-28-28c0-15.439,12.561-28,28-28s28,12.561,28,28 C83,70.439,70.439,83,55,83z"/></g><g><path style="fill:#00b7e5" d="M55,27c-15.439,0-28,12.561-28,28c0,7.946,3.333,15.124,8.667,20.225l39.558-39.558 C70.123,30.333,62.946,27,55,27z"/></g><g><path style="fill:#fff" d="M27,55c0-15.439,12.561-28,28-28c7.925,0,15.086,3.315,20.185,8.625l2.838-2.838 C72.203,26.757,64.043,23,55,23c-17.673,0-32,14.327-32,32c0,9.043,3.757,17.203,9.787,23.023l2.838-2.837 C30.315,70.086,27,62.925,27,55z"/></g><g><g><path style="fill:#fff" d="M69.377,66.761c-2.592,3.36-5.809,5.617-10.752,5.617c-7.105,0-12.097-4.561-13.921-11.377 h-2.592c-1.152,0-2.064-0.912-2.064-2.065c0-1.104,0.912-2.064,2.064-2.064h1.872c-0.047-0.576-0.047-1.2-0.047-1.824 c0-0.72,0-1.488,0.096-2.208h-1.92c-1.152,0-2.064-0.912-2.064-2.017c0-1.152,0.912-2.064,2.064-2.064h2.688 c1.872-6.48,6.816-11.137,13.633-11.137c5.088,0,8.16,2.016,10.656,4.896c0.385,0.384,0.769,1.104,0.769,1.968 c0,1.536-1.296,2.784-2.832,2.784c-1.008,0-1.68-0.48-2.064-0.96c-1.824-2.208-3.696-3.408-6.673-3.408 c-3.456,0-6.048,2.256-7.393,5.856h8.545c1.104,0,2.017,0.912,2.017,2.064c0,1.104-0.912,2.017-2.017,2.017h-9.457 c-0.096,0.672-0.096,1.392-0.096,2.112c0,0.672,0,1.296,0.048,1.92h9.505c1.104,0,2.017,0.96,2.017,2.064 c0,1.152-0.912,2.065-2.017,2.065H50.8c1.344,3.84,4.08,6.096,7.873,6.096c2.88,0,4.752-1.392,6.576-3.648 c0.48-0.576,1.152-0.96,2.064-0.96c1.44,0,2.64,1.152,2.64,2.592C69.953,65.801,69.665,66.425,69.377,66.761z"/></g></g></g></g><g id="Green" style="display:none"><g style="display:inline"><g><path style="fill:#d7fcf9" d="M55,27c15.439,0,28,12.561,28,28c0,15.439-12.561,28-28,28S27,70.439,27,55 C27,39.561,39.561,27,55,27 M55,23c-17.673,0-32,14.327-32,32s14.327,32,32,32s32-14.327,32-32S72.673,23,55,23L55,23z"/></g><g><path style="fill:#00b8a5" d="M55,83c-15.439,0-28-12.561-28-28c0-15.439,12.561-28,28-28s28,12.561,28,28 C83,70.439,70.439,83,55,83z"/></g><g><path style="fill:#00d6c1" d="M55,27c-15.439,0-28,12.561-28,28c0,7.946,3.333,15.124,8.667,20.225l39.558-39.558 C70.124,30.333,62.946,27,55,27z"/></g><g><path style="fill:#fff" d="M27,55c0-15.439,12.561-28,28-28c7.925,0,15.086,3.315,20.185,8.625l2.838-2.838 C72.203,26.757,64.043,23,55,23c-17.673,0-32,14.327-32,32c0,9.043,3.757,17.203,9.787,23.023l2.838-2.837 C30.315,70.086,27,62.925,27,55z"/></g><g><g><path style="fill:#fff" d="M69.377,66.761c-2.592,3.36-5.809,5.617-10.752,5.617c-7.105,0-12.097-4.561-13.921-11.377 h-2.592c-1.152,0-2.064-0.912-2.064-2.065c0-1.104,0.912-2.064,2.064-2.064h1.872c-0.047-0.576-0.047-1.2-0.047-1.824 c0-0.72,0-1.488,0.096-2.208h-1.92c-1.152,0-2.064-0.912-2.064-2.017c0-1.152,0.912-2.064,2.064-2.064h2.688 c1.872-6.48,6.816-11.137,13.633-11.137c5.088,0,8.16,2.016,10.656,4.896c0.385,0.384,0.769,1.104,0.769,1.968 c0,1.536-1.296,2.784-2.832,2.784c-1.008,0-1.68-0.48-2.064-0.96c-1.824-2.208-3.696-3.408-6.673-3.408 c-3.456,0-6.048,2.256-7.393,5.856h8.545c1.104,0,2.017,0.912,2.017,2.064c0,1.104-0.912,2.017-2.017,2.017h-9.457 c-0.096,0.672-0.096,1.392-0.096,2.112c0,0.672,0,1.296,0.048,1.92h9.505c1.104,0,2.017,0.96,2.017,2.064 c0,1.152-0.912,2.065-2.017,2.065H50.8c1.344,3.84,4.08,6.096,7.873,6.096c2.88,0,4.752-1.392,6.576-3.648 c0.48-0.576,1.152-0.96,2.064-0.96c1.44,0,2.64,1.152,2.64,2.592C69.953,65.801,69.665,66.425,69.377,66.761z"/></g></g></g></g><g id="R-Green" style="display:none"><g style="display:inline"><circle style="fill:#87e0c8" cx="55" cy="55" r="55"/></g><g style="display:inline"><g><path style="fill:#d7fcf9" d="M55,27c15.44,0,28,12.561,28,28c0,15.439-12.561,28-28,28S27,70.439,27,55 C27,39.561,39.56,27,55,27 M55,23c-17.673,0-32,14.327-32,32s14.327,32,32,32s32-14.327,32-32S72.673,23,55,23L55,23z"/></g><g><path style="fill:#00b8a5" d="M55,83C39.56,83,27,70.439,27,55c0-15.439,12.561-28,28-28s28,12.561,28,28 C83,70.439,70.439,83,55,83z"/></g><g><path style="fill:#00d6c1" d="M55,27C39.56,27,27,39.561,27,55c0,7.946,3.333,15.124,8.667,20.225l39.558-39.558 C70.123,30.333,62.946,27,55,27z"/></g><g><path style="fill:#fff" d="M27,55c0-15.439,12.561-28,28-28c7.925,0,15.086,3.315,20.185,8.625l2.838-2.838 C72.203,26.757,64.042,23,55,23c-17.673,0-32,14.327-32,32c0,9.043,3.757,17.203,9.787,23.023l2.838-2.837 C30.315,70.086,27,62.925,27,55z"/></g><g><g><path style="fill:#fff" d="M69.377,66.761c-2.592,3.36-5.809,5.617-10.753,5.617c-7.105,0-12.097-4.561-13.921-11.377 h-2.592c-1.152,0-2.064-0.912-2.064-2.065c0-1.104,0.912-2.064,2.064-2.064h1.872c-0.047-0.576-0.047-1.2-0.047-1.824 c0-0.72,0-1.488,0.096-2.208h-1.92c-1.152,0-2.064-0.912-2.064-2.017c0-1.152,0.912-2.064,2.064-2.064h2.688 c1.872-6.48,6.816-11.137,13.633-11.137c5.088,0,8.16,2.016,10.656,4.896c0.385,0.384,0.769,1.104,0.769,1.968 c0,1.536-1.296,2.784-2.833,2.784c-1.008,0-1.68-0.48-2.064-0.96c-1.824-2.208-3.696-3.408-6.673-3.408 c-3.456,0-6.048,2.256-7.393,5.856h8.545c1.104,0,2.017,0.912,2.017,2.064c0,1.104-0.912,2.017-2.017,2.017h-9.457 c-0.096,0.672-0.096,1.392-0.096,2.112c0,0.672,0,1.296,0.048,1.92h9.505c1.104,0,2.017,0.96,2.017,2.064 c0,1.152-0.912,2.065-2.017,2.065H50.8c1.344,3.84,4.08,6.096,7.873,6.096c2.88,0,4.752-1.392,6.576-3.648 c0.48-0.576,1.152-0.96,2.064-0.96c1.44,0,2.64,1.152,2.64,2.592C69.953,65.801,69.665,66.425,69.377,66.761z"/></g></g></g></g><g id="Red" style="display:none"><g style="display:inline"><g><path style="fill:#ffefed" d="M55,27c15.439,0,28,12.561,28,28c0,15.439-12.561,28-28,28S27,70.439,27,55 C27,39.561,39.561,27,55,27 M55,23c-17.673,0-32,14.327-32,32s14.327,32,32,32s32-14.327,32-32S72.673,23,55,23L55,23z"/></g><g><path style="fill:#e54b44" d="M55,83c-15.439,0-28-12.561-28-28c0-15.439,12.561-28,28-28s28,12.561,28,28 C83,70.439,70.439,83,55,83z"/></g><g><path style="fill:#ff6c5e" d="M55,27c-15.439,0-28,12.561-28,28c0,7.946,3.333,15.124,8.667,20.225l39.558-39.558 C70.123,30.333,62.946,27,55,27z"/></g><g><path style="fill:#fff" d="M27,55c0-15.439,12.561-28,28-28c7.925,0,15.086,3.315,20.185,8.625l2.838-2.838 C72.203,26.757,64.043,23,55,23c-17.673,0-32,14.327-32,32c0,9.043,3.757,17.203,9.787,23.023l2.838-2.837 C30.315,70.086,27,62.925,27,55z"/></g><g><g><path style="fill:#fff" d="M69.377,66.761c-2.592,3.36-5.809,5.617-10.752,5.617c-7.105,0-12.097-4.561-13.921-11.377 h-2.592c-1.152,0-2.064-0.912-2.064-2.065c0-1.104,0.912-2.064,2.064-2.064h1.872c-0.047-0.576-0.047-1.2-0.047-1.824 c0-0.72,0-1.488,0.096-2.208h-1.92c-1.152,0-2.064-0.912-2.064-2.017c0-1.152,0.912-2.064,2.064-2.064h2.688 c1.872-6.48,6.816-11.137,13.633-11.137c5.088,0,8.16,2.016,10.656,4.896c0.385,0.384,0.769,1.104,0.769,1.968 c0,1.536-1.296,2.784-2.832,2.784c-1.008,0-1.68-0.48-2.064-0.96c-1.824-2.208-3.696-3.408-6.673-3.408 c-3.456,0-6.048,2.256-7.393,5.856h8.545c1.104,0,2.017,0.912,2.017,2.064c0,1.104-0.912,2.017-2.017,2.017h-9.457 c-0.096,0.672-0.096,1.392-0.096,2.112c0,0.672,0,1.296,0.048,1.92h9.505c1.104,0,2.017,0.96,2.017,2.064 c0,1.152-0.912,2.065-2.017,2.065H50.8c1.344,3.84,4.08,6.096,7.873,6.096c2.88,0,4.752-1.392,6.576-3.648 c0.48-0.576,1.152-0.96,2.064-0.96c1.44,0,2.64,1.152,2.64,2.592C69.953,65.801,69.665,66.425,69.377,66.761z"/></g></g></g></g><g id="R-Red" style="display:none"><g style="display:inline"><circle style="fill:#fabbaf" cx="55" cy="55" r="55"/></g><g style="display:inline"><g><path style="fill:#ffefed" d="M55,27c15.44,0,28,12.561,28,28c0,15.439-12.561,28-28,28S27,70.439,27,55 C27,39.561,39.56,27,55,27 M55,23c-17.673,0-32,14.327-32,32s14.327,32,32,32s32-14.327,32-32S72.673,23,55,23L55,23z"/></g><g><path style="fill:#e54b44" d="M55,83C39.56,83,27,70.439,27,55c0-15.439,12.561-28,28-28s28,12.561,28,28 C83,70.439,70.439,83,55,83z"/></g><g><path style="fill:#ff6c5e" d="M55,27C39.56,27,27,39.561,27,55c0,7.946,3.333,15.124,8.667,20.225l39.558-39.558 C70.123,30.333,62.946,27,55,27z"/></g><g><path style="fill:#fff" d="M27,55c0-15.439,12.561-28,28-28c7.925,0,15.086,3.315,20.185,8.625l2.838-2.838 C72.203,26.757,64.042,23,55,23c-17.673,0-32,14.327-32,32c0,9.043,3.757,17.203,9.787,23.023l2.838-2.837 C30.315,70.086,27,62.925,27,55z"/></g><g><g><path style="fill:#fff" d="M69.377,66.761c-2.592,3.36-5.809,5.617-10.753,5.617c-7.105,0-12.097-4.561-13.921-11.377 h-2.592c-1.152,0-2.064-0.912-2.064-2.065c0-1.104,0.912-2.064,2.064-2.064h1.872c-0.047-0.576-0.047-1.2-0.047-1.824 c0-0.72,0-1.488,0.096-2.208h-1.92c-1.152,0-2.064-0.912-2.064-2.017c0-1.152,0.912-2.064,2.064-2.064h2.688 c1.872-6.48,6.816-11.137,13.633-11.137c5.088,0,8.16,2.016,10.656,4.896c0.385,0.384,0.769,1.104,0.769,1.968 c0,1.536-1.296,2.784-2.833,2.784c-1.008,0-1.68-0.48-2.064-0.96c-1.824-2.208-3.696-3.408-6.673-3.408 c-3.456,0-6.048,2.256-7.393,5.856h8.545c1.104,0,2.017,0.912,2.017,2.064c0,1.104-0.912,2.017-2.017,2.017h-9.457 c-0.096,0.672-0.096,1.392-0.096,2.112c0,0.672,0,1.296,0.048,1.92h9.505c1.104,0,2.017,0.96,2.017,2.064 c0,1.152-0.912,2.065-2.017,2.065H50.8c1.344,3.84,4.08,6.096,7.873,6.096c2.88,0,4.752-1.392,6.576-3.648 c0.48-0.576,1.152-0.96,2.064-0.96c1.44,0,2.64,1.152,2.64,2.592C69.953,65.801,69.665,66.425,69.377,66.761z"/></g></g></g></g><g id="Yellow" style="display:none"><g style="display:inline"><g><path style="fill:#fff5d9" d="M55,27c15.439,0,28,12.561,28,28c0,15.439-12.561,28-28,28S27,70.439,27,55 C27,39.561,39.561,27,55,27 M55,23c-17.673,0-32,14.327-32,32s14.327,32,32,32s32-14.327,32-32S72.673,23,55,23L55,23z"/></g><g><path style="fill:#fa9200" d="M55,83c-15.439,0-28-12.561-28-28c0-15.439,12.561-28,28-28s28,12.561,28,28 C83,70.439,70.439,83,55,83z"/></g><g><path style="fill:#fa0" d="M55,27c-15.439,0-28,12.561-28,28c0,7.946,3.333,15.124,8.667,20.225l39.558-39.558 C70.123,30.333,62.946,27,55,27z"/></g><g><path style="fill:#fff" d="M27,55c0-15.439,12.561-28,28-28c7.925,0,15.086,3.315,20.185,8.625l2.838-2.838 C72.203,26.757,64.043,23,55,23c-17.673,0-32,14.327-32,32c0,9.043,3.757,17.203,9.787,23.023l2.838-2.837 C30.315,70.086,27,62.925,27,55z"/></g><g><g><path style="fill:#fff" d="M69.377,66.761c-2.592,3.36-5.809,5.617-10.752,5.617c-7.105,0-12.097-4.561-13.921-11.377 h-2.592c-1.152,0-2.064-0.912-2.064-2.065c0-1.104,0.912-2.064,2.064-2.064h1.872c-0.047-0.576-0.047-1.2-0.047-1.824 c0-0.72,0-1.488,0.096-2.208h-1.92c-1.152,0-2.064-0.912-2.064-2.017c0-1.152,0.912-2.064,2.064-2.064h2.688 c1.872-6.48,6.816-11.137,13.633-11.137c5.088,0,8.16,2.016,10.656,4.896c0.385,0.384,0.769,1.104,0.769,1.968 c0,1.536-1.296,2.784-2.832,2.784c-1.008,0-1.68-0.48-2.064-0.96c-1.824-2.208-3.696-3.408-6.673-3.408 c-3.456,0-6.048,2.256-7.393,5.856h8.545c1.104,0,2.017,0.912,2.017,2.064c0,1.104-0.912,2.017-2.017,2.017h-9.457 c-0.096,0.672-0.096,1.392-0.096,2.112c0,0.672,0,1.296,0.048,1.92h9.505c1.104,0,2.017,0.96,2.017,2.064 c0,1.152-0.912,2.065-2.017,2.065H50.8c1.344,3.84,4.08,6.096,7.873,6.096c2.88,0,4.752-1.392,6.576-3.648 c0.48-0.576,1.152-0.96,2.064-0.96c1.44,0,2.64,1.152,2.64,2.592C69.953,65.801,69.665,66.425,69.377,66.761z"/></g></g></g></g><g id="R-Yellow" style="display:none"><g style="display:inline"><circle style="fill:#ffd75e" cx="55" cy="55" r="55"/></g><g style="display:inline"><g><path style="fill:#fff5d9" d="M55,27c15.439,0,28,12.561,28,28c0,15.439-12.561,28-28,28S27,70.439,27,55 C27,39.561,39.561,27,55,27 M55,23c-17.673,0-32,14.327-32,32s14.327,32,32,32s32-14.327,32-32S72.673,23,55,23L55,23z"/></g><g><path style="fill:#fa9200" d="M55,83c-15.439,0-28-12.561-28-28c0-15.439,12.561-28,28-28s28,12.561,28,28 C83,70.439,70.439,83,55,83z"/></g><g><path style="fill:#fa0" d="M55,27c-15.439,0-28,12.561-28,28c0,7.946,3.333,15.124,8.667,20.225l39.558-39.558 C70.123,30.333,62.946,27,55,27z"/></g><g><path style="fill:#fff" d="M27,55c0-15.439,12.561-28,28-28c7.925,0,15.086,3.315,20.185,8.625l2.838-2.838 C72.203,26.757,64.043,23,55,23c-17.673,0-32,14.327-32,32c0,9.043,3.757,17.203,9.787,23.023l2.838-2.837 C30.315,70.086,27,62.925,27,55z"/></g><g><g><path style="fill:#fff" d="M69.377,66.761c-2.592,3.36-5.809,5.617-10.752,5.617c-7.105,0-12.097-4.561-13.921-11.377 h-2.592c-1.152,0-2.064-0.912-2.064-2.065c0-1.104,0.912-2.064,2.064-2.064h1.872c-0.047-0.576-0.047-1.2-0.047-1.824 c0-0.72,0-1.488,0.096-2.208h-1.92c-1.152,0-2.064-0.912-2.064-2.017c0-1.152,0.912-2.064,2.064-2.064h2.688 c1.872-6.48,6.816-11.137,13.633-11.137c5.088,0,8.16,2.016,10.656,4.896c0.385,0.384,0.769,1.104,0.769,1.968 c0,1.536-1.296,2.784-2.832,2.784c-1.008,0-1.68-0.48-2.064-0.96c-1.824-2.208-3.696-3.408-6.673-3.408 c-3.456,0-6.048,2.256-7.393,5.856h8.545c1.104,0,2.017,0.912,2.017,2.064c0,1.104-0.912,2.017-2.017,2.017h-9.457 c-0.096,0.672-0.096,1.392-0.096,2.112c0,0.672,0,1.296,0.048,1.92h9.505c1.104,0,2.017,0.96,2.017,2.064 c0,1.152-0.912,2.065-2.017,2.065H50.8c1.344,3.84,4.08,6.096,7.873,6.096c2.88,0,4.752-1.392,6.576-3.648 c0.48-0.576,1.152-0.96,2.064-0.96c1.44,0,2.64,1.152,2.64,2.592C69.953,65.801,69.665,66.425,69.377,66.761z"/></g></g></g></g></svg>