<svg xmlns="http://www.w3.org/2000/svg" xmlns:xlink="http://www.w3.org/1999/xlink" width="110" height="110" x="0" y="0" version="1.0" viewBox="0 0 110 110" xml:space="preserve" style="enable-background:new 0 0 110 110"><g id="Artboard" style="display:none"><rect style="display:inline;fill:gray;stroke:#000;stroke-miterlimit:10" width="1404" height="568" x="-701.5" y="-222.5"/></g><g id="R-Multicolor" style="display:none"><circle style="display:inline;fill:#25b7d3" cx="55" cy="55" r="55"/><g style="display:inline"><g><path style="fill:#fbc8c8" d="M37,79c0,0,3.778-10.39-2.436-17.401c-0.339-0.383-0.336-0.96,0.01-1.337 C36.719,57.917,40.528,57.967,46,68c1.429,2.619,4.409,2.479,7,1c4.928-2.813,12.04-11.775,19.5-9.592 c0.339,0.099,0.601,0.37,0.688,0.712c0.087,0.342-0.013,0.705-0.263,0.955L47,87L37,79z"/></g><g><path style="fill:#f0f1f1" d="M87,58c0,0.552-0.448,1-1,1H24c-0.552,0-1-0.448-1-1v-2c0-0.552,0.448-1,1-1h62 c0.552,0,1,0.448,1,1V58z"/></g><g><path style="fill:#fff" d="M55,27c1.042,0,2.034,0.046,3,0.115V24c0-0.552-0.448-1-1-1h-4c-0.552,0-1,0.448-1,1v3.115 C52.966,27.046,53.958,27,55,27z"/></g><g><path style="fill:#e2e4e5" d="M27,55c0,0-1-28,28-28s28,28,28,28H27z"/></g><g><polygon style="fill:#3e3e3f" points="37 79 27 87 47 87"/></g><g><path style="fill:#fff" d="M55,27c-29,0-28,28-28,28h28V27z"/></g><g><path style="fill:#fbc8c8" d="M37,79c0,0,3.778-10.39-2.436-17.401c-0.339-0.383-0.336-0.96,0.01-1.337 C36.719,57.917,40.528,57.967,46,68c1.429,2.619,4.409,2.479,7,1c4.928-2.813,12.04-11.775,19.5-9.592 c0.339,0.099,0.601,0.37,0.688,0.712c0.087,0.342-0.013,0.705-0.263,0.955L47,87L37,79z"/></g><g><path style="fill:#f7b4b4" d="M72.925,61.075c0.25-0.25,0.35-0.612,0.263-0.955s-0.349-0.613-0.688-0.712 C65.04,57.226,57.928,66.187,53,69c-2.591,1.479-5.571,1.619-7-1c-5.472-10.033-9.281-10.083-11.426-7.738 c-0.345,0.377-0.349,0.955-0.01,1.337C40.778,68.609,37,79,37,79l2.727,2.182l30.975-17.884L72.925,61.075z"/></g></g></g><g id="Multicolor"><g><g><path style="fill:#fbc8c8" d="M37,79c0,0,3.778-10.39-2.436-17.401c-0.339-0.383-0.336-0.96,0.01-1.337 C36.719,57.917,40.528,57.967,46,68c1.429,2.619,4.409,2.479,7,1c4.928-2.813,12.04-11.775,19.5-9.592 c0.339,0.099,0.601,0.37,0.688,0.712c0.087,0.342-0.013,0.705-0.263,0.955L47,87L37,79z"/></g><g><path style="fill:#f0f1f1" d="M87,58c0,0.552-0.448,1-1,1H24c-0.552,0-1-0.448-1-1v-2c0-0.552,0.448-1,1-1h62 c0.552,0,1,0.448,1,1V58z"/></g><g><path style="fill:#fff" d="M55,27c1.042,0,2.034,0.046,3,0.115V24c0-0.552-0.448-1-1-1h-4c-0.552,0-1,0.448-1,1v3.115 C52.966,27.046,53.958,27,55,27z"/></g><g><path style="fill:#e2e4e5" d="M27,55c0,0-1-28,28-28s28,28,28,28H27z"/></g><g><polygon style="fill:#3e3e3f" points="37 79 27 87 47 87"/></g><g><path style="fill:#fff" d="M55,27c-29,0-28,28-28,28h28V27z"/></g><g><path style="fill:#fbc8c8" d="M37,79c0,0,3.778-10.39-2.436-17.401c-0.339-0.383-0.336-0.96,0.01-1.337 C36.719,57.917,40.528,57.967,46,68c1.429,2.619,4.409,2.479,7,1c4.928-2.813,12.04-11.775,19.5-9.592 c0.339,0.099,0.601,0.37,0.688,0.712c0.087,0.342-0.013,0.705-0.263,0.955L47,87L37,79z"/></g><g><path style="fill:#f7b4b4" d="M72.925,61.075c0.25-0.25,0.35-0.612,0.263-0.955s-0.349-0.613-0.688-0.712 C65.04,57.226,57.928,66.187,53,69c-2.591,1.479-5.571,1.619-7-1c-5.472-10.033-9.281-10.083-11.426-7.738 c-0.345,0.377-0.349,0.955-0.01,1.337C40.778,68.609,37,79,37,79l2.727,2.182l30.975-17.884L72.925,61.075z"/></g></g></g><g id="Blue" style="display:none"><g style="display:inline"><g><path style="fill:#bbe7f2" d="M37,79c0,0,3.778-10.391-2.436-17.4c-0.339-0.383-0.336-0.96,0.01-1.338 C36.719,57.917,40.527,57.967,46,68c1.429,2.619,4.409,2.479,7,1c4.929-2.813,12.039-11.774,19.5-9.592 c0.339,0.099,0.601,0.37,0.688,0.712c0.088,0.342-0.013,0.705-0.262,0.955L47,87L37,79z"/></g><g><path style="fill:#009fc7" d="M87,58c0,0.552-0.447,1-1,1H24c-0.553,0-1-0.448-1-1v-2c0-0.552,0.447-1,1-1h62 c0.553,0,1,0.448,1,1V58z"/></g><g><path style="fill:#fff" d="M55,27c1.042,0,2.034,0.046,3,0.115V24c0-0.552-0.447-1-1-1h-4c-0.553,0-1,0.448-1,1v3.115 C52.966,27.046,53.958,27,55,27z"/></g><g><path style="fill:#e1f5fa" d="M27,55c0,0-1-28,28-28s28,28,28,28H27z"/></g><g><polygon style="fill:#0c333d" points="37 79 27 87 47 87"/></g><g><path style="fill:#fff" d="M55,27c-29,0-28,28-28,28h28V27z"/></g><g><path style="fill:#bbe7f2" d="M37,79c0,0,3.778-10.391-2.436-17.4c-0.339-0.383-0.336-0.96,0.01-1.338 C36.719,57.917,40.527,57.967,46,68c1.429,2.619,4.409,2.479,7,1c4.929-2.813,12.039-11.774,19.5-9.592 c0.339,0.099,0.601,0.37,0.688,0.712c0.088,0.342-0.013,0.705-0.262,0.955L47,87L37,79z"/></g><g><path style="fill:#e1f5fa" d="M72.926,61.075c0.249-0.25,0.35-0.612,0.262-0.955c-0.087-0.342-0.349-0.613-0.688-0.712 C65.039,57.226,57.929,66.187,53,69c-2.591,1.479-5.571,1.619-7-1c-5.473-10.033-9.281-10.083-11.426-7.738 c-0.346,0.378-0.349,0.955-0.01,1.337C40.778,68.609,37,79,37,79l2.727,2.182l30.976-17.884L72.926,61.075z"/></g></g></g><g id="R-Blue" style="display:none"><circle style="display:inline;fill:#81d2eb" cx="55" cy="55" r="55"/><g style="display:inline"><g><path style="fill:#bbe7f2" d="M37,79c0,0,3.778-10.391-2.436-17.4c-0.339-0.383-0.336-0.96,0.01-1.338 C36.719,57.917,40.527,57.967,46,68c1.429,2.619,4.409,2.479,7,1c4.929-2.813,12.039-11.774,19.5-9.592 c0.339,0.099,0.601,0.37,0.688,0.712c0.088,0.342-0.013,0.705-0.262,0.955L47,87L37,79z"/></g><g><path style="fill:#009fc7" d="M87,58c0,0.552-0.447,1-1,1H24c-0.553,0-1-0.448-1-1v-2c0-0.552,0.447-1,1-1h62 c0.553,0,1,0.448,1,1V58z"/></g><g><path style="fill:#fff" d="M55,27c1.042,0,2.034,0.046,3,0.115V24c0-0.552-0.447-1-1-1h-4c-0.553,0-1,0.448-1,1v3.115 C52.966,27.046,53.958,27,55,27z"/></g><g><path style="fill:#e1f5fa" d="M27,55c0,0-1-28,28-28s28,28,28,28H27z"/></g><g><polygon style="fill:#0c333d" points="37 79 27 87 47 87"/></g><g><path style="fill:#fff" d="M55,27c-29,0-28,28-28,28h28V27z"/></g><g><path style="fill:#bbe7f2" d="M37,79c0,0,3.778-10.391-2.436-17.4c-0.339-0.383-0.336-0.96,0.01-1.338 C36.719,57.917,40.527,57.967,46,68c1.429,2.619,4.409,2.479,7,1c4.929-2.813,12.039-11.774,19.5-9.592 c0.339,0.099,0.601,0.37,0.688,0.712c0.088,0.342-0.013,0.705-0.262,0.955L47,87L37,79z"/></g><g><path style="fill:#e1f5fa" d="M72.926,61.075c0.249-0.25,0.35-0.612,0.262-0.955c-0.087-0.342-0.349-0.613-0.688-0.712 C65.039,57.226,57.929,66.187,53,69c-2.591,1.479-5.571,1.619-7-1c-5.473-10.033-9.281-10.083-11.426-7.738 c-0.346,0.378-0.349,0.955-0.01,1.337C40.778,68.609,37,79,37,79l2.727,2.182l30.976-17.884L72.926,61.075z"/></g></g></g><g id="Green" style="display:none"><g style="display:inline"><g><path style="fill:#aaf0e9" d="M37,79c0,0,3.778-10.391-2.436-17.4c-0.339-0.383-0.336-0.96,0.01-1.338 C36.719,57.917,40.527,57.967,46,68c1.429,2.619,4.409,2.479,7,1c4.929-2.813,12.039-11.774,19.5-9.592 c0.339,0.099,0.601,0.37,0.688,0.712c0.088,0.342-0.013,0.705-0.262,0.955L47,87L37,79z"/></g><g><path style="fill:#00b8a5" d="M87,58c0,0.552-0.447,1-1,1H24c-0.553,0-1-0.448-1-1v-2c0-0.552,0.447-1,1-1h62 c0.553,0,1,0.448,1,1V58z"/></g><g><path style="fill:#fff" d="M55,27c1.042,0,2.034,0.046,3,0.115V24c0-0.552-0.447-1-1-1h-4c-0.553,0-1,0.448-1,1v3.115 C52.966,27.046,53.958,27,55,27z"/></g><g><path style="fill:#d7fcf9" d="M27,55c0,0-1-28,28-28s28,28,28,28H27z"/></g><g><polygon style="fill:#0a3631" points="37 79 27 87 47 87"/></g><g><path style="fill:#fff" d="M55,27c-29,0-28,28-28,28h28V27z"/></g><g><path style="fill:#aaf0e9" d="M37,79c0,0,3.778-10.391-2.436-17.4c-0.339-0.383-0.336-0.96,0.01-1.338 C36.719,57.917,40.527,57.967,46,68c1.429,2.619,4.409,2.479,7,1c4.929-2.813,12.039-11.774,19.5-9.592 c0.339,0.099,0.601,0.37,0.688,0.712c0.088,0.342-0.013,0.705-0.262,0.955L47,87L37,79z"/></g><g><path style="fill:#d7fcf9" d="M72.926,61.075c0.249-0.25,0.35-0.612,0.262-0.955c-0.087-0.342-0.349-0.613-0.688-0.712 C65.039,57.226,57.929,66.187,53,69c-2.591,1.479-5.571,1.619-7-1c-5.473-10.033-9.281-10.083-11.426-7.738 c-0.346,0.377-0.349,0.955-0.01,1.337C40.778,68.609,37,79,37,79l2.727,2.182l30.976-17.884L72.926,61.075z"/></g></g></g><g id="R-Green" style="display:none"><circle style="display:inline;fill:#77e0c4" cx="55" cy="55" r="55"/><g style="display:inline"><g><path style="fill:#aaf0e9" d="M37,79c0,0,3.778-10.391-2.436-17.4c-0.339-0.383-0.336-0.96,0.01-1.338 C36.719,57.917,40.527,57.967,46,68c1.429,2.619,4.409,2.479,7,1c4.929-2.813,12.039-11.774,19.5-9.592 c0.339,0.099,0.601,0.37,0.688,0.712c0.088,0.342-0.013,0.705-0.262,0.955L47,87L37,79z"/></g><g><path style="fill:#00b8a5" d="M87,58c0,0.552-0.447,1-1,1H24c-0.553,0-1-0.448-1-1v-2c0-0.552,0.447-1,1-1h62 c0.553,0,1,0.448,1,1V58z"/></g><g><path style="fill:#fff" d="M55,27c1.042,0,2.034,0.046,3,0.115V24c0-0.552-0.447-1-1-1h-4c-0.553,0-1,0.448-1,1v3.115 C52.966,27.046,53.958,27,55,27z"/></g><g><path style="fill:#d7fcf9" d="M27,55c0,0-1-28,28-28s28,28,28,28H27z"/></g><g><polygon style="fill:#0a3631" points="37 79 27 87 47 87"/></g><g><path style="fill:#fff" d="M55,27c-29,0-28,28-28,28h28V27z"/></g><g><path style="fill:#aaf0e9" d="M37,79c0,0,3.778-10.391-2.436-17.4c-0.339-0.383-0.336-0.96,0.01-1.338 C36.719,57.917,40.527,57.967,46,68c1.429,2.619,4.409,2.479,7,1c4.929-2.813,12.039-11.774,19.5-9.592 c0.339,0.099,0.601,0.37,0.688,0.712c0.088,0.342-0.013,0.705-0.262,0.955L47,87L37,79z"/></g><g><path style="fill:#d7fcf9" d="M72.926,61.075c0.249-0.25,0.35-0.612,0.262-0.955c-0.087-0.342-0.349-0.613-0.688-0.712 C65.039,57.226,57.929,66.187,53,69c-2.591,1.479-5.571,1.619-7-1c-5.473-10.033-9.281-10.083-11.426-7.738 c-0.346,0.377-0.349,0.955-0.01,1.337C40.778,68.609,37,79,37,79l2.727,2.182l30.975-17.884L72.926,61.075z"/></g></g></g><g id="Red" style="display:none"><g style="display:inline"><g><path style="fill:#ffd7d4" d="M37,79c0,0,3.778-10.391-2.436-17.4c-0.339-0.383-0.336-0.96,0.01-1.338 C36.719,57.917,40.527,57.967,46,68c1.429,2.619,4.409,2.479,7,1c4.929-2.813,12.039-11.774,19.5-9.592 c0.339,0.099,0.601,0.37,0.687,0.712c0.088,0.342-0.013,0.705-0.262,0.955L47,87L37,79z"/></g><g><path style="fill:#e54b44" d="M87,58c0,0.552-0.447,1-1,1H24c-0.553,0-1-0.448-1-1v-2c0-0.552,0.447-1,1-1h62 c0.553,0,1,0.448,1,1V58z"/></g><g><path style="fill:#fff" d="M55,27c1.042,0,2.034,0.046,3,0.115V24c0-0.552-0.447-1-1-1h-4c-0.553,0-1,0.448-1,1v3.115 C52.966,27.046,53.958,27,55,27z"/></g><g><path style="fill:#ffefed" d="M27,55c0,0-1-28,28-28s28,28,28,28H27z"/></g><g><polygon style="fill:#4a1410" points="37 79 27 87 47 87"/></g><g><path style="fill:#fff" d="M55,27c-29,0-28,28-28,28h28V27z"/></g><g><path style="fill:#ffd7d4" d="M37,79c0,0,3.778-10.391-2.436-17.4c-0.339-0.383-0.336-0.96,0.01-1.338 C36.719,57.917,40.527,57.967,46,68c1.429,2.619,4.409,2.479,7,1c4.929-2.813,12.039-11.774,19.5-9.592 c0.339,0.099,0.601,0.37,0.687,0.712c0.088,0.342-0.013,0.705-0.262,0.955L47,87L37,79z"/></g><g><path style="fill:#ffefed" d="M72.926,61.075c0.249-0.25,0.35-0.612,0.262-0.955c-0.087-0.342-0.349-0.613-0.687-0.712 C65.039,57.226,57.929,66.187,53,69c-2.591,1.479-5.571,1.619-7-1c-5.473-10.033-9.281-10.083-11.426-7.738 c-0.346,0.377-0.349,0.955-0.01,1.337C40.778,68.609,37,79,37,79l2.727,2.182l30.975-17.884L72.926,61.075z"/></g></g></g><g id="R-Red" style="display:none"><circle style="display:inline;fill:#fabbaf" cx="55" cy="55" r="55"/><g style="display:inline"><g><path style="fill:#ffd7d4" d="M37,79c0,0,3.778-10.391-2.436-17.4c-0.339-0.383-0.336-0.96,0.01-1.338 C36.719,57.917,40.527,57.967,46,68c1.429,2.619,4.409,2.479,7,1c4.929-2.813,12.039-11.774,19.5-9.592 c0.339,0.099,0.601,0.37,0.687,0.712c0.088,0.342-0.013,0.705-0.262,0.955L47,87L37,79z"/></g><g><path style="fill:#e54b44" d="M87,58c0,0.552-0.447,1-1,1H24c-0.553,0-1-0.448-1-1v-2c0-0.552,0.447-1,1-1h62 c0.553,0,1,0.448,1,1V58z"/></g><g><path style="fill:#fff" d="M55,27c1.042,0,2.034,0.046,3,0.115V24c0-0.552-0.447-1-1-1h-4c-0.553,0-1,0.448-1,1v3.115 C52.966,27.046,53.958,27,55,27z"/></g><g><path style="fill:#ffefed" d="M27,55c0,0-1-28,28-28s28,28,28,28H27z"/></g><g><polygon style="fill:#4a1410" points="37 79 27 87 47 87"/></g><g><path style="fill:#fff" d="M55,27c-29,0-28,28-28,28h28V27z"/></g><g><path style="fill:#ffd7d4" d="M37,79c0,0,3.778-10.391-2.436-17.4c-0.339-0.383-0.336-0.96,0.01-1.338 C36.719,57.917,40.527,57.967,46,68c1.429,2.619,4.409,2.479,7,1c4.929-2.813,12.039-11.774,19.5-9.592 c0.339,0.099,0.601,0.37,0.687,0.712c0.088,0.342-0.013,0.705-0.262,0.955L47,87L37,79z"/></g><g><path style="fill:#ffefed" d="M72.926,61.075c0.249-0.25,0.35-0.612,0.262-0.955c-0.087-0.342-0.349-0.613-0.687-0.712 C65.039,57.226,57.929,66.187,53,69c-2.591,1.479-5.571,1.619-7-1c-5.473-10.033-9.281-10.083-11.426-7.738 c-0.346,0.377-0.349,0.955-0.01,1.337C40.778,68.609,37,79,37,79l2.727,2.182l30.975-17.884L72.926,61.075z"/></g></g></g><g id="Yellow" style="display:none"><g style="display:inline"><g><path style="fill:#ffe9a1" d="M37,79c0,0,3.778-10.391-2.436-17.4c-0.339-0.383-0.336-0.96,0.01-1.338 C36.719,57.917,40.527,57.967,46,68c1.429,2.619,4.409,2.479,7,1c4.929-2.813,12.039-11.774,19.5-9.592 c0.339,0.099,0.601,0.37,0.688,0.712c0.088,0.342-0.013,0.705-0.262,0.955L47,87L37,79z"/></g><g><path style="fill:#fa9200" d="M87,58c0,0.552-0.447,1-1,1H24c-0.553,0-1-0.448-1-1v-2c0-0.552,0.447-1,1-1h62 c0.553,0,1,0.448,1,1V58z"/></g><g><path style="fill:#fff" d="M55,27c1.042,0,2.034,0.046,3,0.115V24c0-0.552-0.447-1-1-1h-4c-0.553,0-1,0.448-1,1v3.115 C52.966,27.046,53.958,27,55,27z"/></g><g><path style="fill:#fff5d9" d="M27,55c0,0-1-28,28-28s28,28,28,28H27z"/></g><g><polygon style="fill:#3d320c" points="37 79 27 87 47 87"/></g><g><path style="fill:#fff" d="M55,27c-29,0-28,28-28,28h28V27z"/></g><g><path style="fill:#ffe9a1" d="M37,79c0,0,3.778-10.391-2.436-17.4c-0.339-0.383-0.336-0.96,0.01-1.338 C36.719,57.917,40.527,57.967,46,68c1.429,2.619,4.409,2.479,7,1c4.929-2.813,12.039-11.774,19.5-9.592 c0.339,0.099,0.601,0.37,0.688,0.712c0.088,0.342-0.013,0.705-0.262,0.955L47,87L37,79z"/></g><g><path style="fill:#fff5d9" d="M72.926,61.075c0.249-0.25,0.35-0.612,0.262-0.955c-0.087-0.342-0.349-0.613-0.688-0.712 C65.039,57.226,57.929,66.187,53,69c-2.591,1.479-5.571,1.619-7-1c-5.473-10.033-9.281-10.083-11.426-7.738 c-0.346,0.377-0.349,0.955-0.01,1.337C40.778,68.609,37,79,37,79l2.727,2.182l30.976-17.884L72.926,61.075z"/></g></g></g><g id="R-Yellow" style="display:none"><circle style="display:inline;fill:#ffd75e" cx="55" cy="55" r="55"/><g style="display:inline"><g><path style="fill:#ffe9a1" d="M37,79c0,0,3.778-10.391-2.436-17.4c-0.339-0.383-0.336-0.96,0.01-1.338 C36.719,57.917,40.527,57.967,46,68c1.429,2.619,4.409,2.479,7,1c4.929-2.813,12.039-11.774,19.5-9.592 c0.339,0.099,0.601,0.37,0.688,0.712c0.088,0.342-0.013,0.705-0.262,0.955L47,87L37,79z"/></g><g><path style="fill:#fa9200" d="M87,58c0,0.552-0.447,1-1,1H24c-0.553,0-1-0.448-1-1v-2c0-0.552,0.447-1,1-1h62 c0.553,0,1,0.448,1,1V58z"/></g><g><path style="fill:#fff" d="M55,27c1.042,0,2.034,0.046,3,0.115V24c0-0.552-0.447-1-1-1h-4c-0.553,0-1,0.448-1,1v3.115 C52.966,27.046,53.958,27,55,27z"/></g><g><path style="fill:#fff5d9" d="M27,55c0,0-1-28,28-28s28,28,28,28H27z"/></g><g><polygon style="fill:#3d320c" points="37 79 27 87 47 87"/></g><g><path style="fill:#fff" d="M55,27c-29,0-28,28-28,28h28V27z"/></g><g><path style="fill:#ffe9a1" d="M37,79c0,0,3.778-10.391-2.436-17.4c-0.339-0.383-0.336-0.96,0.01-1.338 C36.719,57.917,40.527,57.967,46,68c1.429,2.619,4.409,2.479,7,1c4.929-2.813,12.039-11.774,19.5-9.592 c0.339,0.099,0.601,0.37,0.688,0.712c0.088,0.342-0.013,0.705-0.262,0.955L47,87L37,79z"/></g><g><path style="fill:#fff5d9" d="M72.926,61.075c0.249-0.25,0.35-0.612,0.262-0.955c-0.087-0.342-0.349-0.613-0.688-0.712 C65.039,57.226,57.929,66.187,53,69c-2.591,1.479-5.571,1.619-7-1c-5.473-10.033-9.281-10.083-11.426-7.738 c-0.346,0.377-0.349,0.955-0.01,1.337C40.778,68.609,37,79,37,79l2.727,2.182l30.976-17.884L72.926,61.075z"/></g></g></g></svg>