<svg xmlns="http://www.w3.org/2000/svg" xmlns:xlink="http://www.w3.org/1999/xlink" width="110" height="110" x="0" y="0" version="1.0" viewBox="0 0 110 110" xml:space="preserve" style="enable-background:new 0 0 110 110"><g id="Artboard" style="display:none"><rect style="display:inline;fill:#8c8c8c" width="1412" height="743" x="-479" y="-199"/></g><g id="R-Multicolor" style="display:none"><circle style="display:inline;fill:#e04f5f" cx="55" cy="55" r="55"/><g style="display:inline"><path style="fill:#facb1b" d="M75,23L49.792,48.208C47.668,47.44,45.388,47,43,47c-11.046,0-20,8.954-20,20s8.954,20,20,20 s20-8.954,20-20c0-2.388-0.44-4.668-1.208-6.792L63,59v-8h8v-8h8v-8h8V23H75z M47.595,76.204c-0.2,0.955-0.869,1.744-1.777,2.1 c-3.631,1.422-7.918,0.666-10.853-2.269c-2.935-2.934-3.691-7.223-2.268-10.855c0.356-0.909,1.146-1.577,2.102-1.776 c0.956-0.199,1.946,0.098,2.636,0.788l9.375,9.375C47.5,74.257,47.795,75.249,47.595,76.204z"/><path style="fill:#fbe158" d="M87,23H75L49.792,48.208C47.668,47.44,45.388,47,43,47c-11.046,0-20,8.954-20,20 c0,5.701,2.397,10.832,6.224,14.475l5.602-5.602c-2.809-2.929-3.526-7.124-2.128-10.693c0.356-0.909,1.146-1.577,2.102-1.776 c0.956-0.199,1.946,0.098,2.636,0.788l4.536,4.536L87,23.698V23z"/><path style="fill:#f3b607" d="M55,49c-0.552-0.552-0.552-1.448,0-2l22-22h4L57,49C56.448,49.552,55.552,49.552,55,49z"/></g></g><g id="Multicolor"><g><path style="fill:#facb1b" d="M75,23L49.792,48.208C47.668,47.44,45.388,47,43,47c-11.046,0-20,8.954-20,20s8.954,20,20,20 s20-8.954,20-20c0-2.388-0.44-4.668-1.208-6.792L63,59v-8h8v-8h8v-8h8V23H75z M47.595,76.204c-0.2,0.955-0.869,1.744-1.777,2.1 c-3.631,1.422-7.918,0.666-10.853-2.269c-2.935-2.934-3.691-7.223-2.268-10.855c0.356-0.909,1.146-1.577,2.102-1.776 c0.956-0.199,1.946,0.098,2.636,0.788l9.375,9.375C47.5,74.257,47.795,75.249,47.595,76.204z"/><path style="fill:#fbe158" d="M87,23H75L49.792,48.208C47.668,47.44,45.388,47,43,47c-11.046,0-20,8.954-20,20 c0,5.701,2.397,10.832,6.224,14.475l5.602-5.602c-2.809-2.929-3.526-7.124-2.128-10.693c0.356-0.909,1.146-1.577,2.102-1.776 c0.956-0.199,1.946,0.098,2.636,0.788l4.536,4.536L87,23.698V23z"/><path style="fill:#f3b607" d="M55,49c-0.552-0.552-0.552-1.448,0-2l22-22h4L57,49C56.448,49.552,55.552,49.552,55,49z"/></g></g><g id="Blue" style="display:none"><g style="display:inline"><g><path style="fill:#e1f5fa" d="M75.003,23L49.794,48.207C47.671,47.44,45.391,47,43.003,47c-11.046,0-20,8.954-20,20 c0,11.046,8.954,20,20,20s20-8.954,20-20c0-2.388-0.44-4.668-1.208-6.792L63.003,59v-8h8v-8h8v-8h8V23H75.003z M47.598,76.204 c-0.2,0.955-0.869,1.744-1.777,2.1c-3.632,1.422-7.919,0.666-10.853-2.269c-2.935-2.934-3.691-7.223-2.268-10.855 c0.356-0.909,1.146-1.577,2.102-1.776c0.956-0.199,1.946,0.098,2.636,0.788l9.375,9.374 C47.502,74.257,47.798,75.248,47.598,76.204z"/></g><g><path style="fill:#fff" d="M87.003,23h-12L49.794,48.207C47.671,47.44,45.391,47,43.003,47c-11.046,0-20,8.954-20,20 c0,5.701,2.397,10.832,6.224,14.475l5.602-5.602c-2.809-2.928-3.526-7.124-2.128-10.692c0.356-0.909,1.146-1.577,2.102-1.776 c0.956-0.199,1.946,0.098,2.636,0.788l4.536,4.535l45.029-45.029V23z"/></g><g><path style="fill:#81d2eb" d="M55.003,49c-0.552-0.552-0.552-1.448,0-2l22-22h4l-24,24C56.451,49.552,55.555,49.552,55.003,49z"/></g></g></g><g id="R-Blue" style="display:none"><g style="display:inline"><circle style="fill:#81d2eb" cx="55" cy="55" r="55"/></g><g style="display:inline"><g><path style="fill:#e1f5fa" d="M75,23L49.792,48.208C47.668,47.44,45.388,47,43,47c-11.046,0-20,8.954-20,20s8.954,20,20,20 s20-8.954,20-20c0-2.388-0.44-4.668-1.208-6.792L63,59v-8h8v-8h8v-8h8V23H75z M47.595,76.204c-0.2,0.955-0.869,1.744-1.777,2.1 c-3.632,1.422-7.919,0.666-10.853-2.269c-2.935-2.934-3.691-7.223-2.268-10.855c0.356-0.909,1.146-1.577,2.102-1.776 c0.956-0.199,1.946,0.098,2.636,0.788l9.375,9.375C47.5,74.257,47.795,75.248,47.595,76.204z"/></g><g><path style="fill:#fff" d="M87,23H75L49.792,48.208C47.668,47.44,45.388,47,43,47c-11.046,0-20,8.954-20,20 c0,5.701,2.397,10.831,6.224,14.475l5.602-5.602c-2.809-2.928-3.526-7.124-2.128-10.692c0.356-0.909,1.146-1.577,2.102-1.776 c0.956-0.199,1.946,0.098,2.636,0.788l4.536,4.535L87,23.698V23z"/></g><g><path style="fill:#81d2eb" d="M55,49c-0.552-0.552-0.552-1.448,0-2l22-22h4L57,49C56.448,49.552,55.552,49.552,55,49z"/></g></g></g><g id="Green" style="display:none"><g style="display:inline"><g><path style="fill:#d7fcf9" d="M75.003,23L49.794,48.208C47.671,47.44,45.391,47,43.003,47c-11.046,0-20,8.954-20,20 s8.954,20,20,20s20-8.954,20-20c0-2.388-0.44-4.668-1.208-6.792L63.003,59v-8h8v-8h8v-8h8V23H75.003z M47.598,76.204 c-0.2,0.955-0.869,1.744-1.777,2.1c-3.632,1.422-7.919,0.666-10.853-2.269c-2.935-2.934-3.691-7.223-2.268-10.855 c0.356-0.909,1.146-1.577,2.102-1.776c0.956-0.199,1.946,0.098,2.636,0.788l9.375,9.375 C47.502,74.257,47.798,75.248,47.598,76.204z"/></g><g><path style="fill:#fff" d="M87.003,23h-12L49.794,48.208C47.671,47.44,45.391,47,43.003,47c-11.046,0-20,8.954-20,20 c0,5.701,2.397,10.831,6.224,14.475l5.602-5.602c-2.809-2.928-3.526-7.124-2.128-10.692c0.356-0.909,1.146-1.577,2.102-1.776 c0.956-0.199,1.946,0.098,2.636,0.788l4.536,4.535l45.029-45.029V23z"/></g><g><path style="fill:#87e0c8" d="M55.003,49c-0.552-0.552-0.552-1.448,0-2l22-22h4l-24,24C56.451,49.552,55.555,49.552,55.003,49z"/></g></g></g><g id="R-Green" style="display:none"><g style="display:inline"><circle style="fill:#87e0c8" cx="55" cy="55" r="55"/></g><g style="display:inline"><g><path style="fill:#d7fcf9" d="M75,23L49.792,48.208C47.668,47.44,45.388,47,43,47c-11.046,0-20,8.954-20,20s8.954,20,20,20 s20-8.954,20-20c0-2.388-0.44-4.668-1.208-6.792L63,59v-8h8v-8h8v-8h8V23H75z M47.595,76.204c-0.2,0.955-0.869,1.744-1.777,2.1 c-3.632,1.422-7.919,0.666-10.853-2.269c-2.935-2.934-3.691-7.223-2.268-10.855c0.356-0.909,1.146-1.577,2.102-1.776 c0.956-0.199,1.946,0.098,2.636,0.788l9.375,9.375C47.5,74.257,47.795,75.248,47.595,76.204z"/></g><g><path style="fill:#fff" d="M87,23H75L49.792,48.208C47.668,47.44,45.388,47,43,47c-11.046,0-20,8.954-20,20 c0,5.701,2.397,10.831,6.224,14.475l5.602-5.602c-2.809-2.928-3.526-7.124-2.128-10.692c0.356-0.909,1.146-1.577,2.102-1.776 c0.956-0.199,1.946,0.098,2.636,0.788l4.536,4.535L87,23.698V23z"/></g><g><path style="fill:#87e0c8" d="M55,49c-0.552-0.552-0.552-1.448,0-2l22-22h4L57,49C56.448,49.552,55.552,49.552,55,49z"/></g></g></g><g id="Red" style="display:none"><g style="display:inline"><g><path style="fill:#ffefed" d="M75,23L49.792,48.207C47.668,47.44,45.388,47,43,47c-11.046,0-20,8.954-20,20 c0,11.046,8.954,20,20,20s20-8.954,20-20c0-2.388-0.44-4.668-1.208-6.792L63,59v-8h8v-8h8v-8h8V23H75z M47.595,76.204 c-0.2,0.955-0.869,1.744-1.777,2.1c-3.632,1.422-7.919,0.666-10.853-2.269c-2.935-2.934-3.691-7.223-2.268-10.855 c0.356-0.909,1.146-1.577,2.102-1.776c0.956-0.199,1.946,0.098,2.636,0.788l9.375,9.374C47.5,74.257,47.795,75.248,47.595,76.204 z"/></g><g><path style="fill:#fff" d="M87,23H75L49.792,48.207C47.668,47.44,45.388,47,43,47c-11.046,0-20,8.954-20,20 c0,5.701,2.397,10.832,6.224,14.475l5.602-5.602c-2.809-2.928-3.526-7.124-2.128-10.692c0.356-0.909,1.146-1.577,2.102-1.776 c0.956-0.199,1.946,0.098,2.636,0.788l4.536,4.535L87,23.698V23z"/></g><g><path style="fill:#fabbaf" d="M55,49c-0.552-0.552-0.552-1.448,0-2l22-22h4L57,49C56.448,49.552,55.552,49.552,55,49z"/></g></g></g><g id="R-Red" style="display:none"><g style="display:inline"><circle style="fill:#fabbaf" cx="55" cy="55" r="55"/></g><g style="display:inline"><g><path style="fill:#ffefed" d="M75,23L49.792,48.208C47.668,47.44,45.388,47,43,47c-11.046,0-20,8.954-20,20s8.954,20,20,20 s20-8.954,20-20c0-2.388-0.44-4.668-1.208-6.792L63,59v-8h8v-8h8v-8h8V23H75z M47.595,76.204c-0.2,0.955-0.869,1.744-1.777,2.1 c-3.632,1.422-7.919,0.666-10.853-2.269c-2.935-2.934-3.691-7.223-2.268-10.855c0.356-0.909,1.146-1.577,2.102-1.776 c0.956-0.199,1.946,0.098,2.636,0.788l9.375,9.375C47.5,74.257,47.795,75.248,47.595,76.204z"/></g><g><path style="fill:#fff" d="M87,23H75L49.792,48.208C47.668,47.44,45.388,47,43,47c-11.046,0-20,8.954-20,20 c0,5.701,2.397,10.831,6.224,14.475l5.602-5.602c-2.809-2.928-3.526-7.124-2.128-10.692c0.356-0.909,1.146-1.577,2.102-1.776 c0.956-0.199,1.946,0.098,2.636,0.788l4.536,4.535L87,23.698V23z"/></g><g><path style="fill:#fabbaf" d="M55,49c-0.552-0.552-0.552-1.448,0-2l22-22h4L57,49C56.448,49.552,55.552,49.552,55,49z"/></g></g></g><g id="Yellow" style="display:none"><g style="display:inline"><g><path style="fill:#fff5d9" d="M75.003,23L49.794,48.207C47.671,47.44,45.391,47,43.003,47c-11.046,0-20,8.954-20,20 s8.954,20,20,20s20-8.954,20-20c0-2.388-0.44-4.668-1.208-6.792L63.003,59v-8h8v-8h8v-8h8V23H75.003z M47.598,76.204 c-0.2,0.955-0.869,1.744-1.777,2.1c-3.632,1.422-7.919,0.666-10.853-2.269c-2.935-2.934-3.691-7.223-2.268-10.855 c0.356-0.909,1.146-1.577,2.102-1.776c0.956-0.199,1.946,0.098,2.636,0.788l9.375,9.374 C47.502,74.257,47.798,75.248,47.598,76.204z"/></g><g><path style="fill:#fff" d="M87.003,23h-12L49.794,48.207C47.671,47.44,45.391,47,43.003,47c-11.046,0-20,8.954-20,20 c0,5.701,2.397,10.832,6.224,14.475l5.602-5.602c-2.809-2.928-3.526-7.124-2.128-10.692c0.356-0.909,1.146-1.577,2.102-1.776 c0.956-0.199,1.946,0.098,2.636,0.788l4.536,4.535l45.029-45.029V23z"/></g><g><path style="fill:#ffd75e" d="M55.003,49c-0.552-0.552-0.552-1.448,0-2l22-22h4l-24,24C56.451,49.552,55.555,49.552,55.003,49z"/></g></g></g><g id="R-Yellow" style="display:none"><g style="display:inline"><circle style="fill:#ffd75e" cx="55" cy="55" r="55"/></g><g style="display:inline"><g><path style="fill:#fff5d9" d="M75,23L49.792,48.208C47.668,47.44,45.388,47,43,47c-11.046,0-20,8.954-20,20s8.954,20,20,20 s20-8.954,20-20c0-2.388-0.44-4.668-1.208-6.792L63,59v-8h8v-8h8v-8h8V23H75z M47.595,76.204c-0.2,0.955-0.869,1.744-1.777,2.1 c-3.632,1.422-7.918,0.666-10.853-2.269c-2.935-2.934-3.691-7.223-2.268-10.855c0.356-0.909,1.146-1.577,2.102-1.776 c0.956-0.199,1.946,0.098,2.636,0.788l9.375,9.375C47.5,74.257,47.795,75.248,47.595,76.204z"/></g><g><path style="fill:#fff" d="M87,23H75L49.792,48.208C47.668,47.44,45.388,47,43,47c-11.046,0-20,8.954-20,20 c0,5.701,2.396,10.831,6.224,14.475l5.602-5.602c-2.809-2.928-3.526-7.124-2.128-10.692c0.356-0.909,1.146-1.577,2.102-1.776 c0.956-0.199,1.946,0.098,2.636,0.788l4.536,4.535L87,23.698V23z"/></g><g><path style="fill:#ffd75e" d="M55,49c-0.552-0.552-0.552-1.448,0-2l22-22h4L57,49C56.448,49.552,55.552,49.552,55,49z"/></g></g></g></svg>