<svg xmlns="http://www.w3.org/2000/svg" xmlns:xlink="http://www.w3.org/1999/xlink" width="110" height="110" x="0" y="0" version="1.0" viewBox="0 0 110 110" xml:space="preserve" style="enable-background:new 0 0 110 110"><g id="Artboard" style="display:none"><rect style="display:inline;fill:#8c8c8c" width="1412" height="743" x="-59" y="-591"/></g><g id="R-Multicolor" style="display:none"><circle style="display:inline;fill:#e04f5f" cx="55" cy="55" r="55"/><g style="display:inline"><rect style="fill:#f0f1f1" width="64" height="48" x="23" y="31"/><path style="fill:#e2e4e5" d="M60.979,49.685C59.461,47.977,57.285,47,55,47s-4.461,0.977-5.979,2.685L23,78.958h64 L60.979,49.685z"/><path style="fill:#fff" d="M49.021,60.273c1.518,1.708,3.694,2.685,5.979,2.685s4.461-0.977,5.979-2.685L87,31H23 L49.021,60.273z"/><g><path style="fill:#df2c2c" d="M54.966,65.397c0,0,11.965-6.902,11.965-14.531c0-7.629-11.965-7.439-11.965-1.615 c0-5.824-11.966-6.014-11.966,2.202S54.966,65.397,54.966,65.397z"/></g></g></g><g id="Multicolor"><g><rect style="fill:#f0f1f1" width="64" height="48" x="23" y="31"/><path style="fill:#e2e4e5" d="M60.979,49.685C59.461,47.977,57.285,47,55,47s-4.461,0.977-5.979,2.685L23,78.958h64 L60.979,49.685z"/><path style="fill:#fff" d="M49.021,60.273c1.518,1.708,3.694,2.685,5.979,2.685s4.461-0.977,5.979-2.685L87,31H23 L49.021,60.273z"/><g><path style="fill:#df2c2c" d="M54.966,65.397c0,0,11.965-6.902,11.965-14.531c0-7.629-11.965-7.439-11.965-1.615 c0-5.824-11.966-6.014-11.966,2.202S54.966,65.397,54.966,65.397z"/></g></g></g><g id="Blue" style="display:none"><g style="display:inline"><g><rect style="fill:#e1f5fa" width="64" height="48" x="23" y="31"/></g><g><path style="fill:#bbe7f2" d="M60.979,49.685C59.461,47.978,57.285,47,55,47s-4.461,0.978-5.979,2.685L23,78.959h64 L60.979,49.685z"/></g><g><path style="fill:#fff" d="M49.021,60.273c1.519,1.708,3.694,2.685,5.979,2.685s4.461-0.977,5.979-2.685L87,31H23 L49.021,60.273z"/></g><g><g><path style="fill:#00b7e5" d="M54.966,65.397c0,0,11.965-6.902,11.965-14.531s-11.965-7.438-11.965-1.615 c0-5.824-11.966-6.014-11.966,2.202C43,59.669,54.966,65.397,54.966,65.397z"/></g></g></g></g><g id="R-Blue" style="display:none"><g style="display:inline"><circle style="fill:#81d2eb" cx="55" cy="55" r="55"/></g><g style="display:inline"><g><rect style="fill:#e1f5fa" width="64" height="48" x="23" y="31"/></g><g><path style="fill:#bbe7f2" d="M60.979,49.685C59.461,47.978,57.285,47,55,47s-4.461,0.978-5.979,2.685L23,78.959h64 L60.979,49.685z"/></g><g><path style="fill:#fff" d="M49.021,60.273c1.519,1.708,3.694,2.685,5.979,2.685s4.461-0.977,5.979-2.685L87,31H23 L49.021,60.273z"/></g><g><g><path style="fill:#00b7e5" d="M54.966,65.397c0,0,11.965-6.902,11.965-14.531s-11.965-7.438-11.965-1.615 c0-5.824-11.966-6.014-11.966,2.202C43,59.669,54.966,65.397,54.966,65.397z"/></g></g></g></g><g id="Green" style="display:none"><g style="display:inline"><g><rect style="fill:#d7fcf9" width="64" height="48" x="23" y="31"/></g><g><path style="fill:#aaf0e9" d="M60.979,49.685C59.461,47.978,57.285,47,55,47c-2.285,0-4.461,0.978-5.979,2.685L23,78.959h64 L60.979,49.685z"/></g><g><path style="fill:#fff" d="M49.02,60.273c1.519,1.708,3.694,2.685,5.979,2.685c2.285,0,4.461-0.977,5.979-2.685L87,31H23 L49.02,60.273z"/></g><g><g><path style="fill:#00d6c1" d="M54.966,65.397c0,0,11.965-6.902,11.965-14.531s-11.965-7.438-11.965-1.615 c0-5.824-11.966-6.014-11.966,2.202C43,59.669,54.966,65.397,54.966,65.397z"/></g></g></g></g><g id="R-Green" style="display:none"><g style="display:inline"><circle style="fill:#87e0c8" cx="55" cy="55" r="55"/></g><g style="display:inline"><g><rect style="fill:#d7fcf9" width="64" height="48" x="23" y="31"/></g><g><path style="fill:#aaf0e9" d="M60.979,49.685C59.461,47.978,57.285,47,55,47c-2.285,0-4.461,0.978-5.979,2.685L23,78.959h64 L60.979,49.685z"/></g><g><path style="fill:#fff" d="M49.02,60.273c1.519,1.708,3.694,2.685,5.979,2.685c2.285,0,4.461-0.977,5.979-2.685L87,31H23 L49.02,60.273z"/></g><g><g><path style="fill:#00d6c1" d="M54.965,65.397c0,0,11.965-6.902,11.965-14.531s-11.965-7.438-11.965-1.615 c0-5.824-11.966-6.014-11.966,2.202C43,59.669,54.965,65.397,54.965,65.397z"/></g></g></g></g><g id="Red" style="display:none"><g style="display:inline"><g><rect style="fill:#ffefed" width="64" height="48" x="22.896" y="31"/></g><g><path style="fill:#ffd7d4" d="M60.875,49.685C59.357,47.978,57.181,47,54.896,47s-4.461,0.978-5.979,2.685L22.896,78.959h64 L60.875,49.685z"/></g><g><path style="fill:#fff" d="M48.917,60.273c1.519,1.708,3.694,2.685,5.979,2.685s4.461-0.977,5.979-2.685L86.896,31h-64 L48.917,60.273z"/></g><g><g><path style="fill:#ff6c5e" d="M54.862,65.397c0,0,11.965-6.902,11.965-14.531s-11.965-7.438-11.965-1.615 c0-5.824-11.966-6.014-11.966,2.202C42.896,59.669,54.862,65.397,54.862,65.397z"/></g></g></g></g><g id="R-Red" style="display:none"><g style="display:inline"><circle style="fill:#fabbaf" cx="55" cy="55" r="55"/></g><g style="display:inline"><g><rect style="fill:#ffefed" width="64" height="48" x="23" y="31"/></g><g><path style="fill:#ffd7d4" d="M60.979,49.685C59.461,47.978,57.285,47,55,47s-4.461,0.978-5.979,2.685L23,78.959h64 L60.979,49.685z"/></g><g><path style="fill:#fff" d="M49.021,60.273c1.519,1.708,3.694,2.685,5.979,2.685s4.461-0.977,5.979-2.685L87,31H23 L49.021,60.273z"/></g><g><g><path style="fill:#ff6c5e" d="M54.966,65.397c0,0,11.965-6.902,11.965-14.531s-11.965-7.438-11.965-1.615 c0-5.824-11.966-6.014-11.966,2.202C43,59.669,54.966,65.397,54.966,65.397z"/></g></g></g></g><g id="Yellow" style="display:none"><g style="display:inline"><g><rect style="fill:#fff5d9" width="64" height="48" x="22.896" y="31"/></g><g><path style="fill:#ffe9a1" d="M60.875,49.685C59.357,47.978,57.181,47,54.896,47c-2.285,0-4.461,0.978-5.979,2.685 L22.896,78.959h64L60.875,49.685z"/></g><g><path style="fill:#fff" d="M48.917,60.273c1.519,1.708,3.694,2.685,5.979,2.685c2.285,0,4.461-0.977,5.979-2.685L86.896,31 h-64L48.917,60.273z"/></g><g><g><path style="fill:#fa0" d="M54.862,65.397c0,0,11.965-6.902,11.965-14.531s-11.965-7.438-11.965-1.615 c0-5.824-11.966-6.014-11.966,2.202C42.896,59.669,54.862,65.397,54.862,65.397z"/></g></g></g></g><g id="R-Yellow" style="display:none"><g style="display:inline"><circle style="fill:#ffd75e" cx="55" cy="55" r="55"/></g><g style="display:inline"><g><rect style="fill:#fff5d9" width="64" height="48" x="23" y="31"/></g><g><path style="fill:#ffe9a1" d="M60.979,49.685C59.461,47.978,57.285,47,55,47s-4.461,0.978-5.979,2.685L23,78.959h64 L60.979,49.685z"/></g><g><path style="fill:#fff" d="M49.021,60.273c1.519,1.708,3.694,2.685,5.979,2.685s4.461-0.977,5.979-2.685L87,31H23 L49.021,60.273z"/></g><g><g><path style="fill:#fa0" d="M54.966,65.397c0,0,11.965-6.902,11.965-14.531s-11.965-7.438-11.965-1.615 c0-5.824-11.966-6.014-11.966,2.202C43,59.669,54.966,65.397,54.966,65.397z"/></g></g></g></g></svg>