<svg xmlns="http://www.w3.org/2000/svg" xmlns:xlink="http://www.w3.org/1999/xlink" width="110" height="110" x="0" y="0" version="1.0" viewBox="0 0 110 110" xml:space="preserve" style="enable-background:new 0 0 110 110"><g id="Artboard" style="display:none"><rect style="display:inline;fill:gray;stroke:#000;stroke-miterlimit:10" width="1365" height="596" x="-1085.5" y="-177.5"/></g><g id="R-Multicolor" style="display:none"><g style="display:inline"><circle style="fill:#fabc3d" cx="55" cy="55" r="55"/></g><g style="display:inline"><path style="fill:#3e3e3f" d="M69.381,68.922L67,68L55,87h22C77,77.544,72.81,71.933,69.381,68.922z"/><polygon style="fill:#fff" points="45.475 66.997 55 87 64.525 66.997"/><path style="fill:#f7b4b4" d="M57.655,67.997H55h-2.655c-0.856,0-1.671-0.365-2.24-1.004L45,62.997v4.5l10,7.5l10-7.5v-4.5 l-5.105,3.996C59.326,67.632,58.511,67.997,57.655,67.997z"/><path style="fill:#fbc8c8" d="M50.105,66.993L45,62.997v4.5l10,7.5v-7h-2.655C51.489,67.997,50.674,67.632,50.105,66.993z"/><path style="fill:#fbc8c8" d="M70,45c-1,0-1,1.111-1,1.111v-2.305C65.526,44.538,60.549,45,55,45s-10.526-0.462-14-1.194v9.191 l4,10l5.105,3.996c0.569,0.639,1.384,1.004,2.24,1.004H55h2.655c0.856,0,1.671-0.365,2.24-1.004L65,62.997l3.207-8.017 C71.042,54.776,72,50.476,72,47.222C72,46.111,71,45,70,45z"/><path style="fill:#fbd7d7" d="M41,46.111c0,0,0-1.111-1-1.111s-2,1.111-2,2.222c0,3.253,0.958,7.554,3.793,7.758L45,62.997 l5.105,3.996c0.569,0.639,1.384,1.004,2.24,1.004H55V45c-5.549,0-10.526-0.462-14-1.194V46.111z"/><g><path style="fill:#fff" d="M79.976,64c0-2.52-2.805-5.325-5.325-5.325c2.52,0,5.325-2.805,5.325-5.325 c0,2.52,2.805,5.325,5.325,5.325C82.781,58.675,79.976,61.48,79.976,64z"/></g><g><path style="fill:#fff" d="M27.325,36c0-2.047-2.278-4.325-4.325-4.325c2.047,0,4.325-2.278,4.325-4.325 c0,2.047,2.278,4.325,4.325,4.325C29.603,31.675,27.325,33.953,27.325,36z"/></g><g><path style="fill:#3e3e3f" d="M52,46.997c0-1.104-0.896-2-2-2c-0.002,0-0.004,0-0.006,0C49.995,45.019,50,45.039,50,45.06 c0,1.103-0.892,1.996-1.994,2c0.033,1.075,0.91,1.938,1.994,1.938C51.104,48.997,52,48.102,52,46.997z"/></g><g><path style="fill:#3e3e3f" d="M61.994,46.997c0-1.104-0.896-2-2-2c-0.002,0-0.004,0-0.006,0 c0.001,0.021,0.006,0.041,0.006,0.062c0,1.103-0.892,1.996-1.994,2c0.033,1.075,0.91,1.938,1.994,1.938 C61.098,48.997,61.994,48.102,61.994,46.997z"/></g><g><path style="fill:#f79392" d="M50,56.997h10c0,0,0,3-5,3S50,56.997,50,56.997z"/></g><g><path style="fill:#3e3e3f" d="M40,41c0,2.156,0,0.873,0,2c0,0,1,7,2,9c0,0,0,0,1,0c0-1.383,0-7.587,0-11H40z"/></g><g><path style="fill:#3e3e3f" d="M70,42c0,2.156,0-0.127,0,1c0,0-1,7-2,9c0,0,0,0-1,0c0-1.383,0-6.587,0-10H70z"/></g><path style="fill:#3e3e3f" d="M70,39.088c0-0.638,0-1.403,0-2.338c0-3.11,0.921-8.332,1.513-11.367 c0.114-0.586-0.042-1.194-0.421-1.655C70.711,23.268,70.146,23,69.548,23C65.934,23,59.157,23,55,23s-10.934,0-14.548,0 c-0.598,0-1.164,0.268-1.544,0.729c-0.38,0.461-0.536,1.068-0.421,1.655C39.079,28.418,40,33.64,40,36.75c0,0.936,0,1.701,0,2.338 c-2.498,0.621-4,1.398-4,2.245C36,43.358,44.507,45,55,45s19-1.642,19-3.667C74,40.486,72.498,39.709,70,39.088z"/><path style="fill:#3e3e3f" d="M55,54.694c-5-5-6,4-13,0c5,6,13,2,13,2s8,4,13-2C61,58.694,60,49.694,55,54.694z"/><path style="fill:#5b5c5f" d="M40,36.75c0,0.088,0,0.165,0,0.25h15V23c-4.157,0-10.934,0-14.548,0 c-0.598,0-1.164,0.268-1.544,0.729c-0.38,0.461-0.536,1.068-0.421,1.655C39.079,28.418,40,33.64,40,36.75z"/><g><path style="fill:#fff" d="M55,36c-5.88,0-11.188-0.09-15-0.77v3.667c3.812,0.68,9.12,0.77,15,0.77V36z"/></g><g><path style="fill:#e2e4e5" d="M55,36c5.88,0,11.188-0.09,15-0.77v3.667c-3.812,0.68-9.12,0.77-15,0.77V36z"/></g><g><polygon style="fill:#5b5c5f" points="55 87 65 66 69 68 71 75 64.667 75 68 79 59 87"/></g><path style="fill:#3e3e3f" d="M43,68l-2.381,0.922C37.19,71.933,33,77.544,33,87h22L43,68z"/><g><path style="fill:#fa5655" d="M45,62.997V66c0,0-12,5-12,21c-5,0-10,0-10,0C21.936,75.3,34.272,66.584,45,62.997z"/></g><g><path style="fill:#fa5655" d="M65,62.997V66c0,0,12,5,12,21c5,0,10,0,10,0C88.064,75.3,75.728,66.584,65,62.997z"/></g><g><polygon style="fill:#5b5c5f" points="55 87 45 66 41 68 39 75 45.333 75 42 79 51 87"/></g><path style="fill:#df2c2c" d="M64,72l-6.73,3.059C56.72,74.416,55.913,74,55,74s-1.72,0.416-2.27,1.059L46,72v10l6.73-3.059 C53.28,79.584,54.087,80,55,80s1.72-0.416,2.27-1.059L64,82V72z"/></g></g><g id="Multicolor"><g><path style="fill:#3e3e3f" d="M69.381,68.922L67,68L55,87h22C77,77.544,72.81,71.933,69.381,68.922z"/><polygon style="fill:#fff" points="45.475 66.997 55 87 64.525 66.997"/><path style="fill:#f7b4b4" d="M57.655,67.997H55h-2.655c-0.856,0-1.671-0.365-2.24-1.004L45,62.997v4.5l10,7.5l10-7.5v-4.5 l-5.105,3.996C59.326,67.632,58.511,67.997,57.655,67.997z"/><path style="fill:#fbc8c8" d="M50.105,66.993L45,62.997v4.5l10,7.5v-7h-2.655C51.489,67.997,50.674,67.632,50.105,66.993z"/><path style="fill:#fbc8c8" d="M70,45c-1,0-1,1.111-1,1.111v-2.305C65.526,44.538,60.549,45,55,45s-10.526-0.462-14-1.194v9.191 l4,10l5.105,3.996c0.569,0.639,1.384,1.004,2.24,1.004H55h2.655c0.856,0,1.671-0.365,2.24-1.004L65,62.997l3.207-8.017 C71.042,54.776,72,50.476,72,47.222C72,46.111,71,45,70,45z"/><path style="fill:#fbd7d7" d="M41,46.111c0,0,0-1.111-1-1.111s-2,1.111-2,2.222c0,3.253,0.958,7.554,3.793,7.758L45,62.997 l5.105,3.996c0.569,0.639,1.384,1.004,2.24,1.004H55V45c-5.549,0-10.526-0.462-14-1.194V46.111z"/><g><path style="fill:#fff" d="M79.976,64c0-2.52-2.805-5.325-5.325-5.325c2.52,0,5.325-2.805,5.325-5.325 c0,2.52,2.805,5.325,5.325,5.325C82.781,58.675,79.976,61.48,79.976,64z"/></g><g><path style="fill:#fff" d="M27.325,36c0-2.047-2.278-4.325-4.325-4.325c2.047,0,4.325-2.278,4.325-4.325 c0,2.047,2.278,4.325,4.325,4.325C29.603,31.675,27.325,33.953,27.325,36z"/></g><g><path style="fill:#3e3e3f" d="M52,46.997c0-1.104-0.896-2-2-2c-0.002,0-0.004,0-0.006,0C49.995,45.019,50,45.039,50,45.06 c0,1.103-0.892,1.996-1.994,2c0.033,1.075,0.91,1.938,1.994,1.938C51.104,48.997,52,48.102,52,46.997z"/></g><g><path style="fill:#3e3e3f" d="M61.994,46.997c0-1.104-0.896-2-2-2c-0.002,0-0.004,0-0.006,0 c0.001,0.021,0.006,0.041,0.006,0.062c0,1.103-0.892,1.996-1.994,2c0.033,1.075,0.91,1.938,1.994,1.938 C61.098,48.997,61.994,48.102,61.994,46.997z"/></g><g><path style="fill:#f79392" d="M50,56.997h10c0,0,0,3-5,3S50,56.997,50,56.997z"/></g><g><path style="fill:#3e3e3f" d="M40,41c0,2.156,0,0.873,0,2c0,0,1,7,2,9c0,0,0,0,1,0c0-1.383,0-7.587,0-11H40z"/></g><g><path style="fill:#3e3e3f" d="M70,42c0,2.156,0-0.127,0,1c0,0-1,7-2,9c0,0,0,0-1,0c0-1.383,0-6.587,0-10H70z"/></g><path style="fill:#3e3e3f" d="M70,39.088c0-0.638,0-1.403,0-2.338c0-3.11,0.921-8.332,1.513-11.367 c0.114-0.586-0.042-1.194-0.421-1.655C70.711,23.268,70.146,23,69.548,23C65.934,23,59.157,23,55,23s-10.934,0-14.548,0 c-0.598,0-1.164,0.268-1.544,0.729c-0.38,0.461-0.536,1.068-0.421,1.655C39.079,28.418,40,33.64,40,36.75c0,0.936,0,1.701,0,2.338 c-2.498,0.621-4,1.398-4,2.245C36,43.358,44.507,45,55,45s19-1.642,19-3.667C74,40.486,72.498,39.709,70,39.088z"/><path style="fill:#3e3e3f" d="M55,54.694c-5-5-6,4-13,0c5,6,13,2,13,2s8,4,13-2C61,58.694,60,49.694,55,54.694z"/><path style="fill:#5b5c5f" d="M40,36.75c0,0.088,0,0.165,0,0.25h15V23c-4.157,0-10.934,0-14.548,0 c-0.598,0-1.164,0.268-1.544,0.729c-0.38,0.461-0.536,1.068-0.421,1.655C39.079,28.418,40,33.64,40,36.75z"/><g><path style="fill:#fff" d="M55,36c-5.88,0-11.188-0.09-15-0.77v3.667c3.812,0.68,9.12,0.77,15,0.77V36z"/></g><g><path style="fill:#e2e4e5" d="M55,36c5.88,0,11.188-0.09,15-0.77v3.667c-3.812,0.68-9.12,0.77-15,0.77V36z"/></g><g><polygon style="fill:#5b5c5f" points="55 87 65 66 69 68 71 75 64.667 75 68 79 59 87"/></g><path style="fill:#3e3e3f" d="M43,68l-2.381,0.922C37.19,71.933,33,77.544,33,87h22L43,68z"/><g><path style="fill:#fa5655" d="M45,62.997V66c0,0-12,5-12,21c-5,0-10,0-10,0C21.936,75.3,34.272,66.584,45,62.997z"/></g><g><path style="fill:#fa5655" d="M65,62.997V66c0,0,12,5,12,21c5,0,10,0,10,0C88.064,75.3,75.728,66.584,65,62.997z"/></g><g><polygon style="fill:#5b5c5f" points="55 87 45 66 41 68 39 75 45.333 75 42 79 51 87"/></g><path style="fill:#df2c2c" d="M64,72l-6.73,3.059C56.72,74.416,55.913,74,55,74s-1.72,0.416-2.27,1.059L46,72v10l6.73-3.059 C53.28,79.584,54.087,80,55,80s1.72-0.416,2.27-1.059L64,82V72z"/></g></g><g id="Blue" style="display:none"><g style="display:inline"><path style="fill:#0c333d" d="M69.381,68.922L67,68L55,87h22C77,77.544,72.81,71.933,69.381,68.922z"/><polygon style="fill:#fff" points="45.475 66.997 55 87 64.525 66.997"/><path style="fill:#bbe7f2" d="M57.655,67.997H55h-2.655c-0.856,0-1.671-0.365-2.24-1.004L45,62.997v4.5l10,7.5l10-7.5v-4.5 l-5.106,3.996C59.326,67.632,58.511,67.997,57.655,67.997z"/><path style="fill:#e1f5fa" d="M50.105,66.993L45,62.997v4.5l10,7.5v-7h-2.655C51.489,67.997,50.674,67.632,50.105,66.993z"/><path style="fill:#e1f5fa" d="M70,45c-1,0-1,1.111-1,1.111v-2.305C65.526,44.538,60.549,45,55,45c-5.549,0-10.526-0.462-14-1.194 v9.191l4,10l5.105,3.996c0.569,0.639,1.384,1.004,2.24,1.004H55h2.655c0.856,0,1.671-0.365,2.24-1.004L65,62.997l3.206-8.017 C71.041,54.776,72,50.476,72,47.222C72,46.111,71,45,70,45z"/><path style="fill:#fff" d="M41,46.111c0,0,0-1.111-1-1.111s-2,1.111-2,2.222c0,3.253,0.957,7.554,3.793,7.758L45,62.997 l5.105,3.996c0.569,0.639,1.384,1.004,2.24,1.004H55V45c-5.549,0-10.526-0.462-14-1.194V46.111z"/><g><path style="fill:#fff" d="M79.976,64c0-2.52-2.805-5.325-5.325-5.325c2.521,0,5.325-2.805,5.325-5.325 c0,2.521,2.805,5.325,5.325,5.325C82.781,58.675,79.976,61.48,79.976,64z"/></g><g><path style="fill:#fff" d="M27.325,36c0-2.047-2.278-4.325-4.325-4.325c2.047,0,4.325-2.278,4.325-4.325 c0,2.047,2.278,4.325,4.325,4.325C29.604,31.675,27.325,33.953,27.325,36z"/></g><g><path style="fill:#0c333d" d="M52,46.997c0-1.104-0.896-2-2-2c-0.002,0-0.004,0.001-0.006,0.001 C49.995,45.019,50,45.039,50,45.06c0,1.103-0.892,1.996-1.994,1.999c0.033,1.075,0.91,1.938,1.994,1.938 C51.104,48.997,52,48.102,52,46.997z"/></g><g><path style="fill:#0c333d" d="M61.994,46.997c0-1.104-0.896-2-2-2c-0.002,0-0.004,0.001-0.006,0.001 c0.001,0.021,0.006,0.041,0.006,0.062c0,1.103-0.892,1.996-1.994,1.999c0.033,1.075,0.91,1.938,1.994,1.938 C61.098,48.997,61.994,48.102,61.994,46.997z"/></g><g><path style="fill:#53bad4" d="M50,56.997h10c0,0,0,3-5,3S50,56.997,50,56.997z"/></g><g><path style="fill:#0c333d" d="M40,41c0,2.156,0,0.873,0,2c0,0,1,7,2,9c0,0,0,0,1,0c0-1.383,0-7.587,0-11H40z"/></g><g><path style="fill:#0c333d" d="M70,42c0,2.156,0-0.127,0,1c0,0-1,7-2,9c0,0,0,0-1,0c0-1.383,0-6.587,0-10H70z"/></g><path style="fill:#0c333d" d="M70,39.088c0-0.638,0-1.403,0-2.338c0-3.11,0.921-8.332,1.513-11.367 c0.114-0.586-0.042-1.194-0.421-1.655C70.711,23.268,70.146,23,69.548,23C65.934,23,59.157,23,55,23c-4.157,0-10.934,0-14.548,0 c-0.598,0-1.163,0.268-1.544,0.729c-0.38,0.461-0.536,1.068-0.421,1.655C39.079,28.418,40,33.64,40,36.75c0,0.936,0,1.701,0,2.338 c-2.498,0.621-4,1.398-4,2.245C36,43.358,44.507,45,55,45s19-1.642,19-3.666C74,40.486,72.498,39.709,70,39.088z"/><path style="fill:#0c333d" d="M55,54.694c-5-5-6,4-13,0c5,6,13,2,13,2s8,4,13-2C61,58.694,60,49.694,55,54.694z"/><path style="fill:#0f6175" d="M40,36.75c0,0.088,0,0.165,0,0.25h15V23c-4.157,0-10.934,0-14.548,0 c-0.598,0-1.163,0.268-1.544,0.729c-0.38,0.461-0.536,1.068-0.421,1.655C39.079,28.418,40,33.64,40,36.75z"/><g><path style="fill:#fff" d="M55,36c-5.88,0-11.189-0.09-15-0.769v3.666c3.811,0.68,9.12,0.77,15,0.77V36z"/></g><g><path style="fill:#e1f5fa" d="M55,36c5.88,0,11.187-0.09,15-0.769v3.666c-3.813,0.68-9.12,0.77-15,0.77V36z"/></g><g><polygon style="fill:#33899e" points="55 87 65 66 69 68 71 75 64.666 75 68 79 59 87"/></g><path style="fill:#0c333d" d="M43,68l-2.381,0.922C37.19,71.933,33,77.544,33,87h22L43,68z"/><g><path style="fill:#0081a1" d="M45,62.997V66c0,0-12,5-12,21c-5,0-10,0-10,0C21.936,75.3,34.272,66.584,45,62.997z"/></g><g><path style="fill:#0081a1" d="M65,62.997V66c0,0,12,5,12,21c5,0,10,0,10,0C88.063,75.3,75.728,66.584,65,62.997z"/></g><g><polygon style="fill:#33899e" points="55 87 45 66 41 68 39 75 45.333 75 42 79 51 87"/></g><path style="fill:#00b7e5" d="M64,72l-6.73,3.059C56.72,74.416,55.913,74,55,74c-0.913,0-1.72,0.416-2.27,1.059L46,72v10 l6.73-3.059C53.28,79.584,54.087,80,55,80c0.913,0,1.72-0.416,2.27-1.059L64,82V72z"/></g></g><g id="R-Blue" style="display:none"><g style="display:inline"><circle style="fill:#81d2eb" cx="55" cy="55" r="55"/></g><g style="display:inline"><path style="fill:#0c333d" d="M69.381,68.922L67,68L55,87h22C77,77.544,72.81,71.933,69.381,68.922z"/><polygon style="fill:#fff" points="45.475 66.997 55 87 64.525 66.997"/><path style="fill:#bbe7f2" d="M57.655,67.997H55h-2.655c-0.856,0-1.671-0.365-2.24-1.004L45,62.997v4.5l10,7.5l10-7.5v-4.5 l-5.106,3.996C59.326,67.632,58.511,67.997,57.655,67.997z"/><path style="fill:#e1f5fa" d="M50.105,66.993L45,62.997v4.5l10,7.5v-7h-2.655C51.489,67.997,50.674,67.632,50.105,66.993z"/><path style="fill:#e1f5fa" d="M70,45c-1,0-1,1.111-1,1.111v-2.305C65.526,44.538,60.549,45,55,45c-5.549,0-10.526-0.462-14-1.194 v9.191l4,10l5.105,3.996c0.569,0.639,1.384,1.004,2.24,1.004H55h2.655c0.856,0,1.671-0.365,2.24-1.004L65,62.997l3.206-8.017 C71.041,54.776,72,50.476,72,47.222C72,46.111,71,45,70,45z"/><path style="fill:#fff" d="M41,46.111c0,0,0-1.111-1-1.111s-2,1.111-2,2.222c0,3.253,0.957,7.554,3.793,7.758L45,62.997 l5.105,3.996c0.569,0.639,1.384,1.004,2.24,1.004H55V45c-5.549,0-10.526-0.462-14-1.194V46.111z"/><g><path style="fill:#fff" d="M79.976,64c0-2.52-2.805-5.325-5.325-5.325c2.521,0,5.325-2.805,5.325-5.325 c0,2.521,2.805,5.325,5.325,5.325C82.781,58.675,79.976,61.48,79.976,64z"/></g><g><path style="fill:#fff" d="M27.325,36c0-2.047-2.278-4.325-4.325-4.325c2.047,0,4.325-2.278,4.325-4.325 c0,2.047,2.278,4.325,4.325,4.325C29.604,31.675,27.325,33.953,27.325,36z"/></g><g><path style="fill:#0c333d" d="M52,46.997c0-1.104-0.896-2-2-2c-0.002,0-0.004,0.001-0.006,0.001 C49.995,45.019,50,45.039,50,45.06c0,1.103-0.892,1.996-1.994,1.999c0.033,1.075,0.91,1.938,1.994,1.938 C51.104,48.997,52,48.102,52,46.997z"/></g><g><path style="fill:#0c333d" d="M61.994,46.997c0-1.104-0.896-2-2-2c-0.002,0-0.004,0.001-0.006,0.001 c0.001,0.021,0.006,0.041,0.006,0.062c0,1.103-0.892,1.996-1.994,1.999c0.033,1.075,0.91,1.938,1.994,1.938 C61.098,48.997,61.994,48.102,61.994,46.997z"/></g><g><path style="fill:#53bad4" d="M50,56.997h10c0,0,0,3-5,3S50,56.997,50,56.997z"/></g><g><path style="fill:#0c333d" d="M40,41c0,2.156,0,0.873,0,2c0,0,1,7,2,9c0,0,0,0,1,0c0-1.383,0-7.587,0-11H40z"/></g><g><path style="fill:#0c333d" d="M70,42c0,2.156,0-0.127,0,1c0,0-1,7-2,9c0,0,0,0-1,0c0-1.383,0-6.587,0-10H70z"/></g><path style="fill:#0c333d" d="M70,39.088c0-0.638,0-1.403,0-2.338c0-3.11,0.921-8.332,1.513-11.367 c0.114-0.586-0.042-1.194-0.421-1.655C70.711,23.268,70.146,23,69.548,23C65.934,23,59.157,23,55,23c-4.157,0-10.934,0-14.548,0 c-0.598,0-1.163,0.268-1.544,0.729c-0.38,0.461-0.536,1.068-0.421,1.655C39.079,28.418,40,33.64,40,36.75c0,0.936,0,1.701,0,2.338 c-2.498,0.621-4,1.398-4,2.245C36,43.358,44.507,45,55,45s19-1.642,19-3.666C74,40.486,72.498,39.709,70,39.088z"/><path style="fill:#0c333d" d="M55,54.694c-5-5-6,4-13,0c5,6,13,2,13,2s8,4,13-2C61,58.694,60,49.694,55,54.694z"/><path style="fill:#0f6175" d="M40,36.75c0,0.088,0,0.165,0,0.25h15V23c-4.157,0-10.934,0-14.548,0 c-0.598,0-1.163,0.268-1.544,0.729c-0.38,0.461-0.536,1.068-0.421,1.655C39.079,28.418,40,33.64,40,36.75z"/><g><path style="fill:#fff" d="M55,36c-5.88,0-11.189-0.09-15-0.769v3.666c3.811,0.68,9.12,0.77,15,0.77V36z"/></g><g><path style="fill:#e1f5fa" d="M55,36c5.88,0,11.187-0.09,15-0.769v3.666c-3.813,0.68-9.12,0.77-15,0.77V36z"/></g><g><polygon style="fill:#33899e" points="55 87 65 66 69 68 71 75 64.666 75 68 79 59 87"/></g><path style="fill:#0c333d" d="M43,68l-2.381,0.922C37.19,71.933,33,77.544,33,87h22L43,68z"/><g><path style="fill:#0081a1" d="M45,62.997V66c0,0-12,5-12,21c-5,0-10,0-10,0C21.936,75.3,34.272,66.584,45,62.997z"/></g><g><path style="fill:#0081a1" d="M65,62.997V66c0,0,12,5,12,21c5,0,10,0,10,0C88.063,75.3,75.728,66.584,65,62.997z"/></g><g><polygon style="fill:#33899e" points="55 87 45 66 41 68 39 75 45.333 75 42 79 51 87"/></g><path style="fill:#00b7e5" d="M64,72l-6.73,3.059C56.72,74.416,55.913,74,55,74c-0.913,0-1.72,0.416-2.27,1.059L46,72v10 l6.73-3.059C53.28,79.584,54.087,80,55,80c0.913,0,1.72-0.416,2.27-1.059L64,82V72z"/></g></g><g id="Green" style="display:none"><g style="display:inline"><path style="fill:#0a3631" d="M69.381,68.922L67,68L55,87h22C77,77.544,72.81,71.933,69.381,68.922z"/><polygon style="fill:#fff" points="45.475 66.997 55 87 64.525 66.997"/><path style="fill:#aaf0e9" d="M57.655,67.997H55h-2.655c-0.856,0-1.671-0.365-2.24-1.004L45,62.997v4.5l10,7.5l10-7.5v-4.5 l-5.106,3.996C59.326,67.632,58.511,67.997,57.655,67.997z"/><path style="fill:#d7fcf9" d="M50.105,66.993L45,62.997v4.5l10,7.5v-7h-2.655C51.489,67.997,50.674,67.632,50.105,66.993z"/><path style="fill:#d7fcf9" d="M70,45c-1,0-1,1.111-1,1.111v-2.305C65.526,44.538,60.549,45,55,45c-5.549,0-10.526-0.462-14-1.194 v9.191l4,10l5.105,3.996c0.569,0.639,1.384,1.004,2.24,1.004H55h2.655c0.856,0,1.671-0.365,2.24-1.004L65,62.997l3.206-8.017 C71.041,54.776,72,50.476,72,47.222C72,46.111,71,45,70,45z"/><path style="fill:#fff" d="M41,46.111c0,0,0-1.111-1-1.111s-2,1.111-2,2.222c0,3.253,0.957,7.554,3.793,7.758L45,62.997 l5.105,3.996c0.569,0.639,1.384,1.004,2.24,1.004H55V45c-5.549,0-10.526-0.462-14-1.194V46.111z"/><g><path style="fill:#fff" d="M79.976,64c0-2.52-2.805-5.325-5.325-5.325c2.521,0,5.325-2.805,5.325-5.325 c0,2.521,2.805,5.325,5.325,5.325C82.781,58.675,79.976,61.48,79.976,64z"/></g><g><path style="fill:#fff" d="M27.325,36c0-2.047-2.278-4.325-4.325-4.325c2.047,0,4.325-2.278,4.325-4.325 c0,2.047,2.278,4.325,4.325,4.325C29.604,31.675,27.325,33.953,27.325,36z"/></g><g><path style="fill:#0a3631" d="M52,46.997c0-1.104-0.896-2-2-2c-0.002,0-0.004,0.001-0.006,0.001 C49.995,45.019,50,45.039,50,45.06c0,1.103-0.892,1.996-1.994,1.999c0.033,1.075,0.91,1.938,1.994,1.938 C51.104,48.997,52,48.102,52,46.997z"/></g><g><path style="fill:#0a3631" d="M61.994,46.997c0-1.104-0.896-2-2-2c-0.002,0-0.004,0.001-0.006,0.001 c0.001,0.021,0.006,0.041,0.006,0.062c0,1.103-0.892,1.996-1.994,1.999c0.033,1.075,0.91,1.938,1.994,1.938 C61.098,48.997,61.994,48.102,61.994,46.997z"/></g><g><path style="fill:#55c9be" d="M50,56.997h10c0,0,0,3-5,3S50,56.997,50,56.997z"/></g><g><path style="fill:#0a3631" d="M40,41c0,2.156,0,0.873,0,2c0,0,1,7,2,9c0,0,0,0,1,0c0-1.383,0-7.587,0-11H40z"/></g><g><path style="fill:#0a3631" d="M70,42c0,2.156,0-0.127,0,1c0,0-1,7-2,9c0,0,0,0-1,0c0-1.383,0-6.587,0-10H70z"/></g><path style="fill:#0a3631" d="M70,39.088c0-0.638,0-1.403,0-2.338c0-3.11,0.921-8.332,1.513-11.367 c0.114-0.586-0.042-1.194-0.421-1.655C70.711,23.268,70.146,23,69.548,23C65.934,23,59.157,23,55,23c-4.157,0-10.934,0-14.548,0 c-0.598,0-1.163,0.268-1.544,0.729c-0.38,0.461-0.536,1.068-0.421,1.655C39.079,28.418,40,33.64,40,36.75c0,0.936,0,1.701,0,2.338 c-2.498,0.621-4,1.398-4,2.245C36,43.358,44.507,45,55,45s19-1.642,19-3.666C74,40.486,72.498,39.709,70,39.088z"/><path style="fill:#0a3631" d="M55,54.694c-5-5-6,4-13,0c5,6,13,2,13,2s8,4,13-2C61,58.694,60,49.694,55,54.694z"/><path style="fill:#14635b" d="M40,36.75c0,0.088,0,0.165,0,0.25h15V23c-4.157,0-10.934,0-14.548,0 c-0.598,0-1.163,0.268-1.544,0.729c-0.38,0.461-0.536,1.068-0.421,1.655C39.079,28.418,40,33.64,40,36.75z"/><g><path style="fill:#fff" d="M55,36c-5.88,0-11.189-0.09-15-0.769v3.666c3.811,0.68,9.12,0.77,15,0.77V36z"/></g><g><path style="fill:#d7fcf9" d="M55,36c5.88,0,11.187-0.09,15-0.769v3.666c-3.813,0.68-9.12,0.77-15,0.77V36z"/></g><g><polygon style="fill:#3e948b" points="55 87 65 66 69 68 71 75 64.666 75 68 79 59 87"/></g><path style="fill:#0a3631" d="M43,68l-2.381,0.922C37.19,71.933,33,77.544,33,87h22L43,68z"/><g><path style="fill:#009687" d="M45,62.997V66c0,0-12,5-12,21c-5,0-10,0-10,0C21.936,75.3,34.272,66.584,45,62.997z"/></g><g><path style="fill:#009687" d="M65,62.997V66c0,0,12,5,12,21c5,0,10,0,10,0C88.063,75.3,75.728,66.584,65,62.997z"/></g><g><polygon style="fill:#3e948b" points="55 87 45 66 41 68 39 75 45.333 75 42 79 51 87"/></g><path style="fill:#00d6c1" d="M64,72l-6.73,3.059C56.72,74.416,55.913,74,55,74c-0.913,0-1.72,0.416-2.27,1.059L46,72v10 l6.73-3.059C53.28,79.584,54.087,80,55,80c0.913,0,1.72-0.416,2.27-1.059L64,82V72z"/></g></g><g id="R-Green" style="display:none"><g style="display:inline"><circle style="fill:#77e0c4" cx="55" cy="55" r="55"/></g><g style="display:inline"><path style="fill:#0a3631" d="M69.381,68.922L67,68L55,87h22C77,77.544,72.81,71.933,69.381,68.922z"/><polygon style="fill:#fff" points="45.475 66.997 55 87 64.525 66.997"/><path style="fill:#aaf0e9" d="M57.655,67.997H55h-2.655c-0.856,0-1.671-0.365-2.24-1.004L45,62.997v4.5l10,7.5l10-7.5v-4.5 l-5.106,3.996C59.326,67.632,58.511,67.997,57.655,67.997z"/><path style="fill:#d7fcf9" d="M50.105,66.993L45,62.997v4.5l10,7.5v-7h-2.655C51.489,67.997,50.674,67.632,50.105,66.993z"/><path style="fill:#d7fcf9" d="M70,45c-1,0-1,1.111-1,1.111v-2.305C65.526,44.538,60.549,45,55,45c-5.549,0-10.526-0.462-14-1.194 v9.191l4,10l5.105,3.996c0.569,0.639,1.384,1.004,2.24,1.004H55h2.655c0.856,0,1.671-0.365,2.24-1.004L65,62.997l3.206-8.017 C71.041,54.776,72,50.476,72,47.222C72,46.111,71,45,70,45z"/><path style="fill:#fff" d="M41,46.111c0,0,0-1.111-1-1.111s-2,1.111-2,2.222c0,3.253,0.957,7.554,3.793,7.758L45,62.997 l5.105,3.996c0.569,0.639,1.384,1.004,2.24,1.004H55V45c-5.549,0-10.526-0.462-14-1.194V46.111z"/><g><path style="fill:#fff" d="M79.976,64c0-2.52-2.805-5.325-5.325-5.325c2.521,0,5.325-2.805,5.325-5.325 c0,2.521,2.805,5.325,5.325,5.325C82.781,58.675,79.976,61.48,79.976,64z"/></g><g><path style="fill:#fff" d="M27.325,36c0-2.047-2.278-4.325-4.325-4.325c2.047,0,4.325-2.278,4.325-4.325 c0,2.047,2.278,4.325,4.325,4.325C29.604,31.675,27.325,33.953,27.325,36z"/></g><g><path style="fill:#0a3631" d="M52,46.997c0-1.104-0.896-2-2-2c-0.002,0-0.004,0.001-0.006,0.001 C49.995,45.019,50,45.039,50,45.06c0,1.103-0.892,1.996-1.994,1.999c0.033,1.075,0.91,1.938,1.994,1.938 C51.104,48.997,52,48.102,52,46.997z"/></g><g><path style="fill:#0a3631" d="M61.994,46.997c0-1.104-0.896-2-2-2c-0.002,0-0.004,0.001-0.006,0.001 c0.001,0.021,0.006,0.041,0.006,0.062c0,1.103-0.892,1.996-1.994,1.999c0.033,1.075,0.91,1.938,1.994,1.938 C61.098,48.997,61.994,48.102,61.994,46.997z"/></g><g><path style="fill:#55c9be" d="M50,56.997h10c0,0,0,3-5,3S50,56.997,50,56.997z"/></g><g><path style="fill:#0a3631" d="M40,41c0,2.156,0,0.873,0,2c0,0,1,7,2,9c0,0,0,0,1,0c0-1.383,0-7.587,0-11H40z"/></g><g><path style="fill:#0a3631" d="M70,42c0,2.156,0-0.127,0,1c0,0-1,7-2,9c0,0,0,0-1,0c0-1.383,0-6.587,0-10H70z"/></g><path style="fill:#0a3631" d="M70,39.088c0-0.638,0-1.403,0-2.338c0-3.11,0.921-8.332,1.513-11.367 c0.114-0.586-0.042-1.194-0.421-1.655C70.711,23.268,70.146,23,69.548,23C65.934,23,59.157,23,55,23c-4.157,0-10.934,0-14.548,0 c-0.598,0-1.163,0.268-1.544,0.729c-0.38,0.461-0.536,1.068-0.421,1.655C39.079,28.418,40,33.64,40,36.75c0,0.936,0,1.701,0,2.338 c-2.498,0.621-4,1.398-4,2.245C36,43.358,44.507,45,55,45s19-1.642,19-3.666C74,40.486,72.498,39.709,70,39.088z"/><path style="fill:#0a3631" d="M55,54.694c-5-5-6,4-13,0c5,6,13,2,13,2s8,4,13-2C61,58.694,60,49.694,55,54.694z"/><path style="fill:#14635b" d="M40,36.75c0,0.088,0,0.165,0,0.25h15V23c-4.157,0-10.934,0-14.548,0 c-0.598,0-1.163,0.268-1.544,0.729c-0.38,0.461-0.536,1.068-0.421,1.655C39.079,28.418,40,33.64,40,36.75z"/><g><path style="fill:#fff" d="M55,36c-5.88,0-11.189-0.09-15-0.769v3.666c3.811,0.68,9.12,0.77,15,0.77V36z"/></g><g><path style="fill:#d7fcf9" d="M55,36c5.88,0,11.187-0.09,15-0.769v3.666c-3.813,0.68-9.12,0.77-15,0.77V36z"/></g><g><polygon style="fill:#3e948b" points="55 87 65 66 69 68 71 75 64.666 75 68 79 59 87"/></g><path style="fill:#0a3631" d="M43,68l-2.381,0.922C37.19,71.933,33,77.544,33,87h22L43,68z"/><g><path style="fill:#009687" d="M45,62.997V66c0,0-12,5-12,21c-5,0-10,0-10,0C21.936,75.3,34.272,66.584,45,62.997z"/></g><g><path style="fill:#009687" d="M65,62.997V66c0,0,12,5,12,21c5,0,10,0,10,0C88.063,75.3,75.728,66.584,65,62.997z"/></g><g><polygon style="fill:#3e948b" points="55 87 45 66 41 68 39 75 45.333 75 42 79 51 87"/></g><path style="fill:#00d6c1" d="M64,72l-6.73,3.059C56.72,74.416,55.913,74,55,74c-0.913,0-1.72,0.416-2.27,1.059L46,72v10 l6.73-3.059C53.28,79.584,54.087,80,55,80c0.913,0,1.72-0.416,2.27-1.059L64,82V72z"/></g></g><g id="Red" style="display:none"><g style="display:inline"><path style="fill:#4a1410" d="M69.381,68.922L67,68L55,87h22C77,77.544,72.81,71.933,69.381,68.922z"/><polygon style="fill:#fff" points="45.475 66.997 55 87 64.525 66.997"/><path style="fill:#ffd7d4" d="M57.655,67.997H55h-2.655c-0.856,0-1.671-0.365-2.24-1.004L45,62.997v4.5l10,7.5l10-7.5v-4.5 l-5.106,3.996C59.326,67.632,58.511,67.997,57.655,67.997z"/><path style="fill:#ffefed" d="M50.105,66.993L45,62.997v4.5l10,7.5v-7h-2.655C51.489,67.997,50.674,67.632,50.105,66.993z"/><path style="fill:#ffefed" d="M70,45c-1,0-1,1.111-1,1.111v-2.305C65.526,44.538,60.549,45,55,45c-5.549,0-10.526-0.462-14-1.194 v9.191l4,10l5.105,3.996c0.569,0.639,1.384,1.004,2.24,1.004H55h2.655c0.856,0,1.671-0.365,2.24-1.004L65,62.997l3.206-8.017 C71.041,54.776,72,50.476,72,47.222C72,46.111,71,45,70,45z"/><path style="fill:#fff" d="M41,46.111c0,0,0-1.111-1-1.111s-2,1.111-2,2.222c0,3.253,0.957,7.554,3.793,7.758L45,62.997 l5.105,3.996c0.569,0.639,1.384,1.004,2.24,1.004H55V45c-5.549,0-10.526-0.462-14-1.194V46.111z"/><g><path style="fill:#fff" d="M79.976,64c0-2.52-2.805-5.325-5.325-5.325c2.521,0,5.325-2.805,5.325-5.325 c0,2.521,2.805,5.325,5.325,5.325C82.781,58.675,79.976,61.48,79.976,64z"/></g><g><path style="fill:#fff" d="M27.325,36c0-2.047-2.278-4.325-4.325-4.325c2.047,0,4.325-2.278,4.325-4.325 c0,2.047,2.278,4.325,4.325,4.325C29.604,31.675,27.325,33.953,27.325,36z"/></g><g><path style="fill:#4a1410" d="M52,46.997c0-1.104-0.896-2-2-2c-0.002,0-0.004,0.001-0.006,0.001 C49.995,45.019,50,45.039,50,45.06c0,1.103-0.892,1.996-1.994,1.999c0.033,1.075,0.91,1.938,1.994,1.938 C51.104,48.997,52,48.102,52,46.997z"/></g><g><path style="fill:#4a1410" d="M61.994,46.997c0-1.104-0.896-2-2-2c-0.002,0-0.004,0.001-0.006,0.001 c0.001,0.021,0.006,0.041,0.006,0.062c0,1.103-0.892,1.996-1.994,1.999c0.033,1.075,0.91,1.938,1.994,1.938 C61.098,48.997,61.994,48.102,61.994,46.997z"/></g><g><path style="fill:#e8a099" d="M50,56.997h10c0,0,0,3-5,3S50,56.997,50,56.997z"/></g><g><path style="fill:#4a1410" d="M40,41c0,2.156,0,0.873,0,2c0,0,1,7,2,9c0,0,0,0,1,0c0-1.383,0-7.587,0-11H40z"/></g><g><path style="fill:#4a1410" d="M70,42c0,2.156,0-0.127,0,1c0,0-1,7-2,9c0,0,0,0-1,0c0-1.383,0-6.587,0-10H70z"/></g><path style="fill:#4a1410" d="M70,39.088c0-0.638,0-1.403,0-2.338c0-3.11,0.921-8.332,1.513-11.367 c0.114-0.586-0.042-1.194-0.421-1.655C70.711,23.268,70.146,23,69.548,23C65.934,23,59.157,23,55,23c-4.157,0-10.934,0-14.548,0 c-0.598,0-1.163,0.268-1.544,0.729c-0.38,0.461-0.536,1.068-0.421,1.655C39.079,28.418,40,33.64,40,36.75c0,0.936,0,1.701,0,2.338 c-2.498,0.621-4,1.398-4,2.245C36,43.358,44.507,45,55,45s19-1.642,19-3.666C74,40.486,72.498,39.709,70,39.088z"/><path style="fill:#4a1410" d="M55,54.694c-5-5-6,4-13,0c5,6,13,2,13,2s8,4,13-2C61,58.694,60,49.694,55,54.694z"/><path style="fill:#7d261e" d="M40,36.75c0,0.088,0,0.165,0,0.25h15V23c-4.157,0-10.934,0-14.548,0 c-0.598,0-1.163,0.268-1.544,0.729c-0.38,0.461-0.536,1.068-0.421,1.655C39.079,28.418,40,33.64,40,36.75z"/><g><path style="fill:#fff" d="M55,36c-5.88,0-11.189-0.09-15-0.769v3.666c3.811,0.68,9.12,0.77,15,0.77V36z"/></g><g><path style="fill:#ffefed" d="M55,36c5.88,0,11.187-0.09,15-0.769v3.666c-3.813,0.68-9.12,0.77-15,0.77V36z"/></g><g><polygon style="fill:#b84e44" points="55 87 65 66 69 68 71 75 64.666 75 68 79 59 87"/></g><path style="fill:#4a1410" d="M43,68l-2.381,0.922C37.19,71.933,33,77.544,33,87h22L43,68z"/><g><path style="fill:#c23023" d="M45,62.997V66c0,0-12,5-12,21c-5,0-10,0-10,0C21.936,75.3,34.272,66.584,45,62.997z"/></g><g><path style="fill:#c23023" d="M65,62.997V66c0,0,12,5,12,21c5,0,10,0,10,0C88.063,75.3,75.728,66.584,65,62.997z"/></g><g><polygon style="fill:#b84e44" points="55 87 45 66 41 68 39 75 45.333 75 42 79 51 87"/></g><path style="fill:#ff6c5e" d="M64,72l-6.73,3.059C56.72,74.416,55.913,74,55,74c-0.913,0-1.72,0.416-2.27,1.059L46,72v10 l6.73-3.059C53.28,79.584,54.087,80,55,80c0.913,0,1.72-0.416,2.27-1.059L64,82V72z"/></g></g><g id="R-Red" style="display:none"><g style="display:inline"><circle style="fill:#fabbaf" cx="55" cy="55" r="55"/></g><g style="display:inline"><path style="fill:#4a1410" d="M69.381,68.922L67,68L55,87h22C77,77.544,72.81,71.933,69.381,68.922z"/><polygon style="fill:#fff" points="45.475 66.997 55 87 64.525 66.997"/><path style="fill:#ffd7d4" d="M57.655,67.997H55h-2.655c-0.856,0-1.671-0.365-2.24-1.004L45,62.997v4.5l10,7.5l10-7.5v-4.5 l-5.106,3.996C59.326,67.632,58.511,67.997,57.655,67.997z"/><path style="fill:#ffefed" d="M50.105,66.993L45,62.997v4.5l10,7.5v-7h-2.655C51.489,67.997,50.674,67.632,50.105,66.993z"/><path style="fill:#ffefed" d="M70,45c-1,0-1,1.111-1,1.111v-2.305C65.526,44.538,60.549,45,55,45c-5.549,0-10.526-0.462-14-1.194 v9.191l4,10l5.105,3.996c0.569,0.639,1.384,1.004,2.24,1.004H55h2.655c0.856,0,1.671-0.365,2.24-1.004L65,62.997l3.206-8.017 C71.041,54.776,72,50.476,72,47.222C72,46.111,71,45,70,45z"/><path style="fill:#fff" d="M41,46.111c0,0,0-1.111-1-1.111s-2,1.111-2,2.222c0,3.253,0.957,7.554,3.793,7.758L45,62.997 l5.105,3.996c0.569,0.639,1.384,1.004,2.24,1.004H55V45c-5.549,0-10.526-0.462-14-1.194V46.111z"/><g><path style="fill:#fff" d="M79.976,64c0-2.52-2.805-5.325-5.325-5.325c2.521,0,5.325-2.805,5.325-5.325 c0,2.521,2.805,5.325,5.325,5.325C82.781,58.675,79.976,61.48,79.976,64z"/></g><g><path style="fill:#fff" d="M27.325,36c0-2.047-2.278-4.325-4.325-4.325c2.047,0,4.325-2.278,4.325-4.325 c0,2.047,2.278,4.325,4.325,4.325C29.604,31.675,27.325,33.953,27.325,36z"/></g><g><path style="fill:#4a1410" d="M52,46.997c0-1.104-0.896-2-2-2c-0.002,0-0.004,0.001-0.006,0.001 C49.995,45.019,50,45.039,50,45.06c0,1.103-0.892,1.996-1.994,1.999c0.033,1.075,0.91,1.938,1.994,1.938 C51.104,48.997,52,48.102,52,46.997z"/></g><g><path style="fill:#4a1410" d="M61.994,46.997c0-1.104-0.896-2-2-2c-0.002,0-0.004,0.001-0.006,0.001 c0.001,0.021,0.006,0.041,0.006,0.062c0,1.103-0.892,1.996-1.994,1.999c0.033,1.075,0.91,1.938,1.994,1.938 C61.098,48.997,61.994,48.102,61.994,46.997z"/></g><g><path style="fill:#e8a099" d="M50,56.997h10c0,0,0,3-5,3S50,56.997,50,56.997z"/></g><g><path style="fill:#4a1410" d="M40,41c0,2.156,0,0.873,0,2c0,0,1,7,2,9c0,0,0,0,1,0c0-1.383,0-7.587,0-11H40z"/></g><g><path style="fill:#4a1410" d="M70,42c0,2.156,0-0.127,0,1c0,0-1,7-2,9c0,0,0,0-1,0c0-1.383,0-6.587,0-10H70z"/></g><path style="fill:#4a1410" d="M70,39.088c0-0.638,0-1.403,0-2.338c0-3.11,0.921-8.332,1.513-11.367 c0.114-0.586-0.042-1.194-0.421-1.655C70.711,23.268,70.146,23,69.548,23C65.934,23,59.157,23,55,23c-4.157,0-10.934,0-14.548,0 c-0.598,0-1.163,0.268-1.544,0.729c-0.38,0.461-0.536,1.068-0.421,1.655C39.079,28.418,40,33.64,40,36.75c0,0.936,0,1.701,0,2.338 c-2.498,0.621-4,1.398-4,2.245C36,43.358,44.507,45,55,45s19-1.642,19-3.666C74,40.486,72.498,39.709,70,39.088z"/><path style="fill:#4a1410" d="M55,54.694c-5-5-6,4-13,0c5,6,13,2,13,2s8,4,13-2C61,58.694,60,49.694,55,54.694z"/><path style="fill:#7d261e" d="M40,36.75c0,0.088,0,0.165,0,0.25h15V23c-4.157,0-10.934,0-14.548,0 c-0.598,0-1.163,0.268-1.544,0.729c-0.38,0.461-0.536,1.068-0.421,1.655C39.079,28.418,40,33.64,40,36.75z"/><g><path style="fill:#fff" d="M55,36c-5.88,0-11.189-0.09-15-0.769v3.666c3.811,0.68,9.12,0.77,15,0.77V36z"/></g><g><path style="fill:#ffefed" d="M55,36c5.88,0,11.187-0.09,15-0.769v3.666c-3.813,0.68-9.12,0.77-15,0.77V36z"/></g><g><polygon style="fill:#b84e44" points="55 87 65 66 69 68 71 75 64.666 75 68 79 59 87"/></g><path style="fill:#4a1410" d="M43,68l-2.381,0.922C37.19,71.933,33,77.544,33,87h22L43,68z"/><g><path style="fill:#c23023" d="M45,62.997V66c0,0-12,5-12,21c-5,0-10,0-10,0C21.936,75.3,34.272,66.584,45,62.997z"/></g><g><path style="fill:#c23023" d="M65,62.997V66c0,0,12,5,12,21c5,0,10,0,10,0C88.063,75.3,75.728,66.584,65,62.997z"/></g><g><polygon style="fill:#b84e44" points="55 87 45 66 41 68 39 75 45.333 75 42 79 51 87"/></g><path style="fill:#ff6c5e" d="M64,72l-6.73,3.059C56.72,74.416,55.913,74,55,74c-0.913,0-1.72,0.416-2.27,1.059L46,72v10 l6.73-3.059C53.28,79.584,54.087,80,55,80c0.913,0,1.72-0.416,2.27-1.059L64,82V72z"/></g></g><g id="Yellow" style="display:none"><g style="display:inline"><path style="fill:#3d320c" d="M69.381,68.922L67,68L55,87h22C77,77.544,72.81,71.933,69.381,68.922z"/><polygon style="fill:#fff" points="45.475 66.997 55 87 64.525 66.997"/><path style="fill:#ffe9a1" d="M57.655,67.997H55h-2.655c-0.856,0-1.671-0.365-2.24-1.004L45,62.997v4.5l10,7.5l10-7.5v-4.5 l-5.106,3.996C59.326,67.632,58.511,67.997,57.655,67.997z"/><path style="fill:#fff5d9" d="M50.105,66.993L45,62.997v4.5l10,7.5v-7h-2.655C51.489,67.997,50.674,67.632,50.105,66.993z"/><path style="fill:#fff5d9" d="M70,45c-1,0-1,1.111-1,1.111v-2.305C65.526,44.538,60.549,45,55,45c-5.549,0-10.526-0.462-14-1.194 v9.191l4,10l5.105,3.996c0.569,0.639,1.384,1.004,2.24,1.004H55h2.655c0.856,0,1.671-0.365,2.24-1.004L65,62.997l3.206-8.017 C71.041,54.776,72,50.476,72,47.222C72,46.111,71,45,70,45z"/><path style="fill:#fff" d="M41,46.111c0,0,0-1.111-1-1.111s-2,1.111-2,2.222c0,3.253,0.957,7.554,3.793,7.758L45,62.997 l5.105,3.996c0.569,0.639,1.384,1.004,2.24,1.004H55V45c-5.549,0-10.526-0.462-14-1.194V46.111z"/><g><path style="fill:#fff" d="M79.976,64c0-2.52-2.805-5.325-5.325-5.325c2.521,0,5.325-2.805,5.325-5.325 c0,2.521,2.805,5.325,5.325,5.325C82.781,58.675,79.976,61.48,79.976,64z"/></g><g><path style="fill:#fff" d="M27.325,36c0-2.047-2.278-4.325-4.325-4.325c2.047,0,4.325-2.278,4.325-4.325 c0,2.047,2.278,4.325,4.325,4.325C29.604,31.675,27.325,33.953,27.325,36z"/></g><g><path style="fill:#3d320c" d="M52,46.997c0-1.104-0.896-2-2-2c-0.002,0-0.004,0.001-0.006,0.001 C49.995,45.019,50,45.039,50,45.06c0,1.103-0.892,1.996-1.994,1.999c0.033,1.075,0.91,1.938,1.994,1.938 C51.104,48.997,52,48.102,52,46.997z"/></g><g><path style="fill:#3d320c" d="M61.994,46.997c0-1.104-0.896-2-2-2c-0.002,0-0.004,0.001-0.006,0.001 c0.001,0.021,0.006,0.041,0.006,0.062c0,1.103-0.892,1.996-1.994,1.999c0.033,1.075,0.91,1.938,1.994,1.938 C61.098,48.997,61.994,48.102,61.994,46.997z"/></g><g><path style="fill:#f5c43d" d="M50,56.997h10c0,0,0,3-5,3S50,56.997,50,56.997z"/></g><g><path style="fill:#3d320c" d="M40,41c0,2.156,0,0.873,0,2c0,0,1,7,2,9c0,0,0,0,1,0c0-1.383,0-7.587,0-11H40z"/></g><g><path style="fill:#3d320c" d="M70,42c0,2.156,0-0.127,0,1c0,0-1,7-2,9c0,0,0,0-1,0c0-1.383,0-6.587,0-10H70z"/></g><path style="fill:#3d320c" d="M70,39.088c0-0.638,0-1.403,0-2.338c0-3.11,0.921-8.332,1.513-11.367 c0.114-0.586-0.042-1.194-0.421-1.655C70.711,23.268,70.146,23,69.548,23C65.934,23,59.157,23,55,23c-4.157,0-10.934,0-14.548,0 c-0.598,0-1.163,0.268-1.544,0.729c-0.38,0.461-0.536,1.068-0.421,1.655C39.079,28.418,40,33.64,40,36.75c0,0.936,0,1.701,0,2.338 c-2.498,0.621-4,1.398-4,2.245C36,43.358,44.507,45,55,45s19-1.642,19-3.666C74,40.486,72.498,39.709,70,39.088z"/><path style="fill:#3d320c" d="M55,54.694c-5-5-6,4-13,0c5,6,13,2,13,2s8,4,13-2C61,58.694,60,49.694,55,54.694z"/><path style="fill:#66510d" d="M40,36.75c0,0.088,0,0.165,0,0.25h15V23c-4.157,0-10.934,0-14.548,0 c-0.598,0-1.163,0.268-1.544,0.729c-0.38,0.461-0.536,1.068-0.421,1.655C39.079,28.418,40,33.64,40,36.75z"/><g><path style="fill:#fff" d="M55,36c-5.88,0-11.189-0.09-15-0.769v3.666c3.811,0.68,9.12,0.77,15,0.77V36z"/></g><g><path style="fill:#fff5d9" d="M55,36c5.88,0,11.187-0.09,15-0.769v3.666c-3.813,0.68-9.12,0.77-15,0.77V36z"/></g><g><polygon style="fill:#947615" points="55 87 65 66 69 68 71 75 64.666 75 68 79 59 87"/></g><path style="fill:#3d320c" d="M43,68l-2.381,0.922C37.19,71.933,33,77.544,33,87h22L43,68z"/><g><path style="fill:#e07000" d="M45,62.997V66c0,0-12,5-12,21c-5,0-10,0-10,0C21.936,75.3,34.272,66.584,45,62.997z"/></g><g><path style="fill:#e07000" d="M65,62.997V66c0,0,12,5,12,21c5,0,10,0,10,0C88.063,75.3,75.728,66.584,65,62.997z"/></g><g><polygon style="fill:#947615" points="55 87 45 66 41 68 39 75 45.333 75 42 79 51 87"/></g><path style="fill:#fa0" d="M64,72l-6.73,3.059C56.72,74.416,55.913,74,55,74c-0.913,0-1.72,0.416-2.27,1.059L46,72v10 l6.73-3.059C53.28,79.584,54.087,80,55,80c0.913,0,1.72-0.416,2.27-1.059L64,82V72z"/></g></g><g id="R-Yellow" style="display:none"><g style="display:inline"><circle style="fill:#ffd75e" cx="55" cy="55" r="55"/></g><g style="display:inline"><path style="fill:#3d320c" d="M69.381,68.922L67,68L55,87h22C77,77.544,72.81,71.933,69.381,68.922z"/><polygon style="fill:#fff" points="45.475 66.997 55 87 64.525 66.997"/><path style="fill:#ffe9a1" d="M57.655,67.997H55h-2.655c-0.856,0-1.671-0.365-2.24-1.004L45,62.997v4.5l10,7.5l10-7.5v-4.5 l-5.106,3.996C59.326,67.632,58.511,67.997,57.655,67.997z"/><path style="fill:#fff5d9" d="M50.105,66.993L45,62.997v4.5l10,7.5v-7h-2.655C51.489,67.997,50.674,67.632,50.105,66.993z"/><path style="fill:#fff5d9" d="M70,45c-1,0-1,1.111-1,1.111v-2.305C65.526,44.538,60.549,45,55,45c-5.549,0-10.526-0.462-14-1.194 v9.191l4,10l5.105,3.996c0.569,0.639,1.384,1.004,2.24,1.004H55h2.655c0.856,0,1.671-0.365,2.24-1.004L65,62.997l3.206-8.017 C71.041,54.776,72,50.476,72,47.222C72,46.111,71,45,70,45z"/><path style="fill:#fff" d="M41,46.111c0,0,0-1.111-1-1.111s-2,1.111-2,2.222c0,3.253,0.957,7.554,3.793,7.758L45,62.997 l5.105,3.996c0.569,0.639,1.384,1.004,2.24,1.004H55V45c-5.549,0-10.526-0.462-14-1.194V46.111z"/><g><path style="fill:#fff" d="M79.976,64c0-2.52-2.805-5.325-5.325-5.325c2.521,0,5.325-2.805,5.325-5.325 c0,2.521,2.805,5.325,5.325,5.325C82.781,58.675,79.976,61.48,79.976,64z"/></g><g><path style="fill:#fff" d="M27.325,36c0-2.047-2.278-4.325-4.325-4.325c2.047,0,4.325-2.278,4.325-4.325 c0,2.047,2.278,4.325,4.325,4.325C29.604,31.675,27.325,33.953,27.325,36z"/></g><g><path style="fill:#3d320c" d="M52,46.997c0-1.104-0.896-2-2-2c-0.002,0-0.004,0.001-0.006,0.001 C49.995,45.019,50,45.039,50,45.06c0,1.103-0.892,1.996-1.994,1.999c0.033,1.075,0.91,1.938,1.994,1.938 C51.104,48.997,52,48.102,52,46.997z"/></g><g><path style="fill:#3d320c" d="M61.994,46.997c0-1.104-0.896-2-2-2c-0.002,0-0.004,0.001-0.006,0.001 c0.001,0.021,0.006,0.041,0.006,0.062c0,1.103-0.892,1.996-1.994,1.999c0.033,1.075,0.91,1.938,1.994,1.938 C61.098,48.997,61.994,48.102,61.994,46.997z"/></g><g><path style="fill:#f5c43d" d="M50,56.997h10c0,0,0,3-5,3S50,56.997,50,56.997z"/></g><g><path style="fill:#3d320c" d="M40,41c0,2.156,0,0.873,0,2c0,0,1,7,2,9c0,0,0,0,1,0c0-1.383,0-7.587,0-11H40z"/></g><g><path style="fill:#3d320c" d="M70,42c0,2.156,0-0.127,0,1c0,0-1,7-2,9c0,0,0,0-1,0c0-1.383,0-6.587,0-10H70z"/></g><path style="fill:#3d320c" d="M70,39.088c0-0.638,0-1.403,0-2.338c0-3.11,0.921-8.332,1.513-11.367 c0.114-0.586-0.042-1.194-0.421-1.655C70.711,23.268,70.146,23,69.548,23C65.934,23,59.157,23,55,23c-4.157,0-10.934,0-14.548,0 c-0.598,0-1.163,0.268-1.544,0.729c-0.38,0.461-0.536,1.068-0.421,1.655C39.079,28.418,40,33.64,40,36.75c0,0.936,0,1.701,0,2.338 c-2.498,0.621-4,1.398-4,2.245C36,43.358,44.507,45,55,45s19-1.642,19-3.666C74,40.486,72.498,39.709,70,39.088z"/><path style="fill:#3d320c" d="M55,54.694c-5-5-6,4-13,0c5,6,13,2,13,2s8,4,13-2C61,58.694,60,49.694,55,54.694z"/><path style="fill:#66510d" d="M40,36.75c0,0.088,0,0.165,0,0.25h15V23c-4.157,0-10.934,0-14.548,0 c-0.598,0-1.163,0.268-1.544,0.729c-0.38,0.461-0.536,1.068-0.421,1.655C39.079,28.418,40,33.64,40,36.75z"/><g><path style="fill:#fff" d="M55,36c-5.88,0-11.189-0.09-15-0.769v3.666c3.811,0.68,9.12,0.77,15,0.77V36z"/></g><g><path style="fill:#fff5d9" d="M55,36c5.88,0,11.187-0.09,15-0.769v3.666c-3.813,0.68-9.12,0.77-15,0.77V36z"/></g><g><polygon style="fill:#947615" points="55 87 65 66 69 68 71 75 64.666 75 68 79 59 87"/></g><path style="fill:#3d320c" d="M43,68l-2.381,0.922C37.19,71.933,33,77.544,33,87h22L43,68z"/><g><path style="fill:#e07000" d="M45,62.997V66c0,0-12,5-12,21c-5,0-10,0-10,0C21.936,75.3,34.272,66.584,45,62.997z"/></g><g><path style="fill:#e07000" d="M65,62.997V66c0,0,12,5,12,21c5,0,10,0,10,0C88.063,75.3,75.728,66.584,65,62.997z"/></g><g><polygon style="fill:#947615" points="55 87 45 66 41 68 39 75 45.333 75 42 79 51 87"/></g><path style="fill:#fa0" d="M64,72l-6.73,3.059C56.72,74.416,55.913,74,55,74c-0.913,0-1.72,0.416-2.27,1.059L46,72v10 l6.73-3.059C53.28,79.584,54.087,80,55,80c0.913,0,1.72-0.416,2.27-1.059L64,82V72z"/></g></g></svg>