<svg xmlns="http://www.w3.org/2000/svg" xmlns:xlink="http://www.w3.org/1999/xlink" width="110" height="110" x="0" y="0" version="1.0" viewBox="0 0 110 110" xml:space="preserve" style="enable-background:new 0 0 110 110"><g id="Artboard" style="display:none"><rect style="display:inline;fill:gray;stroke:#000;stroke-miterlimit:10" width="1422" height="630" x="-716.5" y="-447.5"/></g><g id="R-Multicolor" style="display:none"><circle style="display:inline;fill:#25b7d3" cx="55" cy="55" r="55"/><g style="display:inline"><g><path style="fill:#f0f1f1" d="M81.937,24.303C81.205,23.507,80.166,23,79,23H31c-2.209,0-4,1.791-4,4v56c0,2.209,1.791,4,4,4h48 c2.209,0,4-1.791,4-4V27C83,25.957,82.591,25.015,81.937,24.303z"/></g><g><path style="fill:#fff" d="M31,29c0-1.104,0.895-2,2-2h12c1.105,0,2,0.896,2,2v30.239l4.436-4.436 C51.179,54.623,51,54.338,51,54V44c0-0.552,0.448-1,1-1h10c0.338,0,0.622,0.179,0.803,0.436l4.632-4.632 C67.179,38.623,67,38.338,67,38V28c0-0.552,0.448-1,1-1h10c0.338,0,0.622,0.179,0.803,0.436l3.133-3.133 C81.205,23.507,80.166,23,79,23H31c-2.209,0-4,1.791-4,4v52.239l4-4V29z M51,28c0-0.552,0.448-1,1-1h10c0.552,0,1,0.448,1,1v10 c0,0.552-0.448,1-1,1H52c-0.552,0-1-0.448-1-1V28z"/></g><g><path style="fill:#f4d0a1" d="M45,27H33c-1.105,0-2,0.896-2,2v46.239V81c0,1.104,0.895,2,2,2h12c1.105,0,2-0.896,2-2V59.239V29 C47,27.896,46.105,27,45,27z"/></g><g><path style="fill:#f8e1c2" d="M45,27H33c-1.105,0-2,0.896-2,2v46.239l16-16V29C47,27.896,46.105,27,45,27z"/></g><g><path style="fill:#f79392" d="M52,39h10c0.552,0,1-0.448,1-1V28c0-0.552-0.448-1-1-1H52c-0.552,0-1,0.448-1,1v10 C51,38.552,51.448,39,52,39z"/></g><g><path style="fill:#facb1b" d="M78.803,27.436C78.622,27.179,78.338,27,78,27H68c-0.552,0-1,0.448-1,1v10 c0,0.338,0.179,0.623,0.436,0.803C67.598,38.918,67.786,39,68,39h10c0.552,0,1-0.448,1-1V28 C79,27.786,78.918,27.599,78.803,27.436z"/></g><g><path style="fill:#fbe158" d="M78,27H68c-0.552,0-1,0.448-1,1v10c0,0.338,0.179,0.623,0.436,0.803l11.368-11.368 C78.622,27.179,78.338,27,78,27z"/></g><g><path style="fill:#12b2a0" d="M62.803,43.436C62.622,43.179,62.338,43,62,43H52c-0.552,0-1,0.448-1,1v10 c0,0.338,0.179,0.623,0.436,0.803C51.598,54.918,51.786,55,52,55h10c0.552,0,1-0.448,1-1V44 C63,43.786,62.918,43.599,62.803,43.436z"/></g><g><path style="fill:#47c4b7" d="M62,43H52c-0.552,0-1,0.448-1,1v10c0,0.338,0.179,0.623,0.436,0.803l11.368-11.368 C62.622,43.179,62.338,43,62,43z"/></g><g><path style="fill:#84462d" d="M39,43h-4v4l1.876,30.024C36.946,78.135,37.867,79,38.98,79H39h0.02 c1.113,0,2.034-0.865,2.104-1.976L43,47v-4H39z"/></g><g><path style="fill:#9c6144" d="M35,43v4l1.876,30.024C36.946,78.135,37.867,79,38.98,79H39V43H35z"/></g><g><path style="fill:#47c4b7" d="M79,54c0,0.552-0.448,1-1,1H68c-0.552,0-1-0.448-1-1V44c0-0.552,0.448-1,1-1h10 c0.552,0,1,0.448,1,1V54z"/></g><g><path style="fill:#40c9e7" d="M63,70c0,0.552-0.448,1-1,1H52c-0.552,0-1-0.448-1-1V60c0-0.552,0.448-1,1-1h10 c0.552,0,1,0.448,1,1V70z"/></g><g><path style="fill:#40c9e7" d="M79,70c0,0.552-0.448,1-1,1H68c-0.552,0-1-0.448-1-1V60c0-0.552,0.448-1,1-1h10 c0.552,0,1,0.448,1,1V70z"/></g><g><path style="fill:#f4d0a1" d="M79,82c0,0.552-0.448,1-1,1H52c-0.552,0-1-0.448-1-1v-6c0-0.552,0.448-1,1-1h26 c0.552,0,1,0.448,1,1V82z"/></g><g><path style="fill:#3e3e3f" d="M39,30L39,30c0,0-5,5.687-5,9c0,1.851,0.713,3.175,1.811,4H39h3.189 C43.287,42.175,44,40.851,44,39C44,35.687,39.001,30.001,39,30z"/></g><g><path style="fill:#5b5c5f" d="M34,39c0,1.851,0.713,3.175,1.811,4H39V30h0C39,30,34,35.687,34,39z"/></g><g><polygon style="fill:#f3b607" points="39 43 35 43 35 47 39 47 43 47 43 43"/></g><g><polygon style="fill:#facb1b" points="35.811 43 35 43 35 47 39 47 39 43"/></g></g></g><g id="Multicolor"><g><g><path style="fill:#f0f1f1" d="M81.937,24.303C81.205,23.507,80.166,23,79,23H31c-2.209,0-4,1.791-4,4v56c0,2.209,1.791,4,4,4h48 c2.209,0,4-1.791,4-4V27C83,25.957,82.591,25.015,81.937,24.303z"/></g><g><path style="fill:#fff" d="M31,29c0-1.104,0.895-2,2-2h12c1.105,0,2,0.896,2,2v30.239l4.436-4.436 C51.179,54.623,51,54.338,51,54V44c0-0.552,0.448-1,1-1h10c0.338,0,0.622,0.179,0.803,0.436l4.632-4.632 C67.179,38.623,67,38.338,67,38V28c0-0.552,0.448-1,1-1h10c0.338,0,0.622,0.179,0.803,0.436l3.133-3.133 C81.205,23.507,80.166,23,79,23H31c-2.209,0-4,1.791-4,4v52.239l4-4V29z M51,28c0-0.552,0.448-1,1-1h10c0.552,0,1,0.448,1,1v10 c0,0.552-0.448,1-1,1H52c-0.552,0-1-0.448-1-1V28z"/></g><g><path style="fill:#f4d0a1" d="M45,27H33c-1.105,0-2,0.896-2,2v46.239V81c0,1.104,0.895,2,2,2h12c1.105,0,2-0.896,2-2V59.239V29 C47,27.896,46.105,27,45,27z"/></g><g><path style="fill:#f8e1c2" d="M45,27H33c-1.105,0-2,0.896-2,2v46.239l16-16V29C47,27.896,46.105,27,45,27z"/></g><g><path style="fill:#f79392" d="M52,39h10c0.552,0,1-0.448,1-1V28c0-0.552-0.448-1-1-1H52c-0.552,0-1,0.448-1,1v10 C51,38.552,51.448,39,52,39z"/></g><g><path style="fill:#facb1b" d="M78.803,27.436C78.622,27.179,78.338,27,78,27H68c-0.552,0-1,0.448-1,1v10 c0,0.338,0.179,0.623,0.436,0.803C67.598,38.918,67.786,39,68,39h10c0.552,0,1-0.448,1-1V28 C79,27.786,78.918,27.599,78.803,27.436z"/></g><g><path style="fill:#fbe158" d="M78,27H68c-0.552,0-1,0.448-1,1v10c0,0.338,0.179,0.623,0.436,0.803l11.368-11.368 C78.622,27.179,78.338,27,78,27z"/></g><g><path style="fill:#12b2a0" d="M62.803,43.436C62.622,43.179,62.338,43,62,43H52c-0.552,0-1,0.448-1,1v10 c0,0.338,0.179,0.623,0.436,0.803C51.598,54.918,51.786,55,52,55h10c0.552,0,1-0.448,1-1V44 C63,43.786,62.918,43.599,62.803,43.436z"/></g><g><path style="fill:#47c4b7" d="M62,43H52c-0.552,0-1,0.448-1,1v10c0,0.338,0.179,0.623,0.436,0.803l11.368-11.368 C62.622,43.179,62.338,43,62,43z"/></g><g><path style="fill:#84462d" d="M39,43h-4v4l1.876,30.024C36.946,78.135,37.867,79,38.98,79H39h0.02 c1.113,0,2.034-0.865,2.104-1.976L43,47v-4H39z"/></g><g><path style="fill:#9c6144" d="M35,43v4l1.876,30.024C36.946,78.135,37.867,79,38.98,79H39V43H35z"/></g><g><path style="fill:#47c4b7" d="M79,54c0,0.552-0.448,1-1,1H68c-0.552,0-1-0.448-1-1V44c0-0.552,0.448-1,1-1h10 c0.552,0,1,0.448,1,1V54z"/></g><g><path style="fill:#40c9e7" d="M63,70c0,0.552-0.448,1-1,1H52c-0.552,0-1-0.448-1-1V60c0-0.552,0.448-1,1-1h10 c0.552,0,1,0.448,1,1V70z"/></g><g><path style="fill:#40c9e7" d="M79,70c0,0.552-0.448,1-1,1H68c-0.552,0-1-0.448-1-1V60c0-0.552,0.448-1,1-1h10 c0.552,0,1,0.448,1,1V70z"/></g><g><path style="fill:#f4d0a1" d="M79,82c0,0.552-0.448,1-1,1H52c-0.552,0-1-0.448-1-1v-6c0-0.552,0.448-1,1-1h26 c0.552,0,1,0.448,1,1V82z"/></g><g><path style="fill:#3e3e3f" d="M39,30L39,30c0,0-5,5.687-5,9c0,1.851,0.713,3.175,1.811,4H39h3.189 C43.287,42.175,44,40.851,44,39C44,35.687,39.001,30.001,39,30z"/></g><g><path style="fill:#5b5c5f" d="M34,39c0,1.851,0.713,3.175,1.811,4H39V30h0C39,30,34,35.687,34,39z"/></g><g><polygon style="fill:#f3b607" points="39 43 35 43 35 47 39 47 43 47 43 43"/></g><g><polygon style="fill:#facb1b" points="35.811 43 35 43 35 47 39 47 39 43"/></g></g></g><g id="Blue" style="display:none"><g style="display:inline"><g><path style="fill:#e1f5fa" d="M81.937,24.303C81.205,23.507,80.166,23,79,23H31c-2.209,0-4,1.791-4,4v56c0,2.209,1.791,4,4,4h48 c2.209,0,4-1.791,4-4V27C83,25.956,82.591,25.015,81.937,24.303z"/></g><g><path style="fill:#fff" d="M31,29c0-1.104,0.896-2,2-2h12c1.104,0,2,0.896,2,2v30.239l4.436-4.436 C51.179,54.623,51,54.339,51,54V44c0-0.552,0.447-1,1-1h10c0.338,0,0.622,0.179,0.804,0.436l4.632-4.632 C67.179,38.623,67,38.339,67,38V28c0-0.552,0.447-1,1-1h10c0.338,0,0.622,0.179,0.804,0.435l3.133-3.133 C81.205,23.507,80.166,23,79,23H31c-2.209,0-4,1.791-4,4v52.239l4-4V29z M51,28c0-0.552,0.447-1,1-1h10c0.553,0,1,0.448,1,1v10 c0,0.552-0.447,1-1,1H52c-0.553,0-1-0.448-1-1V28z"/></g><g><path style="fill:#bbe7f2" d="M45,27H33c-1.104,0-2,0.896-2,2v46.239V81c0,1.104,0.896,2,2,2h12c1.104,0,2-0.896,2-2V59.239V29 C47,27.896,46.104,27,45,27z"/></g><g><path style="fill:#e1f5fa" d="M45,27H33c-1.104,0-2,0.896-2,2v46.239l16-16V29C47,27.896,46.104,27,45,27z"/></g><g><path style="fill:#0f6175" d="M52,39h10c0.553,0,1-0.448,1-1V28c0-0.552-0.447-1-1-1H52c-0.553,0-1,0.448-1,1v10 C51,38.552,51.447,39,52,39z"/></g><g><path style="fill:#0c333d" d="M78.804,27.435C78.622,27.179,78.338,27,78,27H68c-0.553,0-1,0.448-1,1v10 c0,0.339,0.179,0.623,0.436,0.804C67.599,38.918,67.786,39,68,39h10c0.553,0,1-0.448,1-1V28 C79,27.786,78.918,27.599,78.804,27.435z"/></g><g><path style="fill:#0f6175" d="M78,27H68c-0.553,0-1,0.448-1,1v10c0,0.339,0.179,0.623,0.436,0.804l11.368-11.368 C78.622,27.179,78.338,27,78,27z"/></g><g><path style="fill:#009fc7" d="M62.804,43.436C62.622,43.179,62.338,43,62,43H52c-0.553,0-1,0.448-1,1v10 c0,0.339,0.179,0.623,0.436,0.804C51.599,54.918,51.786,55,52,55h10c0.553,0,1-0.448,1-1V44 C63,43.786,62.918,43.599,62.804,43.436z"/></g><g><path style="fill:#00b7e5" d="M62,43H52c-0.553,0-1,0.448-1,1v10c0,0.339,0.179,0.623,0.436,0.804l11.368-11.368 C62.622,43.179,62.338,43,62,43z"/></g><g><path style="fill:#0081a1" d="M39,43h-4v4l1.877,30.024C36.945,78.135,37.867,79,38.98,79H39h0.02 c1.113,0,2.035-0.865,2.104-1.976L43,47v-4H39z"/></g><g><path style="fill:#009fc7" d="M35,43v4l1.877,30.024C36.945,78.135,37.867,79,38.98,79H39V43H35z"/></g><g><path style="fill:#00b7e5" d="M79,54c0,0.553-0.447,1-1,1H68c-0.553,0-1-0.447-1-1V44c0-0.552,0.447-1,1-1h10 c0.553,0,1,0.448,1,1V54z"/></g><g><path style="fill:#53bad4" d="M63,70c0,0.553-0.447,1-1,1H52c-0.553,0-1-0.447-1-1V60c0-0.552,0.447-1,1-1h10 c0.553,0,1,0.448,1,1V70z"/></g><g><path style="fill:#53bad4" d="M79,70c0,0.553-0.447,1-1,1H68c-0.553,0-1-0.447-1-1V60c0-0.552,0.447-1,1-1h10 c0.553,0,1,0.448,1,1V70z"/></g><g><path style="fill:#00b7e5" d="M79,82c0,0.553-0.447,1-1,1H52c-0.553,0-1-0.447-1-1v-6c0-0.552,0.447-1,1-1h26 c0.553,0,1,0.448,1,1V82z"/></g><g><path style="fill:#0c333d" d="M39,30L39,30c0,0-5,5.687-5,9c0,1.851,0.713,3.175,1.812,4H39h3.188 C43.287,42.175,44,40.851,44,39C44,35.687,39.001,30.001,39,30z"/></g><g><path style="fill:#0f6175" d="M34,39c0,1.851,0.713,3.175,1.812,4H39V30l0,0C39,30,34,35.687,34,39z"/></g><g><polygon style="fill:#81d2eb" points="39 43 35 43 35 47 39 47 43 47 43 43"/></g><g><polygon style="fill:#bbe7f2" points="35.812 43 35 43 35 47 39 47 39 43"/></g></g></g><g id="R-Blue" style="display:none"><circle style="display:inline;fill:#81d2eb" cx="55" cy="55" r="55"/><g style="display:inline"><g><path style="fill:#e1f5fa" d="M81.937,24.303C81.205,23.507,80.166,23,79,23H31c-2.209,0-4,1.791-4,4v56c0,2.209,1.791,4,4,4h48 c2.209,0,4-1.791,4-4V27C83,25.956,82.591,25.015,81.937,24.303z"/></g><g><path style="fill:#fff" d="M31,29c0-1.104,0.896-2,2-2h12c1.104,0,2,0.896,2,2v30.239l4.436-4.436 C51.179,54.623,51,54.339,51,54V44c0-0.552,0.447-1,1-1h10c0.338,0,0.622,0.179,0.804,0.436l4.632-4.632 C67.179,38.623,67,38.339,67,38V28c0-0.552,0.447-1,1-1h10c0.338,0,0.622,0.179,0.804,0.436l3.133-3.133 C81.205,23.507,80.166,23,79,23H31c-2.209,0-4,1.791-4,4v52.239l4-4V29z M51,28c0-0.552,0.447-1,1-1h10c0.553,0,1,0.448,1,1v10 c0,0.552-0.447,1-1,1H52c-0.553,0-1-0.448-1-1V28z"/></g><g><path style="fill:#bbe7f2" d="M45,27H33c-1.104,0-2,0.896-2,2v46.239V81c0,1.104,0.896,2,2,2h12c1.104,0,2-0.896,2-2V59.239V29 C47,27.896,46.104,27,45,27z"/></g><g><path style="fill:#e1f5fa" d="M45,27H33c-1.104,0-2,0.896-2,2v46.239l16-16V29C47,27.896,46.104,27,45,27z"/></g><g><path style="fill:#0f6175" d="M52,39h10c0.553,0,1-0.448,1-1V28c0-0.552-0.447-1-1-1H52c-0.553,0-1,0.448-1,1v10 C51,38.552,51.447,39,52,39z"/></g><g><path style="fill:#0c333d" d="M78.804,27.436C78.622,27.179,78.338,27,78,27H68c-0.553,0-1,0.448-1,1v10 c0,0.339,0.179,0.623,0.435,0.804C67.599,38.918,67.786,39,68,39h10c0.553,0,1-0.448,1-1V28 C79,27.786,78.918,27.599,78.804,27.436z"/></g><g><path style="fill:#0f6175" d="M78,27H68c-0.553,0-1,0.448-1,1v10c0,0.339,0.179,0.623,0.435,0.804l11.368-11.368 C78.622,27.179,78.338,27,78,27z"/></g><g><path style="fill:#009fc7" d="M62.804,43.436C62.622,43.179,62.338,43,62,43H52c-0.553,0-1,0.448-1,1v10 c0,0.339,0.179,0.623,0.436,0.804C51.599,54.918,51.786,55,52,55h10c0.553,0,1-0.448,1-1V44 C63,43.786,62.918,43.599,62.804,43.436z"/></g><g><path style="fill:#00b7e5" d="M62,43H52c-0.553,0-1,0.448-1,1v10c0,0.339,0.179,0.623,0.436,0.804l11.368-11.368 C62.622,43.179,62.338,43,62,43z"/></g><g><path style="fill:#0081a1" d="M39,43h-4v4l1.877,30.024C36.945,78.135,37.867,79,38.98,79H39h0.02 c1.113,0,2.035-0.865,2.104-1.976L43,47v-4H39z"/></g><g><path style="fill:#009fc7" d="M35,43v4l1.877,30.024C36.945,78.135,37.867,79,38.98,79H39V43H35z"/></g><g><path style="fill:#00b7e5" d="M79,54c0,0.553-0.447,1-1,1H68c-0.553,0-1-0.447-1-1V44c0-0.552,0.447-1,1-1h10 c0.553,0,1,0.448,1,1V54z"/></g><g><path style="fill:#53bad4" d="M63,70c0,0.553-0.447,1-1,1H52c-0.553,0-1-0.447-1-1V60c0-0.552,0.447-1,1-1h10 c0.553,0,1,0.448,1,1V70z"/></g><g><path style="fill:#53bad4" d="M79,70c0,0.553-0.447,1-1,1H68c-0.553,0-1-0.447-1-1V60c0-0.552,0.447-1,1-1h10 c0.553,0,1,0.448,1,1V70z"/></g><g><path style="fill:#00b7e5" d="M79,82c0,0.553-0.447,1-1,1H52c-0.553,0-1-0.447-1-1v-6c0-0.552,0.447-1,1-1h26 c0.553,0,1,0.448,1,1V82z"/></g><g><path style="fill:#0c333d" d="M39,30L39,30c0,0-5,5.687-5,9c0,1.851,0.713,3.175,1.812,4H39h3.188 C43.287,42.175,44,40.851,44,39C44,35.687,39.001,30.001,39,30z"/></g><g><path style="fill:#0f6175" d="M34,39c0,1.851,0.713,3.175,1.812,4H39V30l0,0C39,30,34,35.687,34,39z"/></g><g><polygon style="fill:#81d2eb" points="39 43 35 43 35 47 39 47 43 47 43 43"/></g><g><polygon style="fill:#bbe7f2" points="35.811 43 35 43 35 47 39 47 39 43"/></g></g></g><g id="Green" style="display:none"><g style="display:inline"><g><path style="fill:#d7fcf9" d="M81.937,24.303C81.205,23.507,80.166,23,79,23H31c-2.209,0-4,1.791-4,4v56c0,2.209,1.791,4,4,4h48 c2.209,0,4-1.791,4-4V27C83,25.956,82.591,25.015,81.937,24.303z"/></g><g><path style="fill:#fff" d="M31,29c0-1.105,0.896-2,2-2h12c1.104,0,2,0.895,2,2v30.239l4.436-4.436 C51.179,54.623,51,54.339,51,54V44c0-0.552,0.447-1,1-1h10c0.338,0,0.622,0.179,0.804,0.435l4.632-4.632 C67.179,38.623,67,38.339,67,38V28c0-0.552,0.447-1,1-1h10c0.338,0,0.622,0.179,0.804,0.435l3.133-3.133 C81.205,23.507,80.166,23,79,23H31c-2.209,0-4,1.791-4,4v52.239l4-4V29z M51,28c0-0.552,0.447-1,1-1h10c0.553,0,1,0.448,1,1v10 c0,0.552-0.447,1-1,1H52c-0.553,0-1-0.448-1-1V28z"/></g><g><path style="fill:#aaf0e9" d="M45,27H33c-1.104,0-2,0.895-2,2v46.239V81c0,1.104,0.896,2,2,2h12c1.104,0,2-0.896,2-2V59.239V29 C47,27.895,46.104,27,45,27z"/></g><g><path style="fill:#d7fcf9" d="M45,27H33c-1.104,0-2,0.895-2,2v46.239l16-16V29C47,27.895,46.104,27,45,27z"/></g><g><path style="fill:#14635b" d="M52,39h10c0.553,0,1-0.448,1-1V28c0-0.552-0.447-1-1-1H52c-0.553,0-1,0.448-1,1v10 C51,38.552,51.447,39,52,39z"/></g><g><path style="fill:#0a3631" d="M78.804,27.435C78.622,27.179,78.338,27,78,27H68c-0.553,0-1,0.448-1,1v10 c0,0.339,0.179,0.623,0.436,0.804C67.599,38.918,67.786,39,68,39h10c0.553,0,1-0.448,1-1V28 C79,27.786,78.918,27.599,78.804,27.435z"/></g><g><path style="fill:#14635b" d="M78,27H68c-0.553,0-1,0.448-1,1v10c0,0.339,0.179,0.623,0.436,0.804l11.368-11.368 C78.622,27.179,78.338,27,78,27z"/></g><g><path style="fill:#00b8a5" d="M62.804,43.435C62.622,43.179,62.338,43,62,43H52c-0.553,0-1,0.448-1,1v10 c0,0.339,0.179,0.623,0.436,0.804C51.599,54.918,51.786,55,52,55h10c0.553,0,1-0.448,1-1V44 C63,43.786,62.918,43.599,62.804,43.435z"/></g><g><path style="fill:#00d6c1" d="M62,43H52c-0.553,0-1,0.448-1,1v10c0,0.339,0.179,0.623,0.436,0.804l11.368-11.368 C62.622,43.179,62.338,43,62,43z"/></g><g><path style="fill:#009687" d="M39,43h-4v4l1.877,30.024C36.945,78.135,37.867,79,38.98,79H39h0.02 c1.113,0,2.035-0.865,2.104-1.976L43,47v-4H39z"/></g><g><path style="fill:#00b8a5" d="M35,43v4l1.877,30.024C36.945,78.135,37.867,79,38.98,79H39V43H35z"/></g><g><path style="fill:#00d6c1" d="M79,54c0,0.553-0.447,1-1,1H68c-0.553,0-1-0.447-1-1V44c0-0.552,0.447-1,1-1h10 c0.553,0,1,0.448,1,1V54z"/></g><g><path style="fill:#55c9be" d="M63,70c0,0.553-0.447,1-1,1H52c-0.553,0-1-0.447-1-1V60c0-0.552,0.447-1,1-1h10 c0.553,0,1,0.448,1,1V70z"/></g><g><path style="fill:#55c9be" d="M79,70c0,0.553-0.447,1-1,1H68c-0.553,0-1-0.447-1-1V60c0-0.552,0.447-1,1-1h10 c0.553,0,1,0.448,1,1V70z"/></g><g><path style="fill:#00d6c1" d="M79,82c0,0.553-0.447,1-1,1H52c-0.553,0-1-0.447-1-1v-6c0-0.552,0.447-1,1-1h26 c0.553,0,1,0.448,1,1V82z"/></g><g><path style="fill:#0a3631" d="M39,30L39,30c0,0-5,5.687-5,9c0,1.851,0.713,3.175,1.812,4H39h3.188 C43.287,42.175,44,40.851,44,39C44,35.687,39.001,30.001,39,30z"/></g><g><path style="fill:#14635b" d="M34,39c0,1.851,0.713,3.175,1.812,4H39V30l0,0C39,30,34,35.687,34,39z"/></g><g><polygon style="fill:#77e0c4" points="39 43 35 43 35 47 39 47 43 47 43 43"/></g><g><polygon style="fill:#aaf0e9" points="35.812 43 35 43 35 47 39 47 39 43"/></g></g></g><g id="R-Green" style="display:none"><circle style="display:inline;fill:#77e0c4" cx="55" cy="55" r="55"/><g style="display:inline"><g><path style="fill:#d7fcf9" d="M81.937,24.303C81.205,23.507,80.166,23,79,23H31c-2.209,0-4,1.791-4,4v56c0,2.209,1.791,4,4,4h48 c2.209,0,4-1.791,4-4V27C83,25.956,82.591,25.015,81.937,24.303z"/></g><g><path style="fill:#fff" d="M31,29c0-1.104,0.896-2,2-2h12c1.104,0,2,0.896,2,2v30.239l4.436-4.436 C51.179,54.623,51,54.339,51,54V44c0-0.552,0.447-1,1-1h10c0.338,0,0.622,0.179,0.804,0.436l4.632-4.632 C67.179,38.623,67,38.339,67,38V28c0-0.552,0.447-1,1-1h10c0.338,0,0.622,0.179,0.804,0.436l3.133-3.133 C81.205,23.507,80.166,23,79,23H31c-2.209,0-4,1.791-4,4v52.239l4-4V29z M51,28c0-0.552,0.447-1,1-1h10c0.553,0,1,0.448,1,1v10 c0,0.552-0.447,1-1,1H52c-0.553,0-1-0.448-1-1V28z"/></g><g><path style="fill:#aaf0e9" d="M45,27H33c-1.104,0-2,0.896-2,2v46.239V81c0,1.104,0.896,2,2,2h12c1.104,0,2-0.896,2-2V59.239V29 C47,27.896,46.104,27,45,27z"/></g><g><path style="fill:#d7fcf9" d="M45,27H33c-1.104,0-2,0.896-2,2v46.239l16-16V29C47,27.896,46.104,27,45,27z"/></g><g><path style="fill:#14635b" d="M52,39h10c0.553,0,1-0.448,1-1V28c0-0.552-0.447-1-1-1H52c-0.553,0-1,0.448-1,1v10 C51,38.552,51.447,39,52,39z"/></g><g><path style="fill:#0a3631" d="M78.804,27.436C78.622,27.179,78.338,27,78,27H68c-0.553,0-1,0.448-1,1v10 c0,0.339,0.179,0.623,0.436,0.804C67.599,38.918,67.786,39,68,39h10c0.553,0,1-0.448,1-1V28 C79,27.786,78.918,27.599,78.804,27.436z"/></g><g><path style="fill:#14635b" d="M78,27H68c-0.553,0-1,0.448-1,1v10c0,0.339,0.179,0.623,0.436,0.804l11.368-11.368 C78.622,27.179,78.338,27,78,27z"/></g><g><path style="fill:#00b8a5" d="M62.804,43.436C62.622,43.179,62.338,43,62,43H52c-0.553,0-1,0.448-1,1v10 c0,0.339,0.179,0.623,0.436,0.804C51.599,54.918,51.786,55,52,55h10c0.553,0,1-0.448,1-1V44 C63,43.786,62.918,43.599,62.804,43.436z"/></g><g><path style="fill:#00d6c1" d="M62,43H52c-0.553,0-1,0.448-1,1v10c0,0.339,0.179,0.623,0.436,0.804l11.368-11.368 C62.622,43.179,62.338,43,62,43z"/></g><g><path style="fill:#009687" d="M39,43h-4v4l1.877,30.024C36.945,78.135,37.867,79,38.98,79H39h0.02 c1.113,0,2.035-0.865,2.104-1.976L43,47v-4H39z"/></g><g><path style="fill:#00b8a5" d="M35,43v4l1.877,30.024C36.945,78.135,37.867,79,38.98,79H39V43H35z"/></g><g><path style="fill:#00d6c1" d="M79,54c0,0.553-0.447,1-1,1H68c-0.553,0-1-0.447-1-1V44c0-0.552,0.447-1,1-1h10 c0.553,0,1,0.448,1,1V54z"/></g><g><path style="fill:#55c9be" d="M63,70c0,0.553-0.447,1-1,1H52c-0.553,0-1-0.447-1-1V60c0-0.552,0.447-1,1-1h10 c0.553,0,1,0.448,1,1V70z"/></g><g><path style="fill:#55c9be" d="M79,70c0,0.553-0.447,1-1,1H68c-0.553,0-1-0.447-1-1V60c0-0.552,0.447-1,1-1h10 c0.553,0,1,0.448,1,1V70z"/></g><g><path style="fill:#00d6c1" d="M79,82c0,0.553-0.447,1-1,1H52c-0.553,0-1-0.447-1-1v-6c0-0.552,0.447-1,1-1h26 c0.553,0,1,0.448,1,1V82z"/></g><g><path style="fill:#0a3631" d="M39,30L39,30c0,0-5,5.687-5,9c0,1.851,0.713,3.175,1.812,4H39h3.188 C43.287,42.175,44,40.851,44,39C44,35.687,39.001,30.001,39,30z"/></g><g><path style="fill:#14635b" d="M34,39c0,1.851,0.713,3.175,1.812,4H39V30l0,0C39,30,34,35.687,34,39z"/></g><g><polygon style="fill:#77e0c4" points="39 43 35 43 35 47 39 47 43 47 43 43"/></g><g><polygon style="fill:#aaf0e9" points="35.812 43 35 43 35 47 39 47 39 43"/></g></g></g><g id="Red" style="display:none"><g style="display:inline"><g><path style="fill:#ffefed" d="M81.936,24.303C81.205,23.507,80.166,23,79,23H31c-2.209,0-4,1.791-4,4v56c0,2.209,1.791,4,4,4h48 c2.209,0,4-1.791,4-4V27C83,25.956,82.591,25.014,81.936,24.303z"/></g><g><path style="fill:#fff" d="M31,29c0-1.104,0.896-2,2-2h12c1.104,0,2,0.896,2,2v30.239l4.435-4.436 C51.179,54.623,51,54.339,51,54V44c0-0.552,0.447-1,1-1h10c0.338,0,0.622,0.179,0.804,0.435l4.632-4.632 C67.179,38.623,67,38.339,67,38V28c0-0.552,0.447-1,1-1h10c0.338,0,0.622,0.179,0.804,0.435l3.133-3.133 C81.205,23.507,80.166,23,79,23H31c-2.209,0-4,1.791-4,4v52.239l4-4V29z M51,28c0-0.552,0.447-1,1-1h10c0.553,0,1,0.448,1,1v10 c0,0.552-0.447,1-1,1H52c-0.553,0-1-0.448-1-1V28z"/></g><g><path style="fill:#ffd7d4" d="M45,27H33c-1.104,0-2,0.896-2,2v46.239V81c0,1.104,0.896,2,2,2h12c1.104,0,2-0.896,2-2V59.239V29 C47,27.895,46.104,27,45,27z"/></g><g><path style="fill:#ffefed" d="M45,27H33c-1.104,0-2,0.896-2,2v46.239l16-16V29C47,27.895,46.104,27,45,27z"/></g><g><path style="fill:#7d261e" d="M52,39h10c0.553,0,1-0.448,1-1V28c0-0.552-0.447-1-1-1H52c-0.553,0-1,0.448-1,1v10 C51,38.552,51.447,39,52,39z"/></g><g><path style="fill:#4a1410" d="M78.804,27.435C78.622,27.179,78.338,27,78,27H68c-0.553,0-1,0.448-1,1v10 c0,0.339,0.179,0.623,0.435,0.804C67.599,38.918,67.786,39,68,39h10c0.553,0,1-0.448,1-1V28 C79,27.786,78.918,27.598,78.804,27.435z"/></g><g><path style="fill:#7d261e" d="M78,27H68c-0.553,0-1,0.448-1,1v10c0,0.339,0.179,0.623,0.435,0.804l11.368-11.368 C78.622,27.179,78.338,27,78,27z"/></g><g><path style="fill:#e54b44" d="M62.804,43.435C62.622,43.179,62.338,43,62,43H52c-0.553,0-1,0.448-1,1v10 c0,0.339,0.179,0.623,0.435,0.804C51.599,54.918,51.786,55,52,55h10c0.553,0,1-0.448,1-1V44 C63,43.786,62.918,43.598,62.804,43.435z"/></g><g><path style="fill:#ff6c5e" d="M62,43H52c-0.553,0-1,0.448-1,1v10c0,0.339,0.179,0.623,0.435,0.804l11.368-11.368 C62.622,43.179,62.338,43,62,43z"/></g><g><path style="fill:#c23023" d="M39,43h-4v4l1.877,30.024C36.945,78.135,37.867,79,38.98,79H39h0.019 c1.113,0,2.035-0.865,2.104-1.976L43,47v-4H39z"/></g><g><path style="fill:#e54b44" d="M35,43v4l1.877,30.024C36.945,78.135,37.867,79,38.98,79H39V43H35z"/></g><g><path style="fill:#ff6c5e" d="M79,54c0,0.553-0.447,1-1,1H68c-0.553,0-1-0.447-1-1V44c0-0.552,0.447-1,1-1h10 c0.553,0,1,0.448,1,1V54z"/></g><g><path style="fill:#e8a099" d="M63,70c0,0.553-0.447,1-1,1H52c-0.553,0-1-0.447-1-1V60c0-0.552,0.447-1,1-1h10 c0.553,0,1,0.448,1,1V70z"/></g><g><path style="fill:#e8a099" d="M79,70c0,0.553-0.447,1-1,1H68c-0.553,0-1-0.447-1-1V60c0-0.552,0.447-1,1-1h10 c0.553,0,1,0.448,1,1V70z"/></g><g><path style="fill:#ff6c5e" d="M79,82c0,0.553-0.447,1-1,1H52c-0.553,0-1-0.447-1-1v-6c0-0.552,0.447-1,1-1h26 c0.553,0,1,0.448,1,1V82z"/></g><g><path style="fill:#4a1410" d="M39,30L39,30c0,0-5,5.686-5,9c0,1.851,0.713,3.175,1.811,4H39h3.188C43.287,42.175,44,40.85,44,39 C44,35.686,39.001,30.001,39,30z"/></g><g><path style="fill:#7d261e" d="M34,39c0,1.851,0.713,3.175,1.811,4H39V30l0,0C39,30,34,35.686,34,39z"/></g><g><polygon style="fill:#fabbaf" points="39 43 35 43 35 47 39 47 43 47 43 43"/></g><g><polygon style="fill:#ffd7d4" points="35.811 43 35 43 35 47 39 47 39 43"/></g></g></g><g id="R-Red" style="display:none"><circle style="display:inline;fill:#fabbaf" cx="55" cy="55" r="55"/><g style="display:inline"><g><path style="fill:#ffefed" d="M81.936,24.303C81.205,23.507,80.166,23,79,23H31c-2.209,0-4,1.791-4,4v56c0,2.209,1.791,4,4,4h48 c2.209,0,4-1.791,4-4V27C83,25.956,82.591,25.015,81.936,24.303z"/></g><g><path style="fill:#fff" d="M31,29c0-1.104,0.896-2,2-2h12c1.104,0,2,0.896,2,2v30.239l4.435-4.436 C51.179,54.623,51,54.339,51,54V44c0-0.552,0.447-1,1-1h10c0.338,0,0.622,0.179,0.804,0.436l4.632-4.632 C67.179,38.623,67,38.339,67,38V28c0-0.552,0.447-1,1-1h10c0.338,0,0.622,0.179,0.804,0.435l3.133-3.133 C81.205,23.507,80.166,23,79,23H31c-2.209,0-4,1.791-4,4v52.239l4-4V29z M51,28c0-0.552,0.447-1,1-1h10c0.553,0,1,0.448,1,1v10 c0,0.552-0.447,1-1,1H52c-0.553,0-1-0.448-1-1V28z"/></g><g><path style="fill:#ffd7d4" d="M45,27H33c-1.104,0-2,0.896-2,2v46.239V81c0,1.104,0.896,2,2,2h12c1.104,0,2-0.896,2-2V59.239V29 C47,27.896,46.104,27,45,27z"/></g><g><path style="fill:#ffefed" d="M45,27H33c-1.104,0-2,0.896-2,2v46.239l16-16V29C47,27.896,46.104,27,45,27z"/></g><g><path style="fill:#7d261e" d="M52,39h10c0.553,0,1-0.448,1-1V28c0-0.552-0.447-1-1-1H52c-0.553,0-1,0.448-1,1v10 C51,38.552,51.447,39,52,39z"/></g><g><path style="fill:#4a1410" d="M78.804,27.435C78.622,27.179,78.338,27,78,27H68c-0.553,0-1,0.448-1,1v10 c0,0.339,0.179,0.623,0.435,0.804C67.599,38.918,67.786,39,68,39h10c0.553,0,1-0.448,1-1V28 C79,27.786,78.918,27.599,78.804,27.435z"/></g><g><path style="fill:#7d261e" d="M78,27H68c-0.553,0-1,0.448-1,1v10c0,0.339,0.179,0.623,0.435,0.804l11.368-11.368 C78.622,27.179,78.338,27,78,27z"/></g><g><path style="fill:#e54b44" d="M62.804,43.436C62.622,43.179,62.338,43,62,43H52c-0.553,0-1,0.448-1,1v10 c0,0.339,0.179,0.623,0.435,0.804C51.599,54.918,51.786,55,52,55h10c0.553,0,1-0.448,1-1V44 C63,43.786,62.918,43.599,62.804,43.436z"/></g><g><path style="fill:#ff6c5e" d="M62,43H52c-0.553,0-1,0.448-1,1v10c0,0.339,0.179,0.623,0.435,0.804l11.368-11.368 C62.622,43.179,62.338,43,62,43z"/></g><g><path style="fill:#c23023" d="M39,43h-4v4l1.877,30.024C36.945,78.135,37.867,79,38.98,79H39h0.019 c1.113,0,2.035-0.865,2.104-1.976L43,47v-4H39z"/></g><g><path style="fill:#e54b44" d="M35,43v4l1.877,30.024C36.945,78.135,37.867,79,38.98,79H39V43H35z"/></g><g><path style="fill:#ff6c5e" d="M79,54c0,0.553-0.447,1-1,1H68c-0.553,0-1-0.447-1-1V44c0-0.552,0.447-1,1-1h10 c0.553,0,1,0.448,1,1V54z"/></g><g><path style="fill:#e8a099" d="M63,70c0,0.553-0.447,1-1,1H52c-0.553,0-1-0.447-1-1V60c0-0.552,0.447-1,1-1h10 c0.553,0,1,0.448,1,1V70z"/></g><g><path style="fill:#e8a099" d="M79,70c0,0.553-0.447,1-1,1H68c-0.553,0-1-0.447-1-1V60c0-0.552,0.447-1,1-1h10 c0.553,0,1,0.448,1,1V70z"/></g><g><path style="fill:#ff6c5e" d="M79,82c0,0.553-0.447,1-1,1H52c-0.553,0-1-0.447-1-1v-6c0-0.552,0.447-1,1-1h26 c0.553,0,1,0.448,1,1V82z"/></g><g><path style="fill:#4a1410" d="M39,30L39,30c0,0-5,5.687-5,9c0,1.851,0.713,3.175,1.811,4H39h3.188 C43.287,42.175,44,40.851,44,39C44,35.687,39.001,30.001,39,30z"/></g><g><path style="fill:#7d261e" d="M34,39c0,1.851,0.713,3.175,1.811,4H39V30l0,0C39,30,34,35.687,34,39z"/></g><g><polygon style="fill:#fabbaf" points="39 43 35 43 35 47 39 47 43 47 43 43"/></g><g><polygon style="fill:#ffd7d4" points="35.811 43 35 43 35 47 39 47 39 43"/></g></g></g><g id="Yellow" style="display:none"><g style="display:inline"><g><path style="fill:#fff5d9" d="M81.937,24.303C81.205,23.507,80.166,23,79,23H31c-2.209,0-4,1.791-4,4v56c0,2.209,1.791,4,4,4h48 c2.209,0,4-1.791,4-4V27C83,25.956,82.591,25.014,81.937,24.303z"/></g><g><path style="fill:#fff" d="M31,29c0-1.104,0.896-2,2-2h12c1.104,0,2,0.896,2,2v30.239l4.436-4.436 C51.179,54.623,51,54.339,51,54V44c0-0.552,0.447-1,1-1h10c0.338,0,0.622,0.179,0.804,0.435l4.632-4.632 C67.179,38.623,67,38.339,67,38V28c0-0.552,0.447-1,1-1h10c0.338,0,0.622,0.179,0.804,0.436l3.133-3.133 C81.205,23.507,80.166,23,79,23H31c-2.209,0-4,1.791-4,4v52.239l4-4V29z M51,28c0-0.552,0.447-1,1-1h10c0.553,0,1,0.448,1,1v10 c0,0.552-0.447,1-1,1H52c-0.553,0-1-0.448-1-1V28z"/></g><g><path style="fill:#ffe9a1" d="M45,27H33c-1.104,0-2,0.896-2,2v46.239V81c0,1.104,0.896,2,2,2h12c1.104,0,2-0.896,2-2V59.239V29 C47,27.895,46.104,27,45,27z"/></g><g><path style="fill:#fff5d9" d="M45,27H33c-1.104,0-2,0.896-2,2v46.239l16-16V29C47,27.895,46.104,27,45,27z"/></g><g><path style="fill:#66510d" d="M52,39h10c0.553,0,1-0.448,1-1V28c0-0.552-0.447-1-1-1H52c-0.553,0-1,0.448-1,1v10 C51,38.552,51.447,39,52,39z"/></g><g><path style="fill:#3d320c" d="M78.804,27.435C78.622,27.179,78.338,27,78,27H68c-0.553,0-1,0.448-1,1v10 c0,0.339,0.179,0.623,0.436,0.804C67.599,38.918,67.786,39,68,39h10c0.553,0,1-0.448,1-1V28 C79,27.786,78.918,27.598,78.804,27.435z"/></g><g><path style="fill:#66510d" d="M78,27H68c-0.553,0-1,0.448-1,1v10c0,0.339,0.179,0.623,0.436,0.804l11.368-11.368 C78.622,27.179,78.338,27,78,27z"/></g><g><path style="fill:#fa9200" d="M62.804,43.435C62.622,43.179,62.338,43,62,43H52c-0.553,0-1,0.448-1,1v10 c0,0.339,0.179,0.623,0.436,0.804C51.599,54.918,51.786,55,52,55h10c0.553,0,1-0.448,1-1V44 C63,43.786,62.918,43.598,62.804,43.435z"/></g><g><path style="fill:#fa0" d="M62,43H52c-0.553,0-1,0.448-1,1v10c0,0.339,0.179,0.623,0.436,0.804l11.368-11.368 C62.622,43.179,62.338,43,62,43z"/></g><g><path style="fill:#e07000" d="M39,43h-4v4l1.877,30.024C36.945,78.135,37.867,79,38.98,79H39h0.02 c1.113,0,2.035-0.865,2.104-1.976L43,47v-4H39z"/></g><g><path style="fill:#fa9200" d="M35,43v4l1.877,30.024C36.945,78.135,37.867,79,38.98,79H39V43H35z"/></g><g><path style="fill:#fa0" d="M79,54c0,0.553-0.447,1-1,1H68c-0.553,0-1-0.447-1-1V44c0-0.552,0.447-1,1-1h10 c0.553,0,1,0.448,1,1V54z"/></g><g><path style="fill:#f5c43d" d="M63,70c0,0.553-0.447,1-1,1H52c-0.553,0-1-0.447-1-1V60c0-0.552,0.447-1,1-1h10 c0.553,0,1,0.448,1,1V70z"/></g><g><path style="fill:#f5c43d" d="M79,70c0,0.553-0.447,1-1,1H68c-0.553,0-1-0.447-1-1V60c0-0.552,0.447-1,1-1h10 c0.553,0,1,0.448,1,1V70z"/></g><g><path style="fill:#fa0" d="M79,82c0,0.553-0.447,1-1,1H52c-0.553,0-1-0.447-1-1v-6c0-0.552,0.447-1,1-1h26 c0.553,0,1,0.448,1,1V82z"/></g><g><path style="fill:#3d320c" d="M39,30L39,30c0,0-5,5.686-5,9c0,1.851,0.713,3.175,1.812,4H39h3.188C43.287,42.175,44,40.85,44,39 C44,35.686,39.001,30.001,39,30z"/></g><g><path style="fill:#66510d" d="M34,39c0,1.851,0.713,3.175,1.812,4H39V30l0,0C39,30,34,35.686,34,39z"/></g><g><polygon style="fill:#ffd75e" points="39 43 35 43 35 47 39 47 43 47 43 43"/></g><g><polygon style="fill:#ffe9a1" points="35.812 43 35 43 35 47 39 47 39 43"/></g></g></g><g id="R-Yellow" style="display:none"><circle style="display:inline;fill:#ffd75e" cx="55" cy="55" r="55"/><g style="display:inline"><g><path style="fill:#fff5d9" d="M81.937,24.303C81.205,23.507,80.166,23,79,23H31c-2.209,0-4,1.791-4,4v56c0,2.209,1.791,4,4,4h48 c2.209,0,4-1.791,4-4V27C83,25.956,82.591,25.015,81.937,24.303z"/></g><g><path style="fill:#fff" d="M31,29c0-1.104,0.896-2,2-2h12c1.104,0,2,0.896,2,2v30.239l4.436-4.436 C51.179,54.623,51,54.339,51,54V44c0-0.552,0.447-1,1-1h10c0.338,0,0.622,0.179,0.804,0.436l4.632-4.632 C67.179,38.623,67,38.339,67,38V28c0-0.552,0.447-1,1-1h10c0.338,0,0.622,0.179,0.804,0.436l3.133-3.133 C81.205,23.507,80.166,23,79,23H31c-2.209,0-4,1.791-4,4v52.239l4-4V29z M51,28c0-0.552,0.447-1,1-1h10c0.553,0,1,0.448,1,1v10 c0,0.552-0.447,1-1,1H52c-0.553,0-1-0.448-1-1V28z"/></g><g><path style="fill:#ffe9a1" d="M45,27H33c-1.104,0-2,0.896-2,2v46.239V81c0,1.104,0.896,2,2,2h12c1.104,0,2-0.896,2-2V59.239V29 C47,27.896,46.104,27,45,27z"/></g><g><path style="fill:#fff5d9" d="M45,27H33c-1.104,0-2,0.896-2,2v46.239l16-16V29C47,27.896,46.104,27,45,27z"/></g><g><path style="fill:#66510d" d="M52,39h10c0.553,0,1-0.448,1-1V28c0-0.552-0.447-1-1-1H52c-0.553,0-1,0.448-1,1v10 C51,38.552,51.447,39,52,39z"/></g><g><path style="fill:#3d320c" d="M78.804,27.436C78.622,27.179,78.338,27,78,27H68c-0.553,0-1,0.448-1,1v10 c0,0.339,0.179,0.623,0.436,0.804C67.599,38.918,67.786,39,68,39h10c0.553,0,1-0.448,1-1V28 C79,27.786,78.918,27.599,78.804,27.436z"/></g><g><path style="fill:#66510d" d="M78,27H68c-0.553,0-1,0.448-1,1v10c0,0.339,0.179,0.623,0.436,0.804l11.368-11.368 C78.622,27.179,78.338,27,78,27z"/></g><g><path style="fill:#fa9200" d="M62.804,43.436C62.622,43.179,62.338,43,62,43H52c-0.553,0-1,0.448-1,1v10 c0,0.339,0.179,0.623,0.436,0.804C51.599,54.918,51.786,55,52,55h10c0.553,0,1-0.448,1-1V44 C63,43.786,62.918,43.599,62.804,43.436z"/></g><g><path style="fill:#fa0" d="M62,43H52c-0.553,0-1,0.448-1,1v10c0,0.339,0.179,0.623,0.436,0.804l11.368-11.368 C62.622,43.179,62.338,43,62,43z"/></g><g><path style="fill:#e07000" d="M39,43h-4v4l1.877,30.024C36.945,78.135,37.867,79,38.98,79H39h0.02 c1.113,0,2.035-0.865,2.104-1.976L43,47v-4H39z"/></g><g><path style="fill:#fa9200" d="M35,43v4l1.877,30.024C36.945,78.135,37.867,79,38.98,79H39V43H35z"/></g><g><path style="fill:#fa0" d="M79,54c0,0.553-0.447,1-1,1H68c-0.553,0-1-0.447-1-1V44c0-0.552,0.447-1,1-1h10 c0.553,0,1,0.448,1,1V54z"/></g><g><path style="fill:#f5c43d" d="M63,70c0,0.553-0.447,1-1,1H52c-0.553,0-1-0.447-1-1V60c0-0.552,0.447-1,1-1h10 c0.553,0,1,0.448,1,1V70z"/></g><g><path style="fill:#f5c43d" d="M79,70c0,0.553-0.447,1-1,1H68c-0.553,0-1-0.447-1-1V60c0-0.552,0.447-1,1-1h10 c0.553,0,1,0.448,1,1V70z"/></g><g><path style="fill:#fa0" d="M79,82c0,0.553-0.447,1-1,1H52c-0.553,0-1-0.447-1-1v-6c0-0.552,0.447-1,1-1h26 c0.553,0,1,0.448,1,1V82z"/></g><g><path style="fill:#3d320c" d="M39,30L39,30c0,0-5,5.687-5,9c0,1.851,0.713,3.175,1.812,4H39h3.188 C43.287,42.175,44,40.851,44,39C44,35.687,39.001,30.001,39,30z"/></g><g><path style="fill:#66510d" d="M34,39c0,1.851,0.713,3.175,1.812,4H39V30l0,0C39,30,34,35.687,34,39z"/></g><g><polygon style="fill:#ffd75e" points="39 43 35 43 35 47 39 47 43 47 43 43"/></g><g><polygon style="fill:#ffe9a1" points="35.812 43 35 43 35 47 39 47 39 43"/></g></g></g></svg>