<svg xmlns="http://www.w3.org/2000/svg" xmlns:xlink="http://www.w3.org/1999/xlink" width="110" height="110" x="0" y="0" version="1.0" viewBox="0 0 110 110" xml:space="preserve" style="enable-background:new 0 0 110 110"><g id="Artboard" style="display:none"><rect style="display:inline;fill:#8c8c8c" width="1412" height="743" x="-315" y="-207"/></g><g id="R-Multicolor" style="display:none"><circle style="display:inline;fill:#32bea6" cx="55" cy="55" r="55"/><g style="display:inline"><g><path style="fill:#fff" d="M23,26.84c0-2.121,1.719-3.84,3.84-3.84H55l16,13.44v46.72c0,2.121-1.719,3.84-3.84,3.84H26.84 C24.719,87,23,85.281,23,83.16V26.84z"/><path style="fill:#f0f1f1" d="M55,23v9.6c0,2.121,1.719,3.84,3.84,3.84H71L55,23z"/></g><path style="fill:#e2e4e5" d="M52,70h10c0.551,0,1-0.448,1-1v-5c0-0.552-0.449-1-1-1H52c-0.551,0-1,0.448-1,1v5 C51,69.552,51.449,70,52,70z"/><path style="fill:#b6bcbd" d="M62,72H52c-1.654,0-3-1.346-3-3v-5c0-1.654,1.346-3,3-3h10c1.654,0,3,1.346,3,3v5 C65,70.654,63.654,72,62,72z M52,63c-0.551,0-1,0.448-1,1v5c0,0.552,0.449,1,1,1h10c0.551,0,1-0.448,1-1v-5c0-0.552-0.449-1-1-1 H52z"/><path style="fill:#e2e4e5" d="M30,70h10c0.551,0,1-0.448,1-1v-5c0-0.552-0.449-1-1-1H30c-0.551,0-1,0.448-1,1v5 C29,69.552,29.449,70,30,70z"/><path style="fill:#b6bcbd" d="M40,72H30c-1.654,0-3-1.346-3-3v-5c0-1.654,1.346-3,3-3h10c1.654,0,3,1.346,3,3v5 C43,70.654,41.654,72,40,72z M30,63c-0.551,0-1,0.448-1,1v5c0,0.552,0.449,1,1,1h10c0.551,0,1-0.448,1-1v-5c0-0.552-0.449-1-1-1 H30z"/><path style="fill:#9ce5f4" d="M41,50h10c0.551,0,1-0.448,1-1v-5c0-0.552-0.449-1-1-1H41c-0.551,0-1,0.448-1,1v5 C40,49.552,40.449,50,41,50z"/><g><polygon style="fill:#cfd3d4" points="50.272 52 48.014 52 52.728 61 54.986 61"/></g><g><polygon style="fill:#cfd3d4" points="41.728 52 37.014 61 39.272 61 43.986 52"/></g><path style="fill:#40c9e7" d="M51,52H41c-1.654,0-3-1.346-3-3v-5c0-1.654,1.346-3,3-3h10c1.654,0,3,1.346,3,3v5 C54,50.654,52.654,52,51,52z M41,43c-0.551,0-1,0.448-1,1v5c0,0.552,0.449,1,1,1h10c0.551,0,1-0.448,1-1v-5c0-0.552-0.449-1-1-1 H41z"/><g><path style="fill:#f4d0a1" d="M84.144,57.498L62.941,81.466l-5.877,1.21c-0.17-0.818-0.593-1.593-1.267-2.189 c-0.674-0.596-1.495-0.922-2.328-0.991l0.484-5.981l21.203-23.967L84.144,57.498z"/></g><g><path style="fill:#059bbf" d="M84.115,57.473c0.016,0.014,0.017,0.038,0.003,0.054L63.397,80.95 c-0.033,0.038-0.086-0.002-0.062-0.047c0.651-1.2,0.414-2.728-0.653-3.672c-1.126-0.996-2.785-0.995-3.905-0.062 c-0.032,0.027-0.075-0.011-0.052-0.046c0.79-1.225,0.589-2.871-0.537-3.868c-1.079-0.955-2.648-0.993-3.762-0.173 c-0.036,0.027-0.077-0.015-0.047-0.049l20.752-23.458c0.014-0.016,0.038-0.017,0.054-0.003L84.115,57.473z"/></g><g><rect style="fill:#facb1b" width="12" height="2" x="74.313" y="51.774" transform="matrix(0.749 0.6626 -0.6626 0.749 55.1274 -39.9673)"/></g><g><path style="fill:#f79392" d="M84.996,47.571l-0.09-0.08c-2.457-2.174-6.211-1.944-8.385,0.513l-0.04,0.045L85.469,56 l0.04-0.045C87.683,53.498,87.453,49.744,84.996,47.571z"/></g><g><path style="fill:#0484ab" d="M84.119,57.527L63.371,80.979c-0.03,0.034-0.077-0.002-0.055-0.042 c0.674-1.205,0.444-2.753-0.634-3.707c-1.124-0.994-2.777-0.995-3.897-0.068c-0.019,0.015-0.041-0.008-0.025-0.026l20.865-23.586 c0.014-0.016,0.038-0.017,0.053-0.003l4.437,3.925C84.131,57.487,84.133,57.511,84.119,57.527z"/></g><g><path style="fill:#3e3e3f" d="M57.064,82.675l-3.918,0.807l0.323-3.987c0.833,0.069,1.654,0.395,2.328,0.991 C56.471,81.082,56.894,81.857,57.064,82.675z"/></g></g></g><g id="Multicolor"><g><g><path style="fill:#fff" d="M23,26.84c0-2.121,1.719-3.84,3.84-3.84H55l16,13.44v46.72c0,2.121-1.719,3.84-3.84,3.84H26.84 C24.719,87,23,85.281,23,83.16V26.84z"/><path style="fill:#f0f1f1" d="M55,23v9.6c0,2.121,1.719,3.84,3.84,3.84H71L55,23z"/></g><path style="fill:#e2e4e5" d="M52,70h10c0.551,0,1-0.448,1-1v-5c0-0.552-0.449-1-1-1H52c-0.551,0-1,0.448-1,1v5 C51,69.552,51.449,70,52,70z"/><path style="fill:#b6bcbd" d="M62,72H52c-1.654,0-3-1.346-3-3v-5c0-1.654,1.346-3,3-3h10c1.654,0,3,1.346,3,3v5 C65,70.654,63.654,72,62,72z M52,63c-0.551,0-1,0.448-1,1v5c0,0.552,0.449,1,1,1h10c0.551,0,1-0.448,1-1v-5c0-0.552-0.449-1-1-1 H52z"/><path style="fill:#e2e4e5" d="M30,70h10c0.551,0,1-0.448,1-1v-5c0-0.552-0.449-1-1-1H30c-0.551,0-1,0.448-1,1v5 C29,69.552,29.449,70,30,70z"/><path style="fill:#b6bcbd" d="M40,72H30c-1.654,0-3-1.346-3-3v-5c0-1.654,1.346-3,3-3h10c1.654,0,3,1.346,3,3v5 C43,70.654,41.654,72,40,72z M30,63c-0.551,0-1,0.448-1,1v5c0,0.552,0.449,1,1,1h10c0.551,0,1-0.448,1-1v-5c0-0.552-0.449-1-1-1 H30z"/><path style="fill:#9ce5f4" d="M41,50h10c0.551,0,1-0.448,1-1v-5c0-0.552-0.449-1-1-1H41c-0.551,0-1,0.448-1,1v5 C40,49.552,40.449,50,41,50z"/><g><polygon style="fill:#cfd3d4" points="50.272 52 48.014 52 52.728 61 54.986 61"/></g><g><polygon style="fill:#cfd3d4" points="41.728 52 37.014 61 39.272 61 43.986 52"/></g><path style="fill:#40c9e7" d="M51,52H41c-1.654,0-3-1.346-3-3v-5c0-1.654,1.346-3,3-3h10c1.654,0,3,1.346,3,3v5 C54,50.654,52.654,52,51,52z M41,43c-0.551,0-1,0.448-1,1v5c0,0.552,0.449,1,1,1h10c0.551,0,1-0.448,1-1v-5c0-0.552-0.449-1-1-1 H41z"/><g><path style="fill:#f4d0a1" d="M84.144,57.498L62.941,81.466l-5.877,1.21c-0.17-0.818-0.593-1.593-1.267-2.189 c-0.674-0.596-1.495-0.922-2.328-0.991l0.484-5.981l21.203-23.967L84.144,57.498z"/></g><g><path style="fill:#059bbf" d="M84.115,57.473c0.016,0.014,0.017,0.038,0.003,0.054L63.397,80.95 c-0.033,0.038-0.086-0.002-0.062-0.047c0.651-1.2,0.414-2.728-0.653-3.672c-1.126-0.996-2.785-0.995-3.905-0.062 c-0.032,0.027-0.075-0.011-0.052-0.046c0.79-1.225,0.589-2.871-0.537-3.868c-1.079-0.955-2.648-0.993-3.762-0.173 c-0.036,0.027-0.077-0.015-0.047-0.049l20.752-23.458c0.014-0.016,0.038-0.017,0.054-0.003L84.115,57.473z"/></g><g><rect style="fill:#facb1b" width="12" height="2" x="74.313" y="51.774" transform="matrix(0.749 0.6626 -0.6626 0.749 55.1274 -39.9673)"/></g><g><path style="fill:#f79392" d="M84.996,47.571l-0.09-0.08c-2.457-2.174-6.211-1.944-8.385,0.513l-0.04,0.045L85.469,56 l0.04-0.045C87.683,53.498,87.453,49.744,84.996,47.571z"/></g><g><path style="fill:#0484ab" d="M84.119,57.527L63.371,80.979c-0.03,0.034-0.077-0.002-0.055-0.042 c0.674-1.205,0.444-2.753-0.634-3.707c-1.124-0.994-2.777-0.995-3.897-0.068c-0.019,0.015-0.041-0.008-0.025-0.026l20.865-23.586 c0.014-0.016,0.038-0.017,0.053-0.003l4.437,3.925C84.131,57.487,84.133,57.511,84.119,57.527z"/></g><g><path style="fill:#3e3e3f" d="M57.064,82.675l-3.918,0.807l0.323-3.987c0.833,0.069,1.654,0.395,2.328,0.991 C56.471,81.082,56.894,81.857,57.064,82.675z"/></g></g></g><g id="Blue" style="display:none"><g style="display:inline"><g><path style="fill:#fff" d="M23,26.84c0-2.121,1.719-3.84,3.84-3.84H55l16,13.44v46.72c0,2.121-1.719,3.84-3.84,3.84H26.84 C24.719,87,23,85.281,23,83.16V26.84z"/></g><g><path style="fill:#bbe7f2" d="M55,23v9.6c0,2.121,1.719,3.84,3.84,3.84H71L55,23z"/></g><g><path style="fill:#bbe7f2" d="M62,72H52c-1.654,0-3-1.346-3-3v-5c0-1.654,1.346-3,3-3h10c1.654,0,3,1.346,3,3v5 C65,70.654,63.654,72,62,72z M52,63c-0.551,0-1,0.449-1,1v5c0,0.552,0.449,1,1,1h10c0.551,0,1-0.448,1-1v-5c0-0.551-0.449-1-1-1 H52z"/></g><g><path style="fill:#bbe7f2" d="M40,72H30c-1.654,0-3-1.346-3-3v-5c0-1.654,1.346-3,3-3h10c1.654,0,3,1.346,3,3v5 C43,70.654,41.654,72,40,72z M30,63c-0.551,0-1,0.449-1,1v5c0,0.552,0.449,1,1,1h10c0.551,0,1-0.448,1-1v-5c0-0.551-0.449-1-1-1 H30z"/></g><g><g><polygon style="fill:#bbe7f2" points="50.271 52 48.014 52 52.728 61 54.986 61"/></g></g><g><g><polygon style="fill:#bbe7f2" points="41.728 52 37.014 61 39.271 61 43.986 52"/></g></g><g><path style="fill:#bbe7f2" d="M51,52H41c-1.654,0-3-1.346-3-3v-5c0-1.654,1.346-3,3-3h10c1.654,0,3,1.346,3,3v5 C54,50.654,52.654,52,51,52z M41,43c-0.551,0-1,0.449-1,1v5c0,0.552,0.449,1,1,1h10c0.551,0,1-0.448,1-1v-5c0-0.551-0.449-1-1-1 H41z"/></g><g><g><path style="fill:#e1f5fa" d="M84.144,57.499L62.941,81.466l-5.877,1.209c-0.17-0.818-0.593-1.593-1.267-2.189 c-0.674-0.596-1.495-0.921-2.328-0.991l0.484-5.98l21.203-23.967L84.144,57.499z"/></g></g><g><g><path style="fill:#009fc7" d="M84.115,57.473c0.016,0.014,0.018,0.038,0.004,0.054L63.397,80.95 c-0.034,0.038-0.087-0.002-0.063-0.047c0.651-1.2,0.415-2.728-0.652-3.672c-1.126-0.996-2.785-0.995-3.905-0.062 c-0.032,0.026-0.075-0.011-0.052-0.046c0.79-1.225,0.589-2.872-0.538-3.868c-1.079-0.955-2.647-0.993-3.761-0.174 c-0.036,0.027-0.077-0.015-0.047-0.048l20.752-23.458c0.014-0.016,0.038-0.018,0.054-0.003L84.115,57.473z"/></g></g><g><g><rect style="fill:#53bad4" width="12" height="2" x="74.313" y="51.774" transform="matrix(0.749 0.6626 -0.6626 0.749 55.1274 -39.9672)"/></g></g><g><g><path style="fill:#fff" d="M84.996,47.571l-0.09-0.08c-2.457-2.174-6.211-1.944-8.385,0.513l-0.04,0.045l8.988,7.951 l0.04-0.045C87.683,53.499,87.453,49.745,84.996,47.571z"/></g></g><g><g><path style="fill:#0081a1" d="M84.119,57.527L63.371,80.979c-0.03,0.034-0.077-0.002-0.055-0.042 c0.674-1.205,0.444-2.753-0.634-3.706c-1.124-0.994-2.778-0.995-3.897-0.068c-0.019,0.016-0.041-0.008-0.025-0.025 l20.865-23.586c0.014-0.016,0.038-0.018,0.054-0.003l4.438,3.925C84.131,57.487,84.133,57.511,84.119,57.527z"/></g></g><g><g><path style="fill:#0c333d" d="M57.064,82.675l-3.917,0.807l0.323-3.987c0.833,0.069,1.653,0.395,2.328,0.991 C56.471,81.083,56.894,81.857,57.064,82.675z"/></g></g></g></g><g id="R-Blue" style="display:none"><g style="display:inline"><circle style="fill:#81d2eb" cx="55" cy="55" r="55"/></g><g style="display:inline"><g><path style="fill:#fff" d="M23,26.84c0-2.121,1.719-3.84,3.84-3.84H55l16,13.44v46.72c0,2.121-1.719,3.84-3.84,3.84H26.84 C24.719,87,23,85.281,23,83.16V26.84z"/></g><g><path style="fill:#bbe7f2" d="M55,23v9.6c0,2.121,1.719,3.84,3.84,3.84H71L55,23z"/></g><g><path style="fill:#bbe7f2" d="M62,72H52c-1.654,0-3-1.346-3-3v-5c0-1.654,1.346-3,3-3h10c1.654,0,3,1.346,3,3v5 C65,70.654,63.654,72,62,72z M52,63c-0.551,0-1,0.449-1,1v5c0,0.552,0.449,1,1,1h10c0.551,0,1-0.448,1-1v-5c0-0.551-0.449-1-1-1 H52z"/></g><g><path style="fill:#bbe7f2" d="M40,72H30c-1.654,0-3-1.346-3-3v-5c0-1.654,1.346-3,3-3h10c1.654,0,3,1.346,3,3v5 C43,70.654,41.654,72,40,72z M30,63c-0.551,0-1,0.449-1,1v5c0,0.552,0.449,1,1,1h10c0.551,0,1-0.448,1-1v-5c0-0.551-0.449-1-1-1 H30z"/></g><g><g><polygon style="fill:#bbe7f2" points="50.271 52 48.014 52 52.728 61 54.986 61"/></g></g><g><g><polygon style="fill:#bbe7f2" points="41.728 52 37.014 61 39.271 61 43.986 52"/></g></g><g><path style="fill:#bbe7f2" d="M51,52H41c-1.654,0-3-1.346-3-3v-5c0-1.654,1.346-3,3-3h10c1.654,0,3,1.346,3,3v5 C54,50.654,52.654,52,51,52z M41,43c-0.551,0-1,0.449-1,1v5c0,0.552,0.449,1,1,1h10c0.551,0,1-0.448,1-1v-5c0-0.551-0.449-1-1-1 H41z"/></g><g><g><path style="fill:#e1f5fa" d="M84.144,57.499L62.941,81.466l-5.877,1.209c-0.17-0.818-0.593-1.593-1.267-2.189 c-0.674-0.596-1.495-0.921-2.328-0.991l0.484-5.98l21.203-23.967L84.144,57.499z"/></g></g><g><g><path style="fill:#009fc7" d="M84.115,57.473c0.016,0.014,0.018,0.038,0.004,0.054L63.397,80.95 c-0.034,0.038-0.087-0.002-0.063-0.047c0.651-1.2,0.415-2.728-0.652-3.672c-1.126-0.996-2.785-0.995-3.905-0.062 c-0.032,0.026-0.075-0.011-0.052-0.046c0.79-1.225,0.589-2.872-0.538-3.868c-1.079-0.955-2.647-0.993-3.761-0.174 c-0.036,0.027-0.077-0.015-0.047-0.048l20.752-23.458c0.014-0.016,0.038-0.018,0.054-0.003L84.115,57.473z"/></g></g><g><g><rect style="fill:#53bad4" width="12" height="2" x="74.313" y="51.774" transform="matrix(0.749 0.6626 -0.6626 0.749 55.1274 -39.9672)"/></g></g><g><g><path style="fill:#fff" d="M84.996,47.571l-0.09-0.08c-2.457-2.174-6.211-1.944-8.385,0.513l-0.04,0.045l8.988,7.951 l0.04-0.045C87.683,53.499,87.453,49.745,84.996,47.571z"/></g></g><g><g><path style="fill:#0081a1" d="M84.119,57.527L63.371,80.979c-0.03,0.034-0.077-0.002-0.055-0.042 c0.674-1.205,0.444-2.753-0.634-3.706c-1.124-0.994-2.778-0.995-3.897-0.068c-0.019,0.016-0.041-0.008-0.025-0.025 l20.865-23.586c0.014-0.016,0.038-0.018,0.054-0.003l4.438,3.925C84.131,57.487,84.133,57.511,84.119,57.527z"/></g></g><g><g><path style="fill:#0c333d" d="M57.064,82.675l-3.917,0.807l0.323-3.987c0.833,0.069,1.653,0.395,2.328,0.991 C56.471,81.083,56.894,81.857,57.064,82.675z"/></g></g></g></g><g id="Green" style="display:none"><g style="display:inline"><g><path style="fill:#fff" d="M23,26.84c0-2.121,1.719-3.84,3.84-3.84H55l16,13.44v46.72c0,2.121-1.719,3.84-3.84,3.84H26.84 C24.719,87,23,85.281,23,83.16V26.84z"/></g><g><path style="fill:#aaf0e9" d="M55,23v9.6c0,2.121,1.719,3.84,3.84,3.84H71L55,23z"/></g><g><path style="fill:#aaf0e9" d="M62,72H52c-1.654,0-3-1.346-3-3v-5c0-1.654,1.346-3,3-3h10c1.654,0,3,1.346,3,3v5 C65,70.654,63.654,72,62,72z M52,63c-0.551,0-1,0.449-1,1v5c0,0.552,0.449,1,1,1h10c0.551,0,1-0.448,1-1v-5c0-0.551-0.449-1-1-1 H52z"/></g><g><path style="fill:#aaf0e9" d="M40,72H30c-1.654,0-3-1.346-3-3v-5c0-1.654,1.346-3,3-3h10c1.654,0,3,1.346,3,3v5 C43,70.654,41.654,72,40,72z M30,63c-0.551,0-1,0.449-1,1v5c0,0.552,0.449,1,1,1h10c0.551,0,1-0.448,1-1v-5c0-0.551-0.449-1-1-1 H30z"/></g><g><g><polygon style="fill:#aaf0e9" points="50.271 52 48.014 52 52.727 61 54.986 61"/></g></g><g><g><polygon style="fill:#aaf0e9" points="41.727 52 37.014 61 39.271 61 43.986 52"/></g></g><g><path style="fill:#aaf0e9" d="M51,52H41c-1.654,0-3-1.346-3-3v-5c0-1.654,1.346-3,3-3h10c1.654,0,3,1.346,3,3v5 C54,50.654,52.654,52,51,52z M41,43c-0.551,0-1,0.449-1,1v5c0,0.552,0.449,1,1,1h10c0.551,0,1-0.448,1-1v-5c0-0.551-0.449-1-1-1 H41z"/></g><g><g><path style="fill:#d7fcf9" d="M84.144,57.499L62.941,81.466l-5.877,1.209c-0.17-0.818-0.593-1.593-1.267-2.189 c-0.674-0.596-1.495-0.921-2.328-0.991l0.484-5.98l21.203-23.967L84.144,57.499z"/></g></g><g><g><path style="fill:#00b8a5" d="M84.115,57.473c0.016,0.014,0.018,0.038,0.004,0.054L63.397,80.95 c-0.034,0.038-0.087-0.002-0.063-0.047c0.651-1.2,0.415-2.728-0.652-3.672c-1.126-0.996-2.785-0.995-3.905-0.062 c-0.032,0.026-0.075-0.011-0.052-0.046c0.79-1.225,0.589-2.872-0.538-3.868c-1.079-0.955-2.647-0.993-3.761-0.174 c-0.036,0.027-0.077-0.015-0.047-0.048l20.752-23.458c0.014-0.016,0.038-0.018,0.054-0.003L84.115,57.473z"/></g></g><g><g><rect style="fill:#5dcfc3" width="12" height="2" x="74.313" y="51.774" transform="matrix(0.749 0.6626 -0.6626 0.749 55.1274 -39.9672)"/></g></g><g><g><path style="fill:#fff" d="M84.996,47.571l-0.09-0.08c-2.457-2.174-6.211-1.944-8.385,0.513l-0.04,0.045l8.988,7.951 l0.04-0.045C87.683,53.499,87.453,49.745,84.996,47.571z"/></g></g><g><g><path style="fill:#009687" d="M84.119,57.527L63.371,80.979c-0.03,0.034-0.077-0.002-0.055-0.042 c0.674-1.205,0.444-2.753-0.634-3.706c-1.124-0.994-2.778-0.995-3.897-0.068c-0.019,0.016-0.041-0.008-0.025-0.025 l20.865-23.586c0.014-0.016,0.038-0.018,0.054-0.003l4.438,3.925C84.131,57.487,84.133,57.511,84.119,57.527z"/></g></g><g><g><path style="fill:#0a3631" d="M57.064,82.675l-3.917,0.807l0.323-3.987c0.833,0.069,1.653,0.395,2.328,0.991 C56.471,81.083,56.894,81.857,57.064,82.675z"/></g></g></g></g><g id="R-Green" style="display:none"><g style="display:inline"><circle style="fill:#87e0c8" cx="55" cy="55" r="55"/></g><g style="display:inline"><g><path style="fill:#fff" d="M23,26.84c0-2.121,1.719-3.84,3.84-3.84H55l16,13.44v46.72C71,85.281,69.28,87,67.16,87H26.84 C24.719,87,23,85.281,23,83.16V26.84z"/></g><g><path style="fill:#aaf0e9" d="M55,23v9.6c0,2.121,1.719,3.84,3.84,3.84H71L55,23z"/></g><g><path style="fill:#aaf0e9" d="M62,72H52c-1.654,0-3-1.346-3-3v-5c0-1.654,1.346-3,3-3h10c1.654,0,3,1.346,3,3v5 C65,70.654,63.654,72,62,72z M52,63c-0.551,0-1,0.449-1,1v5c0,0.552,0.449,1,1,1h10c0.551,0,1-0.448,1-1v-5c0-0.551-0.449-1-1-1 H52z"/></g><g><path style="fill:#aaf0e9" d="M40,72H30c-1.654,0-3-1.346-3-3v-5c0-1.654,1.346-3,3-3h10c1.654,0,3,1.346,3,3v5 C43,70.654,41.654,72,40,72z M30,63c-0.551,0-1,0.449-1,1v5c0,0.552,0.449,1,1,1h10c0.551,0,1-0.448,1-1v-5c0-0.551-0.449-1-1-1 H30z"/></g><g><g><polygon style="fill:#aaf0e9" points="50.271 52 48.014 52 52.727 61 54.986 61"/></g></g><g><g><polygon style="fill:#aaf0e9" points="41.727 52 37.013 61 39.271 61 43.985 52"/></g></g><g><path style="fill:#aaf0e9" d="M51,52H41c-1.654,0-3-1.346-3-3v-5c0-1.654,1.346-3,3-3h10c1.654,0,3,1.346,3,3v5 C54,50.654,52.654,52,51,52z M41,43c-0.551,0-1,0.449-1,1v5c0,0.552,0.449,1,1,1h10c0.551,0,1-0.448,1-1v-5c0-0.551-0.449-1-1-1 H41z"/></g><g><g><path style="fill:#d7fcf9" d="M84.144,57.499L62.941,81.466l-5.877,1.209c-0.17-0.818-0.593-1.593-1.267-2.189 c-0.674-0.596-1.495-0.921-2.328-0.991l0.484-5.98l21.203-23.967L84.144,57.499z"/></g></g><g><g><path style="fill:#00b8a5" d="M84.115,57.473c0.016,0.014,0.018,0.038,0.004,0.054L63.397,80.95 c-0.034,0.038-0.087-0.002-0.063-0.047c0.651-1.2,0.415-2.728-0.652-3.672c-1.126-0.996-2.785-0.995-3.905-0.062 c-0.032,0.026-0.075-0.011-0.052-0.046c0.79-1.225,0.589-2.872-0.538-3.868c-1.079-0.955-2.647-0.993-3.761-0.174 c-0.036,0.027-0.077-0.015-0.047-0.048l20.752-23.458c0.014-0.016,0.038-0.018,0.054-0.003L84.115,57.473z"/></g></g><g><g><rect style="fill:#5dcfc3" width="12" height="2" x="74.312" y="51.774" transform="matrix(0.749 0.6626 -0.6626 0.749 55.1274 -39.967)"/></g></g><g><g><path style="fill:#fff" d="M84.995,47.571l-0.09-0.08c-2.457-2.174-6.211-1.944-8.385,0.513l-0.04,0.045l8.988,7.951 l0.04-0.045C87.682,53.499,87.452,49.745,84.995,47.571z"/></g></g><g><g><path style="fill:#009687" d="M84.118,57.527L63.371,80.979c-0.03,0.034-0.077-0.002-0.055-0.042 c0.674-1.205,0.444-2.753-0.634-3.706c-1.124-0.994-2.778-0.995-3.897-0.068c-0.019,0.016-0.041-0.008-0.025-0.025 l20.865-23.586c0.014-0.016,0.038-0.018,0.054-0.003l4.438,3.925C84.131,57.487,84.132,57.511,84.118,57.527z"/></g></g><g><g><path style="fill:#0a3631" d="M57.064,82.675l-3.917,0.807l0.323-3.987c0.833,0.069,1.653,0.395,2.328,0.991 C56.47,81.083,56.893,81.857,57.064,82.675z"/></g></g></g></g><g id="Red" style="display:none"><g style="display:inline"><g><path style="fill:#fff" d="M22.896,26.84c0-2.121,1.719-3.84,3.84-3.84h28.16l16,13.44v46.72c0,2.121-1.719,3.84-3.84,3.84 h-40.32c-2.121,0-3.84-1.719-3.84-3.84V26.84z"/></g><g><path style="fill:#ffd7d4" d="M54.896,23v9.6c0,2.121,1.719,3.84,3.84,3.84h12.16L54.896,23z"/></g><g><path style="fill:#ffd7d4" d="M61.896,72h-10c-1.654,0-3-1.346-3-3v-5c0-1.654,1.346-3,3-3h10c1.654,0,3,1.346,3,3v5 C64.896,70.654,63.55,72,61.896,72z M51.896,63c-0.551,0-1,0.449-1,1v5c0,0.552,0.449,1,1,1h10c0.551,0,1-0.448,1-1v-5 c0-0.551-0.449-1-1-1H51.896z"/></g><g><path style="fill:#ffd7d4" d="M39.896,72h-10c-1.654,0-3-1.346-3-3v-5c0-1.654,1.346-3,3-3h10c1.654,0,3,1.346,3,3v5 C42.896,70.654,41.55,72,39.896,72z M29.896,63c-0.551,0-1,0.449-1,1v5c0,0.552,0.449,1,1,1h10c0.551,0,1-0.448,1-1v-5 c0-0.551-0.449-1-1-1H29.896z"/></g><g><g><polygon style="fill:#ffd7d4" points="50.167 52 47.91 52 52.624 61 54.882 61"/></g></g><g><g><polygon style="fill:#ffd7d4" points="41.624 52 36.91 61 39.167 61 43.882 52"/></g></g><g><path style="fill:#ffd7d4" d="M50.896,52h-10c-1.654,0-3-1.346-3-3v-5c0-1.654,1.346-3,3-3h10c1.654,0,3,1.346,3,3v5 C53.896,50.654,52.55,52,50.896,52z M40.896,43c-0.551,0-1,0.449-1,1v5c0,0.552,0.449,1,1,1h10c0.551,0,1-0.448,1-1v-5 c0-0.551-0.449-1-1-1H40.896z"/></g><g><g><path style="fill:#ffefed" d="M84.04,57.499L62.837,81.466l-5.877,1.209c-0.17-0.818-0.593-1.593-1.267-2.189 c-0.674-0.596-1.495-0.921-2.328-0.991l0.484-5.98l21.203-23.967L84.04,57.499z"/></g></g><g><g><path style="fill:#e54b44" d="M84.011,57.473c0.016,0.014,0.018,0.038,0.004,0.054L63.293,80.95 c-0.034,0.038-0.087-0.002-0.063-0.047c0.651-1.2,0.415-2.728-0.652-3.672c-1.126-0.996-2.785-0.995-3.905-0.062 c-0.032,0.026-0.075-0.011-0.052-0.046c0.79-1.225,0.589-2.872-0.538-3.868c-1.079-0.955-2.647-0.993-3.761-0.174 c-0.036,0.027-0.077-0.015-0.047-0.048l20.752-23.458c0.014-0.016,0.038-0.018,0.054-0.003L84.011,57.473z"/></g></g><g><g><rect style="fill:#e8a099" width="12" height="2" x="74.209" y="51.774" transform="matrix(0.749 0.6626 -0.6626 0.749 55.1013 -39.8983)"/></g></g><g><g><path style="fill:#fff" d="M84.892,47.571l-0.09-0.08c-2.457-2.174-6.211-1.944-8.385,0.513l-0.04,0.045l8.988,7.951 l0.04-0.045C87.579,53.499,87.349,49.745,84.892,47.571z"/></g></g><g><g><path style="fill:#c23023" d="M84.015,57.527L63.267,80.979c-0.03,0.034-0.077-0.002-0.055-0.042 c0.674-1.205,0.444-2.753-0.634-3.706c-1.124-0.994-2.778-0.995-3.897-0.068c-0.019,0.016-0.041-0.008-0.025-0.025 l20.865-23.586c0.014-0.016,0.038-0.018,0.054-0.003l4.438,3.925C84.027,57.487,84.029,57.511,84.015,57.527z"/></g></g><g><g><path style="fill:#4a1410" d="M56.96,82.675l-3.917,0.807l0.323-3.987c0.833,0.069,1.653,0.395,2.328,0.991 C56.367,81.083,56.79,81.857,56.96,82.675z"/></g></g></g></g><g id="R-Red" style="display:none"><g style="display:inline"><circle style="fill:#fabbaf" cx="55" cy="55" r="55"/></g><g style="display:inline"><g><path style="fill:#fff" d="M23,26.84c0-2.121,1.719-3.84,3.84-3.84H55l16,13.44v46.72c0,2.121-1.719,3.84-3.84,3.84H26.84 C24.719,87,23,85.281,23,83.16V26.84z"/></g><g><path style="fill:#ffd7d4" d="M55,23v9.6c0,2.121,1.719,3.84,3.84,3.84H71L55,23z"/></g><g><path style="fill:#ffd7d4" d="M62,72H52c-1.654,0-3-1.346-3-3v-5c0-1.654,1.346-3,3-3h10c1.654,0,3,1.346,3,3v5 C65,70.654,63.654,72,62,72z M52,63c-0.551,0-1,0.449-1,1v5c0,0.552,0.449,1,1,1h10c0.551,0,1-0.448,1-1v-5c0-0.551-0.449-1-1-1 H52z"/></g><g><path style="fill:#ffd7d4" d="M40,72H30c-1.654,0-3-1.346-3-3v-5c0-1.654,1.346-3,3-3h10c1.654,0,3,1.346,3,3v5 C43,70.654,41.654,72,40,72z M30,63c-0.551,0-1,0.449-1,1v5c0,0.552,0.449,1,1,1h10c0.551,0,1-0.448,1-1v-5c0-0.551-0.449-1-1-1 H30z"/></g><g><g><polygon style="fill:#ffd7d4" points="50.271 52 48.014 52 52.728 61 54.986 61"/></g></g><g><g><polygon style="fill:#ffd7d4" points="41.728 52 37.014 61 39.271 61 43.986 52"/></g></g><g><path style="fill:#ffd7d4" d="M51,52H41c-1.654,0-3-1.346-3-3v-5c0-1.654,1.346-3,3-3h10c1.654,0,3,1.346,3,3v5 C54,50.654,52.654,52,51,52z M41,43c-0.551,0-1,0.449-1,1v5c0,0.552,0.449,1,1,1h10c0.551,0,1-0.448,1-1v-5c0-0.551-0.449-1-1-1 H41z"/></g><g><g><path style="fill:#ffefed" d="M84.144,57.499L62.941,81.466l-5.877,1.209c-0.17-0.818-0.593-1.593-1.267-2.189 c-0.674-0.596-1.495-0.921-2.328-0.991l0.484-5.98l21.203-23.967L84.144,57.499z"/></g></g><g><g><path style="fill:#e54b44" d="M84.115,57.473c0.016,0.014,0.018,0.038,0.004,0.054L63.397,80.95 c-0.034,0.038-0.087-0.002-0.063-0.047c0.651-1.2,0.415-2.728-0.652-3.672c-1.126-0.996-2.785-0.995-3.905-0.062 c-0.032,0.026-0.075-0.011-0.052-0.046c0.79-1.225,0.589-2.872-0.538-3.868c-1.079-0.955-2.647-0.993-3.761-0.174 c-0.036,0.027-0.077-0.015-0.047-0.048l20.752-23.458c0.014-0.016,0.038-0.018,0.054-0.003L84.115,57.473z"/></g></g><g><g><rect style="fill:#e8a099" width="12" height="2" x="74.313" y="51.774" transform="matrix(0.749 0.6626 -0.6626 0.749 55.1274 -39.9672)"/></g></g><g><g><path style="fill:#fff" d="M84.996,47.571l-0.09-0.08c-2.457-2.174-6.211-1.944-8.385,0.513l-0.04,0.045l8.988,7.951 l0.04-0.045C87.683,53.499,87.453,49.745,84.996,47.571z"/></g></g><g><g><path style="fill:#c23023" d="M84.119,57.527L63.371,80.979c-0.03,0.034-0.077-0.002-0.055-0.042 c0.674-1.205,0.444-2.753-0.634-3.706c-1.124-0.994-2.778-0.995-3.897-0.068c-0.019,0.016-0.041-0.008-0.025-0.025 l20.865-23.586c0.014-0.016,0.038-0.018,0.054-0.003l4.438,3.925C84.131,57.487,84.133,57.511,84.119,57.527z"/></g></g><g><g><path style="fill:#4a1410" d="M57.064,82.675l-3.917,0.807l0.323-3.987c0.833,0.069,1.653,0.395,2.328,0.991 C56.471,81.083,56.894,81.857,57.064,82.675z"/></g></g></g></g><g id="Yellow" style="display:none"><g style="display:inline"><g><path style="fill:#fff" d="M22.896,26.84c0-2.121,1.719-3.84,3.84-3.84h28.16l16,13.44v46.72c0,2.121-1.719,3.84-3.84,3.84 h-40.32c-2.121,0-3.84-1.719-3.84-3.84V26.84z"/></g><g><path style="fill:#ffe9a1" d="M54.896,23v9.6c0,2.121,1.719,3.84,3.84,3.84h12.16L54.896,23z"/></g><g><path style="fill:#ffe9a1" d="M61.896,72h-10c-1.654,0-3-1.346-3-3v-5c0-1.654,1.346-3,3-3h10c1.654,0,3,1.346,3,3v5 C64.896,70.654,63.55,72,61.896,72z M51.896,63c-0.551,0-1,0.449-1,1v5c0,0.552,0.449,1,1,1h10c0.551,0,1-0.448,1-1v-5 c0-0.551-0.449-1-1-1H51.896z"/></g><g><path style="fill:#ffe9a1" d="M39.896,72h-10c-1.654,0-3-1.346-3-3v-5c0-1.654,1.346-3,3-3h10c1.654,0,3,1.346,3,3v5 C42.896,70.654,41.55,72,39.896,72z M29.896,63c-0.551,0-1,0.449-1,1v5c0,0.552,0.449,1,1,1h10c0.551,0,1-0.448,1-1v-5 c0-0.551-0.449-1-1-1H29.896z"/></g><g><g><polygon style="fill:#ffe9a1" points="50.167 52 47.91 52 52.624 61 54.882 61"/></g></g><g><g><polygon style="fill:#ffe9a1" points="41.624 52 36.91 61 39.167 61 43.882 52"/></g></g><g><path style="fill:#ffe9a1" d="M50.896,52h-10c-1.654,0-3-1.346-3-3v-5c0-1.654,1.346-3,3-3h10c1.654,0,3,1.346,3,3v5 C53.896,50.654,52.55,52,50.896,52z M40.896,43c-0.551,0-1,0.449-1,1v5c0,0.552,0.449,1,1,1h10c0.551,0,1-0.448,1-1v-5 c0-0.551-0.449-1-1-1H40.896z"/></g><g><g><path style="fill:#fff5d9" d="M84.04,57.499L62.837,81.466l-5.877,1.209c-0.17-0.818-0.593-1.593-1.267-2.189 c-0.674-0.596-1.495-0.921-2.328-0.991l0.484-5.98l21.203-23.967L84.04,57.499z"/></g></g><g><g><path style="fill:#fa9200" d="M84.011,57.473c0.016,0.014,0.018,0.038,0.004,0.054L63.293,80.95 c-0.034,0.038-0.087-0.002-0.063-0.047c0.651-1.2,0.415-2.728-0.652-3.672c-1.126-0.996-2.785-0.995-3.905-0.062 c-0.032,0.026-0.075-0.011-0.052-0.046c0.79-1.225,0.589-2.872-0.538-3.868c-1.079-0.955-2.647-0.993-3.761-0.174 c-0.036,0.027-0.077-0.015-0.047-0.048l20.752-23.458c0.014-0.016,0.038-0.018,0.054-0.003L84.011,57.473z"/></g></g><g><g><rect style="fill:#f5c43d" width="12" height="2" x="74.209" y="51.774" transform="matrix(0.749 0.6626 -0.6626 0.749 55.1013 -39.8983)"/></g></g><g><g><path style="fill:#fff" d="M84.892,47.571l-0.09-0.08c-2.457-2.174-6.211-1.944-8.385,0.513l-0.04,0.045l8.988,7.951 l0.04-0.045C87.579,53.499,87.349,49.745,84.892,47.571z"/></g></g><g><g><path style="fill:#e07000" d="M84.015,57.527L63.267,80.979c-0.03,0.034-0.077-0.002-0.055-0.042 c0.674-1.205,0.444-2.753-0.634-3.706c-1.124-0.994-2.778-0.995-3.897-0.068c-0.019,0.016-0.041-0.008-0.025-0.025 l20.865-23.586c0.014-0.016,0.038-0.018,0.054-0.003l4.438,3.925C84.027,57.487,84.029,57.511,84.015,57.527z"/></g></g><g><g><path style="fill:#3d320c" d="M56.96,82.675l-3.917,0.807l0.323-3.987c0.833,0.069,1.653,0.395,2.328,0.991 C56.367,81.083,56.79,81.857,56.96,82.675z"/></g></g></g></g><g id="R-Yellow" style="display:none"><g style="display:inline"><circle style="fill:#ffd75e" cx="55" cy="55" r="55"/></g><g style="display:inline"><g><path style="fill:#fff" d="M23,26.84c0-2.121,1.719-3.84,3.84-3.84H55l16,13.44v46.72c0,2.121-1.719,3.84-3.84,3.84H26.84 C24.719,87,23,85.281,23,83.16V26.84z"/></g><g><path style="fill:#ffe9a1" d="M55,23v9.6c0,2.121,1.719,3.84,3.84,3.84H71L55,23z"/></g><g><path style="fill:#ffe9a1" d="M62,72H52c-1.654,0-3-1.346-3-3v-5c0-1.654,1.346-3,3-3h10c1.654,0,3,1.346,3,3v5 C65,70.654,63.654,72,62,72z M52,63c-0.551,0-1,0.449-1,1v5c0,0.552,0.449,1,1,1h10c0.551,0,1-0.448,1-1v-5c0-0.551-0.449-1-1-1 H52z"/></g><g><path style="fill:#ffe9a1" d="M40,72H30c-1.654,0-3-1.346-3-3v-5c0-1.654,1.346-3,3-3h10c1.654,0,3,1.346,3,3v5 C43,70.654,41.654,72,40,72z M30,63c-0.551,0-1,0.449-1,1v5c0,0.552,0.449,1,1,1h10c0.551,0,1-0.448,1-1v-5c0-0.551-0.449-1-1-1 H30z"/></g><g><g><polygon style="fill:#ffe9a1" points="50.271 52 48.014 52 52.728 61 54.986 61"/></g></g><g><g><polygon style="fill:#ffe9a1" points="41.728 52 37.014 61 39.271 61 43.986 52"/></g></g><g><path style="fill:#ffe9a1" d="M51,52H41c-1.654,0-3-1.346-3-3v-5c0-1.654,1.346-3,3-3h10c1.654,0,3,1.346,3,3v5 C54,50.654,52.654,52,51,52z M41,43c-0.551,0-1,0.449-1,1v5c0,0.552,0.449,1,1,1h10c0.551,0,1-0.448,1-1v-5c0-0.551-0.449-1-1-1 H41z"/></g><g><g><path style="fill:#fff5d9" d="M84.144,57.499L62.941,81.466l-5.877,1.209c-0.17-0.818-0.593-1.593-1.267-2.189 c-0.674-0.596-1.495-0.921-2.328-0.991l0.484-5.98l21.203-23.967L84.144,57.499z"/></g></g><g><g><path style="fill:#fa9200" d="M84.115,57.473c0.016,0.014,0.018,0.038,0.004,0.054L63.397,80.95 c-0.034,0.038-0.087-0.002-0.063-0.047c0.651-1.2,0.415-2.728-0.652-3.672c-1.126-0.996-2.785-0.995-3.905-0.062 c-0.032,0.026-0.075-0.011-0.052-0.046c0.79-1.225,0.589-2.872-0.538-3.868c-1.079-0.955-2.647-0.993-3.761-0.174 c-0.036,0.027-0.077-0.015-0.047-0.048l20.752-23.458c0.014-0.016,0.038-0.018,0.054-0.003L84.115,57.473z"/></g></g><g><g><rect style="fill:#f5c43d" width="12" height="2" x="74.313" y="51.774" transform="matrix(0.749 0.6626 -0.6626 0.749 55.1274 -39.9672)"/></g></g><g><g><path style="fill:#fff" d="M84.996,47.571l-0.09-0.08c-2.457-2.174-6.211-1.944-8.385,0.513l-0.04,0.045l8.988,7.951 l0.04-0.045C87.683,53.499,87.453,49.745,84.996,47.571z"/></g></g><g><g><path style="fill:#e07000" d="M84.119,57.527L63.371,80.979c-0.03,0.034-0.077-0.002-0.055-0.042 c0.674-1.205,0.444-2.753-0.634-3.706c-1.124-0.994-2.778-0.995-3.897-0.068c-0.019,0.016-0.041-0.008-0.025-0.025 l20.865-23.586c0.014-0.016,0.038-0.018,0.054-0.003l4.438,3.925C84.131,57.487,84.133,57.511,84.119,57.527z"/></g></g><g><g><path style="fill:#3d320c" d="M57.064,82.675l-3.917,0.807l0.323-3.987c0.833,0.069,1.653,0.395,2.328,0.991 C56.471,81.083,56.894,81.857,57.064,82.675z"/></g></g></g></g></svg>