<svg xmlns="http://www.w3.org/2000/svg" xmlns:xlink="http://www.w3.org/1999/xlink" width="110" height="110" x="0" y="0" version="1.0" viewBox="0 0 110 110" xml:space="preserve" style="enable-background:new 0 0 110 110"><g id="Artboard" style="display:none"><rect style="display:inline;fill:gray;stroke:#000;stroke-miterlimit:10" width="1363" height="720" x="-702.5" y="-59.5"/></g><g id="R-Multicolor" style="display:none"><circle style="display:inline;fill:#32bea6" cx="55" cy="55" r="55"/><g style="display:inline"><path style="fill:#f0f1f1" d="M87,29c0-2.209-1.791-4-4-4H27c-2.209,0-4,1.791-4,4v52c0,2.209,1.791,4,4,4h56 c2.209,0,4-1.791,4-4V29z"/><path style="fill:#fff" d="M83,25H27c-2.209,0-4,1.791-4,4v52c0,1.219,0.557,2.297,1.417,3.031l58.99-58.99 C83.271,25.027,83.139,25,83,25z"/><rect style="fill:#17b198" width="12" height="4" x="49" y="73"/><rect style="fill:#17b198" width="12" height="4" x="49" y="65"/><rect style="fill:#f3b607" width="12" height="4" x="49" y="57"/><rect style="fill:#17b198" width="12" height="4" x="33" y="73"/><rect style="fill:#17b198" width="12" height="4" x="33" y="65"/><rect style="fill:#f3b607" width="12" height="4" x="33" y="57"/><rect style="fill:#f37a10" width="12" height="4" x="33" y="49"/><rect style="fill:#17b198" width="12" height="4" x="65" y="73"/><rect style="fill:#17b198" width="12" height="4" x="65" y="65"/><rect style="fill:#f3b607" width="12" height="4" x="65" y="57"/><rect style="fill:#f37a10" width="12" height="4" x="49" y="49"/><rect style="fill:#fa5655" width="12" height="4" x="49" y="41"/><rect style="fill:#df2c2c" width="12" height="4" x="49" y="33"/></g></g><g id="Multicolor"><g><path style="fill:#f0f1f1" d="M87,29c0-2.209-1.791-4-4-4H27c-2.209,0-4,1.791-4,4v52c0,2.209,1.791,4,4,4h56 c2.209,0,4-1.791,4-4V29z"/><path style="fill:#fff" d="M83,25H27c-2.209,0-4,1.791-4,4v52c0,1.219,0.557,2.297,1.417,3.031l58.99-58.99 C83.271,25.027,83.139,25,83,25z"/><rect style="fill:#17b198" width="12" height="4" x="49" y="73"/><rect style="fill:#17b198" width="12" height="4" x="49" y="65"/><rect style="fill:#f3b607" width="12" height="4" x="49" y="57"/><rect style="fill:#17b198" width="12" height="4" x="33" y="73"/><rect style="fill:#17b198" width="12" height="4" x="33" y="65"/><rect style="fill:#f3b607" width="12" height="4" x="33" y="57"/><rect style="fill:#f37a10" width="12" height="4" x="33" y="49"/><rect style="fill:#17b198" width="12" height="4" x="65" y="73"/><rect style="fill:#17b198" width="12" height="4" x="65" y="65"/><rect style="fill:#f3b607" width="12" height="4" x="65" y="57"/><rect style="fill:#f37a10" width="12" height="4" x="49" y="49"/><rect style="fill:#fa5655" width="12" height="4" x="49" y="41"/><rect style="fill:#df2c2c" width="12" height="4" x="49" y="33"/></g></g><g id="Blue" style="display:none"><g style="display:inline"><g><path style="fill:#e1f5fa" d="M87,29c0-2.209-1.791-4-4-4H27c-2.209,0-4,1.791-4,4v52c0,2.21,1.791,4,4,4h56c2.209,0,4-1.79,4-4 V29z"/></g><g><path style="fill:#fff" d="M83,25H27c-2.209,0-4,1.791-4,4v52c0,1.219,0.557,2.297,1.417,3.031l58.99-58.99 C83.271,25.027,83.139,25,83,25z"/></g><g><rect style="fill:#0c333d" width="12" height="4" x="49" y="73"/></g><g><rect style="fill:#0f6175" width="12" height="4" x="49" y="65"/></g><g><rect style="fill:#0081a1" width="12" height="4" x="49" y="57"/></g><g><rect style="fill:#0c333d" width="12" height="4" x="33" y="73"/></g><g><rect style="fill:#0f6175" width="12" height="4" x="33" y="65"/></g><g><rect style="fill:#0081a1" width="12" height="4" x="33" y="57"/></g><g><rect style="fill:#009fc7" width="12" height="4" x="33" y="49"/></g><g><rect style="fill:#0c333d" width="12" height="4" x="65" y="73"/></g><g><rect style="fill:#0f6175" width="12" height="4" x="65" y="65"/></g><g><rect style="fill:#0081a1" width="12" height="4" x="65" y="57"/></g><g><rect style="fill:#009fc7" width="12" height="4" x="49" y="49"/></g><g><rect style="fill:#00b7e5" width="12" height="4" x="49" y="41"/></g><g><rect style="fill:#00b7e5" width="12" height="4" x="49" y="33"/></g></g></g><g id="R-Blue" style="display:none"><g style="display:inline"><circle style="fill:#81d2eb" cx="55" cy="55" r="55"/></g><g style="display:inline"><g><path style="fill:#e1f5fa" d="M87,29c0-2.209-1.791-4-4-4H27c-2.209,0-4,1.791-4,4v52c0,2.21,1.791,4,4,4h56c2.209,0,4-1.79,4-4 V29z"/></g><g><path style="fill:#fff" d="M83,25H27c-2.209,0-4,1.791-4,4v52c0,1.219,0.557,2.297,1.417,3.031l58.99-58.99 C83.271,25.027,83.139,25,83,25z"/></g><g><rect style="fill:#0c333d" width="12" height="4" x="49" y="73"/></g><g><rect style="fill:#0f6175" width="12" height="4" x="49" y="65"/></g><g><rect style="fill:#0081a1" width="12" height="4" x="49" y="57"/></g><g><rect style="fill:#0c333d" width="12" height="4" x="33" y="73"/></g><g><rect style="fill:#0f6175" width="12" height="4" x="33" y="65"/></g><g><rect style="fill:#0081a1" width="12" height="4" x="33" y="57"/></g><g><rect style="fill:#009fc7" width="12" height="4" x="33" y="49"/></g><g><rect style="fill:#0c333d" width="12" height="4" x="65" y="73"/></g><g><rect style="fill:#0f6175" width="12" height="4" x="65" y="65"/></g><g><rect style="fill:#0081a1" width="12" height="4" x="65" y="57"/></g><g><rect style="fill:#009fc7" width="12" height="4" x="49" y="49"/></g><g><rect style="fill:#00b7e5" width="12" height="4" x="49" y="41"/></g><g><rect style="fill:#00b7e5" width="12" height="4" x="49" y="33"/></g></g></g><g id="Green" style="display:none"><g style="display:inline"><g><path style="fill:#d7fcf9" d="M87,29c0-2.209-1.791-4-4-4H27c-2.209,0-4,1.791-4,4v52c0,2.21,1.791,4,4,4h56c2.209,0,4-1.79,4-4 V29z"/></g><g><path style="fill:#fff" d="M83,25H27c-2.209,0-4,1.791-4,4v52c0,1.219,0.557,2.297,1.417,3.031l58.99-58.99 C83.271,25.027,83.139,25,83,25z"/></g><g><rect style="fill:#0a3631" width="12" height="4" x="49" y="73"/></g><g><rect style="fill:#14635b" width="12" height="4" x="49" y="65"/></g><g><rect style="fill:#009687" width="12" height="4" x="49" y="57"/></g><g><rect style="fill:#0a3631" width="12" height="4" x="33" y="73"/></g><g><rect style="fill:#14635b" width="12" height="4" x="33" y="65"/></g><g><rect style="fill:#009687" width="12" height="4" x="33" y="57"/></g><g><rect style="fill:#00b8a5" width="12" height="4" x="33" y="49"/></g><g><rect style="fill:#0a3631" width="12" height="4" x="65" y="73"/></g><g><rect style="fill:#14635b" width="12" height="4" x="65" y="65"/></g><g><rect style="fill:#009687" width="12" height="4" x="65" y="57"/></g><g><rect style="fill:#00b8a5" width="12" height="4" x="49" y="49"/></g><g><rect style="fill:#00d6c1" width="12" height="4" x="49" y="41"/></g><g><rect style="fill:#00d6c1" width="12" height="4" x="49" y="33"/></g></g></g><g id="R-Green" style="display:none"><g style="display:inline"><circle style="fill:#87e0c8" cx="55" cy="55" r="55"/></g><g style="display:inline"><g><path style="fill:#d7fcf9" d="M87,29c0-2.209-1.791-4-4-4H27c-2.209,0-4,1.791-4,4v52c0,2.21,1.791,4,4,4h56c2.209,0,4-1.79,4-4 V29z"/></g><g><path style="fill:#fff" d="M83,25H27c-2.209,0-4,1.791-4,4v52c0,1.219,0.557,2.297,1.417,3.031l58.99-58.99 C83.271,25.027,83.139,25,83,25z"/></g><g><rect style="fill:#0a3631" width="12" height="4" x="49" y="73"/></g><g><rect style="fill:#14635b" width="12" height="4" x="49" y="65"/></g><g><rect style="fill:#009687" width="12" height="4" x="49" y="57"/></g><g><rect style="fill:#0a3631" width="12" height="4" x="33" y="73"/></g><g><rect style="fill:#14635b" width="12" height="4" x="33" y="65"/></g><g><rect style="fill:#009687" width="12" height="4" x="33" y="57"/></g><g><rect style="fill:#00b8a5" width="12" height="4" x="33" y="49"/></g><g><rect style="fill:#0a3631" width="12" height="4" x="65" y="73"/></g><g><rect style="fill:#14635b" width="12" height="4" x="65" y="65"/></g><g><rect style="fill:#009687" width="12" height="4" x="65" y="57"/></g><g><rect style="fill:#00b8a5" width="12" height="4" x="49" y="49"/></g><g><rect style="fill:#00d6c1" width="12" height="4" x="49" y="41"/></g><g><rect style="fill:#00d6c1" width="12" height="4" x="49" y="33"/></g></g></g><g id="Red" style="display:none"><g style="display:inline"><g><path style="fill:#ffefed" d="M87,29c0-2.209-1.791-4-4-4H27c-2.209,0-4,1.791-4,4v52c0,2.21,1.791,4,4,4h56c2.209,0,4-1.79,4-4 V29z"/></g><g><path style="fill:#fff" d="M83,25H27c-2.209,0-4,1.791-4,4v52c0,1.219,0.557,2.297,1.417,3.031l58.99-58.99 C83.271,25.027,83.139,25,83,25z"/></g><g><rect style="fill:#4a1410" width="12" height="4" x="49" y="73"/></g><g><rect style="fill:#7d261e" width="12" height="4" x="49" y="65"/></g><g><rect style="fill:#c23023" width="12" height="4" x="49" y="57"/></g><g><rect style="fill:#4a1410" width="12" height="4" x="33" y="73"/></g><g><rect style="fill:#7d261e" width="12" height="4" x="33" y="65"/></g><g><rect style="fill:#c23023" width="12" height="4" x="33" y="57"/></g><g><rect style="fill:#e54b44" width="12" height="4" x="33" y="49"/></g><g><rect style="fill:#4a1410" width="12" height="4" x="65" y="73"/></g><g><rect style="fill:#7d261e" width="12" height="4" x="65" y="65"/></g><g><rect style="fill:#c23023" width="12" height="4" x="65" y="57"/></g><g><rect style="fill:#e54b44" width="12" height="4" x="49" y="49"/></g><g><rect style="fill:#ff6c5e" width="12" height="4" x="49" y="41"/></g><g><rect style="fill:#ff6c5e" width="12" height="4" x="49" y="33"/></g></g></g><g id="R-Red" style="display:none"><g style="display:inline"><circle style="fill:#fabbaf" cx="55" cy="55" r="55"/></g><g style="display:inline"><g><path style="fill:#ffefed" d="M87,29c0-2.209-1.791-4-4-4H27c-2.209,0-4,1.791-4,4v52c0,2.21,1.791,4,4,4h56c2.209,0,4-1.79,4-4 V29z"/></g><g><path style="fill:#fff" d="M83,25H27c-2.209,0-4,1.791-4,4v52c0,1.219,0.557,2.297,1.417,3.031l58.99-58.99 C83.271,25.027,83.139,25,83,25z"/></g><g><rect style="fill:#4a1410" width="12" height="4" x="49" y="73"/></g><g><rect style="fill:#7d261e" width="12" height="4" x="49" y="65"/></g><g><rect style="fill:#c23023" width="12" height="4" x="49" y="57"/></g><g><rect style="fill:#4a1410" width="12" height="4" x="33" y="73"/></g><g><rect style="fill:#7d261e" width="12" height="4" x="33" y="65"/></g><g><rect style="fill:#c23023" width="12" height="4" x="33" y="57"/></g><g><rect style="fill:#e54b44" width="12" height="4" x="33" y="49"/></g><g><rect style="fill:#4a1410" width="12" height="4" x="65" y="73"/></g><g><rect style="fill:#7d261e" width="12" height="4" x="65" y="65"/></g><g><rect style="fill:#c23023" width="12" height="4" x="65" y="57"/></g><g><rect style="fill:#e54b44" width="12" height="4" x="49" y="49"/></g><g><rect style="fill:#ff6c5e" width="12" height="4" x="49" y="41"/></g><g><rect style="fill:#ff6c5e" width="12" height="4" x="49" y="33"/></g></g></g><g id="Yellow" style="display:none"><g style="display:inline"><g><path style="fill:#fff5d9" d="M87,29c0-2.209-1.791-4-4-4H27c-2.209,0-4,1.791-4,4v52c0,2.209,1.791,4,4,4h56 c2.209,0,4-1.791,4-4V29z"/></g><g><path style="fill:#fff" d="M83,25H27c-2.209,0-4,1.791-4,4v52c0,1.219,0.557,2.297,1.417,3.031l58.99-58.99 C83.271,25.027,83.139,25,83,25z"/></g><g><rect style="fill:#3d320c" width="12" height="4" x="49" y="73"/></g><g><rect style="fill:#66510d" width="12" height="4" x="49" y="65"/></g><g><rect style="fill:#e07000" width="12" height="4" x="49" y="57"/></g><g><rect style="fill:#3d320c" width="12" height="4" x="33" y="73"/></g><g><rect style="fill:#66510d" width="12" height="4" x="33" y="65"/></g><g><rect style="fill:#e07000" width="12" height="4" x="33" y="57"/></g><g><rect style="fill:#fa9200" width="12" height="4" x="33" y="49"/></g><g><rect style="fill:#3d320c" width="12" height="4" x="65" y="73"/></g><g><rect style="fill:#66510d" width="12" height="4" x="65" y="65"/></g><g><rect style="fill:#e07000" width="12" height="4" x="65" y="57"/></g><g><rect style="fill:#fa9200" width="12" height="4" x="49" y="49"/></g><g><rect style="fill:#fa0" width="12" height="4" x="49" y="41"/></g><g><rect style="fill:#fa0" width="12" height="4" x="49" y="33"/></g></g></g><g id="R-Yellow" style="display:none"><g style="display:inline"><circle style="fill:#ffd75e" cx="55" cy="55" r="55"/></g><g style="display:inline"><g><path style="fill:#fff5d9" d="M87,29c0-2.209-1.791-4-4-4H27c-2.209,0-4,1.791-4,4v52c0,2.21,1.791,4,4,4h56c2.209,0,4-1.79,4-4 V29z"/></g><g><path style="fill:#fff" d="M83,25H27c-2.209,0-4,1.791-4,4v52c0,1.219,0.557,2.297,1.417,3.031l58.99-58.99 C83.271,25.027,83.139,25,83,25z"/></g><g><rect style="fill:#3d320c" width="12" height="4" x="49" y="73"/></g><g><rect style="fill:#66510d" width="12" height="4" x="49" y="65"/></g><g><rect style="fill:#e07000" width="12" height="4" x="49" y="57"/></g><g><rect style="fill:#3d320c" width="12" height="4" x="33" y="73"/></g><g><rect style="fill:#66510d" width="12" height="4" x="33" y="65"/></g><g><rect style="fill:#e07000" width="12" height="4" x="33" y="57"/></g><g><rect style="fill:#fa9200" width="12" height="4" x="33" y="49"/></g><g><rect style="fill:#3d320c" width="12" height="4" x="65" y="73"/></g><g><rect style="fill:#66510d" width="12" height="4" x="65" y="65"/></g><g><rect style="fill:#e07000" width="12" height="4" x="65" y="57"/></g><g><rect style="fill:#fa9200" width="12" height="4" x="49" y="49"/></g><g><rect style="fill:#fa0" width="12" height="4" x="49" y="41"/></g><g><rect style="fill:#fa0" width="12" height="4" x="49" y="33"/></g></g></g></svg>