<svg xmlns="http://www.w3.org/2000/svg" xmlns:xlink="http://www.w3.org/1999/xlink" width="110" height="110" x="0" y="0" version="1.0" viewBox="0 0 110 110" xml:space="preserve" style="enable-background:new 0 0 110 110"><g id="Artboard" style="display:none"><rect style="display:inline;fill:gray;stroke:#000;stroke-miterlimit:10" width="1351" height="718" x="-817.5" y="-176.5"/></g><g id="R-Multicolor" style="display:none"><circle style="display:inline;fill:#32bea6" cx="55" cy="55" r="55"/><g style="display:inline"><path style="fill:#3e3e3f" d="M79,35c0-2.209-1.791-4-4-4H35c-2.209,0-4,1.791-4,4v28h48V35z"/><path style="fill:#5b5c5f" d="M31,35v28h11.062l32-32H35C32.791,31,31,32.791,31,35z"/><path style="fill:#fff" d="M84.172,85.828C83.421,86.579,82.404,87,81.343,87H28.657c-1.061,0-2.078-0.421-2.828-1.172L23,83 h64L84.172,85.828z"/><polygon style="fill:#f0f1f1" points="79 63 31 63 23 83 87 83"/><path style="fill:#cfd3d4" d="M61.447,76.894C61.201,76.402,60.55,76,60,76H50c-0.55,0-1.201,0.402-1.447,0.894l-1.106,2.211 C47.201,79.598,47.45,80,48,80h14c0.55,0,0.799-0.402,0.553-0.894L61.447,76.894z"/><path style="fill:#cfd3d4" d="M75,72c0,0.55-0.45,1-1,1H37c-0.55,0-1-0.45-1-1l0,0c0-0.55,0.45-1,1-1h37C74.55,71,75,71.45,75,72 L75,72z"/><path style="fill:#cfd3d4" d="M73.227,68c0,0.55-0.45,1-1,1H38.773c-0.55,0-1-0.45-1-1l0,0c0-0.55,0.45-1,1-1h33.455 C72.777,67,73.227,67.45,73.227,68L73.227,68z"/><g><path style="fill:#fff" d="M64,43H47.374l-1.455-3.394C45.761,39.238,45.4,39,45,39h-3c-0.552,0-1,0.448-1,1s0.448,1,1,1 h1.681c0.4,0,0.761,0.238,0.919,0.606l5.48,12.788C50.239,54.762,50.6,55,51,55h8c0.552,0,1-0.448,1-1s-0.448-1-1-1h-6.681 c-0.4,0-0.761-0.238-0.919-0.606L50.802,51H60c0.55,0,1.201-0.402,1.447-0.895l3.105-6.211C64.799,43.402,64.55,43,64,43z"/><circle style="fill:#fff" cx="57.5" cy="57.5" r="1.5"/><circle style="fill:#fff" cx="51.875" cy="57.5" r="1.5"/></g><polygon style="fill:#fff" points="42.062 63 31 63 23.625 81.438"/></g></g><g id="Multicolor_1_"><g><path style="fill:#3e3e3f" d="M79,35c0-2.209-1.791-4-4-4H35c-2.209,0-4,1.791-4,4v28h48V35z"/><path style="fill:#5b5c5f" d="M31,35v28h11.062l32-32H35C32.791,31,31,32.791,31,35z"/><path style="fill:#fff" d="M84.172,85.828C83.421,86.579,82.404,87,81.343,87H28.657c-1.061,0-2.078-0.421-2.828-1.172L23,83 h64L84.172,85.828z"/><polygon style="fill:#f0f1f1" points="79 63 31 63 23 83 87 83"/><path style="fill:#cfd3d4" d="M61.447,76.894C61.201,76.402,60.55,76,60,76H50c-0.55,0-1.201,0.402-1.447,0.894l-1.106,2.211 C47.201,79.598,47.45,80,48,80h14c0.55,0,0.799-0.402,0.553-0.894L61.447,76.894z"/><path style="fill:#cfd3d4" d="M75,72c0,0.55-0.45,1-1,1H37c-0.55,0-1-0.45-1-1l0,0c0-0.55,0.45-1,1-1h37C74.55,71,75,71.45,75,72 L75,72z"/><path style="fill:#cfd3d4" d="M73.227,68c0,0.55-0.45,1-1,1H38.773c-0.55,0-1-0.45-1-1l0,0c0-0.55,0.45-1,1-1h33.455 C72.777,67,73.227,67.45,73.227,68L73.227,68z"/><g><path style="fill:#fff" d="M64,43H47.374l-1.455-3.394C45.761,39.238,45.4,39,45,39h-3c-0.552,0-1,0.448-1,1s0.448,1,1,1 h1.681c0.4,0,0.761,0.238,0.919,0.606l5.48,12.788C50.239,54.762,50.6,55,51,55h8c0.552,0,1-0.448,1-1s-0.448-1-1-1h-6.681 c-0.4,0-0.761-0.238-0.919-0.606L50.802,51H60c0.55,0,1.201-0.402,1.447-0.895l3.105-6.211C64.799,43.402,64.55,43,64,43z"/><circle style="fill:#fff" cx="57.5" cy="57.5" r="1.5"/><circle style="fill:#fff" cx="51.875" cy="57.5" r="1.5"/></g><polygon style="fill:#fff" points="42.062 63 31 63 23.625 81.438"/></g></g><g id="Blue" style="display:none"><g style="display:inline"><g><path style="fill:#0c333d" d="M79,35c0-2.209-1.791-4-4-4H35c-2.209,0-4,1.791-4,4v28h48V35z"/></g><g><path style="fill:#0f6175" d="M31,35v28h11.062l32-32H35C32.791,31,31,32.791,31,35z"/></g><g><path style="fill:#fff" d="M84.172,85.829C83.421,86.579,82.404,87,81.343,87H28.657c-1.061,0-2.078-0.421-2.829-1.171L23,83 h64L84.172,85.829z"/></g><g><polygon style="fill:#e1f5fa" points="79 63 31 63 23 83 87 83"/></g><g><path style="fill:#81d2eb" d="M61.447,76.895C61.201,76.403,60.55,76,60,76H50c-0.55,0-1.201,0.403-1.447,0.895l-1.105,2.212 C47.201,79.598,47.45,80,48,80h14c0.55,0,0.799-0.402,0.553-0.894L61.447,76.895z"/></g><g><path style="fill:#81d2eb" d="M75,72c0,0.55-0.45,1-1,1H37c-0.55,0-1-0.45-1-1l0,0c0-0.55,0.45-1,1-1h37 C74.55,71,75,71.45,75,72L75,72z"/></g><g><path style="fill:#81d2eb" d="M73.227,68c0,0.55-0.45,1-1,1H38.772c-0.55,0-1-0.45-1-1l0,0c0-0.55,0.45-1,1-1h33.455 C72.777,67,73.227,67.45,73.227,68L73.227,68z"/></g><g><g><path style="fill:#fff" d="M64,43H47.373l-1.455-3.394C45.761,39.238,45.4,39,45,39h-3c-0.552,0-1,0.448-1,1 c0,0.552,0.448,1,1,1h1.682c0.4,0,0.761,0.238,0.919,0.606l5.48,12.788C50.239,54.762,50.6,55,51,55h8c0.552,0,1-0.448,1-1 c0-0.552-0.448-1-1-1h-6.682c-0.4,0-0.761-0.238-0.919-0.606L50.802,51H60c0.55,0,1.201-0.402,1.447-0.894l3.105-6.211 C64.799,43.402,64.55,43,64,43z"/></g><g><circle style="fill:#fff" cx="57.5" cy="57.5" r="1.5"/></g><g><circle style="fill:#fff" cx="51.875" cy="57.5" r="1.5"/></g></g><g><polygon style="fill:#fff" points="42.062 63 31 63 23.625 81.438"/></g></g></g><g id="R-Blue" style="display:none"><g style="display:inline"><circle style="fill:#81d2eb" cx="55" cy="55" r="55"/></g><g style="display:inline"><g><path style="fill:#0c333d" d="M79,35c0-2.209-1.791-4-4-4H35c-2.209,0-4,1.791-4,4v28h48V35z"/></g><g><path style="fill:#0f6175" d="M31,35v28h11.062l32-32H35C32.791,31,31,32.791,31,35z"/></g><g><path style="fill:#fff" d="M84.172,85.829C83.421,86.579,82.404,87,81.343,87H28.657c-1.061,0-2.078-0.421-2.829-1.171L23,83 h64L84.172,85.829z"/></g><g><polygon style="fill:#e1f5fa" points="79 63 31 63 23 83 87 83"/></g><g><path style="fill:#81d2eb" d="M61.447,76.895C61.201,76.403,60.55,76,60,76H50c-0.55,0-1.201,0.403-1.447,0.895l-1.105,2.212 C47.201,79.598,47.45,80,48,80h14c0.55,0,0.799-0.402,0.553-0.894L61.447,76.895z"/></g><g><path style="fill:#81d2eb" d="M75,72c0,0.55-0.45,1-1,1H37c-0.55,0-1-0.45-1-1l0,0c0-0.55,0.45-1,1-1h37 C74.55,71,75,71.45,75,72L75,72z"/></g><g><path style="fill:#81d2eb" d="M73.227,68c0,0.55-0.45,1-1,1H38.772c-0.55,0-1-0.45-1-1l0,0c0-0.55,0.45-1,1-1h33.455 C72.777,67,73.227,67.45,73.227,68L73.227,68z"/></g><g><g><path style="fill:#fff" d="M64,43H47.373l-1.455-3.394C45.761,39.238,45.4,39,45,39h-3c-0.552,0-1,0.448-1,1 c0,0.552,0.448,1,1,1h1.682c0.4,0,0.761,0.238,0.919,0.606l5.48,12.788C50.239,54.762,50.6,55,51,55h8c0.552,0,1-0.448,1-1 c0-0.552-0.448-1-1-1h-6.682c-0.4,0-0.761-0.238-0.919-0.606L50.802,51H60c0.55,0,1.201-0.402,1.447-0.894l3.105-6.211 C64.799,43.402,64.55,43,64,43z"/></g><g><circle style="fill:#fff" cx="57.5" cy="57.5" r="1.5"/></g><g><circle style="fill:#fff" cx="51.875" cy="57.5" r="1.5"/></g></g><g><polygon style="fill:#fff" points="42.062 63 31 63 23.625 81.438"/></g></g></g><g id="Green" style="display:none"><g style="display:inline"><g><path style="fill:#0a3631" d="M79,35c0-2.209-1.791-4-4-4H35c-2.209,0-4,1.791-4,4v28h48V35z"/></g><g><path style="fill:#14635b" d="M31,35v28h11.062l32-32H35C32.791,31,31,32.791,31,35z"/></g><g><path style="fill:#fff" d="M84.172,85.829C83.421,86.579,82.404,87,81.343,87H28.657c-1.061,0-2.078-0.421-2.829-1.171L23,83 h64L84.172,85.829z"/></g><g><polygon style="fill:#d7fcf9" points="79 63 31 63 23 83 87 83"/></g><g><path style="fill:#87e0c8" d="M61.447,76.895C61.201,76.403,60.55,76,60,76H50c-0.55,0-1.201,0.403-1.447,0.895l-1.105,2.212 C47.201,79.598,47.45,80,48,80h14c0.55,0,0.799-0.402,0.553-0.894L61.447,76.895z"/></g><g><path style="fill:#87e0c8" d="M75,72c0,0.55-0.45,1-1,1H37c-0.55,0-1-0.45-1-1l0,0c0-0.55,0.45-1,1-1h37 C74.55,71,75,71.45,75,72L75,72z"/></g><g><path style="fill:#87e0c8" d="M73.228,68c0,0.55-0.45,1-1,1H38.772c-0.55,0-1-0.45-1-1l0,0c0-0.55,0.45-1,1-1h33.455 C72.777,67,73.228,67.45,73.228,68L73.228,68z"/></g><g><g><path style="fill:#fff" d="M64,43H47.374l-1.455-3.394C45.761,39.238,45.4,39,45,39h-3c-0.552,0-1,0.448-1,1 c0,0.552,0.448,1,1,1h1.682c0.4,0,0.761,0.238,0.919,0.606l5.48,12.788C50.239,54.762,50.6,55,51,55h8c0.552,0,1-0.448,1-1 c0-0.552-0.448-1-1-1h-6.682c-0.4,0-0.761-0.238-0.919-0.606L50.802,51H60c0.55,0,1.201-0.402,1.447-0.894l3.105-6.211 C64.799,43.402,64.55,43,64,43z"/></g><g><circle style="fill:#fff" cx="57.5" cy="57.5" r="1.5"/></g><g><circle style="fill:#fff" cx="51.875" cy="57.5" r="1.5"/></g></g><g><polygon style="fill:#fff" points="42.062 63 31 63 23.625 81.438"/></g></g></g><g id="R-Green" style="display:none"><g style="display:inline"><circle style="fill:#87e0c8" cx="55" cy="55" r="55"/></g><g style="display:inline"><g><path style="fill:#0a3631" d="M79,35c0-2.209-1.791-4-4-4H35c-2.209,0-4,1.791-4,4v28h48V35z"/></g><g><path style="fill:#14635b" d="M31,35v28h11.062l32-32H35C32.791,31,31,32.791,31,35z"/></g><g><path style="fill:#fff" d="M84.172,85.829C83.421,86.579,82.404,87,81.343,87H28.657c-1.061,0-2.078-0.421-2.829-1.171L23,83 h64L84.172,85.829z"/></g><g><polygon style="fill:#d7fcf9" points="79 63 31 63 23 83 87 83"/></g><g><path style="fill:#87e0c8" d="M61.447,76.895C61.201,76.403,60.55,76,60,76H50c-0.55,0-1.201,0.403-1.447,0.895l-1.105,2.212 C47.201,79.598,47.45,80,48,80h14c0.55,0,0.799-0.402,0.553-0.894L61.447,76.895z"/></g><g><path style="fill:#87e0c8" d="M75,72c0,0.55-0.45,1-1,1H37c-0.55,0-1-0.45-1-1l0,0c0-0.55,0.45-1,1-1h37 C74.55,71,75,71.45,75,72L75,72z"/></g><g><path style="fill:#87e0c8" d="M73.227,68c0,0.55-0.45,1-1,1H38.772c-0.55,0-1-0.45-1-1l0,0c0-0.55,0.45-1,1-1h33.455 C72.777,67,73.227,67.45,73.227,68L73.227,68z"/></g><g><g><path style="fill:#fff" d="M64,43H47.373l-1.455-3.394C45.761,39.238,45.4,39,45,39h-3c-0.552,0-1,0.448-1,1 c0,0.552,0.448,1,1,1h1.682c0.4,0,0.761,0.238,0.919,0.606l5.48,12.788C50.239,54.762,50.6,55,51,55h8c0.552,0,1-0.448,1-1 c0-0.552-0.448-1-1-1h-6.682c-0.4,0-0.761-0.238-0.919-0.606L50.802,51H60c0.55,0,1.201-0.402,1.447-0.894l3.105-6.211 C64.799,43.402,64.55,43,64,43z"/></g><g><circle style="fill:#fff" cx="57.5" cy="57.5" r="1.5"/></g><g><circle style="fill:#fff" cx="51.875" cy="57.5" r="1.5"/></g></g><g><polygon style="fill:#fff" points="42.062 63 31 63 23.625 81.438"/></g></g></g><g id="Red" style="display:none"><g style="display:inline"><g><path style="fill:#4a1410" d="M79,35c0-2.209-1.791-4-4-4H35c-2.209,0-4,1.791-4,4v28h48V35z"/></g><g><path style="fill:#7d261e" d="M31,35v28h11.062l32-32H35C32.791,31,31,32.791,31,35z"/></g><g><path style="fill:#fff" d="M84.172,85.829C83.421,86.579,82.404,87,81.343,87H28.657c-1.061,0-2.078-0.421-2.829-1.171L23,83 h64L84.172,85.829z"/></g><g><polygon style="fill:#ffefed" points="79 63 31 63 23 83 87 83"/></g><g><path style="fill:#fabbaf" d="M61.447,76.895C61.201,76.403,60.55,76,60,76H50c-0.55,0-1.201,0.403-1.447,0.895l-1.105,2.212 C47.201,79.598,47.45,80,48,80h14c0.55,0,0.799-0.402,0.553-0.894L61.447,76.895z"/></g><g><path style="fill:#fabbaf" d="M75,72c0,0.55-0.45,1-1,1H37c-0.55,0-1-0.45-1-1l0,0c0-0.55,0.45-1,1-1h37 C74.55,71,75,71.45,75,72L75,72z"/></g><g><path style="fill:#fabbaf" d="M73.228,68c0,0.55-0.45,1-1,1H38.772c-0.55,0-1-0.45-1-1l0,0c0-0.55,0.45-1,1-1h33.455 C72.777,67,73.228,67.45,73.228,68L73.228,68z"/></g><g><g><path style="fill:#fff" d="M64,43H47.374l-1.455-3.394C45.761,39.238,45.4,39,45,39h-3c-0.552,0-1,0.448-1,1 c0,0.552,0.448,1,1,1h1.682c0.4,0,0.761,0.238,0.919,0.606l5.48,12.788C50.239,54.762,50.6,55,51,55h8c0.552,0,1-0.448,1-1 c0-0.552-0.448-1-1-1h-6.682c-0.4,0-0.761-0.238-0.919-0.606L50.802,51H60c0.55,0,1.201-0.402,1.447-0.894l3.105-6.211 C64.799,43.402,64.55,43,64,43z"/></g><g><circle style="fill:#fff" cx="57.5" cy="57.5" r="1.5"/></g><g><circle style="fill:#fff" cx="51.875" cy="57.5" r="1.5"/></g></g><g><polygon style="fill:#fff" points="42.062 63 31 63 23.625 81.438"/></g></g></g><g id="R-Red" style="display:none"><g style="display:inline"><circle style="fill:#fabbaf" cx="55" cy="55" r="55"/></g><g style="display:inline"><g><path style="fill:#4a1410" d="M79,35c0-2.209-1.791-4-4-4H35c-2.209,0-4,1.791-4,4v28h48V35z"/></g><g><path style="fill:#7d261e" d="M31,35v28h11.062l32-32H35C32.791,31,31,32.791,31,35z"/></g><g><path style="fill:#fff" d="M84.172,85.829C83.421,86.579,82.404,87,81.343,87H28.657c-1.061,0-2.078-0.421-2.829-1.171L23,83 h64L84.172,85.829z"/></g><g><polygon style="fill:#ffefed" points="79 63 31 63 23 83 87 83"/></g><g><path style="fill:#fabbaf" d="M61.447,76.895C61.201,76.403,60.55,76,60,76H50c-0.55,0-1.201,0.403-1.447,0.895l-1.105,2.212 C47.201,79.598,47.45,80,48,80h14c0.55,0,0.799-0.402,0.553-0.894L61.447,76.895z"/></g><g><path style="fill:#fabbaf" d="M75,72c0,0.55-0.45,1-1,1H37c-0.55,0-1-0.45-1-1l0,0c0-0.55,0.45-1,1-1h37 C74.55,71,75,71.45,75,72L75,72z"/></g><g><path style="fill:#fabbaf" d="M73.227,68c0,0.55-0.45,1-1,1H38.772c-0.55,0-1-0.45-1-1l0,0c0-0.55,0.45-1,1-1h33.455 C72.777,67,73.227,67.45,73.227,68L73.227,68z"/></g><g><g><path style="fill:#fff" d="M64,43H47.373l-1.455-3.394C45.761,39.238,45.4,39,45,39h-3c-0.552,0-1,0.448-1,1 c0,0.552,0.448,1,1,1h1.682c0.4,0,0.761,0.238,0.919,0.606l5.48,12.788C50.239,54.762,50.6,55,51,55h8c0.552,0,1-0.448,1-1 c0-0.552-0.448-1-1-1h-6.682c-0.4,0-0.761-0.238-0.919-0.606L50.802,51H60c0.55,0,1.201-0.402,1.447-0.894l3.105-6.211 C64.799,43.402,64.55,43,64,43z"/></g><g><circle style="fill:#fff" cx="57.5" cy="57.5" r="1.5"/></g><g><circle style="fill:#fff" cx="51.875" cy="57.5" r="1.5"/></g></g><g><polygon style="fill:#fff" points="42.062 63 31 63 23.625 81.438"/></g></g></g><g id="Yellow" style="display:none"><g style="display:inline"><g><path style="fill:#3d320c" d="M79,35c0-2.209-1.791-4-4-4H35c-2.209,0-4,1.791-4,4v28h48V35z"/></g><g><path style="fill:#66510d" d="M31,35v28h11.062l32-32H35C32.791,31,31,32.791,31,35z"/></g><g><path style="fill:#fff" d="M84.172,85.829C83.421,86.579,82.404,87,81.343,87H28.657c-1.061,0-2.078-0.421-2.829-1.171L23,83 h64L84.172,85.829z"/></g><g><polygon style="fill:#fff5d9" points="79 63 31 63 23 83 87 83"/></g><g><path style="fill:#ffd75e" d="M61.447,76.895C61.201,76.403,60.55,76,60,76H50c-0.55,0-1.201,0.403-1.447,0.895l-1.105,2.212 C47.201,79.598,47.45,80,48,80h14c0.55,0,0.799-0.402,0.553-0.894L61.447,76.895z"/></g><g><path style="fill:#ffd75e" d="M75,72c0,0.55-0.45,1-1,1H37c-0.55,0-1-0.45-1-1l0,0c0-0.55,0.45-1,1-1h37 C74.55,71,75,71.45,75,72L75,72z"/></g><g><path style="fill:#ffd75e" d="M73.227,68c0,0.55-0.45,1-1,1H38.772c-0.55,0-1-0.45-1-1l0,0c0-0.55,0.45-1,1-1h33.455 C72.777,67,73.227,67.45,73.227,68L73.227,68z"/></g><g><g><path style="fill:#fff" d="M64,43H47.373l-1.455-3.394C45.761,39.238,45.4,39,45,39h-3c-0.552,0-1,0.448-1,1 c0,0.552,0.448,1,1,1h1.682c0.4,0,0.761,0.238,0.919,0.606l5.48,12.788C50.239,54.762,50.6,55,51,55h8c0.552,0,1-0.448,1-1 c0-0.552-0.448-1-1-1h-6.682c-0.4,0-0.761-0.238-0.919-0.606L50.802,51H60c0.55,0,1.201-0.402,1.447-0.894l3.105-6.211 C64.799,43.402,64.55,43,64,43z"/></g><g><circle style="fill:#fff" cx="57.5" cy="57.5" r="1.5"/></g><g><circle style="fill:#fff" cx="51.875" cy="57.5" r="1.5"/></g></g><g><polygon style="fill:#fff" points="42.062 63 31 63 23.625 81.438"/></g></g></g><g id="R-Yellow" style="display:none"><g style="display:inline"><circle style="fill:#ffd75e" cx="55" cy="55" r="55"/></g><g style="display:inline"><g><path style="fill:#3d320c" d="M79,35c0-2.209-1.791-4-4-4H35c-2.209,0-4,1.791-4,4v28h48V35z"/></g><g><path style="fill:#66510d" d="M31,35v28h11.062l32-32H35C32.791,31,31,32.791,31,35z"/></g><g><path style="fill:#fff" d="M84.172,85.829C83.421,86.579,82.404,87,81.343,87H28.657c-1.061,0-2.078-0.421-2.829-1.171L23,83 h64L84.172,85.829z"/></g><g><polygon style="fill:#fff5d9" points="79 63 31 63 23 83 87 83"/></g><g><path style="fill:#ffd75e" d="M61.447,76.895C61.201,76.403,60.55,76,60,76H50c-0.55,0-1.201,0.403-1.447,0.895l-1.105,2.212 C47.201,79.598,47.45,80,48,80h14c0.55,0,0.799-0.402,0.553-0.894L61.447,76.895z"/></g><g><path style="fill:#ffd75e" d="M75,72c0,0.55-0.45,1-1,1H37c-0.55,0-1-0.45-1-1l0,0c0-0.55,0.45-1,1-1h37 C74.55,71,75,71.45,75,72L75,72z"/></g><g><path style="fill:#ffd75e" d="M73.228,68c0,0.55-0.45,1-1,1H38.773c-0.55,0-1-0.45-1-1l0,0c0-0.55,0.45-1,1-1h33.455 C72.777,67,73.228,67.45,73.228,68L73.228,68z"/></g><g><g><path style="fill:#fff" d="M64,43H47.374l-1.455-3.394C45.761,39.238,45.4,39,45,39h-3c-0.552,0-1,0.448-1,1 c0,0.552,0.448,1,1,1h1.682c0.4,0,0.761,0.238,0.919,0.606l5.48,12.788C50.239,54.762,50.6,55,51,55h8c0.552,0,1-0.448,1-1 c0-0.552-0.448-1-1-1h-6.682c-0.4,0-0.761-0.238-0.919-0.606L50.802,51H60c0.55,0,1.201-0.402,1.447-0.894l3.105-6.211 C64.799,43.402,64.55,43,64,43z"/></g><g><circle style="fill:#fff" cx="57.5" cy="57.5" r="1.5"/></g><g><circle style="fill:#fff" cx="51.875" cy="57.5" r="1.5"/></g></g><g><polygon style="fill:#fff" points="42.063 63 31 63 23.625 81.438"/></g></g></g></svg>