<svg xmlns="http://www.w3.org/2000/svg" xmlns:xlink="http://www.w3.org/1999/xlink" width="110" height="110" x="0" y="0" version="1.0" viewBox="0 0 110 110" xml:space="preserve" style="enable-background:new 0 0 110 110"><g id="Artboard" style="display:none"><rect style="display:inline;fill:gray" width="1360" height="442" x="-964" y="-294"/></g><g id="R-Multicolor" style="display:none"><circle style="display:inline;fill:#e04f5f" cx="55" cy="55" r="55"/><g style="display:inline"><polygon style="fill:#fcf6c2" points="59 34 27 46 27 71 51 83 83 71 83 46"/><polygon style="fill:#f3b607" points="83 71 51 83 51 58 83 46"/><polygon style="fill:#facb1b" points="27 71 51 83 51 58 27 46"/><path style="fill:#f3b607" d="M59,48v4c0,1.1-2.69,2-6,2s-6-0.9-6-2v-4c0,1.1,2.69,2,6,2S59,49.1,59,48z"/><path style="fill:#fcf6c2" d="M53,46c-3.31,0-6,0.9-6,2s2.69,2,6,2s6-0.9,6-2S56.31,46,53,46z"/><path style="fill:#f3b607" d="M47,42v4c0,1.1-2.69,2-6,2s-6-0.9-6-2v-4c0,1.1,2.69,2,6,2S47,43.1,47,42z"/><path style="fill:#fcf6c2" d="M41,40c-3.31,0-6,0.9-6,2s2.69,2,6,2s6-0.9,6-2S44.31,40,41,40z"/><path style="fill:#f3b607" d="M63,36v4c0,1.1-2.69,2-6,2s-6-0.9-6-2v-4c0,1.1,2.69,2,6,2S63,37.1,63,36z"/><path style="fill:#fcf6c2" d="M57,34c-3.31,0-6,0.9-6,2s2.69,2,6,2s6-0.9,6-2S60.31,34,57,34z"/><path style="fill:#f3b607" d="M75,42v4c0,1.1-2.69,2-6,2s-6-0.9-6-2v-4c0,1.1,2.69,2,6,2S75,43.1,75,42z"/><path style="fill:#fcf6c2" d="M69,40c-3.31,0-6,0.9-6,2s2.69,2,6,2s6-0.9,6-2S72.31,40,69,40z"/></g></g><g id="Multicolor_1_"><g><polygon style="fill:#fcf6c2" points="59 34 27 46 27 71 51 83 83 71 83 46"/><polygon style="fill:#f3b607" points="83 71 51 83 51 58 83 46"/><polygon style="fill:#facb1b" points="27 71 51 83 51 58 27 46"/><path style="fill:#f3b607" d="M59,48v4c0,1.1-2.69,2-6,2s-6-0.9-6-2v-4c0,1.1,2.69,2,6,2S59,49.1,59,48z"/><path style="fill:#fcf6c2" d="M53,46c-3.31,0-6,0.9-6,2s2.69,2,6,2s6-0.9,6-2S56.31,46,53,46z"/><path style="fill:#f3b607" d="M47,42v4c0,1.1-2.69,2-6,2s-6-0.9-6-2v-4c0,1.1,2.69,2,6,2S47,43.1,47,42z"/><path style="fill:#fcf6c2" d="M41,40c-3.31,0-6,0.9-6,2s2.69,2,6,2s6-0.9,6-2S44.31,40,41,40z"/><path style="fill:#f3b607" d="M63,36v4c0,1.1-2.69,2-6,2s-6-0.9-6-2v-4c0,1.1,2.69,2,6,2S63,37.1,63,36z"/><path style="fill:#fcf6c2" d="M57,34c-3.31,0-6,0.9-6,2s2.69,2,6,2s6-0.9,6-2S60.31,34,57,34z"/><path style="fill:#f3b607" d="M75,42v4c0,1.1-2.69,2-6,2s-6-0.9-6-2v-4c0,1.1,2.69,2,6,2S75,43.1,75,42z"/><path style="fill:#fcf6c2" d="M69,40c-3.31,0-6,0.9-6,2s2.69,2,6,2s6-0.9,6-2S72.31,40,69,40z"/></g></g><g id="Blue" style="display:none"><g style="display:inline"><g><polygon style="fill:#00b7e5" points="59 34 27 46 27 71 51 83 83 71 83 46"/></g><g><polygon style="fill:#0081a1" points="83 71 51 83 51 58 83 46"/></g><g><polygon style="fill:#009fc7" points="27 71 51 83 51 58 27 46"/></g><g><path style="fill:#0081a1" d="M59,48v4c0,1.1-2.69,2-6,2s-6-0.9-6-2v-4c0,1.1,2.69,2,6,2S59,49.1,59,48z"/></g><g><path style="fill:#bbe7f2" d="M53,46c-3.31,0-6,0.9-6,2s2.69,2,6,2s6-0.9,6-2S56.31,46,53,46z"/></g><g><path style="fill:#0081a1" d="M47,42v4c0,1.1-2.69,2-6,2s-6-0.9-6-2v-4c0,1.1,2.69,2,6,2S47,43.1,47,42z"/></g><g><path style="fill:#bbe7f2" d="M41,40c-3.31,0-6,0.9-6,2s2.69,2,6,2s6-0.9,6-2S44.31,40,41,40z"/></g><g><path style="fill:#0081a1" d="M63,36v4c0,1.1-2.69,2-6,2s-6-0.9-6-2v-4c0,1.1,2.69,2,6,2S63,37.1,63,36z"/></g><g><path style="fill:#bbe7f2" d="M57,34c-3.31,0-6,0.9-6,2s2.69,2,6,2s6-0.9,6-2S60.31,34,57,34z"/></g><g><path style="fill:#0081a1" d="M75,42v4c0,1.1-2.69,2-6,2s-6-0.9-6-2v-4c0,1.1,2.69,2,6,2S75,43.1,75,42z"/></g><g><path style="fill:#bbe7f2" d="M69,40c-3.31,0-6,0.9-6,2s2.69,2,6,2s6-0.9,6-2S72.31,40,69,40z"/></g></g></g><g id="R-Blue" style="display:none"><g style="display:inline"><circle style="fill:#81d2eb" cx="55" cy="55" r="55"/></g><g style="display:inline"><g><polygon style="fill:#00b7e5" points="59 34 27 46 27 71 51 83 83 71 83 46"/></g><g><polygon style="fill:#0081a1" points="83 71 51 83 51 58 83 46"/></g><g><polygon style="fill:#009fc7" points="27 71 51 83 51 58 27 46"/></g><g><path style="fill:#0081a1" d="M59,48v4c0,1.1-2.69,2-6,2s-6-0.9-6-2v-4c0,1.1,2.69,2,6,2S59,49.1,59,48z"/></g><g><path style="fill:#bbe7f2" d="M53,46c-3.31,0-6,0.9-6,2s2.69,2,6,2s6-0.9,6-2S56.31,46,53,46z"/></g><g><path style="fill:#0081a1" d="M47,42v4c0,1.1-2.69,2-6,2s-6-0.9-6-2v-4c0,1.1,2.69,2,6,2S47,43.1,47,42z"/></g><g><path style="fill:#bbe7f2" d="M41,40c-3.31,0-6,0.9-6,2s2.69,2,6,2s6-0.9,6-2S44.31,40,41,40z"/></g><g><path style="fill:#0081a1" d="M63,36v4c0,1.1-2.69,2-6,2s-6-0.9-6-2v-4c0,1.1,2.69,2,6,2S63,37.1,63,36z"/></g><g><path style="fill:#bbe7f2" d="M57,34c-3.31,0-6,0.9-6,2s2.69,2,6,2s6-0.9,6-2S60.31,34,57,34z"/></g><g><path style="fill:#0081a1" d="M75,42v4c0,1.1-2.69,2-6,2c-3.31,0-6-0.9-6-2v-4c0,1.1,2.69,2,6,2C72.31,44,75,43.1,75,42z"/></g><g><path style="fill:#bbe7f2" d="M69,40c-3.31,0-6,0.9-6,2s2.69,2,6,2c3.31,0,6-0.9,6-2S72.31,40,69,40z"/></g></g></g><g id="Green" style="display:none"><g style="display:inline"><g><polygon style="fill:#00d6c1" points="59 34 27 46 27 71 51 83 83 71 83 46"/></g><g><polygon style="fill:#009687" points="83 71 51 83 51 58 83 46"/></g><g><polygon style="fill:#00b8a5" points="27 71 51 83 51 58 27 46"/></g><g><path style="fill:#009687" d="M59,48v4c0,1.1-2.69,2-6,2s-6-0.9-6-2v-4c0,1.1,2.69,2,6,2S59,49.1,59,48z"/></g><g><path style="fill:#aaf0e9" d="M53,46c-3.31,0-6,0.9-6,2s2.69,2,6,2s6-0.9,6-2S56.31,46,53,46z"/></g><g><path style="fill:#009687" d="M47,42v4c0,1.1-2.69,2-6,2s-6-0.9-6-2v-4c0,1.1,2.69,2,6,2S47,43.1,47,42z"/></g><g><path style="fill:#aaf0e9" d="M41,40c-3.31,0-6,0.9-6,2s2.69,2,6,2s6-0.9,6-2S44.31,40,41,40z"/></g><g><path style="fill:#009687" d="M63,36v4c0,1.1-2.69,2-6,2s-6-0.9-6-2v-4c0,1.1,2.69,2,6,2S63,37.1,63,36z"/></g><g><path style="fill:#aaf0e9" d="M57,34c-3.31,0-6,0.9-6,2s2.69,2,6,2s6-0.9,6-2S60.31,34,57,34z"/></g><g><path style="fill:#009687" d="M75,42v4c0,1.1-2.69,2-6,2c-3.31,0-6-0.9-6-2v-4c0,1.1,2.69,2,6,2C72.31,44,75,43.1,75,42z"/></g><g><path style="fill:#aaf0e9" d="M69,40c-3.31,0-6,0.9-6,2s2.69,2,6,2c3.31,0,6-0.9,6-2S72.31,40,69,40z"/></g></g></g><g id="R-Green" style="display:none"><g style="display:inline"><circle style="fill:#87e0c8" cx="55" cy="55" r="55"/></g><g style="display:inline"><g><polygon style="fill:#00d6c1" points="59 34 27 46 27 71 51 83 83 71 83 46"/></g><g><polygon style="fill:#009687" points="83 71 51 83 51 58 83 46"/></g><g><polygon style="fill:#00b8a5" points="27 71 51 83 51 58 27 46"/></g><g><path style="fill:#009687" d="M59,48v4c0,1.1-2.69,2-6,2s-6-0.9-6-2v-4c0,1.1,2.69,2,6,2S59,49.1,59,48z"/></g><g><path style="fill:#aaf0e9" d="M53,46c-3.31,0-6,0.9-6,2s2.69,2,6,2s6-0.9,6-2S56.31,46,53,46z"/></g><g><path style="fill:#009687" d="M47,42v4c0,1.1-2.69,2-6,2s-6-0.9-6-2v-4c0,1.1,2.69,2,6,2S47,43.1,47,42z"/></g><g><path style="fill:#aaf0e9" d="M41,40c-3.31,0-6,0.9-6,2s2.69,2,6,2s6-0.9,6-2S44.31,40,41,40z"/></g><g><path style="fill:#009687" d="M63,36v4c0,1.1-2.69,2-6,2s-6-0.9-6-2v-4c0,1.1,2.69,2,6,2S63,37.1,63,36z"/></g><g><path style="fill:#aaf0e9" d="M57,34c-3.31,0-6,0.9-6,2s2.69,2,6,2s6-0.9,6-2S60.31,34,57,34z"/></g><g><path style="fill:#009687" d="M75,42v4c0,1.1-2.69,2-6,2s-6-0.9-6-2v-4c0,1.1,2.69,2,6,2S75,43.1,75,42z"/></g><g><path style="fill:#aaf0e9" d="M69,40c-3.31,0-6,0.9-6,2s2.69,2,6,2s6-0.9,6-2S72.31,40,69,40z"/></g></g></g><g id="Red" style="display:none"><g style="display:inline"><g><polygon style="fill:#ff6c5e" points="59 34 27 46 27 71 51 83 83 71 83 46"/></g><g><polygon style="fill:#c23023" points="83 71 51 83 51 58 83 46"/></g><g><polygon style="fill:#e54b44" points="27 71 51 83 51 58 27 46"/></g><g><path style="fill:#c23023" d="M59,48v4c0,1.1-2.69,2-6,2s-6-0.9-6-2v-4c0,1.1,2.69,2,6,2S59,49.1,59,48z"/></g><g><path style="fill:#ffd7d4" d="M53,46c-3.31,0-6,0.9-6,2s2.69,2,6,2s6-0.9,6-2S56.31,46,53,46z"/></g><g><path style="fill:#c23023" d="M47,42v4c0,1.1-2.69,2-6,2s-6-0.9-6-2v-4c0,1.1,2.69,2,6,2S47,43.1,47,42z"/></g><g><path style="fill:#ffd7d4" d="M41,40c-3.31,0-6,0.9-6,2s2.69,2,6,2s6-0.9,6-2S44.31,40,41,40z"/></g><g><path style="fill:#c23023" d="M63,36v4c0,1.1-2.69,2-6,2s-6-0.9-6-2v-4c0,1.1,2.69,2,6,2S63,37.1,63,36z"/></g><g><path style="fill:#ffd7d4" d="M57,34c-3.31,0-6,0.9-6,2s2.69,2,6,2s6-0.9,6-2S60.31,34,57,34z"/></g><g><path style="fill:#c23023" d="M75,42v4c0,1.1-2.69,2-6,2s-6-0.9-6-2v-4c0,1.1,2.69,2,6,2S75,43.1,75,42z"/></g><g><path style="fill:#ffd7d4" d="M69,40c-3.31,0-6,0.9-6,2s2.69,2,6,2s6-0.9,6-2S72.31,40,69,40z"/></g></g></g><g id="R-Red" style="display:none"><g style="display:inline"><circle style="fill:#fabbaf" cx="55" cy="55" r="55"/></g><g style="display:inline"><g><polygon style="fill:#ff6c5e" points="59 34 27 46 27 71 51 83 83 71 83 46"/></g><g><polygon style="fill:#c23023" points="83 71 51 83 51 58 83 46"/></g><g><polygon style="fill:#e54b44" points="27 71 51 83 51 58 27 46"/></g><g><path style="fill:#c23023" d="M59,48v4c0,1.1-2.69,2-6,2s-6-0.9-6-2v-4c0,1.1,2.69,2,6,2S59,49.1,59,48z"/></g><g><path style="fill:#ffd7d4" d="M53,46c-3.31,0-6,0.9-6,2s2.69,2,6,2s6-0.9,6-2S56.31,46,53,46z"/></g><g><path style="fill:#c23023" d="M47,42v4c0,1.1-2.69,2-6,2s-6-0.9-6-2v-4c0,1.1,2.69,2,6,2S47,43.1,47,42z"/></g><g><path style="fill:#ffd7d4" d="M41,40c-3.31,0-6,0.9-6,2s2.69,2,6,2s6-0.9,6-2S44.31,40,41,40z"/></g><g><path style="fill:#c23023" d="M63,36v4c0,1.1-2.69,2-6,2s-6-0.9-6-2v-4c0,1.1,2.69,2,6,2S63,37.1,63,36z"/></g><g><path style="fill:#ffd7d4" d="M57,34c-3.31,0-6,0.9-6,2s2.69,2,6,2s6-0.9,6-2S60.31,34,57,34z"/></g><g><path style="fill:#c23023" d="M75,42v4c0,1.1-2.69,2-6,2c-3.31,0-6-0.9-6-2v-4c0,1.1,2.69,2,6,2C72.31,44,75,43.1,75,42z"/></g><g><path style="fill:#ffd7d4" d="M69,40c-3.31,0-6,0.9-6,2s2.69,2,6,2c3.31,0,6-0.9,6-2S72.31,40,69,40z"/></g></g></g><g id="Yellow" style="display:none"><g style="display:inline"><g><polygon style="fill:#fa0" points="59 34 27 46 27 71 51 83 83 71 83 46"/></g><g><polygon style="fill:#e07000" points="83 71 51 83 51 58 83 46"/></g><g><polygon style="fill:#fa9200" points="27 71 51 83 51 58 27 46"/></g><g><path style="fill:#e07000" d="M59,48v4c0,1.1-2.69,2-6,2s-6-0.9-6-2v-4c0,1.1,2.69,2,6,2S59,49.1,59,48z"/></g><g><path style="fill:#ffe9a1" d="M53,46c-3.31,0-6,0.9-6,2s2.69,2,6,2s6-0.9,6-2S56.31,46,53,46z"/></g><g><path style="fill:#e07000" d="M47,42v4c0,1.1-2.69,2-6,2s-6-0.9-6-2v-4c0,1.1,2.69,2,6,2S47,43.1,47,42z"/></g><g><path style="fill:#ffe9a1" d="M41,40c-3.31,0-6,0.9-6,2s2.69,2,6,2s6-0.9,6-2S44.31,40,41,40z"/></g><g><path style="fill:#e07000" d="M63,36v4c0,1.1-2.69,2-6,2s-6-0.9-6-2v-4c0,1.1,2.69,2,6,2S63,37.1,63,36z"/></g><g><path style="fill:#ffe9a1" d="M57,34c-3.31,0-6,0.9-6,2s2.69,2,6,2s6-0.9,6-2S60.31,34,57,34z"/></g><g><path style="fill:#e07000" d="M75,42v4c0,1.1-2.69,2-6,2c-3.31,0-6-0.9-6-2v-4c0,1.1,2.69,2,6,2C72.31,44,75,43.1,75,42z"/></g><g><path style="fill:#ffe9a1" d="M69,40c-3.31,0-6,0.9-6,2s2.69,2,6,2c3.31,0,6-0.9,6-2S72.31,40,69,40z"/></g></g></g><g id="R-Yellow" style="display:none"><g style="display:inline"><circle style="fill:#ffd75e" cx="55" cy="55" r="55"/></g><g style="display:inline"><g><polygon style="fill:#fa0" points="59 34 27 46 27 71 51 83 83 71 83 46"/></g><g><polygon style="fill:#e07000" points="83 71 51 83 51 58 83 46"/></g><g><polygon style="fill:#fa9200" points="27 71 51 83 51 58 27 46"/></g><g><path style="fill:#e07000" d="M59,48v4c0,1.1-2.69,2-6,2s-6-0.9-6-2v-4c0,1.1,2.69,2,6,2S59,49.1,59,48z"/></g><g><path style="fill:#ffe9a1" d="M53,46c-3.31,0-6,0.9-6,2s2.69,2,6,2s6-0.9,6-2S56.31,46,53,46z"/></g><g><path style="fill:#e07000" d="M47,42v4c0,1.1-2.69,2-6,2s-6-0.9-6-2v-4c0,1.1,2.69,2,6,2S47,43.1,47,42z"/></g><g><path style="fill:#ffe9a1" d="M41,40c-3.31,0-6,0.9-6,2s2.69,2,6,2s6-0.9,6-2S44.31,40,41,40z"/></g><g><path style="fill:#e07000" d="M63,36v4c0,1.1-2.69,2-6,2s-6-0.9-6-2v-4c0,1.1,2.69,2,6,2S63,37.1,63,36z"/></g><g><path style="fill:#ffe9a1" d="M57,34c-3.31,0-6,0.9-6,2s2.69,2,6,2s6-0.9,6-2S60.31,34,57,34z"/></g><g><path style="fill:#e07000" d="M75,42v4c0,1.1-2.69,2-6,2s-6-0.9-6-2v-4c0,1.1,2.69,2,6,2S75,43.1,75,42z"/></g><g><path style="fill:#ffe9a1" d="M69,40c-3.31,0-6,0.9-6,2s2.69,2,6,2s6-0.9,6-2S72.31,40,69,40z"/></g></g></g></svg>