<svg xmlns="http://www.w3.org/2000/svg" xmlns:xlink="http://www.w3.org/1999/xlink" width="110" height="110" x="0" y="0" version="1.0" viewBox="0 0 110 110" xml:space="preserve" style="enable-background:new 0 0 110 110"><g id="Artboard" style="display:none"><rect style="display:inline;fill:gray;stroke:#000;stroke-miterlimit:10" width="1351" height="718" x="-49.5" y="-48.5"/></g><g id="R-Multicolor" style="display:none"><circle style="display:inline;fill:#25b7d3" cx="55" cy="55" r="55"/><g style="display:inline"><path style="fill:#e2e4e5" d="M87,87H23v-0.04c0-2.187,1.773-3.96,3.96-3.96h56.08c2.187,0,3.96,1.773,3.96,3.96V87z"/><rect style="fill:#fff" width="56" height="36" x="27" y="47"/><path style="fill:#df2c2c" d="M32.143,47c0,2.209-2.047,4-4.571,4S23,49.209,23,47H32.143z"/><path style="fill:#cfd3d4" d="M41.286,47c0,2.209-2.047,4-4.571,4s-4.571-1.791-4.571-4H41.286z"/><path style="fill:#df2c2c" d="M50.429,47c0,2.209-2.047,4-4.571,4s-4.571-1.791-4.571-4H50.429z"/><path style="fill:#cfd3d4" d="M59.571,47c0,2.209-2.047,4-4.571,4s-4.571-1.791-4.571-4H59.571z"/><path style="fill:#cfd3d4" d="M77.857,47c0,2.209-2.047,4-4.571,4c-2.525,0-4.571-1.791-4.571-4H77.857z"/><path style="fill:#df2c2c" d="M68.714,47c0,2.209-2.047,4-4.571,4c-2.525,0-4.571-1.791-4.571-4H68.714z"/><path style="fill:#df2c2c" d="M87,47c0,2.209-2.047,4-4.571,4c-2.525,0-4.571-1.791-4.571-4H87z"/><polygon style="fill:#fa5655" points="23 47 32.143 47 40.143 27 32.143 27"/><polygon style="fill:#fff" points="32.143 47 41.286 47 47 27 40.143 27"/><polygon style="fill:#fa5655" points="41.286 47 50.429 47 53.857 27 47 27"/><polygon style="fill:#fff" points="50.429 47 59.571 47 59.571 27 53.857 27"/><polygon style="fill:#fa5655" points="87 47 77.857 47 72.143 27 79 27"/><polygon style="fill:#fff" points="77.857 47 68.714 47 65.286 27 72.143 27"/><polygon style="fill:#fa5655" points="68.714 47 59.571 47 59.571 27 65.286 27"/><rect style="fill:#6fdaf1" width="28" height="16" x="31" y="55"/><polygon style="fill:#40c9e7" points="59 71 31 71 59 55"/><rect style="fill:#40c9e7" width="14" height="13" x="65" y="55"/><rect style="fill:#40c9e7" width="14" height="12" x="65" y="71"/><path style="fill:#0d9681" d="M57.978,76c0.26-3.258-3.405-5.625-7.407-5.625c-2.324,0-4.396,0.764-5.759,1.959 c-0.619-1.182-1.646-1.959-2.812-1.959c-1.093,0-2.055,0.692-2.683,1.75c-0.775-1.918-2.607-3.268-4.746-3.268 c-2.5,0-4.58,1.845-5.042,4.288c-0.358-0.31-0.784-0.493-1.243-0.493c-1.355,0-2.406,1.54-2.262,3.348H57.978z"/><rect style="fill:#9c6144" width="32" height="7" x="26" y="76"/><rect style="fill:#af7653" width="32" height="2" x="26" y="76"/></g></g><g id="Multicolor_1_"><g><path style="fill:#e2e4e5" d="M87,87H23v-0.04c0-2.187,1.773-3.96,3.96-3.96h56.08c2.187,0,3.96,1.773,3.96,3.96V87z"/><rect style="fill:#fff" width="56" height="36" x="27" y="47"/><path style="fill:#df2c2c" d="M32.143,47c0,2.209-2.047,4-4.571,4S23,49.209,23,47H32.143z"/><path style="fill:#cfd3d4" d="M41.286,47c0,2.209-2.047,4-4.571,4s-4.571-1.791-4.571-4H41.286z"/><path style="fill:#df2c2c" d="M50.429,47c0,2.209-2.047,4-4.571,4s-4.571-1.791-4.571-4H50.429z"/><path style="fill:#cfd3d4" d="M59.571,47c0,2.209-2.047,4-4.571,4s-4.571-1.791-4.571-4H59.571z"/><path style="fill:#cfd3d4" d="M77.857,47c0,2.209-2.047,4-4.571,4c-2.525,0-4.571-1.791-4.571-4H77.857z"/><path style="fill:#df2c2c" d="M68.714,47c0,2.209-2.047,4-4.571,4c-2.525,0-4.571-1.791-4.571-4H68.714z"/><path style="fill:#df2c2c" d="M87,47c0,2.209-2.047,4-4.571,4c-2.525,0-4.571-1.791-4.571-4H87z"/><polygon style="fill:#fa5655" points="23 47 32.143 47 40.143 27 32.143 27"/><polygon style="fill:#fff" points="32.143 47 41.286 47 47 27 40.143 27"/><polygon style="fill:#fa5655" points="41.286 47 50.429 47 53.857 27 47 27"/><polygon style="fill:#fff" points="50.429 47 59.571 47 59.571 27 53.857 27"/><polygon style="fill:#fa5655" points="87 47 77.857 47 72.143 27 79 27"/><polygon style="fill:#fff" points="77.857 47 68.714 47 65.286 27 72.143 27"/><polygon style="fill:#fa5655" points="68.714 47 59.571 47 59.571 27 65.286 27"/><rect style="fill:#6fdaf1" width="28" height="16" x="31" y="55"/><polygon style="fill:#40c9e7" points="59 71 31 71 59 55"/><rect style="fill:#40c9e7" width="14" height="13" x="65" y="55"/><rect style="fill:#40c9e7" width="14" height="12" x="65" y="71"/><path style="fill:#0d9681" d="M57.978,76c0.26-3.258-3.405-5.625-7.407-5.625c-2.324,0-4.396,0.764-5.759,1.959 c-0.619-1.182-1.646-1.959-2.812-1.959c-1.093,0-2.055,0.692-2.683,1.75c-0.775-1.918-2.607-3.268-4.746-3.268 c-2.5,0-4.58,1.845-5.042,4.288c-0.358-0.31-0.784-0.493-1.243-0.493c-1.355,0-2.406,1.54-2.262,3.348H57.978z"/><rect style="fill:#9c6144" width="32" height="7" x="26" y="76"/><rect style="fill:#af7653" width="32" height="2" x="26" y="76"/></g></g><g id="Blue" style="display:none"><g style="display:inline"><g><path style="fill:#bbe7f2" d="M87,87H23v-0.04c0-2.187,1.773-3.96,3.96-3.96h56.08c2.187,0,3.96,1.773,3.96,3.96V87z"/></g><g><rect style="fill:#fff" width="56" height="36" x="27" y="47"/></g><g><path style="fill:#0081a1" d="M32.143,47c0,2.21-2.046,4-4.571,4C25.047,51,23,49.21,23,47H32.143z"/></g><g><path style="fill:#bbe7f2" d="M41.286,47c0,2.21-2.047,4-4.571,4c-2.525,0-4.572-1.79-4.572-4H41.286z"/></g><g><path style="fill:#0081a1" d="M50.429,47c0,2.21-2.047,4-4.571,4c-2.525,0-4.572-1.79-4.572-4H50.429z"/></g><g><path style="fill:#bbe7f2" d="M59.571,47c0,2.21-2.047,4-4.571,4c-2.524,0-4.571-1.79-4.571-4H59.571z"/></g><g><path style="fill:#bbe7f2" d="M77.857,47c0,2.21-2.047,4-4.572,4c-2.525,0-4.571-1.79-4.571-4H77.857z"/></g><g><path style="fill:#0081a1" d="M68.714,47c0,2.21-2.047,4-4.572,4c-2.524,0-4.571-1.79-4.571-4H68.714z"/></g><g><path style="fill:#0081a1" d="M87,47c0,2.21-2.047,4-4.571,4c-2.525,0-4.571-1.79-4.571-4H87z"/></g><g><polygon style="fill:#009fc7" points="23 47 32.143 47 40.143 27 32.143 27"/></g><g><polygon style="fill:#fff" points="32.143 47 41.286 47 47 27 40.143 27"/></g><g><polygon style="fill:#009fc7" points="41.286 47 50.429 47 53.857 27 47 27"/></g><g><polygon style="fill:#fff" points="50.429 47 59.571 47 59.571 27 53.857 27"/></g><g><polygon style="fill:#009fc7" points="87 47 77.857 47 72.143 27 79 27"/></g><g><polygon style="fill:#fff" points="77.857 47 68.714 47 65.286 27 72.143 27"/></g><g><polygon style="fill:#009fc7" points="68.714 47 59.571 47 59.571 27 65.286 27"/></g><g><rect style="fill:#00b7e5" width="28" height="16" x="31" y="55"/></g><g><polygon style="fill:#009fc7" points="59 71 31 71 59 55"/></g><g><rect style="fill:#009fc7" width="14" height="13" x="65" y="55"/></g><g><rect style="fill:#009fc7" width="14" height="12" x="65" y="71"/></g><g><path style="fill:#33899e" d="M57.977,76c0.261-3.258-3.404-5.625-7.406-5.625c-2.324,0-4.396,0.765-5.759,1.959 c-0.619-1.182-1.646-1.959-2.812-1.959c-1.093,0-2.055,0.692-2.683,1.75c-0.775-1.918-2.607-3.267-4.746-3.267 c-2.5,0-4.58,1.845-5.042,4.287c-0.358-0.309-0.784-0.493-1.243-0.493c-1.355,0-2.406,1.54-2.262,3.348H57.977z"/></g><g><rect style="fill:#0f6175" width="32" height="7" x="26" y="76"/></g><g><rect style="fill:#53bad4" width="32" height="2" x="26" y="76"/></g></g></g><g id="R-Blue" style="display:none"><g style="display:inline"><circle style="fill:#81d2eb" cx="55" cy="55" r="55"/></g><g style="display:inline"><g><path style="fill:#bbe7f2" d="M87,87H23v-0.04c0-2.187,1.773-3.96,3.96-3.96h56.08c2.187,0,3.96,1.773,3.96,3.96V87z"/></g><g><rect style="fill:#fff" width="56" height="36" x="27" y="47"/></g><g><path style="fill:#0081a1" d="M32.143,47c0,2.21-2.046,4-4.571,4C25.047,51,23,49.21,23,47H32.143z"/></g><g><path style="fill:#bbe7f2" d="M41.286,47c0,2.21-2.047,4-4.571,4c-2.525,0-4.572-1.79-4.572-4H41.286z"/></g><g><path style="fill:#0081a1" d="M50.429,47c0,2.21-2.047,4-4.571,4c-2.525,0-4.572-1.79-4.572-4H50.429z"/></g><g><path style="fill:#bbe7f2" d="M59.571,47c0,2.21-2.047,4-4.571,4c-2.524,0-4.571-1.79-4.571-4H59.571z"/></g><g><path style="fill:#bbe7f2" d="M77.857,47c0,2.21-2.047,4-4.572,4c-2.525,0-4.571-1.79-4.571-4H77.857z"/></g><g><path style="fill:#0081a1" d="M68.714,47c0,2.21-2.047,4-4.572,4c-2.524,0-4.571-1.79-4.571-4H68.714z"/></g><g><path style="fill:#0081a1" d="M87,47c0,2.21-2.047,4-4.571,4c-2.525,0-4.571-1.79-4.571-4H87z"/></g><g><polygon style="fill:#009fc7" points="23 47 32.143 47 40.143 27 32.143 27"/></g><g><polygon style="fill:#fff" points="32.143 47 41.286 47 47 27 40.143 27"/></g><g><polygon style="fill:#009fc7" points="41.286 47 50.429 47 53.857 27 47 27"/></g><g><polygon style="fill:#fff" points="50.429 47 59.571 47 59.571 27 53.857 27"/></g><g><polygon style="fill:#009fc7" points="87 47 77.857 47 72.143 27 79 27"/></g><g><polygon style="fill:#fff" points="77.857 47 68.714 47 65.286 27 72.143 27"/></g><g><polygon style="fill:#009fc7" points="68.714 47 59.571 47 59.571 27 65.286 27"/></g><g><rect style="fill:#00b7e5" width="28" height="16" x="31" y="55"/></g><g><polygon style="fill:#009fc7" points="59 71 31 71 59 55"/></g><g><rect style="fill:#009fc7" width="14" height="13" x="65" y="55"/></g><g><rect style="fill:#009fc7" width="14" height="12" x="65" y="71"/></g><g><path style="fill:#33899e" d="M57.977,76c0.261-3.258-3.404-5.625-7.406-5.625c-2.324,0-4.396,0.765-5.759,1.959 c-0.619-1.182-1.646-1.959-2.812-1.959c-1.093,0-2.055,0.692-2.683,1.75c-0.775-1.918-2.607-3.267-4.746-3.267 c-2.5,0-4.58,1.845-5.042,4.287c-0.358-0.309-0.784-0.493-1.243-0.493c-1.355,0-2.406,1.54-2.262,3.348H57.977z"/></g><g><rect style="fill:#0f6175" width="32" height="7" x="26" y="76"/></g><g><rect style="fill:#53bad4" width="32" height="2" x="26" y="76"/></g></g></g><g id="Green" style="display:none"><g style="display:inline"><g><path style="fill:#aaf0e9" d="M87,87H23v-0.04c0-2.187,1.773-3.96,3.96-3.96h56.08c2.187,0,3.96,1.773,3.96,3.96V87z"/></g><g><rect style="fill:#fff" width="56" height="36" x="27" y="47"/></g><g><path style="fill:#009687" d="M32.143,47c0,2.21-2.046,4-4.571,4C25.047,51,23,49.21,23,47H32.143z"/></g><g><path style="fill:#aaf0e9" d="M41.286,47c0,2.21-2.047,4-4.571,4c-2.525,0-4.572-1.79-4.572-4H41.286z"/></g><g><path style="fill:#009687" d="M50.429,47c0,2.21-2.047,4-4.571,4c-2.525,0-4.572-1.79-4.572-4H50.429z"/></g><g><path style="fill:#aaf0e9" d="M59.571,47c0,2.21-2.047,4-4.571,4s-4.571-1.79-4.571-4H59.571z"/></g><g><path style="fill:#aaf0e9" d="M77.857,47c0,2.21-2.047,4-4.572,4s-4.571-1.79-4.571-4H77.857z"/></g><g><path style="fill:#009687" d="M68.714,47c0,2.21-2.047,4-4.572,4c-2.524,0-4.571-1.79-4.571-4H68.714z"/></g><g><path style="fill:#009687" d="M87,47c0,2.21-2.047,4-4.571,4c-2.525,0-4.571-1.79-4.571-4H87z"/></g><g><polygon style="fill:#00b8a5" points="23 47 32.143 47 40.143 27 32.143 27"/></g><g><polygon style="fill:#fff" points="32.143 47 41.286 47 47 27 40.143 27"/></g><g><polygon style="fill:#00b8a5" points="41.286 47 50.429 47 53.857 27 47 27"/></g><g><polygon style="fill:#fff" points="50.429 47 59.571 47 59.571 27 53.857 27"/></g><g><polygon style="fill:#00b8a5" points="87 47 77.857 47 72.143 27 79 27"/></g><g><polygon style="fill:#fff" points="77.857 47 68.714 47 65.286 27 72.143 27"/></g><g><polygon style="fill:#00b8a5" points="68.714 47 59.571 47 59.571 27 65.286 27"/></g><g><rect style="fill:#00d6c1" width="28" height="16" x="31" y="55"/></g><g><polygon style="fill:#00b8a5" points="59 71 31 71 59 55"/></g><g><rect style="fill:#00b8a5" width="14" height="13" x="65" y="55"/></g><g><rect style="fill:#00b8a5" width="14" height="12" x="65" y="71"/></g><g><path style="fill:#3e948b" d="M57.978,76c0.261-3.258-3.404-5.625-7.406-5.625c-2.324,0-4.396,0.765-5.759,1.959 c-0.619-1.182-1.646-1.959-2.812-1.959c-1.093,0-2.055,0.692-2.683,1.75c-0.775-1.918-2.607-3.267-4.746-3.267 c-2.5,0-4.58,1.845-5.043,4.287c-0.358-0.309-0.784-0.493-1.243-0.493c-1.355,0-2.406,1.54-2.262,3.348H57.978z"/></g><g><rect style="fill:#14635b" width="32" height="7" x="26" y="76"/></g><g><rect style="fill:#5dcfc3" width="32" height="2" x="26" y="76"/></g></g></g><g id="R-Green" style="display:none"><g style="display:inline"><circle style="fill:#87e0c8" cx="55" cy="55" r="55"/></g><g style="display:inline"><g><path style="fill:#aaf0e9" d="M87,87H23v-0.04c0-2.187,1.773-3.96,3.96-3.96h56.08c2.187,0,3.96,1.773,3.96,3.96V87z"/></g><g><rect style="fill:#fff" width="56" height="36" x="27" y="47"/></g><g><path style="fill:#009687" d="M32.143,47c0,2.21-2.046,4-4.571,4C25.047,51,23,49.21,23,47H32.143z"/></g><g><path style="fill:#aaf0e9" d="M41.286,47c0,2.21-2.047,4-4.571,4c-2.525,0-4.572-1.79-4.572-4H41.286z"/></g><g><path style="fill:#009687" d="M50.429,47c0,2.21-2.047,4-4.571,4c-2.525,0-4.572-1.79-4.572-4H50.429z"/></g><g><path style="fill:#aaf0e9" d="M59.571,47c0,2.21-2.047,4-4.571,4c-2.524,0-4.571-1.79-4.571-4H59.571z"/></g><g><path style="fill:#aaf0e9" d="M77.857,47c0,2.21-2.047,4-4.572,4c-2.525,0-4.571-1.79-4.571-4H77.857z"/></g><g><path style="fill:#009687" d="M68.714,47c0,2.21-2.047,4-4.572,4c-2.524,0-4.571-1.79-4.571-4H68.714z"/></g><g><path style="fill:#009687" d="M87,47c0,2.21-2.047,4-4.571,4c-2.525,0-4.571-1.79-4.571-4H87z"/></g><g><polygon style="fill:#00b8a5" points="23 47 32.143 47 40.143 27 32.143 27"/></g><g><polygon style="fill:#fff" points="32.143 47 41.286 47 47 27 40.143 27"/></g><g><polygon style="fill:#00b8a5" points="41.286 47 50.429 47 53.857 27 47 27"/></g><g><polygon style="fill:#fff" points="50.429 47 59.571 47 59.571 27 53.857 27"/></g><g><polygon style="fill:#00b8a5" points="87 47 77.857 47 72.143 27 79 27"/></g><g><polygon style="fill:#fff" points="77.857 47 68.714 47 65.286 27 72.143 27"/></g><g><polygon style="fill:#00b8a5" points="68.714 47 59.571 47 59.571 27 65.286 27"/></g><g><rect style="fill:#00d6c1" width="28" height="16" x="31" y="55"/></g><g><polygon style="fill:#00b8a5" points="59 71 31 71 59 55"/></g><g><rect style="fill:#00b8a5" width="14" height="13" x="65" y="55"/></g><g><rect style="fill:#00b8a5" width="14" height="12" x="65" y="71"/></g><g><path style="fill:#3e948b" d="M57.977,76c0.261-3.258-3.404-5.625-7.406-5.625c-2.324,0-4.396,0.765-5.759,1.959 c-0.619-1.182-1.646-1.959-2.812-1.959c-1.093,0-2.055,0.692-2.683,1.75c-0.775-1.918-2.607-3.267-4.746-3.267 c-2.5,0-4.58,1.845-5.042,4.287c-0.358-0.309-0.784-0.493-1.243-0.493c-1.355,0-2.406,1.54-2.262,3.348H57.977z"/></g><g><rect style="fill:#14635b" width="32" height="7" x="26" y="76"/></g><g><rect style="fill:#5dcfc3" width="32" height="2" x="26" y="76"/></g></g></g><g id="Red" style="display:none"><g style="display:inline"><g><path style="fill:#ffd7d4" d="M87,87H23v-0.04c0-2.187,1.773-3.96,3.96-3.96h56.08c2.187,0,3.96,1.773,3.96,3.96V87z"/></g><g><rect style="fill:#fff" width="56" height="36" x="27" y="47"/></g><g><path style="fill:#c23023" d="M32.143,47c0,2.21-2.046,4-4.571,4C25.047,51,23,49.21,23,47H32.143z"/></g><g><path style="fill:#ffd7d4" d="M41.286,47c0,2.21-2.047,4-4.571,4c-2.525,0-4.572-1.79-4.572-4H41.286z"/></g><g><path style="fill:#c23023" d="M50.429,47c0,2.21-2.047,4-4.571,4c-2.525,0-4.572-1.79-4.572-4H50.429z"/></g><g><path style="fill:#ffd7d4" d="M59.571,47c0,2.21-2.047,4-4.571,4c-2.524,0-4.571-1.79-4.571-4H59.571z"/></g><g><path style="fill:#ffd7d4" d="M77.857,47c0,2.21-2.047,4-4.572,4c-2.525,0-4.571-1.79-4.571-4H77.857z"/></g><g><path style="fill:#c23023" d="M68.714,47c0,2.21-2.047,4-4.572,4c-2.524,0-4.571-1.79-4.571-4H68.714z"/></g><g><path style="fill:#c23023" d="M87,47c0,2.21-2.047,4-4.571,4c-2.525,0-4.571-1.79-4.571-4H87z"/></g><g><polygon style="fill:#e54b44" points="23 47 32.143 47 40.143 27 32.143 27"/></g><g><polygon style="fill:#fff" points="32.143 47 41.286 47 47 27 40.143 27"/></g><g><polygon style="fill:#e54b44" points="41.286 47 50.429 47 53.857 27 47 27"/></g><g><polygon style="fill:#fff" points="50.429 47 59.571 47 59.571 27 53.857 27"/></g><g><polygon style="fill:#e54b44" points="87 47 77.857 47 72.143 27 79 27"/></g><g><polygon style="fill:#fff" points="77.857 47 68.714 47 65.286 27 72.143 27"/></g><g><polygon style="fill:#e54b44" points="68.714 47 59.571 47 59.571 27 65.286 27"/></g><g><rect style="fill:#ff6c5e" width="28" height="16" x="31" y="55"/></g><g><polygon style="fill:#e54b44" points="59 71 31 71 59 55"/></g><g><rect style="fill:#e54b44" width="14" height="13" x="65" y="55"/></g><g><rect style="fill:#e54b44" width="14" height="12" x="65" y="71"/></g><g><path style="fill:#b84e44" d="M57.978,76c0.261-3.258-3.404-5.625-7.406-5.625c-2.324,0-4.396,0.765-5.759,1.959 c-0.619-1.182-1.646-1.959-2.812-1.959c-1.093,0-2.055,0.692-2.683,1.75c-0.775-1.918-2.607-3.267-4.746-3.267 c-2.5,0-4.58,1.845-5.042,4.287c-0.358-0.309-0.784-0.493-1.243-0.493c-1.355,0-2.406,1.54-2.262,3.348H57.978z"/></g><g><rect style="fill:#7d261e" width="32" height="7" x="26" y="76"/></g><g><rect style="fill:#e8a099" width="32" height="2" x="26" y="76"/></g></g></g><g id="R-Red" style="display:none"><g style="display:inline"><circle style="fill:#fabbaf" cx="55" cy="55" r="55"/></g><g style="display:inline"><g><path style="fill:#ffd7d4" d="M87,87H23v-0.04c0-2.187,1.773-3.96,3.96-3.96h56.08c2.187,0,3.96,1.773,3.96,3.96V87z"/></g><g><rect style="fill:#fff" width="56" height="36" x="27" y="47"/></g><g><path style="fill:#c23023" d="M32.143,47c0,2.21-2.046,4-4.571,4C25.047,51,23,49.21,23,47H32.143z"/></g><g><path style="fill:#ffd7d4" d="M41.286,47c0,2.21-2.047,4-4.571,4c-2.525,0-4.572-1.79-4.572-4H41.286z"/></g><g><path style="fill:#c23023" d="M50.429,47c0,2.21-2.047,4-4.571,4c-2.525,0-4.572-1.79-4.572-4H50.429z"/></g><g><path style="fill:#ffd7d4" d="M59.571,47c0,2.21-2.047,4-4.571,4c-2.524,0-4.571-1.79-4.571-4H59.571z"/></g><g><path style="fill:#ffd7d4" d="M77.857,47c0,2.21-2.047,4-4.572,4c-2.525,0-4.571-1.79-4.571-4H77.857z"/></g><g><path style="fill:#c23023" d="M68.714,47c0,2.21-2.047,4-4.572,4c-2.524,0-4.571-1.79-4.571-4H68.714z"/></g><g><path style="fill:#c23023" d="M87,47c0,2.21-2.047,4-4.571,4c-2.525,0-4.571-1.79-4.571-4H87z"/></g><g><polygon style="fill:#e54b44" points="23 47 32.143 47 40.143 27 32.143 27"/></g><g><polygon style="fill:#fff" points="32.143 47 41.286 47 47 27 40.143 27"/></g><g><polygon style="fill:#e54b44" points="41.286 47 50.429 47 53.857 27 47 27"/></g><g><polygon style="fill:#fff" points="50.429 47 59.571 47 59.571 27 53.857 27"/></g><g><polygon style="fill:#e54b44" points="87 47 77.857 47 72.143 27 79 27"/></g><g><polygon style="fill:#fff" points="77.857 47 68.714 47 65.286 27 72.143 27"/></g><g><polygon style="fill:#e54b44" points="68.714 47 59.571 47 59.571 27 65.286 27"/></g><g><rect style="fill:#ff6c5e" width="28" height="16" x="31" y="55"/></g><g><polygon style="fill:#e54b44" points="59 71 31 71 59 55"/></g><g><rect style="fill:#e54b44" width="14" height="13" x="65" y="55"/></g><g><rect style="fill:#e54b44" width="14" height="12" x="65" y="71"/></g><g><path style="fill:#b84e44" d="M57.977,76c0.261-3.258-3.404-5.625-7.406-5.625c-2.324,0-4.396,0.765-5.759,1.959 c-0.619-1.182-1.646-1.959-2.812-1.959c-1.093,0-2.055,0.692-2.683,1.75c-0.775-1.918-2.607-3.267-4.746-3.267 c-2.5,0-4.58,1.845-5.042,4.287c-0.358-0.309-0.784-0.493-1.243-0.493c-1.355,0-2.406,1.54-2.262,3.348H57.977z"/></g><g><rect style="fill:#7d261e" width="32" height="7" x="26" y="76"/></g><g><rect style="fill:#e8a099" width="32" height="2" x="26" y="76"/></g></g></g><g id="Yellow" style="display:none"><g style="display:inline"><g><path style="fill:#ffe9a1" d="M87,87H23v-0.04c0-2.187,1.773-3.96,3.96-3.96h56.08c2.187,0,3.96,1.773,3.96,3.96V87z"/></g><g><rect style="fill:#fff" width="56" height="36" x="27" y="47"/></g><g><path style="fill:#e07000" d="M32.143,47c0,2.21-2.046,4-4.571,4C25.047,51,23,49.21,23,47H32.143z"/></g><g><path style="fill:#ffe9a1" d="M41.286,47c0,2.21-2.047,4-4.571,4c-2.525,0-4.572-1.79-4.572-4H41.286z"/></g><g><path style="fill:#e07000" d="M50.429,47c0,2.21-2.047,4-4.571,4c-2.525,0-4.572-1.79-4.572-4H50.429z"/></g><g><path style="fill:#ffe9a1" d="M59.571,47c0,2.21-2.047,4-4.571,4c-2.524,0-4.571-1.79-4.571-4H59.571z"/></g><g><path style="fill:#ffe9a1" d="M77.857,47c0,2.21-2.047,4-4.572,4c-2.525,0-4.571-1.79-4.571-4H77.857z"/></g><g><path style="fill:#e07000" d="M68.714,47c0,2.21-2.047,4-4.572,4c-2.524,0-4.571-1.79-4.571-4H68.714z"/></g><g><path style="fill:#e07000" d="M87,47c0,2.21-2.047,4-4.571,4c-2.525,0-4.571-1.79-4.571-4H87z"/></g><g><polygon style="fill:#fa9200" points="23 47 32.143 47 40.143 27 32.143 27"/></g><g><polygon style="fill:#fff" points="32.143 47 41.286 47 47 27 40.143 27"/></g><g><polygon style="fill:#fa9200" points="41.286 47 50.429 47 53.857 27 47 27"/></g><g><polygon style="fill:#fff" points="50.429 47 59.571 47 59.571 27 53.857 27"/></g><g><polygon style="fill:#fa9200" points="87 47 77.857 47 72.143 27 79 27"/></g><g><polygon style="fill:#fff" points="77.857 47 68.714 47 65.286 27 72.143 27"/></g><g><polygon style="fill:#fa9200" points="68.714 47 59.571 47 59.571 27 65.286 27"/></g><g><rect style="fill:#fa0" width="28" height="16" x="31" y="55"/></g><g><polygon style="fill:#fa9200" points="59 71 31 71 59 55"/></g><g><rect style="fill:#fa9200" width="14" height="13" x="65" y="55"/></g><g><rect style="fill:#fa9200" width="14" height="12" x="65" y="71"/></g><g><path style="fill:#947615" d="M57.977,76c0.261-3.258-3.404-5.625-7.406-5.625c-2.324,0-4.396,0.765-5.759,1.959 c-0.619-1.182-1.646-1.959-2.812-1.959c-1.093,0-2.055,0.692-2.683,1.75c-0.775-1.918-2.607-3.267-4.746-3.267 c-2.5,0-4.58,1.845-5.042,4.287c-0.358-0.309-0.784-0.493-1.243-0.493c-1.355,0-2.406,1.54-2.262,3.348H57.977z"/></g><g><rect style="fill:#66510d" width="32" height="7" x="26" y="76"/></g><g><rect style="fill:#f5c43d" width="32" height="2" x="26" y="76"/></g></g></g><g id="R-Yellow" style="display:none"><g style="display:inline"><circle style="fill:#ffd75e" cx="55" cy="55" r="55"/></g><g style="display:inline"><g><path style="fill:#ffe9a1" d="M87,87H23v-0.04c0-2.187,1.773-3.96,3.96-3.96h56.08c2.187,0,3.96,1.773,3.96,3.96V87z"/></g><g><rect style="fill:#fff" width="56" height="36" x="27" y="47"/></g><g><path style="fill:#e07000" d="M32.143,47c0,2.21-2.046,4-4.571,4C25.047,51,23,49.21,23,47H32.143z"/></g><g><path style="fill:#ffe9a1" d="M41.286,47c0,2.21-2.047,4-4.571,4c-2.525,0-4.572-1.79-4.572-4H41.286z"/></g><g><path style="fill:#e07000" d="M50.429,47c0,2.21-2.047,4-4.571,4c-2.525,0-4.572-1.79-4.572-4H50.429z"/></g><g><path style="fill:#ffe9a1" d="M59.571,47c0,2.21-2.047,4-4.571,4c-2.524,0-4.571-1.79-4.571-4H59.571z"/></g><g><path style="fill:#ffe9a1" d="M77.857,47c0,2.21-2.047,4-4.572,4s-4.571-1.79-4.571-4H77.857z"/></g><g><path style="fill:#e07000" d="M68.714,47c0,2.21-2.047,4-4.572,4c-2.524,0-4.571-1.79-4.571-4H68.714z"/></g><g><path style="fill:#e07000" d="M87,47c0,2.21-2.047,4-4.571,4c-2.525,0-4.571-1.79-4.571-4H87z"/></g><g><polygon style="fill:#fa9200" points="23 47 32.143 47 40.143 27 32.143 27"/></g><g><polygon style="fill:#fff" points="32.143 47 41.286 47 47 27 40.143 27"/></g><g><polygon style="fill:#fa9200" points="41.286 47 50.429 47 53.857 27 47 27"/></g><g><polygon style="fill:#fff" points="50.429 47 59.571 47 59.571 27 53.857 27"/></g><g><polygon style="fill:#fa9200" points="87 47 77.857 47 72.143 27 79 27"/></g><g><polygon style="fill:#fff" points="77.857 47 68.714 47 65.286 27 72.143 27"/></g><g><polygon style="fill:#fa9200" points="68.714 47 59.571 47 59.571 27 65.286 27"/></g><g><rect style="fill:#fa0" width="28" height="16" x="31" y="55"/></g><g><polygon style="fill:#fa9200" points="59 71 31 71 59 55"/></g><g><rect style="fill:#fa9200" width="14" height="13" x="65" y="55"/></g><g><rect style="fill:#fa9200" width="14" height="12" x="65" y="71"/></g><g><path style="fill:#947615" d="M57.978,76c0.261-3.258-3.404-5.625-7.406-5.625c-2.324,0-4.396,0.765-5.759,1.959 c-0.619-1.182-1.646-1.959-2.812-1.959c-1.093,0-2.055,0.692-2.683,1.75c-0.775-1.918-2.607-3.267-4.746-3.267 c-2.5,0-4.58,1.845-5.042,4.287c-0.358-0.309-0.784-0.493-1.243-0.493c-1.355,0-2.406,1.54-2.262,3.348H57.978z"/></g><g><rect style="fill:#66510d" width="32" height="7" x="26" y="76"/></g><g><rect style="fill:#f5c43d" width="32" height="2" x="26" y="76"/></g></g></g></svg>