<svg xmlns="http://www.w3.org/2000/svg" xmlns:xlink="http://www.w3.org/1999/xlink" width="110" height="110" x="0" y="0" version="1.0" viewBox="0 0 110 110" xml:space="preserve" style="enable-background:new 0 0 110 110"><g id="Artboard" style="display:none"><rect style="display:inline;fill:gray;stroke:#000;stroke-miterlimit:10" width="1390" height="340" x="-449.5" y="-58.5"/></g><g id="R-Multicolor" style="display:none"><g style="display:inline"><circle style="fill:#fabc3d" cx="55" cy="55" r="55"/></g><g style="display:inline"><g><polygon style="fill:#e2e4e5" points="67 67.997 65 66.997 45 66.997 43 67.997 55 87"/></g><path style="fill:#f8e1c2" d="M70,45c-1,0-1,1.111-1,1.111V45c-0.002-1.065-0.019-2.086-0.067-3.062C64.891,38.001,55,38,55,38 s-9.891,0.001-13.933,3.938C41.019,42.914,41.002,43.935,41,45v7.997l4,10l5.105,3.996c0.569,0.639,1.384,1.004,2.24,1.004H55 h2.655c0.856,0,1.671-0.365,2.24-1.004L65,62.997l3.207-8.017C71.042,54.776,72,50.476,72,47.222C72,46.111,71,45,70,45z"/><path style="fill:#fcf1e2" d="M41,45v1.111c0,0,0-1.111-1-1.111s-2,1.111-2,2.222c0,3.253,0.958,7.554,3.793,7.758L45,62.997 l5.105,3.996c0.569,0.639,1.384,1.004,2.24,1.004H55V38c0,0-9.891,0.001-13.933,3.938C41.019,42.914,41.002,43.935,41,45z"/><g><path style="fill:#f79392" d="M50,56.997h10c0,0,0,3-5,3S50,56.997,50,56.997z"/></g><g><path style="fill:#3e3e3f" d="M61,47.322c1.191,0,2.248,0.266,2.981,0.678c0.071-0.569-0.172-1.154-0.748-1.59 c-1.03-0.781-2.702-0.781-3.733,0c-0.464,0.352-0.709,0.801-0.753,1.26C59.389,47.451,60.164,47.322,61,47.322z"/></g><g><path style="fill:#3e3e3f" d="M48.993,47.322c-1.191,0-2.248,0.266-2.981,0.678c-0.071-0.569,0.172-1.154,0.748-1.59 c1.03-0.781,2.702-0.781,3.733,0c0.464,0.352,0.709,0.801,0.753,1.26C50.604,47.451,49.829,47.322,48.993,47.322z"/></g><path style="fill:#f4d0a1" d="M57.655,67.997H55h-2.655c-0.856,0-1.671-0.365-2.24-1.004L45,62.997v4.5c0,0,0,7.5,10,7.5 s10-7.5,10-7.5v-4.5l-5.105,3.996C59.326,67.632,58.511,67.997,57.655,67.997z"/><g><path style="fill:#3e3e3f" d="M55,38c0,0-0.758,0-1.938,0.083c0,1.25,0,4.243,0,5.625c3.719,0,5.972-2.684,7.274-5.234 C57.41,38.001,55,38,55,38z"/><path style="fill:#3e3e3f" d="M45.919,39.332C44.022,39.922,42.228,40.772,41,42c0,3.542,2.323,5.25,2.323,5.25 C43.029,44.294,43.013,42.368,45.919,39.332z"/><path style="fill:#3e3e3f" d="M46.865,39.062c0,0.954,0,2.799,0,4.647c2.865,0,5.149-4.054,5.918-5.604 C51.218,38.226,49.027,38.49,46.865,39.062z"/><path style="fill:#3e3e3f" d="M66.344,40.205c0,0.387,0,4.515,0,7.045c2.488,0,2.646-4.661,2.655-5.25 C68.278,41.278,67.361,40.689,66.344,40.205z"/><path style="fill:#3e3e3f" d="M61.917,38.771c0,1.695,0,3.526,0,4.938c3.354,0,4.325-3.171,4.418-3.508 C64.968,39.551,63.421,39.093,61.917,38.771z"/></g><path style="fill:#f8e1c2" d="M50.105,66.993L45,62.997v4.5c0,0,0,7.5,10,7.5v-7h-2.655 C51.489,67.997,50.674,67.632,50.105,66.993z"/><g><path style="fill:#fa5655" d="M34.491,53.445v-19.62c-0.697-0.249-1.368-0.493-2-0.728v20.348c-2.61,1.72-1,6.85-1,9.555 c0.995,0,1.544,0,1.842,0c0.064,0,0.116,0,0.158,0c0.13,0,0.168,0,0.158,0c0.297,0,0.847,0,1.842,0 C35.491,60.295,37.102,55.165,34.491,53.445z"/><path style="fill:#3e3e3f" d="M82,31c0-1-25-8-27-8s-27,7-27,8c0,0.625,7.432,3.207,13,5.053c0,1.724,0,3.768,0,5.947 c4-4,14-4,14-4s10,0,14,4c0-2.18,0-4.223,0-5.947C74.568,34.207,82,31.625,82,31z"/></g><g><polygon style="fill:#fff" points="66.965 68.059 67 68 65 67 55.015 71.981 60.808 77.807"/></g><g><polygon style="fill:#df2c2c" points="59 87 56.201 76.8 58 75.002 54.981 71.978 51.983 74.976 53.801 76.793 51 87"/></g><g><polygon style="fill:#fa5655" points="55 87 55 71.997 54.981 71.978 51.983 74.976 53.801 76.793 51 87"/></g><g><polygon style="fill:#fff" points="43.035 68.059 43 68 45 67 54.985 71.981 49.192 77.807"/></g><g><path style="fill:#3e3e3f" d="M23,87l4-11c0.615-1.333,1.698-2.394,3.043-2.983L43,68l12,19H23z"/></g><g><path style="fill:#3e3e3f" d="M87,87l-4-11c-0.615-1.333-1.698-2.394-3.043-2.983L67,68L55,87H87z"/></g><g><polygon style="fill:#9e9fa0" points="55 87 43 68 34 71 51 87"/></g><g><polygon style="fill:#9e9fa0" points="55 87 67 68 76 71 59 87"/></g></g></g><g id="Multicolor"><g><g><polygon style="fill:#e2e4e5" points="67 67.997 65 66.997 45 66.997 43 67.997 55 87"/></g><path style="fill:#f8e1c2" d="M70,45c-1,0-1,1.111-1,1.111V45c-0.002-1.065-0.019-2.086-0.067-3.062C64.891,38.001,55,38,55,38 s-9.891,0.001-13.933,3.938C41.019,42.914,41.002,43.935,41,45v7.997l4,10l5.105,3.996c0.569,0.639,1.384,1.004,2.24,1.004H55 h2.655c0.856,0,1.671-0.365,2.24-1.004L65,62.997l3.207-8.017C71.042,54.776,72,50.476,72,47.222C72,46.111,71,45,70,45z"/><path style="fill:#fcf1e2" d="M41,45v1.111c0,0,0-1.111-1-1.111s-2,1.111-2,2.222c0,3.253,0.958,7.554,3.793,7.758L45,62.997 l5.105,3.996c0.569,0.639,1.384,1.004,2.24,1.004H55V38c0,0-9.891,0.001-13.933,3.938C41.019,42.914,41.002,43.935,41,45z"/><g><path style="fill:#f79392" d="M50,56.997h10c0,0,0,3-5,3S50,56.997,50,56.997z"/></g><g><path style="fill:#3e3e3f" d="M61,47.322c1.191,0,2.248,0.266,2.981,0.678c0.071-0.569-0.172-1.154-0.748-1.59 c-1.03-0.781-2.702-0.781-3.733,0c-0.464,0.352-0.709,0.801-0.753,1.26C59.389,47.451,60.164,47.322,61,47.322z"/></g><g><path style="fill:#3e3e3f" d="M48.993,47.322c-1.191,0-2.248,0.266-2.981,0.678c-0.071-0.569,0.172-1.154,0.748-1.59 c1.03-0.781,2.702-0.781,3.733,0c0.464,0.352,0.709,0.801,0.753,1.26C50.604,47.451,49.829,47.322,48.993,47.322z"/></g><path style="fill:#f4d0a1" d="M57.655,67.997H55h-2.655c-0.856,0-1.671-0.365-2.24-1.004L45,62.997v4.5c0,0,0,7.5,10,7.5 s10-7.5,10-7.5v-4.5l-5.105,3.996C59.326,67.632,58.511,67.997,57.655,67.997z"/><g><path style="fill:#3e3e3f" d="M55,38c0,0-0.758,0-1.938,0.083c0,1.25,0,4.243,0,5.625c3.719,0,5.972-2.684,7.274-5.234 C57.41,38.001,55,38,55,38z"/><path style="fill:#3e3e3f" d="M45.919,39.332C44.022,39.922,42.228,40.772,41,42c0,3.542,2.323,5.25,2.323,5.25 C43.029,44.294,43.013,42.368,45.919,39.332z"/><path style="fill:#3e3e3f" d="M46.865,39.062c0,0.954,0,2.799,0,4.647c2.865,0,5.149-4.054,5.918-5.604 C51.218,38.226,49.027,38.49,46.865,39.062z"/><path style="fill:#3e3e3f" d="M66.344,40.205c0,0.387,0,4.515,0,7.045c2.488,0,2.646-4.661,2.655-5.25 C68.278,41.278,67.361,40.689,66.344,40.205z"/><path style="fill:#3e3e3f" d="M61.917,38.771c0,1.695,0,3.526,0,4.938c3.354,0,4.325-3.171,4.418-3.508 C64.968,39.551,63.421,39.093,61.917,38.771z"/></g><path style="fill:#f8e1c2" d="M50.105,66.993L45,62.997v4.5c0,0,0,7.5,10,7.5v-7h-2.655 C51.489,67.997,50.674,67.632,50.105,66.993z"/><g><path style="fill:#fa5655" d="M34.491,53.445v-19.62c-0.697-0.249-1.368-0.493-2-0.728v20.348c-2.61,1.72-1,6.85-1,9.555 c0.995,0,1.544,0,1.842,0c0.064,0,0.116,0,0.158,0c0.13,0,0.168,0,0.158,0c0.297,0,0.847,0,1.842,0 C35.491,60.295,37.102,55.165,34.491,53.445z"/><path style="fill:#3e3e3f" d="M82,31c0-1-25-8-27-8s-27,7-27,8c0,0.625,7.432,3.207,13,5.053c0,1.724,0,3.768,0,5.947 c4-4,14-4,14-4s10,0,14,4c0-2.18,0-4.223,0-5.947C74.568,34.207,82,31.625,82,31z"/></g><g><polygon style="fill:#fff" points="66.965 68.059 67 68 65 67 55.015 71.981 60.808 77.807"/></g><g><polygon style="fill:#df2c2c" points="59 87 56.201 76.8 58 75.002 54.981 71.978 51.983 74.976 53.801 76.793 51 87"/></g><g><polygon style="fill:#fa5655" points="55 87 55 71.997 54.981 71.978 51.983 74.976 53.801 76.793 51 87"/></g><g><polygon style="fill:#fff" points="43.035 68.059 43 68 45 67 54.985 71.981 49.192 77.807"/></g><g><path style="fill:#3e3e3f" d="M23,87l4-11c0.615-1.333,1.698-2.394,3.043-2.983L43,68l12,19H23z"/></g><g><path style="fill:#3e3e3f" d="M87,87l-4-11c-0.615-1.333-1.698-2.394-3.043-2.983L67,68L55,87H87z"/></g><g><polygon style="fill:#9e9fa0" points="55 87 43 68 34 71 51 87"/></g><g><polygon style="fill:#9e9fa0" points="55 87 67 68 76 71 59 87"/></g></g></g><g id="Blue" style="display:none"><g style="display:inline"><g><polygon style="fill:#e1f5fa" points="67 67.997 65 66.997 45 66.997 43 67.997 55 87"/></g><path style="fill:#e1f5fa" d="M70,45c-1,0-1,1.111-1,1.111V45c-0.002-1.065-0.019-2.086-0.067-3.062C64.891,38.001,55,38,55,38 s-9.891,0.001-13.933,3.938C41.019,42.914,41.002,43.935,41,45v7.997l4,10l5.105,3.996c0.569,0.639,1.384,1.004,2.24,1.004H55 h2.655c0.856,0,1.671-0.365,2.24-1.004L65,62.997l3.206-8.017C71.041,54.776,72,50.476,72,47.222C72,46.111,71,45,70,45z"/><path style="fill:#fff" d="M41,45v1.111c0,0,0-1.111-1-1.111s-2,1.111-2,2.222c0,3.253,0.957,7.554,3.793,7.758L45,62.997 l5.105,3.996c0.569,0.639,1.384,1.004,2.24,1.004H55V38c0,0-9.891,0.001-13.933,3.938C41.019,42.914,41.002,43.935,41,45z"/><g><path style="fill:#53bad4" d="M50,56.997h10c0,0,0,3-5,3S50,56.997,50,56.997z"/></g><g><path style="fill:#0c333d" d="M61,47.322c1.191,0,2.248,0.266,2.981,0.678c0.071-0.569-0.172-1.154-0.748-1.59 c-1.03-0.781-2.702-0.781-3.733,0c-0.464,0.352-0.71,0.801-0.753,1.26C59.389,47.451,60.164,47.322,61,47.322z"/></g><g><path style="fill:#0c333d" d="M48.993,47.322c-1.191,0-2.248,0.266-2.981,0.678c-0.07-0.569,0.172-1.154,0.749-1.59 c1.03-0.781,2.702-0.781,3.732,0c0.465,0.352,0.71,0.801,0.753,1.26C50.604,47.451,49.829,47.322,48.993,47.322z"/></g><path style="fill:#bbe7f2" d="M57.655,67.997H55h-2.655c-0.856,0-1.671-0.365-2.24-1.004L45,62.997v4.5c0,0,0,7.5,10,7.5 s10-7.5,10-7.5v-4.5l-5.106,3.996C59.326,67.632,58.511,67.997,57.655,67.997z"/><g><path style="fill:#0c333d" d="M55,38c0,0-0.758,0.001-1.938,0.084c0,1.25,0,4.243,0,5.625c3.719,0,5.972-2.684,7.274-5.234 C57.41,38.001,55,38,55,38z"/><path style="fill:#0c333d" d="M45.919,39.332C44.022,39.922,42.227,40.772,41,42c0,3.542,2.323,5.25,2.323,5.25 C43.029,44.294,43.013,42.368,45.919,39.332z"/><path style="fill:#0c333d" d="M46.865,39.062c0,0.954,0,2.799,0,4.647c2.865,0,5.15-4.054,5.918-5.604 C51.218,38.226,49.027,38.49,46.865,39.062z"/><path style="fill:#0c333d" d="M66.344,40.205c0,0.387,0,4.515,0,7.045c2.488,0,2.646-4.661,2.655-5.25 C68.278,41.278,67.361,40.689,66.344,40.205z"/><path style="fill:#0c333d" d="M61.916,38.771c0,1.695,0,3.526,0,4.938c3.354,0,4.325-3.171,4.418-3.508 C64.968,39.551,63.421,39.093,61.916,38.771z"/></g><path style="fill:#e1f5fa" d="M50.105,66.993L45,62.997v4.5c0,0,0,7.5,10,7.5v-7h-2.655 C51.489,67.997,50.674,67.632,50.105,66.993z"/><path style="fill:#0081a1" d="M34.491,53.445v-19.62c-0.697-0.249-1.369-0.493-2-0.728v20.348c-2.61,1.719-1,6.85-1,9.555 c0.995,0,1.544,0,1.841,0c0.064,0,0.117,0,0.159,0c0.13,0,0.168,0,0.158,0c0.297,0,0.847,0,1.842,0 C35.491,60.295,37.102,55.165,34.491,53.445z"/><path style="fill:#0c333d" d="M82,31c0-1-25-8-27-8s-27,7-27,8c0,0.626,7.432,3.207,13,5.053c0,1.724,0,3.768,0,5.947 c4-4,14-4,14-4s10,0,14,4c0-2.18,0-4.223,0-5.947C74.568,34.207,82,31.626,82,31z"/><g><polygon style="fill:#fff" points="66.965 68.059 67 68 65 67 55.015 71.981 60.808 77.807"/></g><g><polygon style="fill:#009fc7" points="59 87 56.201 76.8 57.999 75.002 54.981 71.978 51.983 74.976 53.801 76.794 51 87"/></g><g><polygon style="fill:#00b7e5" points="55 87 55 71.997 54.981 71.978 51.983 74.976 53.801 76.794 51 87"/></g><g><polygon style="fill:#fff" points="43.035 68.059 43 68 45 67 54.985 71.981 49.192 77.807"/></g><g><path style="fill:#0c333d" d="M23,87l4-11c0.615-1.333,1.698-2.394,3.043-2.982L43,68l12,19H23z"/></g><g><path style="fill:#0c333d" d="M87,87l-4-11c-0.615-1.333-1.698-2.394-3.043-2.982L67,68L55,87H87z"/></g><g><polygon style="fill:#37a4bf" points="55 87 43 68 34 71 51 87"/></g><g><polygon style="fill:#37a4bf" points="55 87 67 68 76 71 59 87"/></g></g></g><g id="R-Blue" style="display:none"><g style="display:inline"><circle style="fill:#81d2eb" cx="55" cy="55" r="55"/></g><g style="display:inline"><g><polygon style="fill:#e1f5fa" points="67 67.997 65 66.997 45 66.997 43 67.997 55 87"/></g><path style="fill:#e1f5fa" d="M70,45c-1,0-1,1.111-1,1.111V45c-0.002-1.065-0.019-2.086-0.067-3.062C64.891,38.001,55,38,55,38 s-9.891,0.001-13.933,3.938C41.019,42.914,41.002,43.935,41,45v7.997l4,10l5.105,3.996c0.569,0.639,1.384,1.004,2.24,1.004H55 h2.655c0.856,0,1.671-0.365,2.24-1.004L65,62.997l3.206-8.017C71.041,54.776,72,50.476,72,47.222C72,46.111,71,45,70,45z"/><path style="fill:#fff" d="M41,45v1.111c0,0,0-1.111-1-1.111s-2,1.111-2,2.222c0,3.253,0.957,7.554,3.793,7.758L45,62.997 l5.105,3.996c0.569,0.639,1.384,1.004,2.24,1.004H55V38c0,0-9.891,0.001-13.933,3.938C41.019,42.914,41.002,43.935,41,45z"/><g><path style="fill:#53bad4" d="M50,56.997h10c0,0,0,3-5,3S50,56.997,50,56.997z"/></g><g><path style="fill:#0c333d" d="M61,47.322c1.191,0,2.248,0.266,2.981,0.678c0.071-0.569-0.172-1.154-0.748-1.59 c-1.03-0.781-2.702-0.781-3.733,0c-0.464,0.352-0.71,0.801-0.753,1.26C59.389,47.451,60.164,47.322,61,47.322z"/></g><g><path style="fill:#0c333d" d="M48.993,47.322c-1.191,0-2.248,0.266-2.981,0.678c-0.07-0.569,0.172-1.154,0.749-1.59 c1.03-0.781,2.702-0.781,3.732,0c0.465,0.352,0.71,0.801,0.753,1.26C50.604,47.451,49.829,47.322,48.993,47.322z"/></g><path style="fill:#bbe7f2" d="M57.655,67.997H55h-2.655c-0.856,0-1.671-0.365-2.24-1.004L45,62.997v4.5c0,0,0,7.5,10,7.5 s10-7.5,10-7.5v-4.5l-5.106,3.996C59.326,67.632,58.511,67.997,57.655,67.997z"/><g><path style="fill:#0c333d" d="M55,38c0,0-0.758,0.001-1.938,0.084c0,1.25,0,4.243,0,5.625c3.719,0,5.972-2.684,7.274-5.234 C57.41,38.001,55,38,55,38z"/><path style="fill:#0c333d" d="M45.919,39.332C44.022,39.922,42.227,40.772,41,42c0,3.542,2.323,5.25,2.323,5.25 C43.029,44.294,43.013,42.368,45.919,39.332z"/><path style="fill:#0c333d" d="M46.865,39.062c0,0.954,0,2.799,0,4.647c2.865,0,5.15-4.054,5.918-5.604 C51.218,38.226,49.027,38.49,46.865,39.062z"/><path style="fill:#0c333d" d="M66.344,40.205c0,0.387,0,4.515,0,7.045c2.488,0,2.646-4.661,2.655-5.25 C68.278,41.278,67.361,40.689,66.344,40.205z"/><path style="fill:#0c333d" d="M61.917,38.771c0,1.695,0,3.526,0,4.938c3.354,0,4.325-3.171,4.418-3.508 C64.968,39.551,63.421,39.093,61.917,38.771z"/></g><path style="fill:#e1f5fa" d="M50.105,66.993L45,62.997v4.5c0,0,0,7.5,10,7.5v-7h-2.655 C51.489,67.997,50.674,67.632,50.105,66.993z"/><path style="fill:#0081a1" d="M34.491,53.445v-19.62c-0.697-0.249-1.369-0.493-2-0.728v20.348c-2.61,1.719-1,6.85-1,9.555 c0.995,0,1.544,0,1.841,0c0.064,0,0.117,0,0.159,0c0.13,0,0.168,0,0.158,0c0.297,0,0.847,0,1.842,0 C35.491,60.295,37.102,55.165,34.491,53.445z"/><path style="fill:#0c333d" d="M82,31c0-1-25-8-27-8s-27,7-27,8c0,0.626,7.432,3.207,13,5.053c0,1.724,0,3.768,0,5.947 c4-4,14-4,14-4s10,0,14,4c0-2.18,0-4.223,0-5.947C74.568,34.207,82,31.626,82,31z"/><g><polygon style="fill:#fff" points="66.965 68.059 67 68 65 67 55.015 71.981 60.808 77.807"/></g><g><polygon style="fill:#009fc7" points="59 87 56.201 76.8 57.999 75.002 54.981 71.978 51.983 74.976 53.801 76.794 51 87"/></g><g><polygon style="fill:#00b7e5" points="55 87 55 71.997 54.981 71.978 51.983 74.976 53.801 76.794 51 87"/></g><g><polygon style="fill:#fff" points="43.035 68.059 43 68 45 67 54.985 71.981 49.192 77.807"/></g><g><path style="fill:#0c333d" d="M23,87l4-11c0.615-1.333,1.698-2.394,3.043-2.982L43,68l12,19H23z"/></g><g><path style="fill:#0c333d" d="M87,87l-4-11c-0.615-1.333-1.698-2.394-3.043-2.982L67,68L55,87H87z"/></g><g><polygon style="fill:#37a4bf" points="55 87 43 68 34 71 51 87"/></g><g><polygon style="fill:#37a4bf" points="55 87 67 68 76 71 59 87"/></g></g></g><g id="Green" style="display:none"><g style="display:inline"><g><polygon style="fill:#d7fcf9" points="67 67.997 65 66.997 45 66.997 43 67.997 55 87"/></g><path style="fill:#d7fcf9" d="M70,45c-1,0-1,1.111-1,1.111V45c-0.002-1.065-0.019-2.086-0.067-3.062C64.891,38.001,55,38,55,38 s-9.891,0.001-13.933,3.938C41.019,42.914,41.002,43.935,41,45v7.997l4,10l5.105,3.996c0.569,0.639,1.384,1.004,2.24,1.004H55 h2.655c0.856,0,1.671-0.365,2.24-1.004L65,62.997l3.206-8.017C71.041,54.776,72,50.476,72,47.222C72,46.111,71,45,70,45z"/><path style="fill:#fff" d="M41,45v1.111c0,0,0-1.111-1-1.111s-2,1.111-2,2.222c0,3.253,0.957,7.554,3.793,7.758L45,62.997 l5.105,3.996c0.569,0.639,1.384,1.004,2.24,1.004H55V38c0,0-9.891,0.001-13.933,3.938C41.019,42.914,41.002,43.935,41,45z"/><g><path style="fill:#55c9be" d="M50,56.997h10c0,0,0,3-5,3S50,56.997,50,56.997z"/></g><g><path style="fill:#0a3631" d="M61,47.322c1.191,0,2.248,0.266,2.981,0.678c0.071-0.569-0.172-1.154-0.748-1.59 c-1.03-0.781-2.702-0.781-3.733,0c-0.464,0.352-0.709,0.801-0.753,1.26C59.389,47.451,60.164,47.322,61,47.322z"/></g><g><path style="fill:#0a3631" d="M48.993,47.322c-1.191,0-2.248,0.266-2.981,0.678c-0.07-0.569,0.172-1.154,0.749-1.59 c1.03-0.781,2.702-0.781,3.732,0c0.465,0.352,0.71,0.801,0.753,1.26C50.604,47.451,49.829,47.322,48.993,47.322z"/></g><path style="fill:#aaf0e9" d="M57.655,67.997H55h-2.655c-0.856,0-1.671-0.365-2.24-1.004L45,62.997v4.5c0,0,0,7.5,10,7.5 s10-7.5,10-7.5v-4.5l-5.106,3.996C59.326,67.632,58.511,67.997,57.655,67.997z"/><g><path style="fill:#0a3631" d="M55,38c0,0-0.758,0-1.938,0.083c0,1.25,0,4.243,0,5.625c3.719,0,5.972-2.684,7.274-5.234 C57.41,38.001,55,38,55,38z"/><path style="fill:#0a3631" d="M45.919,39.332C44.022,39.922,42.228,40.772,41,42c0,3.542,2.323,5.25,2.323,5.25 C43.029,44.294,43.013,42.368,45.919,39.332z"/><path style="fill:#0a3631" d="M46.865,39.062c0,0.954,0,2.799,0,4.647c2.865,0,5.15-4.054,5.918-5.604 C51.218,38.226,49.027,38.49,46.865,39.062z"/><path style="fill:#0a3631" d="M66.344,40.205c0,0.387,0,4.515,0,7.045c2.488,0,2.646-4.661,2.655-5.25 C68.278,41.278,67.361,40.689,66.344,40.205z"/><path style="fill:#0a3631" d="M61.917,38.771c0,1.695,0,3.526,0,4.938c3.354,0,4.325-3.171,4.418-3.508 C64.968,39.551,63.421,39.093,61.917,38.771z"/></g><path style="fill:#d7fcf9" d="M50.105,66.993L45,62.997v4.5c0,0,0,7.5,10,7.5v-7h-2.655 C51.489,67.997,50.674,67.632,50.105,66.993z"/><path style="fill:#009687" d="M34.491,53.445v-19.62c-0.697-0.249-1.369-0.493-2-0.728v20.348c-2.61,1.719-1,6.85-1,9.555 c0.995,0,1.544,0,1.841,0c0.064,0,0.117,0,0.159,0c0.13,0,0.168,0,0.158,0c0.297,0,0.847,0,1.842,0 C35.491,60.295,37.102,55.165,34.491,53.445z"/><path style="fill:#0a3631" d="M82,31c0-1-25-8-27-8s-27,7-27,8c0,0.625,7.432,3.207,13,5.053c0,1.724,0,3.768,0,5.947 c4-4,14-4,14-4s10,0,14,4c0-2.18,0-4.223,0-5.947C74.568,34.207,82,31.625,82,31z"/><g><polygon style="fill:#fff" points="66.965 68.059 67 68 65 67 55.015 71.981 60.808 77.807"/></g><g><polygon style="fill:#00b8a5" points="59 87 56.201 76.8 57.999 75.002 54.981 71.978 51.983 74.976 53.801 76.794 51 87"/></g><g><polygon style="fill:#00d6c1" points="55 87 55 71.997 54.981 71.978 51.983 74.976 53.801 76.794 51 87"/></g><g><polygon style="fill:#fff" points="43.035 68.059 43 68 45 67 54.985 71.981 49.192 77.807"/></g><g><path style="fill:#0a3631" d="M23,87l4-11c0.615-1.333,1.698-2.394,3.043-2.982L43,68l12,19H23z"/></g><g><path style="fill:#0a3631" d="M87,87l-4-11c-0.615-1.333-1.698-2.394-3.043-2.982L67,68L55,87H87z"/></g><g><polygon style="fill:#28b5a7" points="55 87 43 68 34 71 51 87"/></g><g><polygon style="fill:#28b5a7" points="55 87 67 68 76 71 59 87"/></g></g></g><g id="R-Green" style="display:none"><g style="display:inline"><circle style="fill:#77e0c4" cx="55" cy="55" r="55"/></g><g style="display:inline"><g><polygon style="fill:#d7fcf9" points="67 67.997 65 66.997 45 66.997 43 67.997 55 87"/></g><path style="fill:#d7fcf9" d="M70,45c-1,0-1,1.111-1,1.111V45c-0.002-1.065-0.019-2.086-0.067-3.062C64.891,38.001,55,38,55,38 s-9.891,0.001-13.933,3.938C41.019,42.914,41.002,43.935,41,45v7.997l4,10l5.105,3.996c0.569,0.639,1.384,1.004,2.24,1.004H55 h2.655c0.856,0,1.671-0.365,2.24-1.004L65,62.997l3.206-8.017C71.041,54.776,72,50.476,72,47.222C72,46.111,71,45,70,45z"/><path style="fill:#fff" d="M41,45v1.111c0,0,0-1.111-1-1.111s-2,1.111-2,2.222c0,3.253,0.957,7.554,3.793,7.758L45,62.997 l5.105,3.996c0.569,0.639,1.384,1.004,2.24,1.004H55V38c0,0-9.891,0.001-13.933,3.938C41.019,42.914,41.002,43.935,41,45z"/><g><path style="fill:#55c9be" d="M50,56.997h10c0,0,0,3-5,3S50,56.997,50,56.997z"/></g><g><path style="fill:#0a3631" d="M61,47.322c1.191,0,2.248,0.266,2.981,0.678c0.071-0.569-0.172-1.154-0.748-1.59 c-1.03-0.781-2.702-0.781-3.733,0c-0.464,0.352-0.71,0.801-0.753,1.26C59.389,47.451,60.164,47.322,61,47.322z"/></g><g><path style="fill:#0a3631" d="M48.993,47.322c-1.191,0-2.248,0.266-2.981,0.678c-0.07-0.569,0.172-1.154,0.749-1.59 c1.03-0.781,2.702-0.781,3.732,0c0.465,0.352,0.71,0.801,0.753,1.26C50.604,47.451,49.829,47.322,48.993,47.322z"/></g><path style="fill:#aaf0e9" d="M57.655,67.997H55h-2.655c-0.856,0-1.671-0.365-2.24-1.004L45,62.997v4.5c0,0,0,7.5,10,7.5 s10-7.5,10-7.5v-4.5l-5.106,3.996C59.326,67.632,58.511,67.997,57.655,67.997z"/><g><path style="fill:#0a3631" d="M55,38c0,0-0.758,0.001-1.938,0.084c0,1.25,0,4.243,0,5.625c3.719,0,5.972-2.684,7.274-5.234 C57.41,38.001,55,38,55,38z"/><path style="fill:#0a3631" d="M45.919,39.332C44.022,39.922,42.227,40.772,41,42c0,3.542,2.323,5.25,2.323,5.25 C43.029,44.294,43.013,42.368,45.919,39.332z"/><path style="fill:#0a3631" d="M46.865,39.062c0,0.954,0,2.799,0,4.647c2.865,0,5.15-4.054,5.918-5.604 C51.218,38.226,49.027,38.49,46.865,39.062z"/><path style="fill:#0a3631" d="M66.344,40.205c0,0.387,0,4.515,0,7.045c2.488,0,2.646-4.661,2.655-5.25 C68.278,41.278,67.361,40.689,66.344,40.205z"/><path style="fill:#0a3631" d="M61.916,38.771c0,1.695,0,3.526,0,4.938c3.354,0,4.325-3.171,4.418-3.508 C64.968,39.551,63.421,39.093,61.916,38.771z"/></g><path style="fill:#d7fcf9" d="M50.105,66.993L45,62.997v4.5c0,0,0,7.5,10,7.5v-7h-2.655 C51.489,67.997,50.674,67.632,50.105,66.993z"/><path style="fill:#009687" d="M34.491,53.445v-19.62c-0.697-0.249-1.369-0.493-2-0.728v20.348c-2.61,1.719-1,6.85-1,9.555 c0.995,0,1.544,0,1.841,0c0.064,0,0.117,0,0.159,0c0.13,0,0.168,0,0.158,0c0.297,0,0.847,0,1.842,0 C35.491,60.295,37.102,55.165,34.491,53.445z"/><path style="fill:#0a3631" d="M82,31c0-1-25-8-27-8s-27,7-27,8c0,0.626,7.432,3.207,13,5.053c0,1.724,0,3.768,0,5.947 c4-4,14-4,14-4s10,0,14,4c0-2.18,0-4.223,0-5.947C74.568,34.207,82,31.626,82,31z"/><g><polygon style="fill:#fff" points="66.965 68.059 67 68 65 67 55.015 71.981 60.808 77.807"/></g><g><polygon style="fill:#00b8a5" points="59 87 56.201 76.8 57.999 75.002 54.981 71.978 51.983 74.976 53.801 76.794 51 87"/></g><g><polygon style="fill:#00d6c1" points="55 87 55 71.997 54.981 71.978 51.983 74.976 53.801 76.794 51 87"/></g><g><polygon style="fill:#fff" points="43.035 68.059 43 68 45 67 54.985 71.981 49.192 77.807"/></g><g><path style="fill:#0a3631" d="M23,87l4-11c0.615-1.333,1.698-2.394,3.043-2.982L43,68l12,19H23z"/></g><g><path style="fill:#0a3631" d="M87,87l-4-11c-0.615-1.333-1.698-2.394-3.043-2.982L67,68L55,87H87z"/></g><g><polygon style="fill:#28b5a7" points="55 87 43 68 34 71 51 87"/></g><g><polygon style="fill:#28b5a7" points="55 87 67 68 76 71 59 87"/></g></g></g><g id="Red" style="display:none"><g style="display:inline"><g><polygon style="fill:#ffefed" points="67 67.997 65 66.997 45 66.997 43 67.997 55 87"/></g><path style="fill:#ffefed" d="M70,45c-1,0-1,1.111-1,1.111V45c-0.002-1.065-0.019-2.086-0.067-3.062C64.891,38.001,55,38,55,38 s-9.891,0.001-13.933,3.938C41.019,42.914,41.002,43.935,41,45v7.997l4,10l5.105,3.996c0.569,0.639,1.384,1.004,2.24,1.004H55 h2.655c0.856,0,1.671-0.365,2.24-1.004L65,62.997l3.206-8.017C71.041,54.776,72,50.476,72,47.222C72,46.111,71,45,70,45z"/><path style="fill:#fff" d="M41,45v1.111c0,0,0-1.111-1-1.111s-2,1.111-2,2.222c0,3.253,0.957,7.554,3.793,7.758L45,62.997 l5.105,3.996c0.569,0.639,1.384,1.004,2.24,1.004H55V38c0,0-9.891,0.001-13.933,3.938C41.019,42.914,41.002,43.935,41,45z"/><g><path style="fill:#e8a099" d="M50,56.997h10c0,0,0,3-5,3S50,56.997,50,56.997z"/></g><g><path style="fill:#4a1410" d="M61,47.322c1.191,0,2.248,0.266,2.981,0.678c0.071-0.569-0.172-1.154-0.748-1.59 c-1.03-0.781-2.702-0.781-3.733,0c-0.464,0.352-0.71,0.801-0.753,1.26C59.389,47.451,60.164,47.322,61,47.322z"/></g><g><path style="fill:#4a1410" d="M48.993,47.322c-1.191,0-2.248,0.266-2.981,0.678c-0.07-0.569,0.172-1.154,0.749-1.59 c1.03-0.781,2.702-0.781,3.732,0c0.465,0.352,0.71,0.801,0.753,1.26C50.604,47.451,49.829,47.322,48.993,47.322z"/></g><path style="fill:#ffd7d4" d="M57.655,67.997H55h-2.655c-0.856,0-1.671-0.365-2.24-1.004L45,62.997v4.5c0,0,0,7.5,10,7.5 s10-7.5,10-7.5v-4.5l-5.106,3.996C59.326,67.632,58.511,67.997,57.655,67.997z"/><g><path style="fill:#4a1410" d="M55,38c0,0-0.758,0.001-1.938,0.084c0,1.25,0,4.243,0,5.625c3.719,0,5.972-2.684,7.274-5.234 C57.41,38.001,55,38,55,38z"/><path style="fill:#4a1410" d="M45.919,39.332C44.022,39.922,42.227,40.772,41,42c0,3.542,2.323,5.25,2.323,5.25 C43.029,44.294,43.013,42.368,45.919,39.332z"/><path style="fill:#4a1410" d="M46.865,39.062c0,0.954,0,2.799,0,4.647c2.865,0,5.15-4.054,5.918-5.604 C51.218,38.226,49.027,38.49,46.865,39.062z"/><path style="fill:#4a1410" d="M66.344,40.205c0,0.387,0,4.515,0,7.045c2.488,0,2.646-4.661,2.655-5.25 C68.278,41.278,67.361,40.689,66.344,40.205z"/><path style="fill:#4a1410" d="M61.916,38.771c0,1.695,0,3.526,0,4.938c3.354,0,4.325-3.171,4.418-3.508 C64.968,39.551,63.421,39.093,61.916,38.771z"/></g><path style="fill:#ffefed" d="M50.105,66.993L45,62.997v4.5c0,0,0,7.5,10,7.5v-7h-2.655 C51.489,67.997,50.674,67.632,50.105,66.993z"/><path style="fill:#c23023" d="M34.491,53.445v-19.62c-0.697-0.249-1.369-0.493-2-0.728v20.348c-2.61,1.719-1,6.85-1,9.555 c0.995,0,1.544,0,1.841,0c0.064,0,0.117,0,0.159,0c0.13,0,0.168,0,0.158,0c0.297,0,0.847,0,1.842,0 C35.491,60.295,37.102,55.165,34.491,53.445z"/><path style="fill:#4a1410" d="M82,31c0-1-25-8-27-8s-27,7-27,8c0,0.626,7.432,3.207,13,5.053c0,1.724,0,3.768,0,5.947 c4-4,14-4,14-4s10,0,14,4c0-2.18,0-4.223,0-5.947C74.568,34.207,82,31.626,82,31z"/><g><polygon style="fill:#fff" points="66.965 68.059 67 68 65 67 55.015 71.981 60.808 77.807"/></g><g><polygon style="fill:#e54b44" points="59 87 56.201 76.8 57.999 75.002 54.981 71.978 51.983 74.976 53.801 76.794 51 87"/></g><g><polygon style="fill:#ff6c5e" points="55 87 55 71.997 54.981 71.978 51.983 74.976 53.801 76.794 51 87"/></g><g><polygon style="fill:#fff" points="43.035 68.059 43 68 45 67 54.985 71.981 49.192 77.807"/></g><g><path style="fill:#4a1410" d="M23,87l4-11c0.615-1.333,1.698-2.394,3.043-2.982L43,68l12,19H23z"/></g><g><path style="fill:#4a1410" d="M87,87l-4-11c-0.615-1.333-1.698-2.394-3.043-2.982L67,68L55,87H87z"/></g><g><polygon style="fill:#db7d74" points="55 87 43 68 34 71 51 87"/></g><g><polygon style="fill:#db7d74" points="55 87 67 68 76 71 59 87"/></g></g></g><g id="R-Red" style="display:none"><g style="display:inline"><circle style="fill:#fabbaf" cx="55" cy="55" r="55"/></g><g style="display:inline"><g><polygon style="fill:#ffefed" points="67 67.997 65 66.997 45 66.997 43 67.997 55 87"/></g><path style="fill:#ffefed" d="M70,45c-1,0-1,1.111-1,1.111V45c-0.002-1.065-0.019-2.086-0.067-3.062C64.891,38.001,55,38,55,38 s-9.891,0.001-13.933,3.938C41.019,42.914,41.002,43.935,41,45v7.997l4,10l5.105,3.996c0.569,0.639,1.384,1.004,2.24,1.004H55 h2.655c0.856,0,1.671-0.365,2.24-1.004L65,62.997l3.206-8.017C71.041,54.776,72,50.476,72,47.222C72,46.111,71,45,70,45z"/><path style="fill:#fff" d="M41,45v1.111c0,0,0-1.111-1-1.111s-2,1.111-2,2.222c0,3.253,0.957,7.554,3.793,7.758L45,62.997 l5.105,3.996c0.569,0.639,1.384,1.004,2.24,1.004H55V38c0,0-9.891,0.001-13.933,3.938C41.019,42.914,41.002,43.935,41,45z"/><g><path style="fill:#e8a099" d="M50,56.997h10c0,0,0,3-5,3S50,56.997,50,56.997z"/></g><g><path style="fill:#4a1410" d="M61,47.322c1.191,0,2.248,0.266,2.981,0.678c0.071-0.569-0.172-1.154-0.748-1.59 c-1.03-0.781-2.702-0.781-3.733,0c-0.464,0.352-0.709,0.801-0.753,1.26C59.389,47.451,60.164,47.322,61,47.322z"/></g><g><path style="fill:#4a1410" d="M48.993,47.322c-1.191,0-2.248,0.266-2.981,0.678c-0.07-0.569,0.172-1.154,0.749-1.59 c1.03-0.781,2.702-0.781,3.732,0c0.465,0.352,0.71,0.801,0.753,1.26C50.604,47.451,49.829,47.322,48.993,47.322z"/></g><path style="fill:#ffd7d4" d="M57.655,67.997H55h-2.655c-0.856,0-1.671-0.365-2.24-1.004L45,62.997v4.5c0,0,0,7.5,10,7.5 s10-7.5,10-7.5v-4.5l-5.106,3.996C59.326,67.632,58.511,67.997,57.655,67.997z"/><g><path style="fill:#4a1410" d="M55,38c0,0-0.758,0.001-1.938,0.084c0,1.25,0,4.243,0,5.625c3.719,0,5.972-2.684,7.274-5.234 C57.41,38.001,55,38,55,38z"/><path style="fill:#4a1410" d="M45.919,39.332C44.022,39.922,42.228,40.772,41,42c0,3.542,2.323,5.25,2.323,5.25 C43.029,44.294,43.013,42.368,45.919,39.332z"/><path style="fill:#4a1410" d="M46.865,39.062c0,0.954,0,2.799,0,4.647c2.865,0,5.15-4.054,5.918-5.604 C51.218,38.226,49.027,38.49,46.865,39.062z"/><path style="fill:#4a1410" d="M66.344,40.205c0,0.387,0,4.515,0,7.045c2.488,0,2.646-4.661,2.655-5.25 C68.278,41.278,67.361,40.689,66.344,40.205z"/><path style="fill:#4a1410" d="M61.917,38.771c0,1.695,0,3.526,0,4.938c3.354,0,4.325-3.171,4.418-3.508 C64.968,39.551,63.421,39.093,61.917,38.771z"/></g><path style="fill:#ffefed" d="M50.105,66.993L45,62.997v4.5c0,0,0,7.5,10,7.5v-7h-2.655 C51.489,67.997,50.674,67.632,50.105,66.993z"/><path style="fill:#c23023" d="M34.491,53.445v-19.62c-0.697-0.249-1.369-0.493-2-0.728v20.348c-2.61,1.719-1,6.85-1,9.555 c0.995,0,1.544,0,1.841,0c0.064,0,0.117,0,0.159,0c0.13,0,0.168,0,0.158,0c0.297,0,0.847,0,1.842,0 C35.491,60.295,37.102,55.165,34.491,53.445z"/><path style="fill:#4a1410" d="M82,31c0-1-25-8-27-8s-27,7-27,8c0,0.626,7.432,3.207,13,5.053c0,1.724,0,3.768,0,5.947 c4-4,14-4,14-4s10,0,14,4c0-2.18,0-4.223,0-5.947C74.568,34.207,82,31.626,82,31z"/><g><polygon style="fill:#fff" points="66.965 68.059 67 68 65 67 55.015 71.981 60.808 77.807"/></g><g><polygon style="fill:#e54b44" points="59 87 56.201 76.8 57.999 75.002 54.981 71.978 51.983 74.976 53.801 76.794 51 87"/></g><g><polygon style="fill:#ff6c5e" points="55 87 55 71.997 54.981 71.978 51.983 74.976 53.801 76.794 51 87"/></g><g><polygon style="fill:#fff" points="43.035 68.059 43 68 45 67 54.985 71.981 49.192 77.807"/></g><g><path style="fill:#4a1410" d="M23,87l4-11c0.615-1.333,1.698-2.394,3.043-2.982L43,68l12,19H23z"/></g><g><path style="fill:#4a1410" d="M87,87l-4-11c-0.615-1.333-1.698-2.394-3.043-2.982L67,68L55,87H87z"/></g><g><polygon style="fill:#db7d74" points="55 87 43 68 34 71 51 87"/></g><g><polygon style="fill:#db7d74" points="55 87 67 68 76 71 59 87"/></g></g></g><g id="Yellow" style="display:none"><g style="display:inline"><g><polygon style="fill:#fff5d9" points="67 67.997 65 66.997 45 66.997 43 67.997 55 87"/></g><path style="fill:#fff5d9" d="M70,45c-1,0-1,1.111-1,1.111V45c-0.002-1.065-0.019-2.086-0.067-3.062C64.891,38.001,55,38,55,38 s-9.891,0.001-13.933,3.938C41.019,42.914,41.002,43.935,41,45v7.997l4,10l5.105,3.996c0.569,0.639,1.384,1.004,2.24,1.004H55 h2.655c0.856,0,1.671-0.365,2.24-1.004L65,62.997l3.206-8.017C71.041,54.776,72,50.476,72,47.222C72,46.111,71,45,70,45z"/><path style="fill:#fff" d="M41,45v1.111c0,0,0-1.111-1-1.111s-2,1.111-2,2.222c0,3.253,0.957,7.554,3.793,7.758L45,62.997 l5.105,3.996c0.569,0.639,1.384,1.004,2.24,1.004H55V38c0,0-9.891,0.001-13.933,3.938C41.019,42.914,41.002,43.935,41,45z"/><g><path style="fill:#f5c43d" d="M50,56.997h10c0,0,0,3-5,3S50,56.997,50,56.997z"/></g><g><path style="fill:#3d320c" d="M61,47.322c1.191,0,2.248,0.266,2.981,0.678c0.071-0.569-0.172-1.154-0.748-1.59 c-1.03-0.781-2.702-0.781-3.733,0c-0.464,0.352-0.71,0.801-0.753,1.26C59.389,47.451,60.164,47.322,61,47.322z"/></g><g><path style="fill:#3d320c" d="M48.993,47.322c-1.191,0-2.248,0.266-2.981,0.678c-0.07-0.569,0.172-1.154,0.749-1.59 c1.03-0.781,2.702-0.781,3.732,0c0.465,0.352,0.71,0.801,0.753,1.26C50.604,47.451,49.829,47.322,48.993,47.322z"/></g><path style="fill:#ffe9a1" d="M57.655,67.997H55h-2.655c-0.856,0-1.671-0.365-2.24-1.004L45,62.997v4.5c0,0,0,7.5,10,7.5 s10-7.5,10-7.5v-4.5l-5.106,3.996C59.326,67.632,58.511,67.997,57.655,67.997z"/><g><path style="fill:#3d320c" d="M55,38c0,0-0.758,0.001-1.938,0.084c0,1.25,0,4.243,0,5.625c3.719,0,5.972-2.684,7.274-5.234 C57.41,38.001,55,38,55,38z"/><path style="fill:#3d320c" d="M45.919,39.332C44.022,39.922,42.227,40.772,41,42c0,3.542,2.323,5.25,2.323,5.25 C43.029,44.294,43.013,42.368,45.919,39.332z"/><path style="fill:#3d320c" d="M46.865,39.062c0,0.954,0,2.799,0,4.647c2.865,0,5.15-4.054,5.918-5.604 C51.218,38.226,49.027,38.49,46.865,39.062z"/><path style="fill:#3d320c" d="M66.344,40.205c0,0.387,0,4.515,0,7.045c2.488,0,2.646-4.661,2.655-5.25 C68.278,41.278,67.361,40.689,66.344,40.205z"/><path style="fill:#3d320c" d="M61.916,38.771c0,1.695,0,3.526,0,4.938c3.354,0,4.325-3.171,4.418-3.508 C64.968,39.551,63.421,39.093,61.916,38.771z"/></g><path style="fill:#fff5d9" d="M50.105,66.993L45,62.997v4.5c0,0,0,7.5,10,7.5v-7h-2.655 C51.489,67.997,50.674,67.632,50.105,66.993z"/><path style="fill:#e07000" d="M34.491,53.445v-19.62c-0.697-0.249-1.369-0.493-2-0.728v20.348c-2.61,1.719-1,6.85-1,9.555 c0.995,0,1.544,0,1.841,0c0.064,0,0.117,0,0.159,0c0.13,0,0.168,0,0.158,0c0.297,0,0.847,0,1.842,0 C35.491,60.295,37.102,55.165,34.491,53.445z"/><path style="fill:#3d320c" d="M82,31c0-1-25-8-27-8s-27,7-27,8c0,0.626,7.432,3.207,13,5.053c0,1.724,0,3.768,0,5.947 c4-4,14-4,14-4s10,0,14,4c0-2.18,0-4.223,0-5.947C74.568,34.207,82,31.626,82,31z"/><g><polygon style="fill:#fff" points="66.965 68.059 67 68 65 67 55.015 71.981 60.808 77.807"/></g><g><polygon style="fill:#fa9200" points="59 87 56.201 76.8 57.999 75.002 54.981 71.978 51.983 74.976 53.801 76.794 51 87"/></g><g><polygon style="fill:#fa0" points="55 87 55 71.997 54.981 71.978 51.983 74.976 53.801 76.794 51 87"/></g><g><polygon style="fill:#fff" points="43.035 68.059 43 68 45 67 54.985 71.981 49.192 77.807"/></g><g><path style="fill:#3d320c" d="M23,87l4-11c0.615-1.333,1.698-2.394,3.043-2.982L43,68l12,19H23z"/></g><g><path style="fill:#3d320c" d="M87,87l-4-11c-0.615-1.333-1.698-2.394-3.043-2.982L67,68L55,87H87z"/></g><g><polygon style="fill:#d4a420" points="55 87 43 68 34 71 51 87"/></g><g><polygon style="fill:#d4a420" points="55 87 67 68 76 71 59 87"/></g></g></g><g id="R-Yellow" style="display:none"><g style="display:inline"><circle style="fill:#ffd75e" cx="55" cy="55" r="55"/></g><g style="display:inline"><g><polygon style="fill:#fff5d9" points="67 67.997 65 66.997 45 66.997 43 67.997 55 87"/></g><path style="fill:#fff5d9" d="M70,45c-1,0-1,1.111-1,1.111V45c-0.002-1.065-0.019-2.086-0.067-3.062C64.891,38.001,55,38,55,38 s-9.891,0.001-13.933,3.938C41.019,42.914,41.002,43.935,41,45v7.997l4,10l5.105,3.996c0.569,0.639,1.384,1.004,2.24,1.004H55 h2.655c0.856,0,1.671-0.365,2.24-1.004L65,62.997l3.206-8.017C71.041,54.776,72,50.476,72,47.222C72,46.111,71,45,70,45z"/><path style="fill:#fff" d="M41,45v1.111c0,0,0-1.111-1-1.111s-2,1.111-2,2.222c0,3.253,0.957,7.554,3.793,7.758L45,62.997 l5.105,3.996c0.569,0.639,1.384,1.004,2.24,1.004H55V38c0,0-9.891,0.001-13.933,3.938C41.019,42.914,41.002,43.935,41,45z"/><g><path style="fill:#f5c43d" d="M50,56.997h10c0,0,0,3-5,3S50,56.997,50,56.997z"/></g><g><path style="fill:#3d320c" d="M61,47.322c1.191,0,2.248,0.266,2.981,0.678c0.071-0.569-0.172-1.154-0.748-1.59 c-1.03-0.781-2.702-0.781-3.733,0c-0.464,0.352-0.71,0.801-0.753,1.26C59.389,47.451,60.164,47.322,61,47.322z"/></g><g><path style="fill:#3d320c" d="M48.993,47.322c-1.191,0-2.248,0.266-2.981,0.678c-0.07-0.569,0.172-1.154,0.749-1.59 c1.03-0.781,2.702-0.781,3.732,0c0.465,0.352,0.71,0.801,0.753,1.26C50.604,47.451,49.829,47.322,48.993,47.322z"/></g><path style="fill:#ffe9a1" d="M57.655,67.997H55h-2.655c-0.856,0-1.671-0.365-2.24-1.004L45,62.997v4.5c0,0,0,7.5,10,7.5 s10-7.5,10-7.5v-4.5l-5.106,3.996C59.326,67.632,58.511,67.997,57.655,67.997z"/><g><path style="fill:#3d320c" d="M55,38c0,0-0.758,0.001-1.938,0.084c0,1.25,0,4.243,0,5.625c3.719,0,5.972-2.684,7.274-5.234 C57.41,38.001,55,38,55,38z"/><path style="fill:#3d320c" d="M45.919,39.332C44.022,39.922,42.227,40.772,41,42c0,3.542,2.323,5.25,2.323,5.25 C43.029,44.294,43.013,42.368,45.919,39.332z"/><path style="fill:#3d320c" d="M46.865,39.062c0,0.954,0,2.799,0,4.647c2.865,0,5.15-4.054,5.918-5.604 C51.218,38.226,49.027,38.49,46.865,39.062z"/><path style="fill:#3d320c" d="M66.344,40.205c0,0.387,0,4.515,0,7.045c2.488,0,2.646-4.661,2.655-5.25 C68.278,41.278,67.361,40.689,66.344,40.205z"/><path style="fill:#3d320c" d="M61.916,38.771c0,1.695,0,3.526,0,4.938c3.354,0,4.325-3.171,4.418-3.508 C64.968,39.551,63.421,39.093,61.916,38.771z"/></g><path style="fill:#fff5d9" d="M50.105,66.993L45,62.997v4.5c0,0,0,7.5,10,7.5v-7h-2.655 C51.489,67.997,50.674,67.632,50.105,66.993z"/><path style="fill:#e07000" d="M34.491,53.445v-19.62c-0.697-0.249-1.369-0.493-2-0.728v20.348c-2.61,1.719-1,6.85-1,9.555 c0.995,0,1.544,0,1.841,0c0.064,0,0.117,0,0.159,0c0.13,0,0.168,0,0.158,0c0.297,0,0.847,0,1.842,0 C35.491,60.295,37.102,55.165,34.491,53.445z"/><path style="fill:#3d320c" d="M82,31c0-1-25-8-27-8s-27,7-27,8c0,0.626,7.432,3.207,13,5.053c0,1.724,0,3.768,0,5.947 c4-4,14-4,14-4s10,0,14,4c0-2.18,0-4.223,0-5.947C74.568,34.207,82,31.626,82,31z"/><g><polygon style="fill:#fff" points="66.965 68.059 67 68 65 67 55.015 71.981 60.808 77.807"/></g><g><polygon style="fill:#fa9200" points="59 87 56.201 76.8 57.999 75.002 54.981 71.978 51.983 74.976 53.801 76.794 51 87"/></g><g><polygon style="fill:#fa0" points="55 87 55 71.997 54.981 71.978 51.983 74.976 53.801 76.794 51 87"/></g><g><polygon style="fill:#fff" points="43.035 68.059 43 68 45 67 54.985 71.981 49.192 77.807"/></g><g><path style="fill:#3d320c" d="M23,87l4-11c0.615-1.333,1.698-2.394,3.043-2.982L43,68l12,19H23z"/></g><g><path style="fill:#3d320c" d="M87,87l-4-11c-0.615-1.333-1.698-2.394-3.043-2.982L67,68L55,87H87z"/></g><g><polygon style="fill:#d4a420" points="55 87 43 68 34 71 51 87"/></g><g><polygon style="fill:#d4a420" points="55 87 67 68 76 71 59 87"/></g></g></g></svg>