<svg xmlns="http://www.w3.org/2000/svg" xmlns:xlink="http://www.w3.org/1999/xlink" width="110" height="110" x="0" y="0" version="1.0" viewBox="0 0 110 110" xml:space="preserve" style="enable-background:new 0 0 110 110"><g id="Artboard" style="display:none"><rect style="display:inline;fill:gray;stroke:#000;stroke-miterlimit:10" width="1390" height="340" x="-577.5" y="-186.5"/></g><g id="R-Multicolor" style="display:none"><g style="display:inline"><circle style="fill:#e04f5f" cx="55" cy="55" r="55"/></g><g style="display:inline"><g><path style="fill:#12b2a0" d="M83,76c-0.615-1.333-1.698-2.395-3.043-2.983L68,69H55H42l-11.957,4.017 C28.698,73.605,27.615,74.667,27,76l-4,11h32h32L83,76z"/></g><g><path style="fill:#c2fcf5" d="M55,79.036c3.857,0,13-1,13-7c0-0.676,0-1.789,0-3.072h-3v3.072c0,0-2,4-10,4s-10-4-10-4v-3.072 h-3c0,1.283,0,2.396,0,3.072C42,78.036,51.143,79.036,55,79.036z"/></g><g><rect style="fill:#c2fcf5" width="11" height="3" x="32" y="80.036"/></g><path style="fill:#f7b4b4" d="M57.655,68H55h-2.655c-0.856,0-1.671-0.365-2.24-1.005L45,63v9c0,0,2,4,10,4s10-4,10-4v-9 l-5.105,3.995C59.326,67.635,58.511,68,57.655,68z"/><path style="fill:#fbc8c8" d="M50.105,66.995L45,63v9.036c0,0,2,4,10,4V68h-2.655C51.489,68,50.674,67.635,50.105,66.995z"/><path style="fill:#fbc8c8" d="M70,45.036c-1,0-1,1.111-1,1.111V45c-0.006-2.843-0.111-5.582-0.661-8H55H41.661 c-0.549,2.418-0.655,5.157-0.661,8v1.147c0,0,0-1.111-1-1.111s-2,1.111-2,2.222c0,3.259,0.961,7.568,3.807,7.76L45,63l5.105,3.995 c0.569,0.64,1.384,1.005,2.24,1.005H55h2.655c0.856,0,1.671-0.365,2.24-1.005L65,63l3.193-7.982 C71.039,54.827,72,50.517,72,47.258C72,46.147,71,45.036,70,45.036z"/><path style="fill:#fbd7d7" d="M41.661,37c-0.549,2.418-0.655,5.157-0.661,8v1.147c0,0,0-1.111-1-1.111s-2,1.111-2,2.222 c0,3.259,0.961,7.568,3.807,7.76L45,63l5.105,3.995c0.569,0.64,1.384,1.005,2.24,1.005H55V37H41.661z"/><g><path style="fill:#3e3e3f" d="M52,47.036c0-1.104-0.896-2-2-2c-0.002,0-0.004,0-0.006,0C49.995,45.058,50,45.078,50,45.099 c0,1.103-0.892,1.996-1.994,2c0.033,1.075,0.91,1.938,1.994,1.938C51.104,49.036,52,48.141,52,47.036z"/></g><g><path style="fill:#3e3e3f" d="M61.994,47.036c0-1.104-0.896-2-2-2c-0.002,0-0.004,0-0.006,0 c0.001,0.021,0.006,0.041,0.006,0.062c0,1.103-0.892,1.996-1.994,2c0.033,1.075,0.91,1.938,1.994,1.938 C61.098,49.036,61.994,48.141,61.994,47.036z"/></g><g><path style="fill:#12b2a0" d="M55,51.036c-7,0-5,6-13,6c0,5,7,12,13,12s13-7,13-12C60,57.036,62,51.036,55,51.036z"/></g><path style="fill:#84462d" d="M67,50h2v-1.172c0-1.811,0-2.792,2-3.792V37h-4V50z"/><path style="fill:#84462d" d="M39,37v8.036c2,1,2,1.981,2,3.792V50h2V37H39z"/><g><path style="fill:#12b2a0" d="M71,37H39v-6.25c0-4.28,3.47-7.75,7.75-7.75h16.5c4.28,0,7.75,3.47,7.75,7.75V37z"/></g><g><path style="fill:#47c4b7" d="M55,23h-8.25C42.47,23,39,26.47,39,30.75V37h16V23z"/></g><g><path style="fill:#47c4b7" d="M42,57.036c0,5,7,12,13,12v-18C48,51.036,50,57.036,42,57.036z"/></g><g><rect style="fill:#c2fcf5" width="32" height="2" x="39" y="37"/></g></g></g><g id="Multicolor"><g><g><path style="fill:#12b2a0" d="M83,76c-0.615-1.333-1.698-2.395-3.043-2.983L68,69H55H42l-11.957,4.017 C28.698,73.605,27.615,74.667,27,76l-4,11h32h32L83,76z"/></g><g><path style="fill:#c2fcf5" d="M55,79.036c3.857,0,13-1,13-7c0-0.676,0-1.789,0-3.072h-3v3.072c0,0-2,4-10,4s-10-4-10-4v-3.072 h-3c0,1.283,0,2.396,0,3.072C42,78.036,51.143,79.036,55,79.036z"/></g><g><rect style="fill:#c2fcf5" width="11" height="3" x="32" y="80.036"/></g><path style="fill:#f7b4b4" d="M57.655,68H55h-2.655c-0.856,0-1.671-0.365-2.24-1.005L45,63v9c0,0,2,4,10,4s10-4,10-4v-9 l-5.105,3.995C59.326,67.635,58.511,68,57.655,68z"/><path style="fill:#fbc8c8" d="M50.105,66.995L45,63v9.036c0,0,2,4,10,4V68h-2.655C51.489,68,50.674,67.635,50.105,66.995z"/><path style="fill:#fbc8c8" d="M70,45.036c-1,0-1,1.111-1,1.111V45c-0.006-2.843-0.111-5.582-0.661-8H55H41.661 c-0.549,2.418-0.655,5.157-0.661,8v1.147c0,0,0-1.111-1-1.111s-2,1.111-2,2.222c0,3.259,0.961,7.568,3.807,7.76L45,63l5.105,3.995 c0.569,0.64,1.384,1.005,2.24,1.005H55h2.655c0.856,0,1.671-0.365,2.24-1.005L65,63l3.193-7.982 C71.039,54.827,72,50.517,72,47.258C72,46.147,71,45.036,70,45.036z"/><path style="fill:#fbd7d7" d="M41.661,37c-0.549,2.418-0.655,5.157-0.661,8v1.147c0,0,0-1.111-1-1.111s-2,1.111-2,2.222 c0,3.259,0.961,7.568,3.807,7.76L45,63l5.105,3.995c0.569,0.64,1.384,1.005,2.24,1.005H55V37H41.661z"/><g><path style="fill:#3e3e3f" d="M52,47.036c0-1.104-0.896-2-2-2c-0.002,0-0.004,0-0.006,0C49.995,45.058,50,45.078,50,45.099 c0,1.103-0.892,1.996-1.994,2c0.033,1.075,0.91,1.938,1.994,1.938C51.104,49.036,52,48.141,52,47.036z"/></g><g><path style="fill:#3e3e3f" d="M61.994,47.036c0-1.104-0.896-2-2-2c-0.002,0-0.004,0-0.006,0 c0.001,0.021,0.006,0.041,0.006,0.062c0,1.103-0.892,1.996-1.994,2c0.033,1.075,0.91,1.938,1.994,1.938 C61.098,49.036,61.994,48.141,61.994,47.036z"/></g><g><path style="fill:#12b2a0" d="M55,51.036c-7,0-5,6-13,6c0,5,7,12,13,12s13-7,13-12C60,57.036,62,51.036,55,51.036z"/></g><path style="fill:#84462d" d="M67,50h2v-1.172c0-1.811,0-2.792,2-3.792V37h-4V50z"/><path style="fill:#84462d" d="M39,37v8.036c2,1,2,1.981,2,3.792V50h2V37H39z"/><g><path style="fill:#12b2a0" d="M71,37H39v-6.25c0-4.28,3.47-7.75,7.75-7.75h16.5c4.28,0,7.75,3.47,7.75,7.75V37z"/></g><g><path style="fill:#47c4b7" d="M55,23h-8.25C42.47,23,39,26.47,39,30.75V37h16V23z"/></g><g><path style="fill:#47c4b7" d="M42,57.036c0,5,7,12,13,12v-18C48,51.036,50,57.036,42,57.036z"/></g><g><rect style="fill:#c2fcf5" width="32" height="2" x="39" y="37"/></g></g></g><g id="Blue" style="display:none"><g style="display:inline"><g><path style="fill:#009fc7" d="M83,76c-0.615-1.333-1.698-2.394-3.044-2.983L68,69H55H42l-11.958,4.017 C28.698,73.606,27.615,74.667,27,76l-4,11h32h32L83,76z"/></g><g><path style="fill:#fff" d="M55,79.036c3.857,0,13-1,13-7c0-0.676,0-1.789,0-3.072h-3v3.072c0,0-2,4-10,4s-10-4-10-4v-3.072 h-3c0,1.283,0,2.396,0,3.072C42,78.036,51.143,79.036,55,79.036z"/></g><g><rect style="fill:#00b7e5" width="11" height="3" x="32" y="80.036"/></g><path style="fill:#bbe7f2" d="M57.655,68H55h-2.655c-0.856,0-1.671-0.365-2.24-1.005L45,63v9c0,0,2,4,10,4s10-4,10-4v-9 l-5.106,3.995C59.326,67.635,58.511,68,57.655,68z"/><path style="fill:#e1f5fa" d="M50.105,66.995L45,63v9.036c0,0,2,4,10,4V68h-2.655C51.489,68,50.674,67.635,50.105,66.995z"/><path style="fill:#e1f5fa" d="M70,45.036c-1,0-1,1.111-1,1.111V45c-0.006-2.843-0.111-5.582-0.661-8H55H41.661 c-0.549,2.418-0.655,5.157-0.661,8v1.148c0,0,0-1.111-1-1.111s-2,1.111-2,2.222c0,3.259,0.961,7.568,3.807,7.76L45,63l5.105,3.995 c0.569,0.64,1.384,1.005,2.24,1.005H55h2.655c0.856,0,1.671-0.365,2.24-1.005L65,63l3.193-7.982 C71.039,54.827,72,50.517,72,47.258C72,46.148,71,45.036,70,45.036z"/><path style="fill:#fff" d="M41.661,37c-0.549,2.418-0.655,5.157-0.661,8v1.148c0,0,0-1.111-1-1.111s-2,1.111-2,2.222 c0,3.259,0.961,7.568,3.807,7.76L45,63l5.105,3.995c0.569,0.64,1.384,1.005,2.24,1.005H55V37H41.661z"/><g><path style="fill:#0c333d" d="M52,47.036c0-1.104-0.896-2-2-2c-0.002,0-0.004,0-0.006,0C49.995,45.058,50,45.078,50,45.099 c0,1.103-0.892,1.996-1.994,2c0.033,1.075,0.91,1.938,1.994,1.938C51.104,49.036,52,48.141,52,47.036z"/></g><g><path style="fill:#0c333d" d="M61.994,47.036c0-1.104-0.896-2-2-2c-0.002,0-0.004,0-0.006,0 c0.001,0.021,0.006,0.041,0.006,0.062c0,1.103-0.892,1.996-1.994,2c0.033,1.075,0.91,1.938,1.994,1.938 C61.098,49.036,61.994,48.141,61.994,47.036z"/></g><g><path style="fill:#0081a1" d="M55,51.036c-7,0-5,6-13,6c0,5,7,12,13,12s13-7,13-12C60,57.036,62,51.036,55,51.036z"/></g><path style="fill:#0f6175" d="M67,50h2v-1.172c0-1.811,0-2.792,2-3.792V37h-4V50z"/><path style="fill:#0f6175" d="M39,37v8.036c2,1,2,1.981,2,3.792V50h2V37H39z"/><g><path style="fill:#0081a1" d="M71,37H39v-6.25c0-4.28,3.47-7.75,7.75-7.75h16.5c4.28,0,7.75,3.47,7.75,7.75V37z"/></g><g><path style="fill:#009fc7" d="M55,23h-8.25C42.47,23,39,26.47,39,30.75V37h16V23z"/></g><g><path style="fill:#009fc7" d="M42,57.036c0,5,7,12,13,12v-18C48,51.036,50,57.036,42,57.036z"/></g><g><rect style="fill:#00b7e5" width="32" height="2" x="39" y="37"/></g></g></g><g id="R-Blue" style="display:none"><g style="display:inline"><circle style="fill:#81d2eb" cx="55" cy="55" r="55"/></g><g style="display:inline"><g><path style="fill:#009fc7" d="M83,76c-0.615-1.333-1.698-2.394-3.044-2.983L68,69H55H42l-11.958,4.017 C28.698,73.606,27.615,74.667,27,76l-4,11h32h32L83,76z"/></g><g><path style="fill:#fff" d="M55,79.036c3.857,0,13-1,13-7c0-0.676,0-1.789,0-3.072h-3v3.072c0,0-2,4-10,4s-10-4-10-4v-3.072 h-3c0,1.283,0,2.396,0,3.072C42,78.036,51.143,79.036,55,79.036z"/></g><g><rect style="fill:#00b7e5" width="11" height="3" x="32" y="80.036"/></g><path style="fill:#bbe7f2" d="M57.655,68H55h-2.655c-0.856,0-1.671-0.365-2.24-1.005L45,63v9c0,0,2,4,10,4s10-4,10-4v-9 l-5.106,3.995C59.326,67.635,58.511,68,57.655,68z"/><path style="fill:#e1f5fa" d="M50.105,66.995L45,63v9.036c0,0,2,4,10,4V68h-2.655C51.489,68,50.674,67.635,50.105,66.995z"/><path style="fill:#e1f5fa" d="M70,45.036c-1,0-1,1.111-1,1.111V45c-0.006-2.843-0.111-5.582-0.661-8H55H41.661 c-0.549,2.418-0.655,5.157-0.661,8v1.148c0,0,0-1.111-1-1.111s-2,1.111-2,2.222c0,3.259,0.961,7.568,3.807,7.76L45,63l5.105,3.995 c0.569,0.64,1.384,1.005,2.24,1.005H55h2.655c0.856,0,1.671-0.365,2.24-1.005L65,63l3.193-7.982 C71.039,54.827,72,50.517,72,47.258C72,46.148,71,45.036,70,45.036z"/><path style="fill:#fff" d="M41.661,37c-0.549,2.418-0.655,5.157-0.661,8v1.148c0,0,0-1.111-1-1.111s-2,1.111-2,2.222 c0,3.259,0.961,7.568,3.807,7.76L45,63l5.105,3.995c0.569,0.64,1.384,1.005,2.24,1.005H55V37H41.661z"/><g><path style="fill:#0c333d" d="M52,47.036c0-1.104-0.896-2-2-2c-0.002,0-0.004,0-0.006,0C49.995,45.058,50,45.078,50,45.099 c0,1.103-0.892,1.996-1.994,2c0.033,1.075,0.91,1.938,1.994,1.938C51.104,49.036,52,48.141,52,47.036z"/></g><g><path style="fill:#0c333d" d="M61.994,47.036c0-1.104-0.896-2-2-2c-0.002,0-0.004,0-0.006,0 c0.001,0.021,0.006,0.041,0.006,0.062c0,1.103-0.892,1.996-1.994,2c0.033,1.075,0.91,1.938,1.994,1.938 C61.098,49.036,61.994,48.141,61.994,47.036z"/></g><g><path style="fill:#0081a1" d="M55,51.036c-7,0-5,6-13,6c0,5,7,12,13,12s13-7,13-12C60,57.036,62,51.036,55,51.036z"/></g><path style="fill:#0f6175" d="M67,50h2v-1.172c0-1.811,0-2.792,2-3.792V37h-4V50z"/><path style="fill:#0f6175" d="M39,37v8.036c2,1,2,1.981,2,3.792V50h2V37H39z"/><g><path style="fill:#0081a1" d="M71,37H39v-6.25c0-4.28,3.47-7.75,7.75-7.75h16.5c4.28,0,7.75,3.47,7.75,7.75V37z"/></g><g><path style="fill:#009fc7" d="M55,23h-8.25C42.47,23,39,26.47,39,30.75V37h16V23z"/></g><g><path style="fill:#009fc7" d="M42,57.036c0,5,7,12,13,12v-18C48,51.036,50,57.036,42,57.036z"/></g><g><rect style="fill:#00b7e5" width="32" height="2" x="39" y="37"/></g></g></g><g id="Green" style="display:none"><g style="display:inline"><g><path style="fill:#00b8a5" d="M83,76c-0.615-1.333-1.698-2.395-3.044-2.983L68,69H55H42l-11.958,4.017 C28.698,73.605,27.615,74.667,27,76l-4,11h32h32L83,76z"/></g><g><path style="fill:#fff" d="M55,79.036c3.857,0,13-1,13-7c0-0.676,0-1.789,0-3.072h-3v3.072c0,0-2,4-10,4s-10-4-10-4v-3.072 h-3c0,1.283,0,2.396,0,3.072C42,78.036,51.143,79.036,55,79.036z"/></g><g><rect style="fill:#00d6c1" width="11" height="3" x="32" y="80.036"/></g><path style="fill:#aaf0e9" d="M57.655,68H55h-2.655c-0.856,0-1.671-0.365-2.24-1.005L45,63v9c0,0,2,4,10,4s10-4,10-4v-9 l-5.106,3.995C59.326,67.635,58.511,68,57.655,68z"/><path style="fill:#d7fcf9" d="M50.105,66.995L45,63v9.036c0,0,2,4,10,4V68h-2.655C51.489,68,50.674,67.635,50.105,66.995z"/><path style="fill:#d7fcf9" d="M70,45.036c-1,0-1,1.111-1,1.111V45c-0.006-2.843-0.111-5.582-0.661-8H55H41.661 c-0.549,2.418-0.655,5.157-0.661,8v1.147c0,0,0-1.111-1-1.111s-2,1.111-2,2.222c0,3.259,0.961,7.568,3.807,7.76L45,63l5.105,3.995 c0.569,0.64,1.384,1.005,2.24,1.005H55h2.655c0.856,0,1.671-0.365,2.24-1.005L65,63l3.193-7.982 C71.039,54.827,72,50.517,72,47.258C72,46.147,71,45.036,70,45.036z"/><path style="fill:#fff" d="M41.661,37c-0.549,2.418-0.655,5.157-0.661,8v1.147c0,0,0-1.111-1-1.111s-2,1.111-2,2.222 c0,3.259,0.961,7.568,3.807,7.76L45,63l5.105,3.995c0.569,0.64,1.384,1.005,2.24,1.005H55V37H41.661z"/><g><path style="fill:#0a3631" d="M52,47.036c0-1.104-0.896-2-2-2c-0.002,0-0.004,0.001-0.006,0.001 C49.995,45.058,50,45.078,50,45.099c0,1.103-0.892,1.996-1.994,2c0.033,1.075,0.91,1.938,1.994,1.938 C51.104,49.036,52,48.141,52,47.036z"/></g><g><path style="fill:#0a3631" d="M61.994,47.036c0-1.104-0.896-2-2-2c-0.002,0-0.004,0.001-0.006,0.001 c0.001,0.021,0.006,0.041,0.006,0.062c0,1.103-0.892,1.996-1.994,2c0.033,1.075,0.91,1.938,1.994,1.938 C61.098,49.036,61.994,48.141,61.994,47.036z"/></g><g><path style="fill:#009687" d="M55,51.036c-7,0-5,6-13,6c0,5,7,12,13,12s13-7,13-12C60,57.036,62,51.036,55,51.036z"/></g><path style="fill:#14635b" d="M67,50h2v-1.172c0-1.811,0-2.792,2-3.792V37h-4V50z"/><path style="fill:#14635b" d="M39,37v8.036c2,1,2,1.981,2,3.792V50h2V37H39z"/><g><path style="fill:#009687" d="M71,37H39v-6.25c0-4.28,3.47-7.75,7.75-7.75h16.5c4.28,0,7.75,3.47,7.75,7.75V37z"/></g><g><path style="fill:#00b8a5" d="M55,23h-8.25C42.47,23,39,26.47,39,30.75V37h16V23z"/></g><g><path style="fill:#00b8a5" d="M42,57.036c0,5,7,12,13,12v-18C48,51.036,50,57.036,42,57.036z"/></g><g><rect style="fill:#00d6c1" width="32" height="2" x="39" y="37"/></g></g></g><g id="R-Green" style="display:none"><g style="display:inline"><circle style="fill:#77e0c4" cx="55" cy="55" r="55"/></g><g style="display:inline"><g><path style="fill:#00b8a5" d="M83,76c-0.615-1.333-1.698-2.394-3.044-2.983L68,69H55H42l-11.958,4.017 C28.698,73.606,27.615,74.667,27,76l-4,11h32h32L83,76z"/></g><g><path style="fill:#fff" d="M55,79.036c3.857,0,13-1,13-7c0-0.676,0-1.789,0-3.072h-3v3.072c0,0-2,4-10,4s-10-4-10-4v-3.072 h-3c0,1.283,0,2.396,0,3.072C42,78.036,51.143,79.036,55,79.036z"/></g><g><rect style="fill:#00d6c1" width="11" height="3" x="32" y="80.036"/></g><path style="fill:#aaf0e9" d="M57.655,68H55h-2.655c-0.856,0-1.671-0.365-2.24-1.005L45,63v9c0,0,2,4,10,4s10-4,10-4v-9 l-5.106,3.995C59.326,67.635,58.511,68,57.655,68z"/><path style="fill:#d7fcf9" d="M50.105,66.995L45,63v9.036c0,0,2,4,10,4V68h-2.655C51.489,68,50.674,67.635,50.105,66.995z"/><path style="fill:#d7fcf9" d="M70,45.036c-1,0-1,1.111-1,1.111V45c-0.006-2.843-0.111-5.582-0.661-8H55H41.661 c-0.549,2.418-0.655,5.157-0.661,8v1.148c0,0,0-1.111-1-1.111s-2,1.111-2,2.222c0,3.259,0.961,7.568,3.807,7.76L45,63l5.105,3.995 c0.569,0.64,1.384,1.005,2.24,1.005H55h2.655c0.856,0,1.671-0.365,2.24-1.005L65,63l3.193-7.982 C71.039,54.827,72,50.517,72,47.258C72,46.148,71,45.036,70,45.036z"/><path style="fill:#fff" d="M41.661,37c-0.549,2.418-0.655,5.157-0.661,8v1.148c0,0,0-1.111-1-1.111s-2,1.111-2,2.222 c0,3.259,0.961,7.568,3.807,7.76L45,63l5.105,3.995c0.569,0.64,1.384,1.005,2.24,1.005H55V37H41.661z"/><g><path style="fill:#0a3631" d="M52,47.036c0-1.104-0.896-2-2-2c-0.002,0-0.004,0-0.006,0C49.995,45.058,50,45.078,50,45.099 c0,1.103-0.892,1.996-1.994,2c0.033,1.075,0.91,1.938,1.994,1.938C51.104,49.036,52,48.141,52,47.036z"/></g><g><path style="fill:#0a3631" d="M61.994,47.036c0-1.104-0.896-2-2-2c-0.002,0-0.004,0-0.006,0 c0.001,0.021,0.006,0.041,0.006,0.062c0,1.103-0.892,1.996-1.994,2c0.033,1.075,0.91,1.938,1.994,1.938 C61.098,49.036,61.994,48.141,61.994,47.036z"/></g><g><path style="fill:#009687" d="M55,51.036c-7,0-5,6-13,6c0,5,7,12,13,12s13-7,13-12C60,57.036,62,51.036,55,51.036z"/></g><path style="fill:#14635b" d="M67,50h2v-1.172c0-1.811,0-2.792,2-3.792V37h-4V50z"/><path style="fill:#14635b" d="M39,37v8.036c2,1,2,1.981,2,3.792V50h2V37H39z"/><g><path style="fill:#009687" d="M71,37H39v-6.25c0-4.28,3.47-7.75,7.75-7.75h16.5c4.28,0,7.75,3.47,7.75,7.75V37z"/></g><g><path style="fill:#00b8a5" d="M55,23h-8.25C42.47,23,39,26.47,39,30.75V37h16V23z"/></g><g><path style="fill:#00b8a5" d="M42,57.036c0,5,7,12,13,12v-18C48,51.036,50,57.036,42,57.036z"/></g><g><rect style="fill:#00d6c1" width="32" height="2" x="39" y="37"/></g></g></g><g id="Red" style="display:none"><g style="display:inline"><g><path style="fill:#e54b44" d="M83,76c-0.615-1.333-1.698-2.394-3.044-2.983L68,69H55H42l-11.958,4.017 C28.698,73.606,27.615,74.667,27,76l-4,11h32h32L83,76z"/></g><g><path style="fill:#fff" d="M55,79.036c3.857,0,13-1,13-7c0-0.676,0-1.789,0-3.072h-3v3.072c0,0-2,4-10,4s-10-4-10-4v-3.072 h-3c0,1.283,0,2.396,0,3.072C42,78.036,51.143,79.036,55,79.036z"/></g><g><rect style="fill:#ff6c5e" width="11" height="3" x="32" y="80.036"/></g><path style="fill:#ffd7d4" d="M57.655,68H55h-2.655c-0.856,0-1.671-0.365-2.24-1.005L45,63v9c0,0,2,4,10,4s10-4,10-4v-9 l-5.106,3.995C59.326,67.635,58.511,68,57.655,68z"/><path style="fill:#ffefed" d="M50.105,66.995L45,63v9.036c0,0,2,4,10,4V68h-2.655C51.489,68,50.674,67.635,50.105,66.995z"/><path style="fill:#ffefed" d="M70,45.036c-1,0-1,1.111-1,1.111V45c-0.006-2.843-0.111-5.582-0.661-8H55H41.661 c-0.549,2.418-0.655,5.157-0.661,8v1.148c0,0,0-1.111-1-1.111s-2,1.111-2,2.222c0,3.259,0.961,7.568,3.807,7.76L45,63l5.105,3.995 c0.569,0.64,1.384,1.005,2.24,1.005H55h2.655c0.856,0,1.671-0.365,2.24-1.005L65,63l3.193-7.982 C71.039,54.827,72,50.517,72,47.258C72,46.148,71,45.036,70,45.036z"/><path style="fill:#fff" d="M41.661,37c-0.549,2.418-0.655,5.157-0.661,8v1.148c0,0,0-1.111-1-1.111s-2,1.111-2,2.222 c0,3.259,0.961,7.568,3.807,7.76L45,63l5.105,3.995c0.569,0.64,1.384,1.005,2.24,1.005H55V37H41.661z"/><g><path style="fill:#4a1410" d="M52,47.036c0-1.104-0.896-2-2-2c-0.002,0-0.004,0-0.006,0C49.995,45.058,50,45.078,50,45.099 c0,1.103-0.892,1.996-1.994,2c0.033,1.075,0.91,1.938,1.994,1.938C51.104,49.036,52,48.141,52,47.036z"/></g><g><path style="fill:#4a1410" d="M61.994,47.036c0-1.104-0.896-2-2-2c-0.002,0-0.004,0-0.006,0 c0.001,0.021,0.006,0.041,0.006,0.062c0,1.103-0.892,1.996-1.994,2c0.033,1.075,0.91,1.938,1.994,1.938 C61.098,49.036,61.994,48.141,61.994,47.036z"/></g><g><path style="fill:#c23023" d="M55,51.036c-7,0-5,6-13,6c0,5,7,12,13,12s13-7,13-12C60,57.036,62,51.036,55,51.036z"/></g><path style="fill:#7d261e" d="M67,50h2v-1.172c0-1.811,0-2.792,2-3.792V37h-4V50z"/><path style="fill:#7d261e" d="M39,37v8.036c2,1,2,1.981,2,3.792V50h2V37H39z"/><g><path style="fill:#c23023" d="M71,37H39v-6.25c0-4.28,3.47-7.75,7.75-7.75h16.5c4.28,0,7.75,3.47,7.75,7.75V37z"/></g><g><path style="fill:#e54b44" d="M55,23h-8.25C42.47,23,39,26.47,39,30.75V37h16V23z"/></g><g><path style="fill:#e54b44" d="M42,57.036c0,5,7,12,13,12v-18C48,51.036,50,57.036,42,57.036z"/></g><g><rect style="fill:#ff6c5e" width="32" height="2" x="39" y="37"/></g></g></g><g id="R-Red" style="display:none"><g style="display:inline"><circle style="fill:#fabbaf" cx="55" cy="55" r="55"/></g><g style="display:inline"><g><path style="fill:#e54b44" d="M83,76c-0.615-1.333-1.698-2.394-3.044-2.983L68,69H55H42l-11.958,4.017 C28.698,73.606,27.615,74.667,27,76l-4,11h32h32L83,76z"/></g><g><path style="fill:#fff" d="M55,79.036c3.857,0,13-1,13-7c0-0.676,0-1.789,0-3.072h-3v3.072c0,0-2,4-10,4s-10-4-10-4v-3.072 h-3c0,1.283,0,2.396,0,3.072C42,78.036,51.143,79.036,55,79.036z"/></g><g><rect style="fill:#ff6c5e" width="11" height="3" x="32" y="80.036"/></g><path style="fill:#ffd7d4" d="M57.655,68H55h-2.655c-0.856,0-1.671-0.365-2.24-1.005L45,63v9c0,0,2,4,10,4s10-4,10-4v-9 l-5.106,3.995C59.326,67.635,58.511,68,57.655,68z"/><path style="fill:#ffefed" d="M50.105,66.995L45,63v9.036c0,0,2,4,10,4V68h-2.655C51.489,68,50.674,67.635,50.105,66.995z"/><path style="fill:#ffefed" d="M70,45.036c-1,0-1,1.111-1,1.111V45c-0.006-2.843-0.111-5.582-0.661-8H55H41.661 c-0.549,2.418-0.655,5.157-0.661,8v1.148c0,0,0-1.111-1-1.111s-2,1.111-2,2.222c0,3.259,0.961,7.568,3.807,7.76L45,63l5.105,3.995 c0.569,0.64,1.384,1.005,2.24,1.005H55h2.655c0.856,0,1.671-0.365,2.24-1.005L65,63l3.193-7.982 C71.039,54.827,72,50.517,72,47.258C72,46.148,71,45.036,70,45.036z"/><path style="fill:#fff" d="M41.661,37c-0.549,2.418-0.655,5.157-0.661,8v1.148c0,0,0-1.111-1-1.111s-2,1.111-2,2.222 c0,3.259,0.961,7.568,3.807,7.76L45,63l5.105,3.995c0.569,0.64,1.384,1.005,2.24,1.005H55V37H41.661z"/><g><path style="fill:#4a1410" d="M52,47.036c0-1.104-0.896-2-2-2c-0.002,0-0.004,0-0.006,0C49.995,45.058,50,45.078,50,45.099 c0,1.103-0.892,1.996-1.994,2c0.033,1.075,0.91,1.938,1.994,1.938C51.104,49.036,52,48.141,52,47.036z"/></g><g><path style="fill:#4a1410" d="M61.994,47.036c0-1.104-0.896-2-2-2c-0.002,0-0.004,0-0.006,0 c0.001,0.021,0.006,0.041,0.006,0.062c0,1.103-0.892,1.996-1.994,2c0.033,1.075,0.91,1.938,1.994,1.938 C61.098,49.036,61.994,48.141,61.994,47.036z"/></g><g><path style="fill:#c23023" d="M55,51.036c-7,0-5,6-13,6c0,5,7,12,13,12s13-7,13-12C60,57.036,62,51.036,55,51.036z"/></g><path style="fill:#7d261e" d="M67,50h2v-1.172c0-1.811,0-2.792,2-3.792V37h-4V50z"/><path style="fill:#7d261e" d="M39,37v8.036c2,1,2,1.981,2,3.792V50h2V37H39z"/><g><path style="fill:#c23023" d="M71,37H39v-6.25c0-4.28,3.47-7.75,7.75-7.75h16.5c4.28,0,7.75,3.47,7.75,7.75V37z"/></g><g><path style="fill:#e54b44" d="M55,23h-8.25C42.47,23,39,26.47,39,30.75V37h16V23z"/></g><g><path style="fill:#e54b44" d="M42,57.036c0,5,7,12,13,12v-18C48,51.036,50,57.036,42,57.036z"/></g><g><rect style="fill:#ff6c5e" width="32" height="2" x="39" y="37"/></g></g></g><g id="Yellow" style="display:none"><g style="display:inline"><g><path style="fill:#fa9200" d="M83,76c-0.615-1.333-1.698-2.394-3.044-2.983L68,69H55H42l-11.958,4.017 C28.698,73.606,27.615,74.667,27,76l-4,11h32h32L83,76z"/></g><g><path style="fill:#fff" d="M55,79.036c3.857,0,13-1,13-7c0-0.676,0-1.789,0-3.072h-3v3.072c0,0-2,4-10,4s-10-4-10-4v-3.072 h-3c0,1.283,0,2.396,0,3.072C42,78.036,51.143,79.036,55,79.036z"/></g><g><rect style="fill:#fa0" width="11" height="3" x="32" y="80.036"/></g><path style="fill:#ffe9a1" d="M57.655,68H55h-2.655c-0.856,0-1.671-0.365-2.24-1.005L45,63v9c0,0,2,4,10,4s10-4,10-4v-9 l-5.106,3.995C59.326,67.635,58.511,68,57.655,68z"/><path style="fill:#fff5d9" d="M50.105,66.995L45,63v9.036c0,0,2,4,10,4V68h-2.655C51.489,68,50.674,67.635,50.105,66.995z"/><path style="fill:#fff5d9" d="M70,45.036c-1,0-1,1.111-1,1.111V45c-0.006-2.843-0.111-5.582-0.661-8H55H41.661 c-0.549,2.418-0.655,5.157-0.661,8v1.148c0,0,0-1.111-1-1.111s-2,1.111-2,2.222c0,3.259,0.961,7.568,3.807,7.76L45,63l5.105,3.995 c0.569,0.64,1.384,1.005,2.24,1.005H55h2.655c0.856,0,1.671-0.365,2.24-1.005L65,63l3.193-7.982 C71.039,54.827,72,50.517,72,47.258C72,46.148,71,45.036,70,45.036z"/><path style="fill:#fff" d="M41.661,37c-0.549,2.418-0.655,5.157-0.661,8v1.148c0,0,0-1.111-1-1.111s-2,1.111-2,2.222 c0,3.259,0.961,7.568,3.807,7.76L45,63l5.105,3.995c0.569,0.64,1.384,1.005,2.24,1.005H55V37H41.661z"/><g><path style="fill:#3d320c" d="M52,47.036c0-1.104-0.896-2-2-2c-0.002,0-0.004,0-0.006,0C49.995,45.058,50,45.078,50,45.099 c0,1.103-0.892,1.996-1.994,2c0.033,1.075,0.91,1.938,1.994,1.938C51.104,49.036,52,48.141,52,47.036z"/></g><g><path style="fill:#3d320c" d="M61.994,47.036c0-1.104-0.896-2-2-2c-0.002,0-0.004,0-0.006,0 c0.001,0.021,0.006,0.041,0.006,0.062c0,1.103-0.892,1.996-1.994,2c0.033,1.075,0.91,1.938,1.994,1.938 C61.098,49.036,61.994,48.141,61.994,47.036z"/></g><g><path style="fill:#e07000" d="M55,51.036c-7,0-5,6-13,6c0,5,7,12,13,12s13-7,13-12C60,57.036,62,51.036,55,51.036z"/></g><path style="fill:#66510d" d="M67,50h2v-1.172c0-1.811,0-2.792,2-3.792V37h-4V50z"/><path style="fill:#66510d" d="M39,37v8.036c2,1,2,1.981,2,3.792V50h2V37H39z"/><g><path style="fill:#e07000" d="M71,37H39v-6.25c0-4.28,3.47-7.75,7.75-7.75h16.5c4.28,0,7.75,3.47,7.75,7.75V37z"/></g><g><path style="fill:#fa9200" d="M55,23h-8.25C42.47,23,39,26.47,39,30.75V37h16V23z"/></g><g><path style="fill:#fa9200" d="M42,57.036c0,5,7,12,13,12v-18C48,51.036,50,57.036,42,57.036z"/></g><g><rect style="fill:#fa0" width="32" height="2" x="39" y="37"/></g></g></g><g id="R-Yellow" style="display:none"><g style="display:inline"><circle style="fill:#ffd75e" cx="55" cy="55" r="55"/></g><g style="display:inline"><g><path style="fill:#fa9200" d="M83,76c-0.615-1.333-1.698-2.394-3.044-2.983L68,69H55H42l-11.958,4.017 C28.698,73.606,27.615,74.667,27,76l-4,11h32h32L83,76z"/></g><g><path style="fill:#fff" d="M55,79.036c3.857,0,13-1,13-7c0-0.676,0-1.789,0-3.072h-3v3.072c0,0-2,4-10,4s-10-4-10-4v-3.072 h-3c0,1.283,0,2.396,0,3.072C42,78.036,51.143,79.036,55,79.036z"/></g><g><rect style="fill:#fa0" width="11" height="3" x="32" y="80.036"/></g><path style="fill:#ffe9a1" d="M57.655,68H55h-2.655c-0.856,0-1.671-0.365-2.24-1.005L45,63v9c0,0,2,4,10,4s10-4,10-4v-9 l-5.106,3.995C59.326,67.635,58.511,68,57.655,68z"/><path style="fill:#fff5d9" d="M50.105,66.995L45,63v9.036c0,0,2,4,10,4V68h-2.655C51.489,68,50.674,67.635,50.105,66.995z"/><path style="fill:#fff5d9" d="M70,45.036c-1,0-1,1.111-1,1.111V45c-0.006-2.843-0.111-5.582-0.661-8H55H41.661 c-0.549,2.418-0.655,5.157-0.661,8v1.148c0,0,0-1.111-1-1.111s-2,1.111-2,2.222c0,3.259,0.961,7.568,3.807,7.76L45,63l5.105,3.995 c0.569,0.64,1.384,1.005,2.24,1.005H55h2.655c0.856,0,1.671-0.365,2.24-1.005L65,63l3.193-7.982 C71.039,54.827,72,50.517,72,47.258C72,46.148,71,45.036,70,45.036z"/><path style="fill:#fff" d="M41.661,37c-0.549,2.418-0.655,5.157-0.661,8v1.148c0,0,0-1.111-1-1.111s-2,1.111-2,2.222 c0,3.259,0.961,7.568,3.807,7.76L45,63l5.105,3.995c0.569,0.64,1.384,1.005,2.24,1.005H55V37H41.661z"/><g><path style="fill:#3d320c" d="M52,47.036c0-1.104-0.896-2-2-2c-0.002,0-0.004,0-0.006,0C49.995,45.058,50,45.078,50,45.099 c0,1.103-0.892,1.996-1.994,2c0.033,1.075,0.91,1.938,1.994,1.938C51.104,49.036,52,48.141,52,47.036z"/></g><g><path style="fill:#3d320c" d="M61.994,47.036c0-1.104-0.896-2-2-2c-0.002,0-0.004,0-0.006,0 c0.001,0.021,0.006,0.041,0.006,0.062c0,1.103-0.892,1.996-1.994,2c0.033,1.075,0.91,1.938,1.994,1.938 C61.098,49.036,61.994,48.141,61.994,47.036z"/></g><g><path style="fill:#e07000" d="M55,51.036c-7,0-5,6-13,6c0,5,7,12,13,12s13-7,13-12C60,57.036,62,51.036,55,51.036z"/></g><path style="fill:#66510d" d="M67,50h2v-1.172c0-1.811,0-2.792,2-3.792V37h-4V50z"/><path style="fill:#66510d" d="M39,37v8.036c2,1,2,1.981,2,3.792V50h2V37H39z"/><g><path style="fill:#e07000" d="M71,37H39v-6.25c0-4.28,3.47-7.75,7.75-7.75h16.5c4.28,0,7.75,3.47,7.75,7.75V37z"/></g><g><path style="fill:#fa9200" d="M55,23h-8.25C42.47,23,39,26.47,39,30.75V37h16V23z"/></g><g><path style="fill:#fa9200" d="M42,57.036c0,5,7,12,13,12v-18C48,51.036,50,57.036,42,57.036z"/></g><g><rect style="fill:#fa0" width="32" height="2" x="39" y="37"/></g></g></g></svg>