<svg xmlns="http://www.w3.org/2000/svg" xmlns:xlink="http://www.w3.org/1999/xlink" width="110" height="110" x="0" y="0" version="1.0" viewBox="0 0 110 110" xml:space="preserve" style="enable-background:new 0 0 110 110"><g id="Artboard" style="display:none"><rect style="display:inline;fill:gray;stroke:#000;stroke-miterlimit:10" width="1366" height="606" x="-573.5" y="-46.5"/></g><g id="R-Multicolor" style="display:none"><circle style="display:inline;fill:#32bea6" cx="55" cy="55" r="55"/><g style="display:inline"><rect style="fill:#fff" width="20" height="37" x="63" y="43"/><rect style="fill:#fff" width="20" height="37" x="27" y="43"/><rect style="fill:#f0f1f1" width="28" height="7" x="23" y="80"/><rect style="fill:#f0f1f1" width="16" height="4" x="29" y="39"/><rect style="fill:#e2e4e5" width="12" height="6" x="31" y="33"/><polygon style="fill:#f0f1f1" points="31 33 37 23 43 33"/><rect style="fill:#f0f1f1" width="28" height="7" x="59" y="80"/><rect style="fill:#f0f1f1" width="16" height="4" x="65" y="39"/><rect style="fill:#e2e4e5" width="12" height="6" x="67" y="33"/><polygon style="fill:#f0f1f1" points="67 33 73 23 79 33"/><path style="fill:#f0f1f1" d="M47,54v8h16v-8H47z M59,60h-8v-4h8V60z"/><rect style="fill:#40c9e7" width="14" height="2" x="30" y="48"/><rect style="fill:#40c9e7" width="14" height="2" x="30" y="53"/><rect style="fill:#40c9e7" width="14" height="2" x="30" y="58"/><rect style="fill:#40c9e7" width="14" height="2" x="30" y="63"/><rect style="fill:#40c9e7" width="14" height="2" x="30" y="68"/><rect style="fill:#40c9e7" width="14" height="2" x="30" y="73"/><rect style="fill:#40c9e7" width="14" height="2" x="66" y="48"/><rect style="fill:#40c9e7" width="14" height="2" x="66" y="53"/><rect style="fill:#40c9e7" width="14" height="2" x="66" y="58"/><rect style="fill:#40c9e7" width="14" height="2" x="66" y="63"/><rect style="fill:#40c9e7" width="14" height="2" x="66" y="68"/><rect style="fill:#40c9e7" width="14" height="2" x="66" y="73"/><polygon style="fill:#fff" points="37 23 31 33 37 33"/><polygon style="fill:#fff" points="73 23 67 33 73 33"/></g></g><g id="Multicolor_1_"><g><rect style="fill:#fff" width="20" height="37" x="63" y="43"/><rect style="fill:#fff" width="20" height="37" x="27" y="43"/><rect style="fill:#f0f1f1" width="28" height="7" x="23" y="80"/><rect style="fill:#f0f1f1" width="16" height="4" x="29" y="39"/><rect style="fill:#e2e4e5" width="12" height="6" x="31" y="33"/><polygon style="fill:#f0f1f1" points="31 33 37 23 43 33"/><rect style="fill:#f0f1f1" width="28" height="7" x="59" y="80"/><rect style="fill:#f0f1f1" width="16" height="4" x="65" y="39"/><rect style="fill:#e2e4e5" width="12" height="6" x="67" y="33"/><polygon style="fill:#f0f1f1" points="67 33 73 23 79 33"/><path style="fill:#f0f1f1" d="M47,54v8h16v-8H47z M59,60h-8v-4h8V60z"/><rect style="fill:#40c9e7" width="14" height="2" x="30" y="48"/><rect style="fill:#40c9e7" width="14" height="2" x="30" y="53"/><rect style="fill:#40c9e7" width="14" height="2" x="30" y="58"/><rect style="fill:#40c9e7" width="14" height="2" x="30" y="63"/><rect style="fill:#40c9e7" width="14" height="2" x="30" y="68"/><rect style="fill:#40c9e7" width="14" height="2" x="30" y="73"/><rect style="fill:#40c9e7" width="14" height="2" x="66" y="48"/><rect style="fill:#40c9e7" width="14" height="2" x="66" y="53"/><rect style="fill:#40c9e7" width="14" height="2" x="66" y="58"/><rect style="fill:#40c9e7" width="14" height="2" x="66" y="63"/><rect style="fill:#40c9e7" width="14" height="2" x="66" y="68"/><rect style="fill:#40c9e7" width="14" height="2" x="66" y="73"/><polygon style="fill:#fff" points="37 23 31 33 37 33"/><polygon style="fill:#fff" points="73 23 67 33 73 33"/></g></g><g id="Blue" style="display:none"><g style="display:inline"><g><rect style="fill:#fff" width="20" height="37" x="63" y="43"/></g><g><rect style="fill:#fff" width="20" height="37" x="27" y="43"/></g><g><rect style="fill:#0f6175" width="28" height="7" x="23" y="80"/></g><g><rect style="fill:#e1f5fa" width="16" height="4" x="29" y="39"/></g><g><rect style="fill:#bbe7f2" width="12" height="6" x="31" y="33"/></g><g><polygon style="fill:#0081a1" points="31 33 37 23 43 33"/></g><g><rect style="fill:#0f6175" width="28" height="7" x="59" y="80"/></g><g><rect style="fill:#e1f5fa" width="16" height="4" x="65" y="39"/></g><g><rect style="fill:#bbe7f2" width="12" height="6" x="67" y="33"/></g><g><polygon style="fill:#0081a1" points="67 33 73 23 79 33"/></g><g><path style="fill:#bbe7f2" d="M47,54v8h16v-8H47z M59,60h-8v-4h8V60z"/></g><g><g><rect style="fill:#81d2eb" width="14" height="2" x="30" y="48"/></g><g><rect style="fill:#81d2eb" width="14" height="2" x="30" y="53"/></g><g><rect style="fill:#81d2eb" width="14" height="2" x="30" y="58"/></g><g><rect style="fill:#81d2eb" width="14" height="2" x="30" y="63"/></g><g><rect style="fill:#81d2eb" width="14" height="2" x="30" y="68"/></g><g><rect style="fill:#81d2eb" width="14" height="2" x="30" y="73"/></g><g><rect style="fill:#81d2eb" width="14" height="2" x="66" y="48"/></g><g><rect style="fill:#81d2eb" width="14" height="2" x="66" y="53"/></g><g><rect style="fill:#81d2eb" width="14" height="2" x="66" y="58"/></g><g><rect style="fill:#81d2eb" width="14" height="2" x="66" y="63"/></g><g><rect style="fill:#81d2eb" width="14" height="2" x="66" y="68"/></g><g><rect style="fill:#81d2eb" width="14" height="2" x="66" y="73"/></g></g><g><polygon style="fill:#009fc7" points="37 23 31 33 37 33"/></g><g><polygon style="fill:#009fc7" points="73 23 67 33 73 33"/></g></g></g><g id="R-Blue" style="display:none"><g style="display:inline"><circle style="fill:#81d2eb" cx="55" cy="55" r="55"/></g><g style="display:inline"><g><rect style="fill:#fff" width="20" height="37" x="63" y="43"/></g><g><rect style="fill:#fff" width="20" height="37" x="27" y="43"/></g><g><rect style="fill:#0f6175" width="28" height="7" x="23" y="80"/></g><g><rect style="fill:#e1f5fa" width="16" height="4" x="29" y="39"/></g><g><rect style="fill:#bbe7f2" width="12" height="6" x="31" y="33"/></g><g><polygon style="fill:#0081a1" points="31 33 37 23 43 33"/></g><g><rect style="fill:#0f6175" width="28" height="7" x="59" y="80"/></g><g><rect style="fill:#e1f5fa" width="16" height="4" x="65" y="39"/></g><g><rect style="fill:#bbe7f2" width="12" height="6" x="67" y="33"/></g><g><polygon style="fill:#0081a1" points="67 33 73 23 79 33"/></g><g><path style="fill:#bbe7f2" d="M47,54v8h16v-8H47z M59,60h-8v-4h8V60z"/></g><g><g><rect style="fill:#81d2eb" width="14" height="2" x="30" y="48"/></g><g><rect style="fill:#81d2eb" width="14" height="2" x="30" y="53"/></g><g><rect style="fill:#81d2eb" width="14" height="2" x="30" y="58"/></g><g><rect style="fill:#81d2eb" width="14" height="2" x="30" y="63"/></g><g><rect style="fill:#81d2eb" width="14" height="2" x="30" y="68"/></g><g><rect style="fill:#81d2eb" width="14" height="2" x="30" y="73"/></g><g><rect style="fill:#81d2eb" width="14" height="2" x="66" y="48"/></g><g><rect style="fill:#81d2eb" width="14" height="2" x="66" y="53"/></g><g><rect style="fill:#81d2eb" width="14" height="2" x="66" y="58"/></g><g><rect style="fill:#81d2eb" width="14" height="2" x="66" y="63"/></g><g><rect style="fill:#81d2eb" width="14" height="2" x="66" y="68"/></g><g><rect style="fill:#81d2eb" width="14" height="2" x="66" y="73"/></g></g><g><polygon style="fill:#009fc7" points="37 23 31 33 37 33"/></g><g><polygon style="fill:#009fc7" points="73 23 67 33 73 33"/></g></g></g><g id="Green" style="display:none"><g style="display:inline"><g><rect style="fill:#fff" width="20" height="37" x="63" y="43"/></g><g><rect style="fill:#fff" width="20" height="37" x="27" y="43"/></g><g><rect style="fill:#14635b" width="28" height="7" x="23" y="80"/></g><g><rect style="fill:#d7fcf9" width="16" height="4" x="29" y="39"/></g><g><rect style="fill:#aaf0e9" width="12" height="6" x="31" y="33"/></g><g><polygon style="fill:#009687" points="31 33 37 23 43 33"/></g><g><rect style="fill:#14635b" width="28" height="7" x="59" y="80"/></g><g><rect style="fill:#d7fcf9" width="16" height="4" x="65" y="39"/></g><g><rect style="fill:#aaf0e9" width="12" height="6" x="67" y="33"/></g><g><polygon style="fill:#009687" points="67 33 73 23 79 33"/></g><g><path style="fill:#aaf0e9" d="M47,54v8h16v-8H47z M59,60h-8v-4h8V60z"/></g><g><g><rect style="fill:#87e0c8" width="14" height="2" x="30" y="48"/></g><g><rect style="fill:#87e0c8" width="14" height="2" x="30" y="53"/></g><g><rect style="fill:#87e0c8" width="14" height="2" x="30" y="58"/></g><g><rect style="fill:#87e0c8" width="14" height="2" x="30" y="63"/></g><g><rect style="fill:#87e0c8" width="14" height="2" x="30" y="68"/></g><g><rect style="fill:#87e0c8" width="14" height="2" x="30" y="73"/></g><g><rect style="fill:#87e0c8" width="14" height="2" x="66" y="48"/></g><g><rect style="fill:#87e0c8" width="14" height="2" x="66" y="53"/></g><g><rect style="fill:#87e0c8" width="14" height="2" x="66" y="58"/></g><g><rect style="fill:#87e0c8" width="14" height="2" x="66" y="63"/></g><g><rect style="fill:#87e0c8" width="14" height="2" x="66" y="68"/></g><g><rect style="fill:#87e0c8" width="14" height="2" x="66" y="73"/></g></g><g><polygon style="fill:#00b8a5" points="37 23 31 33 37 33"/></g><g><polygon style="fill:#00b8a5" points="73 23 67 33 73 33"/></g></g></g><g id="R-Green" style="display:none"><g style="display:inline"><circle style="fill:#87e0c8" cx="55" cy="55" r="55"/></g><g style="display:inline"><g><rect style="fill:#fff" width="20" height="37" x="63" y="43"/></g><g><rect style="fill:#fff" width="20" height="37" x="27" y="43"/></g><g><rect style="fill:#14635b" width="28" height="7" x="23" y="80"/></g><g><rect style="fill:#d7fcf9" width="16" height="4" x="29" y="39"/></g><g><rect style="fill:#aaf0e9" width="12" height="6" x="31" y="33"/></g><g><polygon style="fill:#009687" points="31 33 37 23 43 33"/></g><g><rect style="fill:#14635b" width="28" height="7" x="59" y="80"/></g><g><rect style="fill:#d7fcf9" width="16" height="4" x="65" y="39"/></g><g><rect style="fill:#aaf0e9" width="12" height="6" x="67" y="33"/></g><g><polygon style="fill:#009687" points="67 33 73 23 79 33"/></g><g><path style="fill:#aaf0e9" d="M47,54v8h16v-8H47z M59,60h-8v-4h8V60z"/></g><g><g><rect style="fill:#87e0c8" width="14" height="2" x="30" y="48"/></g><g><rect style="fill:#87e0c8" width="14" height="2" x="30" y="53"/></g><g><rect style="fill:#87e0c8" width="14" height="2" x="30" y="58"/></g><g><rect style="fill:#87e0c8" width="14" height="2" x="30" y="63"/></g><g><rect style="fill:#87e0c8" width="14" height="2" x="30" y="68"/></g><g><rect style="fill:#87e0c8" width="14" height="2" x="30" y="73"/></g><g><rect style="fill:#87e0c8" width="14" height="2" x="66" y="48"/></g><g><rect style="fill:#87e0c8" width="14" height="2" x="66" y="53"/></g><g><rect style="fill:#87e0c8" width="14" height="2" x="66" y="58"/></g><g><rect style="fill:#87e0c8" width="14" height="2" x="66" y="63"/></g><g><rect style="fill:#87e0c8" width="14" height="2" x="66" y="68"/></g><g><rect style="fill:#87e0c8" width="14" height="2" x="66" y="73"/></g></g><g><polygon style="fill:#00b8a5" points="37 23 31 33 37 33"/></g><g><polygon style="fill:#00b8a5" points="73 23 67 33 73 33"/></g></g></g><g id="Red" style="display:none"><g style="display:inline"><g><rect style="fill:#fff" width="20" height="37" x="63" y="43"/></g><g><rect style="fill:#fff" width="20" height="37" x="27" y="43"/></g><g><rect style="fill:#7d261e" width="28" height="7" x="23" y="80"/></g><g><rect style="fill:#ffefed" width="16" height="4" x="29" y="39"/></g><g><rect style="fill:#ffd7d4" width="12" height="6" x="31" y="33"/></g><g><polygon style="fill:#c23023" points="31 33 37 23 43 33"/></g><g><rect style="fill:#7d261e" width="28" height="7" x="59" y="80"/></g><g><rect style="fill:#ffefed" width="16" height="4" x="65" y="39"/></g><g><rect style="fill:#ffd7d4" width="12" height="6" x="67" y="33"/></g><g><polygon style="fill:#c23023" points="67 33 73 23 79 33"/></g><g><path style="fill:#ffd7d4" d="M47,54v8h16v-8H47z M59,60h-8v-4h8V60z"/></g><g><g><rect style="fill:#fabbaf" width="14" height="2" x="30" y="48"/></g><g><rect style="fill:#fabbaf" width="14" height="2" x="30" y="53"/></g><g><rect style="fill:#fabbaf" width="14" height="2" x="30" y="58"/></g><g><rect style="fill:#fabbaf" width="14" height="2" x="30" y="63"/></g><g><rect style="fill:#fabbaf" width="14" height="2" x="30" y="68"/></g><g><rect style="fill:#fabbaf" width="14" height="2" x="30" y="73"/></g><g><rect style="fill:#fabbaf" width="14" height="2" x="66" y="48"/></g><g><rect style="fill:#fabbaf" width="14" height="2" x="66" y="53"/></g><g><rect style="fill:#fabbaf" width="14" height="2" x="66" y="58"/></g><g><rect style="fill:#fabbaf" width="14" height="2" x="66" y="63"/></g><g><rect style="fill:#fabbaf" width="14" height="2" x="66" y="68"/></g><g><rect style="fill:#fabbaf" width="14" height="2" x="66" y="73"/></g></g><g><polygon style="fill:#e54b44" points="37 23 31 33 37 33"/></g><g><polygon style="fill:#e54b44" points="73 23 67 33 73 33"/></g></g></g><g id="R-Red" style="display:none"><g style="display:inline"><circle style="fill:#fabbaf" cx="55" cy="55" r="55"/></g><g style="display:inline"><g><rect style="fill:#fff" width="20" height="37" x="63" y="43"/></g><g><rect style="fill:#fff" width="20" height="37" x="27" y="43"/></g><g><rect style="fill:#7d261e" width="28" height="7" x="23" y="80"/></g><g><rect style="fill:#ffefed" width="16" height="4" x="29" y="39"/></g><g><rect style="fill:#ffd7d4" width="12" height="6" x="31" y="33"/></g><g><polygon style="fill:#c23023" points="31 33 37 23 43 33"/></g><g><rect style="fill:#7d261e" width="28" height="7" x="59" y="80"/></g><g><rect style="fill:#ffefed" width="16" height="4" x="65" y="39"/></g><g><rect style="fill:#ffd7d4" width="12" height="6" x="67" y="33"/></g><g><polygon style="fill:#c23023" points="67 33 73 23 79 33"/></g><g><path style="fill:#ffd7d4" d="M47,54v8h16v-8H47z M59,60h-8v-4h8V60z"/></g><g><g><rect style="fill:#fabbaf" width="14" height="2" x="30" y="48"/></g><g><rect style="fill:#fabbaf" width="14" height="2" x="30" y="53"/></g><g><rect style="fill:#fabbaf" width="14" height="2" x="30" y="58"/></g><g><rect style="fill:#fabbaf" width="14" height="2" x="30" y="63"/></g><g><rect style="fill:#fabbaf" width="14" height="2" x="30" y="68"/></g><g><rect style="fill:#fabbaf" width="14" height="2" x="30" y="73"/></g><g><rect style="fill:#fabbaf" width="14" height="2" x="66" y="48"/></g><g><rect style="fill:#fabbaf" width="14" height="2" x="66" y="53"/></g><g><rect style="fill:#fabbaf" width="14" height="2" x="66" y="58"/></g><g><rect style="fill:#fabbaf" width="14" height="2" x="66" y="63"/></g><g><rect style="fill:#fabbaf" width="14" height="2" x="66" y="68"/></g><g><rect style="fill:#fabbaf" width="14" height="2" x="66" y="73"/></g></g><g><polygon style="fill:#e54b44" points="37 23 31 33 37 33"/></g><g><polygon style="fill:#e54b44" points="73 23 67 33 73 33"/></g></g></g><g id="Yellow" style="display:none"><g style="display:inline"><g><rect style="fill:#fff" width="20" height="37" x="63" y="43"/></g><g><rect style="fill:#fff" width="20" height="37" x="27" y="43"/></g><g><rect style="fill:#66510d" width="28" height="7" x="23" y="80"/></g><g><rect style="fill:#fff5d9" width="16" height="4" x="29" y="39"/></g><g><rect style="fill:#ffe9a1" width="12" height="6" x="31" y="33"/></g><g><polygon style="fill:#e07000" points="31 33 37 23 43 33"/></g><g><rect style="fill:#66510d" width="28" height="7" x="59" y="80"/></g><g><rect style="fill:#fff5d9" width="16" height="4" x="65" y="39"/></g><g><rect style="fill:#ffe9a1" width="12" height="6" x="67" y="33"/></g><g><polygon style="fill:#e07000" points="67 33 73 23 79 33"/></g><g><path style="fill:#ffe9a1" d="M47,54v8h16v-8H47z M59,60h-8v-4h8V60z"/></g><g><g><rect style="fill:#ffd75e" width="14" height="2" x="30" y="48"/></g><g><rect style="fill:#ffd75e" width="14" height="2" x="30" y="53"/></g><g><rect style="fill:#ffd75e" width="14" height="2" x="30" y="58"/></g><g><rect style="fill:#ffd75e" width="14" height="2" x="30" y="63"/></g><g><rect style="fill:#ffd75e" width="14" height="2" x="30" y="68"/></g><g><rect style="fill:#ffd75e" width="14" height="2" x="30" y="73"/></g><g><rect style="fill:#ffd75e" width="14" height="2" x="66" y="48"/></g><g><rect style="fill:#ffd75e" width="14" height="2" x="66" y="53"/></g><g><rect style="fill:#ffd75e" width="14" height="2" x="66" y="58"/></g><g><rect style="fill:#ffd75e" width="14" height="2" x="66" y="63"/></g><g><rect style="fill:#ffd75e" width="14" height="2" x="66" y="68"/></g><g><rect style="fill:#ffd75e" width="14" height="2" x="66" y="73"/></g></g><g><polygon style="fill:#fa9200" points="37 23 31 33 37 33"/></g><g><polygon style="fill:#fa9200" points="73 23 67 33 73 33"/></g></g></g><g id="R-Yellow" style="display:none"><g style="display:inline"><circle style="fill:#ffd75e" cx="55" cy="55" r="55"/></g><g style="display:inline"><g><rect style="fill:#fff" width="20" height="37" x="63" y="43"/></g><g><rect style="fill:#fff" width="20" height="37" x="27" y="43"/></g><g><rect style="fill:#66510d" width="28" height="7" x="23" y="80"/></g><g><rect style="fill:#fff5d9" width="16" height="4" x="29" y="39"/></g><g><rect style="fill:#ffe9a1" width="12" height="6" x="31" y="33"/></g><g><polygon style="fill:#e07000" points="31 33 37 23 43 33"/></g><g><rect style="fill:#66510d" width="28" height="7" x="59" y="80"/></g><g><rect style="fill:#fff5d9" width="16" height="4" x="65" y="39"/></g><g><rect style="fill:#ffe9a1" width="12" height="6" x="67" y="33"/></g><g><polygon style="fill:#e07000" points="67 33 73 23 79 33"/></g><g><path style="fill:#ffe9a1" d="M47,54v8h16v-8H47z M59,60h-8v-4h8V60z"/></g><g><g><rect style="fill:#ffd75e" width="14" height="2" x="30" y="48"/></g><g><rect style="fill:#ffd75e" width="14" height="2" x="30" y="53"/></g><g><rect style="fill:#ffd75e" width="14" height="2" x="30" y="58"/></g><g><rect style="fill:#ffd75e" width="14" height="2" x="30" y="63"/></g><g><rect style="fill:#ffd75e" width="14" height="2" x="30" y="68"/></g><g><rect style="fill:#ffd75e" width="14" height="2" x="30" y="73"/></g><g><rect style="fill:#ffd75e" width="14" height="2" x="66" y="48"/></g><g><rect style="fill:#ffd75e" width="14" height="2" x="66" y="53"/></g><g><rect style="fill:#ffd75e" width="14" height="2" x="66" y="58"/></g><g><rect style="fill:#ffd75e" width="14" height="2" x="66" y="63"/></g><g><rect style="fill:#ffd75e" width="14" height="2" x="66" y="68"/></g><g><rect style="fill:#ffd75e" width="14" height="2" x="66" y="73"/></g></g><g><polygon style="fill:#fa9200" points="37 23 31 33 37 33"/></g><g><polygon style="fill:#fa9200" points="73 23 67 33 73 33"/></g></g></g></svg>